<svg width="1920" height="1134" viewBox="0 0 1920 1134" fill="none" xmlns="http://www.w3.org/2000/svg">
<g clip-path="url(#clip0_2922_29125)">
<path d="M1989.22 1125.5L2070 557.804L1506.71 627.373C1427.8 637.12 1348.01 637.419 1269.02 628.266L545.352 544.402L-35 531V1125.5L36.5436 1140.55C264.408 1188.48 501.118 1195.94 731.656 1163.2C906.732 1138.34 1086.02 1136.56 1261.5 1158.4L1400.71 1175.72C1598.24 1200.3 1798.72 1183.19 1989.22 1125.5Z" fill="#ADF7DB"/>
<path d="M689.072 575.515C690.075 573.957 690.687 572.176 690.966 570.339C690.966 570.061 691.021 569.727 690.91 569.448C690.52 568.78 689.518 569.17 688.905 569.615C687.568 570.561 686.343 571.675 685.229 572.843C685.619 569.003 686.065 565.163 686.454 561.378C686.566 560.543 686.622 559.652 686.454 558.817C686.232 557.983 685.619 557.203 684.784 557.036C683.67 556.814 682.667 557.649 681.888 558.539C678.936 562.101 677.711 566.721 675.761 570.895C675.26 570.061 674.703 569.281 674.146 568.558C674.035 568.391 673.868 568.224 673.645 568.112C672.921 567.779 672.197 568.669 672.085 569.504C671.863 570.728 672.085 572.009 672.642 573.122" fill="#A1FFDA"/>
<path d="M689.072 575.515C690.075 573.957 690.687 572.176 690.966 570.339C690.966 570.061 691.021 569.727 690.91 569.448C690.52 568.78 689.518 569.17 688.905 569.615C687.568 570.561 686.343 571.675 685.229 572.843C685.619 569.003 686.065 565.163 686.454 561.378C686.566 560.543 686.622 559.652 686.454 558.817C686.232 557.983 685.619 557.203 684.784 557.036C683.67 556.814 682.667 557.649 681.888 558.539C678.936 562.101 677.711 566.721 675.761 570.895C675.26 570.061 674.703 569.281 674.146 568.558C674.035 568.391 673.868 568.224 673.645 568.112C672.921 567.779 672.197 568.669 672.085 569.504C671.863 570.728 672.085 572.009 672.642 573.122" stroke="black" stroke-width="2" stroke-linecap="round" stroke-linejoin="round"/>
<path d="M606.841 673.531C596.276 672.662 585.949 668.708 575.384 666.81C547.025 661.75 518.904 671.159 491.181 675.666C461.948 680.41 435.099 673.215 406.104 670.843C394.904 669.894 383.624 670.29 372.503 669.262C361.382 668.234 355.9 671.792 351.452 680.568C350.737 681.992 350.181 683.494 350.419 685.075C350.896 688.238 354.471 689.82 357.569 690.61C368.531 693.378 380.049 692.429 391.17 694.327C402.291 696.224 413.969 701.917 417.623 712.591C418.417 715.043 418.814 717.573 420.006 719.866C421.595 722.87 424.534 725.084 427.632 726.508C439.23 731.963 452.734 728.484 465.444 726.428C480.616 723.977 496.106 723.74 511.517 723.503C526.928 723.266 541.465 726.508 556.637 727.219C575.066 728.01 593.257 727.061 611.687 727.535C630.672 728.01 649.657 730.224 668.643 729.749C674.521 729.591 680.876 729.038 685.483 725.321C690.091 721.605 691.679 713.777 687.151 709.982C683.815 707.215 677.778 706.582 677.381 702.312C676.984 698.992 680.558 696.778 683.577 695.354C689.455 692.587 695.413 689.899 701.291 687.131C702.244 686.657 703.357 686.182 703.913 685.234C704.469 684.364 704.389 683.257 704.23 682.229C702.642 673.848 692.553 670.448 684.053 669.341C666.418 667.048 648.386 667.522 630.91 670.922C624.873 672.108 618.915 673.531 612.799 673.769C610.813 673.769 608.906 673.769 607 673.61L606.841 673.531Z" fill="#7FEFC1"/>
<path d="M1207.55 697.141C1206.55 695.582 1205.93 693.801 1205.66 691.964C1205.66 691.686 1205.6 691.352 1205.71 691.074C1206.1 690.406 1207.1 690.795 1207.72 691.241C1209.05 692.187 1210.28 693.3 1211.39 694.469C1211 690.629 1210.56 686.788 1210.17 683.003C1210.06 682.168 1210 681.278 1210.17 680.443C1210.33 679.608 1211 678.829 1211.84 678.662C1212.95 678.439 1213.95 679.274 1214.73 680.165C1217.69 683.727 1218.91 688.347 1220.86 692.521C1221.36 691.686 1221.92 690.907 1222.48 690.183C1222.59 690.016 1222.75 689.849 1222.98 689.738C1223.7 689.404 1224.43 690.295 1224.54 691.129C1224.76 692.354 1224.54 693.634 1223.98 694.747" stroke="black" stroke-width="2" stroke-linecap="round" stroke-linejoin="round"/>
<path d="M1017.02 748.736C1016.8 745.619 1018.3 742.502 1020.81 740.665C1021.48 740.165 1022.31 739.719 1023.15 739.886C1024.43 740.109 1025.15 741.5 1025.54 742.725C1026.32 745.229 1026.77 747.901 1026.71 750.517C1030.22 744.172 1033.84 737.715 1039.36 733.096C1042.03 730.869 1045.2 729.088 1048.66 728.754C1052.11 728.421 1055.9 729.756 1057.79 732.706C1059.96 736.101 1059.24 740.554 1058.12 744.45C1057.12 747.901 1055.9 751.241 1054.39 754.469C1056.84 755.081 1059.18 753.523 1061.52 752.632C1063.86 751.741 1067.31 752.075 1067.87 754.469" stroke="black" stroke-width="2" stroke-linecap="round" stroke-linejoin="round"/>
<path d="M1128.3 762.15C1129.8 759.756 1131.53 757.252 1134.26 756.361C1136.93 755.471 1140.61 757.53 1140.05 760.313" stroke="black" stroke-width="2" stroke-linecap="round" stroke-linejoin="round"/>
<path d="M1573.63 643.931C1573.57 643.708 1573.24 644.098 1573.46 644.209C1573.68 644.32 1573.91 644.153 1574.07 643.987C1576.3 641.649 1578.7 639.478 1581.2 637.419C1582.04 636.751 1582.93 636.027 1583.99 635.86C1585.99 635.471 1587.94 636.974 1588.78 638.755C1589.61 640.536 1589.61 642.651 1589.61 644.654" stroke="black" stroke-width="2" stroke-linecap="round" stroke-linejoin="round"/>
<path d="M1305.52 658.959C1310.25 659.627 1314.87 655.675 1319.55 656.621C1320.33 656.788 1321.11 657.066 1321.89 657.011C1323.5 656.844 1324.56 655.23 1325.29 653.782C1325.51 653.393 1325.73 652.948 1326.12 652.781C1326.4 652.614 1326.74 652.614 1327.07 652.558C1330.3 652.335 1333.59 653.17 1336.37 654.84C1336.76 651.779 1334.48 648.384 1332.3 646.38C1330.91 645.044 1329.35 643.875 1327.68 642.929C1326.01 641.983 1323.67 640.257 1322.67 640.591C1327.57 638.81 1333.31 639.645 1337.54 642.706C1341.77 645.768 1344.33 651 1344.11 656.176C1344.5 652.948 1344.95 649.664 1346.17 646.603C1347.4 643.541 1349.57 640.758 1352.58 639.478C1353.3 639.144 1354.3 639.033 1354.69 639.701C1354.86 639.979 1354.86 640.313 1354.86 640.647C1354.86 643.263 1354.75 645.935 1354.47 648.551C1354.58 647.66 1357.42 646.102 1358.15 645.712C1359.65 644.877 1361.54 643.486 1362.71 645.322C1364.55 648.328 1362.32 652.224 1361.04 655.007C1361.04 654.562 1363.66 653.17 1364.16 652.948C1365.5 652.28 1367.06 651.89 1368.56 651.723C1368.9 651.723 1369.29 651.723 1369.56 651.89C1369.9 652.113 1370.06 652.502 1370.12 652.836C1370.29 653.56 1370.18 654.283 1369.9 654.951" fill="#A1FFDA"/>
<path d="M1305.52 658.959C1310.25 659.627 1314.87 655.675 1319.55 656.621C1320.33 656.788 1321.11 657.066 1321.89 657.011C1323.5 656.844 1324.56 655.23 1325.29 653.782C1325.51 653.393 1325.73 652.948 1326.12 652.781C1326.4 652.614 1326.74 652.614 1327.07 652.558C1330.3 652.335 1333.59 653.17 1336.37 654.84C1336.76 651.779 1334.48 648.384 1332.3 646.38C1330.91 645.044 1329.35 643.875 1327.68 642.929C1326.01 641.983 1323.67 640.257 1322.67 640.591C1327.57 638.81 1333.31 639.645 1337.54 642.706C1341.77 645.768 1344.33 651 1344.11 656.176C1344.5 652.948 1344.95 649.664 1346.17 646.603C1347.4 643.541 1349.57 640.758 1352.58 639.478C1353.3 639.144 1354.3 639.033 1354.69 639.701C1354.86 639.979 1354.86 640.313 1354.86 640.647C1354.86 643.263 1354.75 645.935 1354.47 648.551C1354.58 647.66 1357.42 646.102 1358.15 645.712C1359.65 644.877 1361.54 643.486 1362.71 645.322C1364.55 648.328 1362.32 652.224 1361.04 655.007C1361.04 654.562 1363.66 653.17 1364.16 652.948C1365.5 652.28 1367.06 651.89 1368.56 651.723C1368.9 651.723 1369.29 651.723 1369.56 651.89C1369.9 652.113 1370.06 652.502 1370.12 652.836C1370.29 653.56 1370.18 654.283 1369.9 654.951" stroke="black" stroke-width="2" stroke-linecap="round" stroke-linejoin="round"/>
<path d="M341.389 505.859C339.202 509.525 337.145 513.318 335.022 517.112C345.118 526.694 353.156 538.204 357.915 551.001C361.195 550.358 364.41 549.522 367.561 548.493C362.995 532.16 355.086 516.277 341.324 505.859H341.389Z" fill="#CCBCF3"/>
<path d="M353.221 491.262C351.42 492.741 349.813 494.349 348.27 496.085C362.288 508.625 376.306 523.736 382.544 541.613C386.788 539.041 390.775 535.954 394.247 532.417C388.396 514.348 374.249 499.558 360.166 486.632C357.722 487.918 355.343 489.462 353.157 491.198L353.221 491.262Z" fill="#CCBCF3"/>
<path d="M371.419 482.71C385.566 491.519 396.305 504.573 403.893 519.363C405.115 517.048 406.144 514.605 407.044 512.033C407.494 510.747 407.88 509.461 408.137 508.11C401.385 498.979 391.868 491.134 385.052 482.067C380.486 481.617 375.92 481.809 371.419 482.71Z" fill="#CCBCF3"/>
<path d="M399.457 486.118C394.891 483.932 390.004 482.581 385.053 482.067C391.869 491.134 401.386 498.979 408.138 508.11C410.003 499.493 408.395 490.426 399.457 486.118Z" fill="#CCBCF3"/>
<path d="M407.044 512.033C410.388 502.323 409.745 491.134 399.456 486.118C384.538 478.916 366.146 480.716 353.285 491.262C335.602 505.731 332.836 536.276 308.915 542.899C309.044 542.899 317.725 548.172 319.268 548.687C351.292 559.361 395.212 546.822 407.109 512.033H407.044Z" stroke="black" stroke-width="2.18509" stroke-linecap="round" stroke-linejoin="round"/>
<path d="M369.169 487.725C362.031 488.561 355.73 493.32 351.164 498.657C346.341 504.316 341.582 511.132 339.911 518.463C339.203 521.614 342.933 525.601 346.084 523.157C351.292 519.17 354.958 514.026 359.266 509.074C361.195 506.888 362.996 504.509 365.311 502.644C367.433 500.908 369.812 500.007 372.256 498.786C377.336 496.278 375.15 487.082 369.234 487.725H369.169Z" fill="#DDD6F2"/>
<path d="M371.42 482.709C367.561 483.481 363.767 484.832 360.23 486.696C374.313 499.557 388.396 514.412 394.312 532.481C398.106 528.687 401.321 524.315 403.893 519.428C396.306 504.637 385.631 491.584 371.42 482.774V482.709Z" fill="black"/>
<path d="M377.658 522.9C371.742 524.058 367.433 528.044 362.032 530.552C356.952 532.932 351.357 534.539 346.792 537.883C345.248 539.041 344.798 541.613 346.792 542.706C353.222 546.114 360.939 544.571 367.305 541.677C373.735 538.783 380.616 534.668 382.095 527.401C382.674 524.572 380.423 522.386 377.594 522.9H377.658Z" fill="#B897F0"/>
<path d="M308.851 542.899C308.979 542.899 317.66 548.172 319.204 548.686C331.229 552.673 344.926 553.445 357.979 550.937C353.221 538.205 345.183 526.63 335.087 517.048C328.721 528.43 321.969 539.234 308.851 542.899Z" fill="black"/>
<path d="M341.389 505.859C355.15 516.277 362.995 532.16 367.625 548.493C372.898 546.757 377.914 544.506 382.608 541.677C376.37 523.8 362.352 508.689 348.334 496.149C345.761 499.107 343.511 502.387 341.453 505.859H341.389Z" fill="black"/>
<path d="M698.86 98.681C693.715 100.224 688.699 102.346 684.069 105.047C682.912 98.8739 682.076 94.2439 680.275 89.6783C696.352 77.7819 703.618 92.1862 698.795 98.681H698.86Z" fill="#6FF7C4"/>
<path d="M427.686 367.347C433.28 374.099 432.444 381.815 427.557 388.182C424.728 391.847 419.584 394.676 413.925 394.226C413.925 399.113 409.938 403.422 404.665 405.801C399.392 408.18 393.09 408.823 386.917 408.759C377.014 408.695 366.018 406.38 359.973 399.885C359.266 400.785 358.494 401.621 357.658 402.457C354.571 405.544 350.777 408.18 346.597 410.367C340.746 413.325 334.122 415.318 327.113 416.219C323.834 416.669 320.425 416.797 317.082 416.733C312.837 416.604 308.593 416.09 304.414 415.061C299.141 413.775 293.868 411.781 290.138 408.438C286.472 405.094 284.929 398.985 286.987 395.127C278.756 395.77 271.811 393.583 267.374 388.825C258.371 379.115 265.702 362.267 280.364 360.659C285.058 360.145 290.974 361.302 295.282 363.167C295.475 363.231 295.668 363.296 295.861 363.296C295.99 363.296 296.054 363.167 296.118 363.103C299.912 358.408 302.484 353.586 307.629 349.663C312.516 345.933 318.496 343.104 325.055 341.496C338.238 338.281 352.578 340.532 365.246 345.547C367.304 346.383 369.297 347.284 371.226 348.313C378.107 352.042 382.801 358.666 383.058 364.582C385.309 361.817 391.418 359.887 393.604 359.373C397.463 358.408 401.707 358.344 405.822 358.601C413.86 359.116 422.863 361.688 427.622 367.411L427.686 367.347Z" fill="#A1FFDA"/>
<path d="M503.051 363.939C498.228 357.637 493.663 351.078 489.483 344.326C486.075 343.49 482.667 342.654 479.323 341.689C474.05 340.21 468.005 337.509 461.768 334.165C462.925 336.159 464.083 338.152 465.304 340.081C470.77 348.634 476.3 357.187 481.766 365.739C488.454 362.652 495.656 362.652 503.051 363.874V363.939Z" fill="#B897F0"/>
<path d="M599.83 361.495C603.303 354.486 605.875 347.026 607.354 339.374C599.702 342.396 595.972 344.261 586.005 346.255C583.883 353.135 579.96 359.501 575.009 365.289C582.79 366.639 591.342 364.067 599.83 361.431V361.495Z" fill="#B897F0"/>
<path d="M715.514 681.476C711.142 679.418 706.64 677.232 702.46 675.174C690.821 669.451 678.796 663.599 665.871 663.02C656.225 662.57 646.708 665.142 637.062 666.364C626.645 667.65 612.434 667.2 604.781 658.84C598.158 651.574 598.158 640.642 597.258 631.382C594.814 606.754 577.516 587.269 562.019 569.457C544.335 549.072 533.081 528.623 534.367 501.101C535.975 467.662 541.698 429.015 565.105 403.293C572.95 394.676 581.632 386.702 589.155 377.828C593.399 372.813 596.936 367.347 599.894 361.495C591.406 364.067 582.853 366.639 575.072 365.353C567.935 373.648 558.675 380.851 549.415 386.702C546.2 388.76 543.113 390.496 540.155 392.94C534.239 397.699 531.731 395.962 526.779 391.011C521.828 386.124 517.134 380.979 512.568 375.706C509.289 371.848 506.138 367.925 503.051 363.938C495.656 362.717 488.454 362.717 481.766 365.803C483.952 369.211 486.139 372.684 488.389 376.092C495.656 387.474 504.53 398.534 500.093 412.939C495.849 426.7 486.91 439.111 476.943 449.335C468.841 457.695 457.973 461.553 446.656 463.804C433.795 466.376 420.484 465.797 407.494 463.933C390.26 461.425 371.097 454.93 361.13 439.625C352.835 426.957 353.414 414.418 357.722 402.393C354.635 405.479 350.841 408.116 346.662 410.302C346.083 414.739 345.826 419.241 345.954 423.742C346.019 427.536 346.211 431.651 343.832 434.609C343.061 435.51 342.032 436.281 340.874 436.41C339.074 436.539 337.466 435.188 336.308 433.838C331.936 428.822 329.364 422.584 327.242 416.218C323.962 416.668 320.554 416.797 317.21 416.733C318.367 420.012 319.589 423.228 320.94 426.443C327.949 443.033 337.852 458.595 351.87 470.041C375.406 489.204 407.172 492.998 436.367 494.349C443.633 494.67 451.028 495.378 457.716 498.336C470.063 503.737 472.699 515.698 472.828 528.173C473.085 545.342 477.072 562.962 485.11 578.202C490.769 588.877 497.456 599.101 501.186 610.612C505.687 624.695 504.723 641.542 496.17 653.889C493.47 657.812 489.611 661.22 484.917 661.927C482.924 662.249 480.866 662.056 478.808 661.863C449.935 659.355 421.191 669.708 395.083 680.833C388.91 683.469 382.93 686.685 377.978 691.25C373.67 695.173 371.676 700.767 367.818 704.754C369.425 703.147 387.109 685.849 411.867 681.026C437.846 675.946 463.825 685.077 484.981 688.935C500.35 691.7 516.105 690.8 531.474 689.192C538.804 688.421 545.492 687.135 552.694 688.356C556.938 689.064 560.475 689.45 564.462 691.057C572.886 694.53 582.21 697.166 591.406 695.944C599.83 694.851 606.839 689.964 614.298 686.427C620.214 683.598 626.581 685.013 632.818 684.948C638.863 684.948 644.457 682.698 650.309 681.219C663.62 677.746 676.224 677.682 689.278 681.99C693.072 683.276 696.801 684.82 700.595 685.977C706.64 687.842 713.649 689.643 720.016 689.321C724.967 689.064 729.854 688.035 734.484 686.17C727.411 686.62 721.816 684.562 715.579 681.604L715.514 681.476Z" fill="#FCB9F2"/>
<path d="M405.308 309.087H404.923C401.514 309.923 397.913 310.63 394.634 310.823C372.384 312.366 350.907 312.045 331.036 301.82C325.506 298.991 322.998 297.126 316.696 299.505C307.565 302.913 298.369 303.749 288.724 303.363C270.204 302.592 253.935 291.789 242.681 277.384C215.481 242.595 226.67 184.078 263.709 160.735C282.165 149.096 306.086 143.887 326.921 151.218C330.329 150.318 333.801 149.868 337.274 149.868C354.057 126.654 384.345 114.05 412.704 117.651C420.613 94.9514 436.625 73.988 440.355 80.933C442.412 84.727 442.541 92.8294 441.769 101.511C473.857 62.6061 523.179 37.913 573.723 36.6912C601.438 36.0482 629.99 42.3501 652.625 58.4263C660.856 64.278 668.187 71.2872 674.36 79.261C677.254 82.9907 679.118 86.2703 680.405 89.5498C682.205 94.1155 683.041 98.8097 684.199 104.919C688.829 102.218 693.78 100.032 698.989 98.5525C711.657 94.7585 725.418 94.8228 737.7 99.71C754.934 106.591 768.116 123.76 768.245 142.28C789.466 138.55 813.001 150.511 828.756 163.886C842.774 175.783 857.05 193.852 856.857 213.079C856.664 229.734 845.475 244.782 831.585 253.977C819.946 261.822 786.443 272.047 786.443 272.047C786.443 272.047 787.344 276.227 787.601 277.77C788.115 280.857 787.151 327.413 715.965 325.356C679.89 324.327 655.904 302.656 655.904 302.656C655.904 302.656 644.072 324.97 607.547 339.246C599.895 342.268 591.149 344.904 581.182 346.898C579.124 347.348 577.002 347.734 574.816 348.055C546.586 352.814 517.52 350.756 489.612 344.133C486.204 343.297 482.796 342.461 479.452 341.496C474.179 340.017 468.134 337.316 461.897 333.973C449.872 327.542 437.332 318.925 428.78 312.688C427.044 314.81 425.114 316.803 422.992 318.475C419.391 321.304 413.475 325.613 408.781 323.684C405.051 322.14 403.444 317.575 404.087 313.588C404.344 311.98 404.858 310.373 405.501 308.894L405.308 309.087Z" fill="#6FF7C4"/>
<path d="M355.87 422.006C355.355 418.598 355.355 415.447 355.677 412.039C355.998 408.63 356.063 408.502 356.32 406.766C356.577 405.029 356.77 401.943 357.285 401.75C352.655 403.422 349.825 408.116 345.581 410.624C345.645 414.997 345.774 419.369 345.838 423.742C345.903 428.115 345.71 426.893 347.51 428.115C349.311 429.337 350.468 429.272 351.947 428.822C355.098 427.986 356.256 425.028 355.806 422.07L355.87 422.006Z" fill="#B897F0"/>
<path d="M666.515 319.954C665.164 331.722 674.36 345.355 689.922 345.74C689.664 331.079 683.427 322.784 666.515 319.954Z" fill="#4EFF84" stroke="black" stroke-width="2.18509" stroke-linecap="round" stroke-linejoin="round"/>
<path d="M341.967 142.022C330.199 143.18 316.695 133.727 316.566 118.165C331.228 118.615 339.395 125.046 341.967 142.022Z" fill="#4EFF84" stroke="black" stroke-width="2.18509" stroke-linecap="round" stroke-linejoin="round"/>
<path d="M488.326 149.867V150.318C485.626 150.318 482.603 150.961 479.324 152.761V152.633C475.915 148.324 474.115 141.636 477.459 131.605C486.011 135.527 488.133 143.566 488.326 149.867Z" fill="#4EFF84"/>
<path d="M563.241 179.898C557.839 181.184 551.666 184.206 546.715 189.351C540.799 179.255 544.721 163.95 544.721 163.95C544.721 163.95 561.633 168.516 563.305 179.962L563.241 179.898Z" fill="#4EFF84"/>
<path d="M751.139 210.636C750.561 205.105 748.31 198.611 743.873 193.016C754.612 188.45 769.338 194.238 769.338 194.238C769.338 194.238 762.65 210.443 751.139 210.636Z" fill="#4EFF84"/>
<path d="M632.625 317.189C635.455 314.617 638.027 311.851 640.213 308.829C641.178 307.479 642.142 306.064 642.528 304.392C643.043 302.013 641.821 299.441 640.02 297.897C637.705 295.968 634.361 295.775 631.468 296.547C622.979 298.926 615.52 305.099 607.032 307.929C597.45 311.144 587.29 312.816 577.13 312.687C559.318 312.559 541.184 311.273 523.564 308.636C518.355 307.865 513.211 307.993 508.131 307.35C503.051 306.707 495.656 305.357 493.984 312.044C493.469 314.166 494.112 316.481 495.206 318.346C498.292 323.748 504.337 326.577 510.189 328.764C530.252 336.352 552.244 340.21 573.915 338.409C588.319 337.188 602.916 334.615 615.97 328.249C621.951 325.356 627.674 321.626 632.689 317.124L632.625 317.189Z" fill="#52E2B2"/>
<path d="M632.11 337.123C632.56 337.252 632.753 337.252 632.753 337.252C632.56 337.252 632.432 337.187 632.239 337.123C632.239 337.123 632.239 337.123 632.175 337.123H632.11Z" fill="#49D6AA"/>
<path d="M474.629 262.594C474.822 262.658 475.015 262.787 475.208 262.851C475.208 262.851 475.079 262.787 474.629 262.594Z" fill="#52E2B2"/>
<path d="M475.208 262.851C475.143 262.851 472.185 261.758 471.671 261.694C469.742 261.436 469.034 261.501 467.041 261.694C467.555 261.694 466.848 261.694 466.334 261.758C465.498 261.822 464.662 261.886 463.761 261.886C462.218 261.886 460.675 261.886 459.196 261.758C458.939 261.758 458.746 261.758 458.617 261.758C458.617 261.758 458.488 261.758 458.295 261.758C457.46 261.629 456.624 261.436 455.788 261.243C454.309 260.922 452.83 260.472 451.351 259.957C451.093 259.893 450.965 259.829 450.9 259.829C450.772 259.829 450.643 259.7 450.45 259.636C449.807 259.314 449.228 259.057 448.65 258.736C447.171 257.964 445.692 257.064 444.341 256.035C443.055 255.134 441.769 254.491 440.419 254.041C438.039 252.948 435.467 252.627 432.638 253.012C431.352 253.205 430.066 253.398 428.78 253.591C431.738 253.012 428.265 253.591 427.815 253.591C426.079 253.784 424.214 253.655 422.542 254.234C422.478 254.234 422.349 254.234 422.285 254.234C420.42 254.363 418.555 254.491 416.69 254.491C414.632 254.491 412.575 254.491 410.517 254.491C409.552 254.491 408.652 254.363 407.688 254.299C407.495 254.299 407.302 254.299 407.173 254.299C407.173 254.299 407.045 254.299 406.98 254.299C403.186 253.591 399.457 252.691 395.791 251.34C395.47 251.212 395.212 251.083 394.891 251.019C393.926 250.633 394.312 250.762 395.984 251.469C395.084 251.469 393.219 250.247 392.576 249.926C392.383 249.861 392.19 249.733 391.997 249.669C391.869 249.669 391.74 249.54 391.483 249.411C390.583 248.961 389.747 248.575 388.846 248.125C385.824 246.518 383.123 244.524 380.165 242.724C378.686 241.823 377.207 240.923 375.792 239.894C375.342 239.573 374.956 239.315 374.571 238.994C373.606 238.222 371.162 236.293 372.127 237.065C371.998 237.001 371.291 236.422 370.97 236.165C370.584 235.843 369.812 235.2 369.683 235.136C368.269 233.914 366.854 232.628 365.568 231.213C360.231 225.747 352.128 231.47 353.479 238.287C355.086 246.389 358.366 253.72 363.317 260.343C369.49 268.574 378.557 274.297 387.946 278.091C396.756 281.628 407.173 283.557 416.69 282.721C422.22 282.207 427.815 281.435 432.959 279.313C434.953 278.477 436.818 277.641 438.554 276.677C443.12 278.863 448.007 280.471 452.894 281.178C460.932 282.4 472.507 283.557 478.23 276.677C482.41 271.597 480.738 265.488 475.079 262.851H475.208Z" fill="#52E2B2"/>
<path d="M302.999 280.407C302.485 280.085 301.97 279.699 301.456 279.378C302.549 280.278 302.034 279.892 299.912 278.22C299.334 277.834 296.826 276.677 296.697 276.613C294.832 275.712 292.967 274.683 291.167 273.655C290.267 273.14 289.431 272.626 288.595 272.111C288.273 271.918 287.18 271.082 287.116 271.018C285.701 269.796 284.351 268.446 283.129 267.031C283.193 267.031 281.971 265.552 281.907 265.424C281.2 264.459 280.492 263.43 279.849 262.401C279.206 261.372 278.692 260.279 278.113 259.25C277.984 258.993 277.92 258.8 277.791 258.672C277.791 258.479 277.663 258.286 277.599 257.964C276.12 253.463 274.448 248.447 272.904 244.524C270.847 239.059 263.773 237.708 260.429 242.917C252.777 254.878 257.857 271.211 266.281 281.435C274.319 291.21 288.337 299.376 301.07 295.004C307.693 292.753 308.851 284.265 302.999 280.407Z" fill="#52E2B2"/>
<path d="M415.853 161.25C415.532 158.935 414.246 156.427 412.831 154.562C412.831 154.562 411.159 152.311 411.609 152.954C411.416 152.633 411.159 152.311 410.966 151.99C410.195 150.704 409.423 149.417 408.716 148.131C408.651 148.003 408.266 147.103 408.073 146.717C407.944 146.202 407.687 145.495 407.751 145.559C407.43 144.273 407.044 142.987 406.722 141.701C406.594 141.122 406.465 140.608 406.336 140.029C406.336 140.029 406.336 138.486 406.336 138.357C406.208 130.962 395.983 127.875 392.254 134.563C388.46 141.186 387.624 148.324 389.939 155.655C392.318 163.243 400.163 173.853 409.487 171.281C413.989 170.059 416.625 165.88 415.982 161.314L415.853 161.25Z" fill="#52E2B2"/>
<path d="M699.182 140.929C695.324 135.849 691.273 131.605 686.064 127.811C676.161 120.609 663.879 117.908 652.625 123.567C647.288 126.268 648.253 135.721 654.362 136.814C656.484 137.2 658.477 137.907 660.535 138.55C662.978 139.322 662.528 139.064 664.779 140.286C666.772 141.379 668.83 142.28 670.759 143.566C671.467 144.016 672.174 144.53 672.881 145.045C672.946 145.173 674.232 146.267 674.425 146.395C677.64 149.289 680.598 152.504 683.556 155.719C687.414 159.964 691.723 164.015 697.703 164.401C700.983 164.593 704.198 161.893 705.034 158.87C706.706 152.504 702.976 145.945 699.182 140.994V140.929Z" fill="#52E2B2"/>
<path d="M765.351 220.024C762.521 220.796 759.627 221.568 756.991 222.854C756.477 223.111 755.962 223.432 755.448 223.69C754.162 224.011 752.811 224.397 751.589 224.783C751.011 224.783 750.496 224.847 749.917 224.847C748.696 224.847 747.474 225.04 746.252 225.04C745.673 225.04 745.095 225.04 744.452 225.04C744.259 225.04 744.13 225.04 744.066 225.04C743.873 225.04 743.68 225.04 743.487 224.976C742.651 224.847 741.815 224.783 740.979 224.718C740.722 224.718 738.986 224.461 740.207 224.654C732.491 223.304 727.346 231.535 732.619 237.644C737.957 243.753 746.381 246.646 754.419 245.875C758.856 245.425 763.421 244.589 767.408 242.467C772.038 240.023 774.739 235.972 776.604 231.213C779.176 224.59 771.588 218.352 765.415 220.024H765.351Z" fill="#52E2B2"/>
<path d="M502.345 84.4054C498.293 82.6048 494.95 82.1547 490.577 83.1836C487.04 83.9552 483.889 86.013 481.253 88.4566C476.558 92.9579 473.986 99.7742 474.372 106.269C474.565 109.741 476.88 112.764 480.481 113.15C483.632 113.535 487.683 111.606 488.198 108.134C488.648 105.112 489.677 103.247 491.541 101.832C492.377 101.189 491.927 101.51 492.506 101.318C493.213 100.996 494.049 100.739 494.821 100.546C496.621 100.031 498.551 99.7742 500.351 99.2598C506.589 97.6522 508.904 87.3634 502.28 84.4697L502.345 84.4054Z" fill="#52E2B2"/>
<path d="M333.416 395.383C331.551 393.969 328.85 393.712 326.535 393.776C325.378 393.776 324.22 394.097 323.127 394.29C323.449 394.226 321.391 394.355 321.391 394.355C318.047 394.355 315.603 394.805 312.452 393.647C307.951 391.975 303.707 397.891 306.215 401.75C309.173 406.251 313.61 410.431 319.076 411.524C325.378 412.81 335.602 411.524 336.824 403.679C337.403 400.013 336.31 397.57 333.416 395.383Z" fill="#6FF7C4"/>
<path d="M406.595 379.95C402.158 377.314 397.656 379.371 394.763 383.037C393.669 384.516 393.862 384.516 392.512 385.673C393.219 385.095 391.74 386.188 391.547 386.316C390.904 386.702 390.197 387.152 389.554 387.538C387.175 388.824 384.281 389.596 381.58 389.532C377.722 389.467 375.664 394.483 378.429 397.12C382.995 401.492 388.396 403.357 394.698 402.457C400.614 401.621 406.981 397.184 409.681 391.718C411.739 387.538 410.839 382.394 406.595 379.886V379.95Z" fill="#6FF7C4"/>
<path d="M354.122 357.894C350.264 355.065 344.09 355.45 339.653 356.865C335.474 358.151 332.258 361.238 330.072 364.968C327.693 369.083 330.651 375.771 335.988 375.192C336.438 375.192 339.332 375.256 337.467 374.999C338.753 375.192 340.103 375.321 341.39 375.514C340.618 375.449 344.798 376.735 341.904 375.642C344.412 376.607 346.148 377.314 348.849 377.571C353.222 377.957 358.045 374.035 359.009 369.79C360.102 364.839 358.109 360.788 354.186 357.83L354.122 357.894Z" fill="#6FF7C4"/>
<path d="M332.847 428.886C332.333 427.472 331.561 426.057 330.854 424.771C329.632 422.585 328.474 420.334 327.124 418.276C324.938 414.932 316.321 415.704 318.443 420.462C320.565 425.221 324.423 433.131 327.381 439.497C328.088 437.053 329.568 434.931 331.625 433.452C332.268 433.002 332.976 432.552 333.233 431.78C333.426 431.266 333.297 430.751 333.233 430.237C333.104 429.787 332.976 429.337 332.783 428.886H332.847Z" fill="#B897F0"/>
<path d="M513.019 658.969C512.569 657.362 511.09 656.14 509.353 656.204C507.039 656.204 505.624 658.262 504.145 659.741C501.444 662.506 497.521 664.114 494.049 665.657C492.699 666.236 492.699 668.615 494.049 669.194C497.843 670.866 501.83 670.673 505.559 668.744C508.71 667.136 514.241 663.278 513.019 658.969Z" fill="#B897F0"/>
<path d="M495.785 532.932C496.493 527.466 497.071 521.936 496.493 516.405C495.464 505.731 490.384 495.764 482.474 488.561C479.516 485.861 477.201 484.639 473.407 483.546C472.314 483.224 460.032 481.424 460.096 481.681C460.675 484.575 460.996 487.533 461.125 490.491C461.253 493.449 460.739 494.67 462.797 496.214C466.526 498.979 471.349 500.072 474.629 503.416C478.809 507.66 480.352 513.962 481.381 519.685C481.702 521.486 482.153 523.479 482.217 525.344C482.281 527.209 481.831 528.366 481.831 529.974C481.831 534.154 482.345 538.398 483.053 542.513C484.532 550.873 487.04 559.04 489.612 567.078C490.191 568.878 490.769 570.743 491.541 572.479C492.313 574.151 493.92 576.016 495.657 575.437C495.785 573.765 495.528 572.093 495.271 570.422C494.049 561.676 493.406 552.48 494.242 543.671C495.078 534.861 495.142 536.404 495.592 532.803L495.785 532.932Z" fill="#B897F0"/>
<path d="M461.703 334.165C467.941 337.509 473.985 340.21 479.258 341.689C482.602 342.654 486.01 343.49 489.419 344.326C517.327 350.949 546.393 353.007 574.622 348.248C576.809 347.862 578.931 347.477 580.989 347.091C590.956 345.097 599.701 342.397 607.354 339.438C643.879 325.099 655.711 302.849 655.711 302.849C655.711 302.849 679.697 324.52 715.772 325.549C786.957 327.671 787.922 281.05 787.407 277.963C787.15 276.42 786.25 272.24 786.25 272.24C786.25 272.24 819.753 262.015 831.392 254.17C845.282 244.975 856.471 229.927 856.664 213.272C856.856 193.981 842.581 175.976 828.562 164.079C812.808 150.639 789.272 138.743 768.051 142.473C767.923 123.953 754.676 106.784 737.507 99.9029C725.289 95.0158 711.528 95.0158 698.795 98.7454" stroke="black" stroke-width="2.18509" stroke-linecap="round" stroke-linejoin="round"/>
<path d="M428.522 312.816H428.587C437.139 319.118 449.743 327.735 461.704 334.165" stroke="black" stroke-width="2.18509" stroke-linecap="round" stroke-linejoin="round"/>
<path d="M326.921 151.347C306.086 144.016 282.165 149.225 263.709 160.864C226.67 184.206 215.481 242.659 242.681 277.513C253.935 291.917 270.204 302.72 288.724 303.492C298.369 303.878 307.565 303.042 316.696 299.634C322.998 297.254 325.506 299.055 331.036 301.949C350.907 312.173 372.384 312.43 394.634 310.951C397.849 310.694 401.514 309.987 404.923 309.151" stroke="black" stroke-width="2.18509" stroke-linecap="round" stroke-linejoin="round"/>
<path d="M412.639 117.715C384.28 114.114 353.993 126.718 337.209 149.932" stroke="black" stroke-width="2.18509" stroke-linecap="round" stroke-linejoin="round"/>
<path d="M698.86 98.681C693.716 100.224 688.7 102.346 684.07 105.047C682.912 98.874 682.076 94.244 680.276 89.6784C678.99 86.3345 677.125 83.1193 674.231 79.3896C668.058 71.4158 660.727 64.4066 652.496 58.5548C629.861 42.4786 601.374 36.1767 573.594 36.8198C523.051 38.0416 473.793 62.6703 441.641 101.639" stroke="black" stroke-width="2.18509" stroke-linecap="round" stroke-linejoin="round"/>
<path d="M489.419 344.326C496.3 355.322 504.08 365.803 512.504 375.706C517.006 380.979 521.764 386.124 526.716 391.011C531.667 395.898 534.175 397.699 540.091 392.876C543.049 390.497 546.136 388.696 549.351 386.638C564.977 376.671 580.86 363.038 586.005 346.255" stroke="black" stroke-width="2.18509" stroke-linecap="round" stroke-linejoin="round"/>
<path d="M367.754 704.626C371.548 700.639 373.542 695.044 377.915 691.122C382.866 686.62 388.846 683.341 395.02 680.704C421.127 669.58 449.872 659.226 478.745 661.734C480.802 661.927 482.796 662.12 484.854 661.799C489.548 661.091 493.406 657.683 496.107 653.761C504.659 641.414 505.624 624.566 501.123 610.483C497.457 598.973 490.77 588.748 485.046 578.074C477.008 562.898 473.021 545.214 472.764 528.045C472.571 515.634 469.999 503.609 457.653 498.207C450.965 495.313 443.57 494.606 436.303 494.22C407.109 492.87 375.342 489.076 351.807 469.913C337.788 458.467 327.885 442.841 320.876 426.314C319.526 423.099 318.304 419.884 317.146 416.604" stroke="black" stroke-width="2.18509" stroke-linecap="round" stroke-linejoin="round"/>
<path d="M607.355 339.374C604.589 353.457 598.352 366.832 589.092 377.829C581.568 386.703 572.887 394.741 565.042 403.293C541.635 429.015 535.848 467.662 534.304 501.101C533.018 528.688 544.272 549.072 561.955 569.457C577.453 587.334 594.815 606.818 597.259 631.383C598.159 640.578 598.159 651.51 604.782 658.841C612.435 667.2 626.646 667.651 637.063 666.364C646.645 665.143 656.162 662.57 665.872 663.021C678.797 663.599 690.887 669.451 702.461 675.174C706.641 677.232 711.207 679.418 715.515 681.476C721.753 684.37 727.347 686.492 734.421 686.042C729.855 687.907 724.904 688.935 719.952 689.128C713.586 689.386 706.577 687.649 700.532 685.785C696.674 684.563 693.009 683.019 689.15 681.798C676.096 677.425 663.493 677.489 650.182 681.026C644.394 682.569 638.8 684.756 632.691 684.756C626.453 684.756 620.087 683.405 614.171 686.235C606.712 689.836 599.638 694.659 591.278 695.816C582.083 697.038 572.823 694.466 564.335 690.929C560.348 689.257 556.811 688.935 552.567 688.228C545.365 687.006 538.613 688.292 531.346 689.064C515.913 690.672 500.158 691.572 484.854 688.807C463.698 684.949 437.718 675.817 411.739 680.897C386.982 685.72 369.298 703.018 367.69 704.626" stroke="black" stroke-width="2.18509" stroke-linecap="round" stroke-linejoin="round"/>
<path d="M461.704 334.166C462.862 336.159 464.019 338.152 465.241 340.082C472.893 352.042 480.61 364.067 488.262 376.028C495.593 387.41 504.402 398.47 499.965 412.875C495.721 426.636 486.783 439.047 476.816 449.271C468.713 457.631 457.91 461.489 446.528 463.74C433.667 466.312 420.356 465.733 407.366 463.868C390.133 461.361 370.97 454.866 361.003 439.561C352.707 426.893 353.286 414.354 357.595 402.329" stroke="black" stroke-width="2.18509" stroke-linecap="round" stroke-linejoin="round"/>
<path d="M317.082 416.604C312.837 416.476 308.593 415.961 304.414 414.932C299.141 413.646 293.868 411.653 290.138 408.309C286.472 404.965 284.929 398.856 286.987 394.998C278.756 395.641 271.811 393.455 267.374 388.696C258.371 378.986 265.702 362.138 280.364 360.53C285.058 360.016 290.974 361.173 295.282 363.038C295.475 363.103 295.668 363.167 295.861 363.167C295.99 363.167 296.054 363.038 296.118 362.974C299.912 358.28 302.484 353.457 307.629 349.534C312.516 345.805 318.496 342.975 325.055 341.368C338.238 338.152 352.578 340.403 365.246 345.419C367.304 346.255 369.297 347.155 371.226 348.184C378.107 351.914 382.801 358.537 383.058 364.453C385.309 361.688 391.418 359.759 393.604 359.244C397.463 358.28 401.707 358.215 405.822 358.473C413.86 358.987 422.863 361.559 427.622 367.282C433.216 374.034 432.38 381.751 427.493 388.117C424.664 391.783 419.519 394.612 413.86 394.162C413.86 399.049 409.873 403.357 404.6 405.737C399.327 408.116 393.026 408.759 386.852 408.695C376.949 408.63 365.953 406.316 359.909 399.821C359.201 400.721 358.43 401.557 357.594 402.393C354.507 405.48 350.713 408.116 346.533 410.302C340.681 413.26 334.058 415.254 327.049 416.154C323.769 416.604 320.361 416.733 317.017 416.669L317.082 416.604Z" stroke="black" stroke-width="2.18509" stroke-linecap="round" stroke-linejoin="round"/>
<path d="M327.113 416.154C329.235 422.521 331.808 428.694 336.18 433.774C337.402 435.124 338.945 436.539 340.81 436.41C341.968 436.282 342.997 435.575 343.768 434.61C346.148 431.716 345.955 427.536 345.89 423.742C345.826 419.241 346.019 414.74 346.598 410.303" stroke="black" stroke-width="2.18509" stroke-linecap="round" stroke-linejoin="round"/>
<path d="M351.806 153.083C347.241 150.897 342.289 149.932 337.273 149.932C333.801 149.932 330.328 150.447 326.92 151.283C312.516 154.948 299.462 165.494 295.732 176.747" stroke="black" stroke-width="2.18509" stroke-linecap="round" stroke-linejoin="round"/>
<path d="M368.848 231.085C369.169 246.775 414.44 261.051 431.545 243.817C433.603 255.971 458.682 259.636 464.983 254.428" stroke="black" stroke-width="2.18509" stroke-linecap="round" stroke-linejoin="round"/>
<path d="M599.573 156.105C620.665 130.705 669.022 148.517 673.845 163.307" stroke="black" stroke-width="2.18509" stroke-linecap="round" stroke-linejoin="round"/>
<path d="M680.275 89.6782C696.352 77.7818 703.618 92.1861 698.795 98.6809" stroke="black" stroke-width="2.18509" stroke-linecap="round" stroke-linejoin="round"/>
<path d="M746.252 267.031C765.093 284.136 788.114 270.89 773.067 256.421" stroke="black" stroke-width="2.18509" stroke-linecap="round" stroke-linejoin="round"/>
<path d="M408.523 145.366C407.43 137.135 409.295 127.232 412.638 117.651C420.548 94.9513 436.56 73.988 440.29 80.9329C442.347 84.7269 442.476 92.8293 441.704 101.51C440.483 115.4 437.01 130.898 435.788 132.891" stroke="black" stroke-width="2.18509" stroke-linecap="round" stroke-linejoin="round"/>
<path d="M583.562 275.133C590.957 297.319 620.858 284.779 614.171 269.217" stroke="black" stroke-width="2.18509" stroke-linecap="round" stroke-linejoin="round"/>
<path d="M427.879 288.316C427.879 288.316 419.584 293.46 416.69 295.775C412.317 299.312 407.623 303.749 405.244 309.087C404.537 310.566 404.086 312.173 403.829 313.781C403.186 317.768 404.858 322.333 408.523 323.877C413.218 325.806 419.134 321.497 422.735 318.668C424.857 316.996 426.786 315.003 428.522 312.88C433.088 307.222 436.239 300.277 437.654 293.396" stroke="black" stroke-width="2.18509" stroke-linecap="round" stroke-linejoin="round"/>
<path d="M299.526 248.19C295.41 250.055 291.166 253.27 288.208 256.678C286.601 258.479 285.572 261.115 286.536 263.302C288.594 267.996 295.089 266.71 299.076 265.938C304.349 264.909 309.365 262.659 313.544 259.315" stroke="black" stroke-width="2.18509" stroke-linecap="round" stroke-linejoin="round"/>
<path d="M358.494 384.323C360.423 385.995 362.995 387.024 365.568 387.089C368.14 387.153 370.712 386.317 372.77 384.774C373.992 383.873 375.02 382.587 375.342 381.108C375.664 379.629 375.021 377.829 373.67 377.186" stroke="black" stroke-width="2.18509" stroke-linecap="round" stroke-linejoin="round"/>
<path d="M305.507 379.372C304.028 379.5 302.742 380.529 302.099 381.815C301.327 383.552 301.842 385.738 303.128 387.153C304.414 388.567 306.343 389.275 308.272 389.403C310.201 389.468 312.066 388.953 313.867 388.246" stroke="black" stroke-width="2.18509" stroke-linecap="round" stroke-linejoin="round"/>
<path d="M666.515 319.954C677.061 326.513 682.72 334.873 683.748 336.866" stroke="black" stroke-width="2.18509" stroke-linecap="round" stroke-linejoin="round"/>
<path d="M341.968 142.022C335.602 131.348 327.307 125.56 325.313 124.531" stroke="black" stroke-width="2.18509" stroke-linecap="round" stroke-linejoin="round"/>
<path d="M479.26 152.632C475.916 148.324 474.115 141.636 477.459 131.605C486.012 135.527 488.134 143.565 488.327 149.867" stroke="black" stroke-width="2.18509" stroke-linecap="round" stroke-linejoin="round"/>
<path d="M474.951 155.783C476.43 154.497 477.909 153.533 479.324 152.761C482.603 150.96 485.626 150.382 488.327 150.317C489.998 150.317 491.542 150.446 492.957 150.703" stroke="black" stroke-width="2.18509" stroke-linecap="round" stroke-linejoin="round"/>
<path d="M546.715 189.351C540.799 179.255 544.721 163.95 544.721 163.95C544.721 163.95 561.633 168.516 563.305 179.962" stroke="black" stroke-width="2.18509" stroke-linecap="round" stroke-linejoin="round"/>
<path d="M542.277 195.074C543.563 192.888 545.042 191.023 546.65 189.287C551.602 184.142 557.775 181.184 563.176 179.834C564.913 179.384 566.585 179.191 568.064 179.062" stroke="black" stroke-width="2.18509" stroke-linecap="round" stroke-linejoin="round"/>
<path d="M555.203 182.985C553.788 178.548 550.701 173.403 550.701 173.403" stroke="black" stroke-width="2.18509" stroke-linecap="round" stroke-linejoin="round"/>
<path d="M743.873 193.016C754.612 188.45 769.338 194.238 769.338 194.238C769.338 194.238 762.65 210.443 751.139 210.636" stroke="black" stroke-width="2.18509" stroke-linecap="round" stroke-linejoin="round"/>
<path d="M738.729 187.936C740.722 189.479 742.394 191.216 743.873 193.016C748.31 198.546 750.496 205.041 751.139 210.636C751.332 212.436 751.397 214.108 751.268 215.587" stroke="black" stroke-width="2.18509" stroke-linecap="round" stroke-linejoin="round"/>
<path d="M749.146 202.276C753.711 201.44 759.177 199.061 759.177 199.061" stroke="black" stroke-width="2.18509" stroke-linecap="round" stroke-linejoin="round"/>
<path d="M483.953 150.897C483.825 148.839 481.06 140.801 481.06 140.801" stroke="black" stroke-width="2.18509" stroke-linecap="round" stroke-linejoin="round"/>
<path d="M526.716 504.316C527.166 517.563 530.51 530.681 536.426 542.577" stroke="black" stroke-width="2.18509" stroke-linecap="round" stroke-linejoin="round"/>
<path d="M526.716 548.686C533.018 571.386 549.287 590.034 556.939 612.348" stroke="black" stroke-width="2.18509" stroke-linecap="round" stroke-linejoin="round"/>
<path d="M535.718 614.342C540.476 621.351 542.148 630.418 540.155 638.649" stroke="black" stroke-width="2.18509" stroke-linecap="round" stroke-linejoin="round"/>
<path d="M502.537 670.801C505.109 671.573 507.939 671.573 510.318 670.351C512.697 669.129 514.434 666.557 514.176 663.92" stroke="black" stroke-width="2.18509" stroke-linecap="round" stroke-linejoin="round"/>
<path d="M475.915 490.49C485.625 496.407 491.734 507.66 491.412 518.978" stroke="black" stroke-width="2.18509" stroke-linecap="round" stroke-linejoin="round"/>
<path d="M516.941 423.227C520.735 415.768 521.571 406.83 519.192 398.792" stroke="black" stroke-width="2.18509" stroke-linecap="round" stroke-linejoin="round"/>
<path d="M351.241 407.859C349.312 417.311 349.569 427.15 352.077 436.474" stroke="black" stroke-width="2.18509" stroke-linecap="round" stroke-linejoin="round"/>
<path d="M322.687 417.247C323.33 420.012 324.166 422.134 325.709 425.864" stroke="black" stroke-width="2.18509" stroke-linecap="round" stroke-linejoin="round"/>
<path d="M532.085 440.59C533.757 436.474 535.557 432.487 537.615 428.5" stroke="black" stroke-width="2.18509" stroke-linecap="round" stroke-linejoin="round"/>
<path d="M584.219 368.44C588.656 363.36 592.321 357.508 595.022 351.271" stroke="black" stroke-width="2.18509" stroke-linecap="round" stroke-linejoin="round"/>
<path d="M730.305 105.562C740.658 111.349 756.798 108.134 763.1 93.9224C749.468 88.4565 739.436 91.0287 730.305 105.562Z" fill="#4EFF84" stroke="black" stroke-width="2.18509" stroke-linecap="round" stroke-linejoin="round"/>
<path d="M730.305 105.562C740.401 98.3594 750.368 96.3016 752.554 96.2373" stroke="black" stroke-width="2.18509" stroke-linecap="round" stroke-linejoin="round"/>
<path d="M591.343 625.016C591.664 625.273 592.05 625.466 592.436 625.724C608.384 635.884 629.025 635.176 646.645 630.161H645.423C647.352 629.196 649.088 628.36 650.76 627.588C652.561 626.302 654.297 624.823 655.84 623.344C657.319 621.865 658.477 620.193 659.634 618.457C660.278 617.428 661.821 615.756 661.049 614.47C660.663 613.763 659.634 613.377 658.991 612.863C658.22 612.284 657.512 611.641 656.869 610.933C655.583 609.583 654.49 608.04 653.333 606.496C652.368 605.21 651.403 603.924 650.053 603.153C648.703 602.445 647.738 601.481 646.709 600.387C646.13 599.809 645.294 599.23 645.23 598.33C645.166 597.429 645.552 596.272 645.616 595.372C645.873 592.992 645.938 590.549 645.616 588.105C645.552 587.591 645.423 587.012 645.102 586.562C644.266 585.469 642.658 585.597 641.372 585.983C637.321 587.076 633.591 589.198 630.569 592.092C629.347 593.25 628.575 594.021 626.839 593.828C624.653 593.635 622.531 593.443 620.344 593.571C618.544 593.571 616.743 593.957 615.007 593.957C614.042 593.957 613.078 593.957 612.113 593.957C611.792 593.957 609.541 594.407 609.412 594.278C606.583 590.806 602.725 588.234 598.481 586.819C596.551 586.176 594.172 585.919 592.757 587.334C591.857 588.234 591.6 589.52 591.471 590.806C591.15 593.828 591.278 596.851 591.343 599.809C591.343 600.002 591.343 600.195 591.278 600.387C591.214 600.58 591.021 600.773 590.828 600.902C586.777 604.117 583.112 607.911 580.089 612.091C579.832 612.412 579.639 612.734 579.575 613.12C579.446 613.699 579.768 614.277 580.089 614.792C580.925 616.206 582.018 617.878 583.369 618.907C584.462 619.808 585.491 620.901 586.648 621.737C588.32 622.894 590.057 623.859 591.664 625.209C591.664 625.209 591.793 625.273 591.793 625.338C591.793 625.402 591.793 625.466 591.729 625.531C591.6 625.724 591.471 625.916 591.407 626.045L592.757 625.595C592.372 625.338 592.05 625.145 591.664 624.888L591.343 625.016Z" fill="#CCBCF3"/>
<path d="M642.143 585.79C641.5 585.79 640.857 585.79 640.214 585.919C639.635 586.047 639.056 586.24 638.478 586.498C637.256 587.012 636.163 587.591 635.07 588.362C633.012 589.906 631.083 591.835 629.861 594.15C629.604 594.664 629.604 595.179 629.861 595.629C629.989 596.015 630.311 596.336 630.761 596.465C631.469 596.593 632.112 596.401 632.497 595.758C633.14 594.729 633.655 594.021 634.362 593.185C635.134 592.349 635.97 591.578 636.806 590.87C636.806 590.87 636.934 590.742 636.999 590.742C637.127 590.677 637.256 590.549 637.32 590.485C637.577 590.292 637.77 590.163 638.028 590.034C638.478 589.713 638.928 589.391 639.442 589.134C639.957 588.877 640.471 588.555 640.986 588.298C641.5 588.041 641.95 587.719 642.465 587.398C643.108 586.948 642.85 585.983 642.079 585.919L642.143 585.79Z" fill="#DDD6F2"/>
<path d="M607.997 593.507C606.518 591.192 604.074 589.262 601.695 588.041C600.473 587.398 599.187 586.883 597.837 586.562C596.486 586.304 594.943 585.983 593.657 586.562C593.078 586.819 593.207 587.591 593.657 587.912C594.686 588.555 596.036 588.684 597.129 589.07C598.223 589.455 599.38 589.906 600.409 590.484C601.438 591.063 602.402 591.706 603.238 592.413C604.203 593.249 605.039 594.214 605.875 595.179C606.196 595.564 606.775 595.629 607.225 595.5C607.611 595.436 607.868 595.179 608.061 594.857C608.318 594.471 608.318 593.892 608.061 593.442L607.997 593.507Z" fill="#DDD6F2"/>
<path d="M660.79 676.46C660.276 672.602 658.604 667.972 654.874 666.171C655.325 664.307 655.968 662.506 656.225 660.577C656.482 658.712 656.675 656.847 656.675 654.982C656.675 651.253 656.225 647.523 655.518 643.858C655.132 641.993 654.746 640.064 653.781 638.392C653.395 637.749 652.945 637.17 652.302 636.848C651.916 636.591 651.466 636.527 651.145 636.205C650.63 635.691 650.373 634.855 650.052 634.212C649.666 633.505 649.216 632.797 648.83 632.154C647.93 630.739 647.029 629.26 645.679 628.232C644.714 627.524 643.493 627.46 642.464 626.881C641.885 626.56 641.756 625.852 641.049 625.659C640.277 625.467 638.67 626.238 637.834 626.431C636.74 626.688 635.583 626.946 634.49 627.138C629.924 628.039 625.359 628.682 620.729 628.939C608.061 629.711 594.878 627.717 583.882 621.094L582.467 621.544C580.988 623.73 579.509 625.981 578.03 628.167C576.615 630.289 575.136 632.476 573.979 634.726C572.629 637.299 571.6 639.999 570.764 642.764C569.992 645.208 568.77 648.23 568.77 650.803C568.77 656.397 568.384 662.056 568.256 667.715C568.127 673.374 567.999 679.161 570.121 684.434C570.764 686.042 571.857 687.199 572.243 688.807C572.757 690.865 574.043 692.794 575.136 694.658C576.808 697.552 578.545 700.51 581.117 702.632C582.339 703.597 583.689 704.369 585.104 705.14C587.547 706.362 590.119 707.519 592.82 707.648C593.528 707.648 594.235 707.648 594.942 707.391C595.585 707.134 596.164 706.619 596.679 706.169C601.116 702.568 607.803 700.96 613.462 700.896C614.555 700.896 615.713 700.896 616.742 701.475C617.32 701.796 617.899 702.246 618.349 702.697C619.378 703.597 620.407 704.819 621.693 705.14C622.979 705.462 624.78 705.076 626.13 705.076C629.731 705.076 633.332 705.333 636.998 705.012C638.348 704.883 639.763 704.883 641.178 704.819C641.692 703.533 642.399 702.375 643.428 701.346C646 699.096 648.958 697.552 652.174 696.588C653.846 695.366 654.746 693.565 656.225 692.086C657.704 690.607 658.668 689.193 659.44 687.263C660.79 683.855 661.305 680.126 660.855 676.525L660.79 676.46Z" fill="#CCBCF3"/>
<path d="M644.715 650.352C643.879 646.944 642.851 643.922 639.571 642.185C631.083 637.748 621.308 639.42 613.785 645.015C612.692 645.851 611.534 646.751 610.569 647.716C609.605 648.68 608.126 650.545 608.19 650.738C609.026 651.574 609.991 652.281 611.02 652.86C613.206 650.931 615.328 648.937 617.514 647.008C618.608 645.979 619.701 645.015 620.923 644.115C622.402 643.086 624.202 642.25 625.874 642.893C626.003 642.893 626.196 643.021 626.26 643.15C626.581 643.6 626.003 644.243 625.424 644.436C624.845 644.629 624.138 644.822 624.009 645.401C624.781 645.015 625.81 645.401 626.26 646.172C626.71 646.944 626.388 647.973 625.617 648.423C625.102 648.744 624.331 649.066 624.588 649.58C624.588 649.709 624.781 649.838 624.845 649.902C625.488 650.481 626.067 651.188 626.196 652.088C626.324 652.989 625.81 653.953 624.974 654.082C624.524 654.082 624.073 653.953 623.688 653.889C622.016 653.503 620.28 654.017 618.801 654.918C617.322 655.818 616.164 657.104 615.007 658.39C613.077 660.512 610.827 662.57 609.09 664.885C607.354 667.2 609.09 669.129 609.605 671.315C611.791 681.09 610.634 691.636 606.39 700.767C607.804 700.188 608.833 700.638 610.248 700.638C611.663 700.638 613.592 699.867 615.199 699.738C617.129 699.61 618.35 700.639 619.572 701.796C619.829 701.796 620.022 701.796 620.151 701.796C642.658 697.938 649.088 670.93 644.587 650.352H644.715Z" fill="#DDD6F2"/>
<path d="M666.835 705.204C666.449 703.918 665.356 702.889 664.134 702.246C663.363 701.86 662.591 701.603 661.755 701.41C661.241 701.282 660.726 701.153 660.212 701.089C657.575 700.574 655.003 699.931 652.366 699.417C651.852 699.288 650.18 699.417 649.859 698.902C649.28 698.002 650.823 697.166 651.338 696.845C651.595 696.716 651.852 696.523 652.045 696.395C648.894 697.359 645.872 698.967 643.299 701.153C642.271 702.182 641.563 703.339 641.049 704.626C641.563 704.626 642.142 704.561 642.656 704.433C644.457 704.175 646.129 704.754 647.929 705.204C649.473 705.59 651.08 705.526 652.559 706.105C654.038 706.683 655.453 707.712 656.032 709.127C656.418 710.027 656.739 711.313 657.768 711.442C658.475 711.506 659.118 710.927 659.376 710.284C659.376 710.156 659.504 709.963 659.569 709.899C659.89 709.641 660.405 709.899 660.662 710.156C660.919 710.477 661.176 710.863 661.562 710.992C662.205 711.185 662.784 710.606 662.912 709.963C663.041 709.32 662.912 708.677 663.041 708.034C663.17 707.391 663.684 706.748 664.327 706.876C664.713 706.94 665.035 707.326 665.42 707.391C665.935 707.519 666.449 707.198 666.706 706.748C666.899 706.297 666.899 705.719 666.706 705.204H666.835Z" fill="#B897F0"/>
<path d="M646.837 629.453C646.837 629.453 646.837 629.453 646.837 629.389C648.252 628.682 649.667 627.846 651.017 626.881C649.345 627.653 647.609 628.553 645.68 629.453H646.901H646.837Z" fill="#CCBCF3"/>
<path d="M638.477 623.794C636.805 619.357 631.468 616.142 627.031 615.821C624.073 615.628 621.115 616.528 618.478 617.943C614.941 619.872 612.948 623.537 612.176 627.395C611.983 628.36 611.855 629.325 612.176 630.225C612.562 631.189 613.462 631.897 614.363 632.411C617.256 634.148 620.6 634.983 623.944 635.241C627.288 635.498 631.211 635.819 633.783 634.212C636.033 632.797 638.284 630.868 638.863 628.231C639.184 626.688 639.056 625.145 638.541 623.73L638.477 623.794Z" fill="#DDD6F2"/>
<path d="M655.452 606.175C656.481 607.268 657.124 608.94 657.703 610.162C658.282 611.384 657.896 611.127 657.317 611.77C656.738 612.413 656.545 612.67 656.16 613.056C655.324 613.956 654.488 614.792 653.587 615.564C649.986 618.779 645.806 621.223 641.562 623.473C640.662 623.923 639.762 624.502 638.797 624.695C637.961 624.824 637.19 624.759 636.354 624.695C635.453 624.695 634.489 624.566 633.653 624.245C631.724 623.538 630.438 621.544 629.795 619.551C629.087 617.3 628.959 614.921 629.602 612.606C630.695 608.555 634.103 605.725 638.09 604.632C639.119 604.31 640.212 604.117 641.305 604.246C643.942 604.503 646.064 606.368 648.829 606.047C651.594 605.725 652.623 604.182 654.552 605.339C656.481 606.497 655.259 605.854 655.581 606.175H655.452Z" fill="black"/>
<path d="M619.57 612.155C620.341 613.441 620.792 614.92 620.92 616.528C621.177 619.486 620.341 623.087 617.641 624.63C614.94 626.174 611.853 625.659 609.088 625.209C604.265 624.373 599.507 622.38 595.391 619.808C590.311 616.657 585.938 612.605 582.08 608.04C582.08 608.04 586.839 603.796 587.289 603.41C588.318 602.574 588.768 603.731 589.411 604.567C590.054 605.403 590.89 606.304 591.79 607.075C593.205 608.361 594.941 609.39 596.806 609.776C599.571 610.291 602.4 609.326 605.166 608.619C607.288 608.04 609.538 607.525 611.725 607.654C615.197 607.783 617.962 609.519 619.57 612.22V612.155Z" fill="black"/>
<path d="M655.195 664.242C659.761 668.293 661.176 674.467 661.047 680.383C660.918 686.299 654.295 696.33 648.379 698.645" stroke="black" stroke-width="2.18509" stroke-linecap="round" stroke-linejoin="round"/>
<path d="M646.899 628.81C648.186 629.325 650.115 634.019 651.465 637.363" stroke="black" stroke-width="2.18509" stroke-linecap="round" stroke-linejoin="round"/>
<path d="M588.254 658.519C585.167 656.59 582.338 654.339 579.766 651.831" stroke="black" stroke-width="2.18509" stroke-linecap="round" stroke-linejoin="round"/>
<path d="M649.793 667.972C646.064 686.942 633.267 695.816 632.56 697.359" stroke="black" stroke-width="2.18509" stroke-linecap="round" stroke-linejoin="round"/>
<path d="M621.501 705.011C626.452 704.368 639.635 703.725 644.586 704.304C649.538 704.883 649.474 705.011 651.981 705.397C654.489 705.783 655.583 705.783 656.419 707.841C656.676 708.548 656.74 709.256 656.869 710.027C656.933 710.606 657.254 711.313 657.833 711.378C658.155 711.378 658.412 711.249 658.669 711.056C659.248 710.542 659.441 709.77 659.441 709.063C659.441 708.355 659.312 707.584 659.184 706.876C659.184 706.619 659.184 706.362 659.312 706.233C659.505 706.169 659.698 706.233 659.827 706.426C659.955 706.619 659.955 706.812 659.955 707.005C660.084 707.969 660.277 708.87 660.663 709.77C660.791 710.156 660.984 710.542 661.37 710.799C661.756 711.056 662.206 711.12 662.528 710.927C662.785 710.735 662.913 710.349 662.978 710.027C663.106 708.998 662.978 707.969 662.656 707.005C663.235 706.619 664.135 706.876 664.457 707.455C664.65 707.841 664.714 708.355 665.1 708.548C665.421 708.677 665.807 708.548 666 708.291C666.193 708.034 666.322 707.712 666.322 707.391C666.45 706.233 666.129 705.204 665.486 704.175C663.042 700.446 653.203 699.224 648.38 698.838" stroke="black" stroke-width="2.18509" stroke-linecap="round" stroke-linejoin="round"/>
<path d="M626.646 627.331C626.131 627.331 625.681 627.331 625.36 627.395C623.623 627.524 620.923 628.295 622.787 630.353C624.459 632.218 626.003 633.118 627.482 632.154C628.446 631.575 630.247 630.16 630.054 628.874C629.861 627.46 628.06 627.267 626.646 627.267V627.331Z" fill="#B897F0" stroke="black" stroke-width="2.18509" stroke-linecap="round" stroke-linejoin="round"/>
<path d="M602.724 592.542C602.21 592.028 601.631 591.578 600.988 591.127C599.444 590.098 596.679 588.555 595.715 591.127C595.007 592.992 594.814 595.05 595.265 596.979C595.458 598.008 595.908 599.101 596.872 599.68C597.772 600.194 598.994 600.066 600.023 599.68C601.502 599.165 602.853 598.33 603.946 597.236C604.203 596.979 604.46 596.722 604.589 596.4C604.846 595.822 604.717 595.114 604.46 594.6C604.074 593.828 603.367 593.185 602.788 592.542H602.724Z" fill="#B897F0"/>
<path d="M605.231 595.564C603.173 591.32 597.643 589.327 597.772 589.391" stroke="black" stroke-width="2.18509" stroke-linecap="round" stroke-linejoin="round"/>
<path d="M642.592 590.356C642.4 589.52 641.885 588.941 640.856 589.649C640.085 590.163 639.377 590.742 638.606 591.256C636.934 592.35 636.033 594.407 635.262 596.144C635.069 596.594 634.876 597.172 635.197 597.623C635.39 597.944 635.776 598.073 636.162 598.137C637.641 598.523 639.249 598.523 640.792 598.137C641.049 598.137 641.242 598.008 641.435 597.88C641.692 597.687 641.821 597.365 641.885 597.044C642.464 595.115 642.721 592.993 642.721 590.935C642.721 588.877 642.721 590.485 642.721 590.292L642.592 590.356Z" fill="#B897F0"/>
<path d="M633.911 596.851C637.641 590.485 641.821 588.684 641.821 588.684" stroke="black" stroke-width="2.18509" stroke-linecap="round" stroke-linejoin="round"/>
<path d="M624.137 646.558L627.417 630.739C627.61 629.71 628.639 628.81 629.603 628.746L636.098 628.553L641.757 628.424C642.722 628.424 643.365 629.26 643.172 630.289L639.892 646.108L637.641 657.04C637.449 658.069 636.42 658.969 635.455 659.033L623.301 659.355C622.337 659.355 621.694 658.519 621.887 657.49L624.137 646.558Z" fill="#FCB9F2" stroke="black" stroke-width="2.18509" stroke-linecap="round" stroke-linejoin="round"/>
<path d="M636.484 639.42C636.356 639.356 638.864 641.478 638.864 641.478L632.497 645.144L627.16 642.186L630.311 639.742C630.054 639.549 629.475 638.134 630.504 638.006C631.533 637.877 632.305 639.163 632.305 639.163L634.491 638.97C634.491 638.97 635.327 637.941 636.356 637.877C637.385 637.813 636.42 639.42 636.42 639.42H636.484Z" fill="#CCBCF3" stroke="black" stroke-width="2.18509" stroke-linecap="round" stroke-linejoin="round"/>
<path d="M606.453 655.69C605.874 656.847 605.424 658.004 605.231 659.291C605.038 660.577 605.36 662.57 606.453 663.728C606.839 664.178 607.353 664.499 607.546 665.078C607.546 665.207 607.611 665.335 607.739 665.4C607.868 665.464 608.061 665.4 608.189 665.4C609.99 664.499 611.147 663.406 612.434 661.927C613.72 660.448 616.292 658.905 618.092 657.554C619.7 656.333 621.822 654.275 623.944 654.725C624.394 654.789 624.844 654.982 625.23 654.789C625.873 654.532 626.002 653.696 625.68 653.053C625.359 652.41 624.909 651.96 624.523 651.445C624.459 651.317 624.33 651.188 624.33 651.06C624.33 650.802 624.523 650.545 624.844 650.417C625.166 650.288 625.423 650.288 625.68 650.159C626.323 649.773 626.388 648.809 626.002 648.166C625.616 647.523 624.909 647.137 624.266 646.815C624.909 646.43 625.552 646.044 626.13 645.658C626.259 645.594 626.388 645.529 626.452 645.401C626.516 645.272 626.516 645.144 626.452 645.015C626.452 644.179 626.002 643.343 625.295 642.893C624.587 642.443 623.687 642.443 622.851 642.636C620.022 643.15 617.642 645.079 615.649 647.137C614.877 647.909 614.105 648.745 613.398 649.581C612.369 650.674 611.662 651.703 610.119 652.153C608.575 652.603 607.546 653.375 606.71 654.918C606.582 655.175 606.389 655.497 606.26 655.754L606.453 655.69Z" fill="#B897F0"/>
<path d="M590.506 630.675C592.371 631.382 593.978 632.668 595.329 634.147C596.679 635.626 597.837 637.234 598.994 638.906C601.952 643.086 604.653 647.587 607.932 651.51C608.511 652.217 609.154 652.925 610.055 652.925C610.826 652.925 611.405 652.346 611.984 651.767C614.041 649.709 616.163 647.78 618.35 645.915C619.186 645.208 620.086 644.501 621.051 643.922C622.015 643.343 623.108 642.893 624.202 642.957C624.394 642.957 624.652 642.957 624.845 643.022C625.488 643.15 626.066 643.536 626.581 643.986C627.095 644.436 627.353 645.208 626.967 645.722C626.581 646.237 625.745 646.044 625.102 645.851C624.845 645.787 624.587 645.722 624.33 645.722C623.944 645.722 623.494 645.851 623.301 646.173C623.559 646.301 623.88 646.43 624.137 646.494C624.459 646.623 624.845 646.751 625.166 646.944C625.552 647.137 626.002 647.266 626.324 647.587C626.902 648.166 627.031 649.002 626.967 649.774C626.967 649.967 626.967 650.224 626.709 650.352C626.581 650.481 626.324 650.481 626.131 650.417C625.681 650.288 625.295 650.031 624.909 649.838C624.523 649.645 624.009 649.452 623.623 649.581C623.559 649.581 623.494 649.581 623.43 649.709C623.044 649.902 623.044 650.288 623.237 650.545C623.366 650.738 623.559 650.867 623.751 650.995C624.652 651.381 625.23 651.51 625.745 652.474C625.938 652.86 626.131 653.246 626.131 653.632C626.131 654.018 626.131 654.468 625.809 654.789C625.745 654.854 625.616 654.982 625.552 654.982C625.359 654.982 625.166 654.982 624.973 654.982C624.394 654.789 623.751 654.725 623.173 654.532C622.915 654.404 622.723 654.339 622.465 654.275C622.208 654.211 621.887 654.146 621.501 654.275C621.115 654.404 620.536 654.789 620.15 655.175C618.35 656.718 616.485 658.262 614.684 659.805C613.205 661.027 610.119 663.728 608.768 665.142" stroke="black" stroke-width="2.18509" stroke-linecap="round" stroke-linejoin="round"/>
<path d="M646.965 647.716C646.965 647.201 646.9 646.687 646.836 646.108C646.836 645.015 646.643 643.922 646.193 642.957C645.293 640.964 643.106 639.035 640.791 639.613C640.212 639.742 639.634 640.063 639.312 640.514C638.991 640.964 638.991 641.735 639.377 642.121C638.476 641.993 637.512 642.507 637.126 643.343C636.74 644.179 636.869 645.208 637.576 645.915C638.219 646.558 639.184 646.751 639.891 647.394C639.055 647.394 638.155 647.394 637.705 648.102C637.319 648.68 637.512 649.452 637.962 649.966C638.412 650.481 639.055 650.738 639.698 650.995C640.341 651.252 641.048 651.445 641.563 651.831C642.463 652.474 642.913 653.567 643.235 654.596C644.264 658.005 644.521 661.606 645.936 664.885C645.936 665.014 646.064 665.142 646.129 665.142C646.321 665.142 646.45 665.014 646.514 664.885C647.543 663.47 648.636 662.12 649.344 660.512C650.051 658.905 650.501 657.169 650.18 655.432C649.665 652.667 647.093 650.545 646.836 647.716H646.965Z" fill="#B897F0"/>
<path d="M650.888 657.04C650.309 655.175 648.252 652.603 647.287 650.417C646.323 648.23 646.773 645.98 646.515 644.629C646.322 643.343 646.323 642.7 645.358 641.864C644.586 641.221 643.815 640.449 642.914 640.064C642.593 639.935 642.271 639.806 641.885 639.742C640.921 639.613 639.635 639.742 639.056 640.642C638.477 641.543 639.956 642.25 640.535 642.507C640.921 642.7 641.371 642.829 641.5 643.279C641.5 643.407 641.5 643.536 641.435 643.536C641.307 643.536 641.178 643.536 641.114 643.407C640.664 643.022 640.021 642.764 639.378 642.829C638.735 642.893 638.156 643.215 637.834 643.729C637.641 643.986 637.577 644.243 637.577 644.565C637.577 644.886 637.834 645.144 638.091 645.337C638.542 645.658 639.12 645.915 639.635 646.173C640.149 646.43 640.664 646.88 640.792 647.394C640.021 647.523 639.506 647.009 638.735 647.201C637.963 647.394 637.577 647.78 637.384 648.423C636.934 650.095 638.927 650.738 640.342 651.188C640.664 651.253 640.921 651.381 641.114 651.446C641.564 651.638 642.078 651.831 642.4 652.282C643.3 653.568 643.622 655.625 644.2 657.104C645.165 659.741 646.13 662.828 647.673 665.207C649.216 667.586 648.83 666.429 649.538 666.814C655.84 670.223 655.904 658.262 655.84 656.011C655.197 636.913 650.888 635.562 650.888 635.562C650.888 635.562 649.345 652.41 649.409 654.146" stroke="black" stroke-width="2.18509" stroke-linecap="round" stroke-linejoin="round"/>
<path d="M619.957 702.632C619.121 701.346 617.9 700.382 616.485 699.867C615.07 699.353 613.27 699.353 611.919 699.996C610.569 700.639 609.218 700.767 607.739 700.896C604.396 701.153 601.052 701.153 597.708 701.153C594.3 701.153 591.085 702.632 588.77 705.012C591.213 706.233 593.721 707.391 596.486 707.905C597.129 708.034 597.837 708.163 598.544 708.227C601.309 708.548 604.203 708.484 606.968 708.098C609.733 707.712 609.09 707.584 610.119 708.098C611.148 708.613 612.241 709.384 613.205 709.963C613.591 710.22 613.977 710.477 614.363 710.542C614.749 710.606 615.263 710.606 615.585 710.285C615.906 710.027 615.97 709.577 616.099 709.256C616.228 708.934 616.485 708.484 616.871 708.42C617.642 708.291 618.285 709.256 619.121 709.127C621.629 708.741 621.115 704.819 620.343 703.34C620.215 703.082 620.086 702.825 619.893 702.632H619.957Z" fill="#B897F0"/>
<path d="M583.561 618.907C581.954 621.479 574.109 632.09 570.572 643.472C567.035 654.854 568.578 655.69 568.257 661.799C568.193 663.406 568.128 665.014 568.193 666.621C568.193 667.907 568.321 669.194 568.386 670.48C568.964 676.846 570.057 684.434 572.951 690.286C573.144 690.671 573.337 691.057 573.53 691.379C575.523 694.98 577.453 698.131 580.218 700.832C581.054 701.603 581.89 702.375 582.918 703.082C587.291 706.233 592.436 707.712 597.773 708.098C601.245 708.355 604.653 708.227 608.126 708.098C611.598 707.969 610.698 707.905 611.92 708.034C613.142 708.162 613.785 709.513 614.878 709.577C615.392 709.577 615.907 709.127 616.035 708.612C616.164 708.098 616.035 707.519 616.035 707.005C616.486 707.777 617.064 708.612 617.836 708.998C618.608 709.384 619.765 709.384 620.344 708.677C620.665 708.355 620.794 707.905 620.858 707.455C621.18 705.59 620.665 703.532 619.508 702.053C618.35 700.574 616.486 699.545 614.556 699.417C610.955 699.16 607.74 701.796 604.075 702.246C606.711 699.095 608.062 695.559 610.119 692.086C612.177 688.614 611.92 684.884 611.791 681.219C611.598 675.174 610.377 668.936 606.968 663.792C606.454 663.02 605.875 662.249 605.232 661.477C604.461 660.577 603.56 659.805 602.596 659.162C594.236 653.76 581.311 659.548 577.324 668.036" stroke="black" stroke-width="2.18509" stroke-linecap="round" stroke-linejoin="round"/>
<path d="M568.771 676.01C568.771 675.174 568.771 674.402 568.771 673.566C568.771 673.309 568.835 673.181 568.964 673.052C565.492 670.608 561.376 669.258 557.196 668.422C553.595 667.972 550.187 668.293 547.036 669.129C539.384 674.145 533.854 682.505 531.731 691.443C541.056 681.347 555.01 676.01 568.771 679.804C568.578 678.582 568.642 677.296 568.771 676.074V676.01Z" fill="#CCBCF3"/>
<path d="M569.157 670.609C569.157 670.609 569.157 670.544 569.157 670.48C569.157 670.158 569.092 669.837 569.028 669.515C568.835 667.908 568.707 666.236 568.642 664.564C563.884 663.599 558.418 664.564 554.495 665.528C545.492 667.65 541.57 674.724 539.255 676.203C553.788 670.608 566.006 672.023 569.478 674.531C569.478 673.695 569.092 671.38 569.157 670.544V670.609Z" fill="black"/>
<path d="M536.683 706.94C535.397 709.127 534.433 711.377 533.661 713.628C534.497 715.557 535.59 717.422 536.812 719.158C538.741 721.859 541.185 724.174 543.886 726.039C544.914 717.615 547.872 709.32 552.695 701.796C557.454 694.337 563.563 686.942 571.73 684.176C557.004 683.212 543.5 694.272 536.619 706.94H536.683Z" fill="#CCBCF3"/>
<path d="M593.336 688.935C590.442 687.135 587.291 685.72 584.011 684.82C568.257 687.649 558.804 707.198 555.332 723.081C554.881 725.782 554.817 728.418 555.074 730.991C559.19 732.02 563.563 732.341 567.807 732.212C568.514 732.212 569.157 732.213 569.864 732.084C569.028 728.74 568.643 725.268 568.9 721.795C569.993 708.484 579.253 690.35 593.4 688.935H593.336Z" fill="#CCBCF3"/>
<path d="M589.156 634.083C587.098 633.247 585.233 636.462 586.97 637.877C588.834 639.356 590.699 640.771 592.114 642.636C593.529 644.501 594.3 646.751 595.586 648.68C596.744 650.288 599.123 649.709 599.252 647.651C599.638 641.928 593.979 636.141 589.092 634.083H589.156Z" fill="#DDD6F2"/>
<path d="M625.038 598.844C623.301 597.365 621.115 596.915 618.929 596.658C617.064 596.465 614.234 596.272 613.013 597.88C612.562 598.458 612.305 599.423 613.013 599.937C614.492 601.095 616.228 600.773 618.028 601.031C619.957 601.288 621.758 602.059 623.687 602.188C625.359 602.317 626.388 599.873 625.102 598.78L625.038 598.844Z" fill="#DDD6F2"/>
<path d="M600.408 664.306C595.971 661.67 586.325 661.863 585.296 668.422C585.168 669.386 586.004 670.158 586.968 669.708C588.833 668.743 590.248 667.586 592.434 667.264C594.813 666.943 597.128 667.779 598.929 669.322C603.109 672.859 602.144 677.425 603.173 682.183C603.495 683.791 606.002 684.177 606.774 682.633C609.796 676.524 606.067 667.65 600.408 664.306Z" fill="#DDD6F2"/>
<path d="M654.682 672.666C653.718 672.087 652.367 673.052 652.753 674.145C653.396 676.01 654.168 677.939 654.232 679.933C654.296 681.99 653.653 683.92 653.203 685.913C652.946 687.006 654.232 688.357 655.325 687.521C660.02 684.112 659.505 675.624 654.682 672.602V672.666Z" fill="#DDD6F2"/>
<path d="M653.138 646.687C652.817 645.722 651.273 645.787 651.273 646.944C651.273 649.645 651.338 652.603 652.238 655.175C652.495 656.011 653.781 656.075 653.974 655.175C654.682 652.41 654.039 649.323 653.074 646.687H653.138Z" fill="#DDD6F2"/>
<path d="M616.935 635.048C614.942 632.926 611.148 632.669 608.447 631.768C605.618 630.804 602.788 628.939 599.766 629.453C598.93 629.582 598.351 630.675 598.609 631.511C599.766 634.726 603.431 635.948 606.454 636.977C609.283 637.942 613.849 639.421 616.614 637.62C617.514 637.041 617.643 635.884 616.935 635.112V635.048Z" fill="#B897F0"/>
<path d="M593.528 681.54C588.834 678.839 581.889 676.653 576.616 678.582C574.751 679.225 574.623 681.862 576.616 682.44C581.375 683.919 586.069 684.048 590.635 686.556C592.628 687.649 594.364 688.999 595.843 690.671C597.258 692.279 597.965 693.758 599.959 694.594C600.923 694.98 601.952 694.144 602.274 693.308C603.817 688.485 597.194 683.598 593.593 681.54H593.528Z" fill="#B897F0"/>
<path d="M580.732 684.112C577.517 683.598 574.173 683.534 570.893 684.048C568.192 677.682 568.385 670.544 568.128 664.499C563.498 663.663 558.161 664.435 554.495 665.593C541.892 669.644 532.825 682.119 531.088 694.98C529.931 703.404 531.796 712.342 536.812 719.223C538.869 722.052 541.441 724.56 544.4 726.489C551.216 730.991 559.575 732.534 567.742 732.212C575.33 731.955 582.982 730.219 590.377 731.827C594.815 732.791 598.93 734.978 602.274 738C610.955 731.891 610.569 716.908 607.483 708.098C606.325 704.883 605.039 701.732 603.238 698.838C598.351 690.993 589.863 685.656 580.796 684.112H580.732Z" stroke="black" stroke-width="2.18509" stroke-linecap="round" stroke-linejoin="round"/>
<path d="M586.004 719.609C583.303 714.529 574.622 716.136 569.864 715.879C564.012 715.493 557.967 714.143 553.144 710.606C542.277 702.632 546.392 689.385 545.814 678.003C545.749 676.589 544.013 676.139 543.241 677.296C535.653 688.807 534.367 705.847 545.492 715.686C550.572 720.187 557.003 722.76 563.69 723.788C567.291 724.303 570.828 724.496 574.429 724.496C577.709 724.496 582.081 725.396 584.975 723.66C586.39 722.824 586.776 721.088 586.004 719.673V719.609Z" fill="#B897F0"/>
<path d="M587.355 695.558C585.04 689.964 579.253 688.742 573.915 687.199C571.086 686.427 568.385 685.848 566.713 683.276C564.977 680.64 565.427 677.682 564.334 674.917C563.884 673.695 562.148 672.859 561.054 674.081C556.746 679.032 561.119 687.199 565.234 690.8C567.806 693.051 570.829 694.337 574.044 695.366C577.195 696.33 580.024 697.616 582.982 699.031C584.976 699.995 588.448 698.324 587.355 695.687V695.558Z" fill="#DDD6F2"/>
<path d="M570.25 683.919C569.864 682.955 569.607 681.926 569.349 680.961C569.221 680.64 569.349 680.254 569.671 679.997C555.652 675.753 541.312 681.154 531.795 691.443C531.538 692.601 531.281 693.758 531.152 694.916C530.316 701.217 531.152 707.841 533.725 713.628C534.496 711.378 535.461 709.127 536.747 706.941C543.435 694.723 556.296 683.984 570.443 684.112C570.443 684.048 570.443 683.919 570.378 683.855L570.25 683.919Z" fill="black"/>
<path d="M580.732 684.112C578.352 683.727 575.909 683.598 573.529 683.726C572.951 683.855 572.372 684.048 571.793 684.241C563.626 686.942 557.518 694.401 552.759 701.86C547.936 709.384 544.978 717.679 543.949 726.103C544.142 726.232 544.271 726.361 544.464 726.425C547.679 728.547 551.344 730.026 555.074 730.926C554.817 728.354 554.881 725.718 555.331 723.017C558.868 707.198 568.256 687.585 584.011 684.755C582.918 684.434 581.825 684.241 580.732 684.048V684.112Z" fill="black"/>
<path d="M607.483 708.034C606.325 704.819 605.039 701.668 603.239 698.774C600.731 694.787 597.323 691.443 593.336 688.936C579.253 690.286 569.929 708.42 568.836 721.795C568.578 725.268 568.964 728.74 569.8 732.084C576.681 731.634 583.69 730.348 590.442 731.827C594.879 732.791 598.995 734.978 602.338 738C611.02 731.891 610.634 716.908 607.547 708.098L607.483 708.034Z" fill="black"/>
<path d="M613.205 631.19C613.205 631.19 599.508 630.225 588.64 623.023C585.039 620.644 581.695 617.557 579.252 613.57C578.802 610.998 591.727 600.388 591.727 600.388C591.277 598.523 590.955 590.356 591.534 588.749C591.92 587.655 592.563 586.562 593.656 586.048C595.521 585.212 598.415 586.498 600.215 587.205C603.495 588.427 607.353 590.228 609.153 593.443C615.391 592.864 623.108 593.057 628.638 594.086C631.467 587.913 641.82 583.797 644.457 586.691C647.093 589.584 646.129 590.742 644.585 597.751C646.322 598.394 661.948 614.02 661.948 614.02C661.948 614.02 658.475 621.222 650.694 626.495C648.508 627.974 646.064 629.261 643.235 630.289" stroke="black" stroke-width="2.18509" stroke-linecap="round" stroke-linejoin="round"/>
<path d="M618.221 616.656C618.221 616.528 618.221 616.399 618.221 616.271C617.771 612.477 613.72 609.326 609.926 610.419C608.897 610.676 607.997 611.319 607.354 612.091C607.225 612.284 607.096 612.477 607.161 612.734C607.289 613.441 608.125 612.669 608.318 612.477C609.861 611.448 611.469 611.512 613.077 612.026C614.942 612.605 616.035 613.891 616.549 615.692C617.064 617.428 616.485 619.486 615.134 620.708C613.784 621.929 611.405 621.929 610.119 620.579C609.283 619.679 609.09 618.264 609.604 617.106C609.861 616.528 610.312 616.013 610.955 615.756C611.598 615.499 612.305 615.499 612.819 615.885C613.334 616.271 613.655 616.978 613.463 617.557C613.334 618.007 612.884 618.328 612.498 618.2C612.176 618.071 611.984 617.685 611.598 617.685C611.405 617.685 611.212 617.814 611.083 618.007C610.955 618.2 610.955 618.393 611.083 618.586C611.212 619.293 611.919 619.743 612.627 619.679C613.334 619.614 613.977 619.229 614.363 618.714C614.942 617.942 615.199 616.849 614.942 615.885C614.684 614.92 613.913 614.084 613.012 613.763C612.048 613.441 610.955 613.634 610.054 614.084C608.318 615.049 607.225 617.107 607.482 619.1C607.804 621.544 610.119 623.537 612.562 623.473C616.099 623.344 618.478 620 618.285 616.656H618.221Z" fill="white"/>
<path d="M632.239 611.769C633.011 610.355 634.425 609.326 635.969 608.94C639.248 608.104 642.463 610.355 643.492 613.441C643.621 613.827 643.814 614.342 643.75 614.727C643.685 615.049 643.492 615.37 643.171 615.306C642.914 615.306 642.785 615.049 642.656 614.792C642.013 613.57 641.499 612.22 640.277 611.384C639.763 610.998 639.12 610.741 638.477 610.612C637.319 610.355 636.162 610.805 635.197 611.384C632.946 612.734 633.075 616.014 634.425 617.943C634.811 618.457 635.261 618.907 635.776 619.229C636.29 619.486 636.933 619.615 637.512 619.55C638.284 619.422 638.991 618.843 639.377 618.136C639.763 617.428 639.763 616.528 639.505 615.756C639.313 615.242 638.991 614.792 638.541 614.47C638.091 614.149 637.448 614.149 636.998 614.47C636.547 614.792 636.355 615.435 636.676 615.885C636.74 616.014 636.933 616.142 637.062 616.078C637.19 616.078 637.255 615.885 637.319 615.821C637.448 615.692 637.705 615.692 637.898 615.821C638.091 615.949 638.091 616.206 638.091 616.399C638.091 616.914 637.641 617.364 637.19 617.493C636.74 617.621 636.162 617.493 635.776 617.171C635.39 616.85 635.133 616.399 635.004 615.885C634.747 614.856 635.133 613.699 635.969 613.12C636.933 612.477 638.219 612.541 639.248 613.12C640.47 613.763 641.306 615.049 641.435 616.399C641.563 617.75 641.049 619.164 640.084 620.129C639.12 621.094 637.641 621.479 636.29 621.222C635.519 621.094 634.811 620.708 634.232 620.193C633.654 619.679 633.654 619.615 633.461 619.293C633.268 618.972 633.011 618.714 632.818 618.457C631.918 617.107 631.467 615.37 631.66 613.699C631.853 612.027 631.982 612.348 632.303 611.705L632.239 611.769Z" fill="white"/>
<path d="M417.203 519.428C417.203 519.428 462.088 541.099 461.509 541.677C460.931 542.256 450.899 554.088 448.263 554.796C448.263 554.796 452.378 567.078 445.626 568.75C438.874 570.422 430.193 560.197 430.193 560.197C430.193 560.197 424.148 561.741 418.039 561.741C411.93 561.741 405.886 560.197 405.886 560.197C405.886 560.197 397.205 570.422 390.453 568.75C383.701 567.078 387.816 554.796 387.816 554.796C384.729 552.545 375.148 542.256 374.569 541.677C373.99 541.099 417.203 519.428 417.203 519.428Z" stroke="black" stroke-width="2.18509" stroke-linecap="round" stroke-linejoin="round"/>
<path d="M392.061 556.66C392.061 556.66 389.618 561.483 390.775 563.348C391.933 565.213 399.328 558.911 399.328 558.911L392.061 556.66Z" stroke="black" stroke-width="2.18509" stroke-linecap="round" stroke-linejoin="round"/>
<path d="M444.019 556.66C444.019 556.66 446.463 561.483 445.305 563.348C444.148 565.213 436.753 558.911 436.753 558.911L444.019 556.66Z" stroke="black" stroke-width="2.18509" stroke-linecap="round" stroke-linejoin="round"/>
<path d="M433.151 527.145C424.47 522.901 417.204 519.364 417.204 519.364C417.204 519.364 410.387 522.772 402.156 526.952C402.542 527.402 403.121 527.723 403.7 528.109C404.214 528.495 404.728 528.945 404.986 529.653C404.728 528.945 404.278 528.495 403.7 528.109C404.471 537.498 416.946 538.591 424.277 537.369C424.792 537.176 425.37 536.983 426.013 536.726C429.293 534.282 431.865 530.874 433.151 527.08V527.145Z" fill="#DDD6F2"/>
<path d="M434.952 528.045C434.373 527.723 433.73 527.466 433.152 527.145C431.865 530.939 429.293 534.347 426.014 536.79C429.872 535.376 435.531 532.675 434.952 528.045Z" fill="#CCBCF3"/>
<path d="M461.509 541.613C461.638 541.484 458.551 539.812 453.857 537.433C448.648 534.797 441.511 531.26 434.951 528.044C435.53 532.674 429.871 535.375 426.013 536.79C421.769 539.941 416.239 541.613 410.773 540.648C416.239 541.613 421.769 540.005 426.013 536.79C425.37 537.047 424.791 537.24 424.277 537.433C416.946 538.655 404.535 537.562 403.699 528.173C403.121 527.787 402.542 527.466 402.156 527.016C394.375 531.003 385.308 535.632 379.778 538.59C376.498 540.327 374.441 541.549 374.569 541.677C375.084 542.256 384.729 552.545 387.816 554.795C387.816 554.795 383.7 567.078 390.452 568.749C397.204 570.421 405.886 560.197 405.886 560.197C405.886 560.197 411.93 561.74 418.039 561.74C424.148 561.74 430.193 560.197 430.193 560.197C430.193 560.197 438.874 570.421 445.626 568.749C452.378 567.078 448.263 554.795 448.263 554.795C450.899 554.088 460.931 542.256 461.509 541.677V541.613ZM390.774 563.348C389.617 561.483 392.06 556.66 392.06 556.66L399.327 558.911C399.327 558.911 391.931 565.213 390.774 563.348ZM445.305 563.348C444.147 565.213 436.752 558.911 436.752 558.911L444.018 556.66C444.018 556.66 446.462 561.483 445.305 563.348Z" fill="#CCBCF3"/>
<path d="M444.018 556.66C444.018 556.66 446.462 561.483 445.304 563.348C444.147 565.213 436.752 558.911 436.752 558.911L444.018 556.66Z" fill="#B897F0"/>
<path d="M392.06 556.66L399.327 558.911C399.327 558.911 391.932 565.213 390.774 563.348C389.617 561.483 392.06 556.66 392.06 556.66Z" fill="#B897F0"/>
<path d="M426.721 475.379C424.727 474.222 422.605 473.321 420.29 473C421.898 473.643 423.377 474.414 424.791 475.379C425.434 475.379 426.077 475.379 426.721 475.379Z" fill="#CCBCF3"/>
<path d="M456.173 468.884C451.671 456.602 443.183 452.422 438.489 452.551C429.357 452.744 425.306 464.576 425.628 464.576C420.933 464.447 416.432 463.869 411.288 463.033C408.973 459.174 406.915 452.744 402.928 450.622C389.424 443.484 380.55 464.576 377.592 473.579C371.997 490.555 368.332 507.21 379.521 538.076L379.843 538.591C383.765 536.469 387.752 534.411 391.739 532.353C395.726 530.295 396.369 530.424 398.17 528.945C399.198 528.109 400.227 527.016 401.513 526.501C402.799 525.987 404.793 525.601 406.272 525.151L417.139 521.871C418.104 521.55 419.133 521.293 420.162 521.293C422.541 521.293 426.014 522.515 428.071 523.801C430 525.022 431.801 526.501 433.794 527.595C435.788 528.688 438.231 529.588 440.354 530.617C444.919 532.868 449.42 535.118 453.986 537.369L454.179 536.983C464.532 506.053 461.831 484.125 456.301 468.884H456.173Z" fill="#CCBCF3"/>
<path d="M439.903 485.282C438.874 481.874 437.074 478.659 434.116 476.087C424.47 467.727 407.815 471.006 399.391 479.688C396.047 483.224 389.939 491.52 391.868 496.921C392.511 498.722 394.504 500.394 395.469 502.066C395.662 502.387 395.79 502.709 395.855 503.095C395.983 504.123 395.276 504.895 394.954 505.86C394.633 506.824 395.019 508.046 395.212 509.139L396.112 514.734C396.24 515.441 396.176 516.792 396.691 517.306C397.205 517.82 397.977 517.885 398.491 518.206C401.063 519.685 403.25 521.293 406.079 522.257C406.658 522.45 408.973 523.544 409.487 523.286C414.053 520.971 417.139 519.428 417.139 519.428C417.139 519.428 419.905 520.778 424.084 522.772C433.409 520.2 438.424 511.583 440.032 502.58C441.061 496.921 441.447 490.748 439.839 485.346L439.903 485.282Z" fill="#DDD6F2"/>
<path d="M379.521 538.012C368.332 507.21 371.997 490.491 377.592 473.514C380.55 464.511 389.424 443.419 402.928 450.557C406.915 452.679 408.973 459.11 411.288 462.968C416.432 463.804 420.933 464.383 425.628 464.511C425.306 464.511 429.357 452.679 438.489 452.486C443.183 452.358 451.671 456.538 456.173 468.82C461.767 484.124 464.468 505.988 454.05 536.919" stroke="black" stroke-width="2.18509" stroke-linecap="round" stroke-linejoin="round"/>
<path d="M379.778 538.591C391.16 532.482 417.203 519.428 417.203 519.428C417.203 519.428 441.189 531.003 453.857 537.498C458.487 539.877 461.638 541.549 461.509 541.677C460.931 542.256 450.899 554.088 448.263 554.796C448.263 554.796 452.378 567.078 445.626 568.75C438.874 570.422 430.193 560.197 430.193 560.197C430.193 560.197 424.148 561.741 418.039 561.741C411.93 561.741 405.886 560.197 405.886 560.197C405.886 560.197 397.204 570.422 390.452 568.75C383.7 567.078 387.816 554.796 387.816 554.796C384.729 552.545 375.084 542.256 374.569 541.677C374.441 541.549 376.498 540.391 379.778 538.591Z" stroke="black" stroke-width="2.18509" stroke-linecap="round" stroke-linejoin="round"/>
<path d="M413.024 542.449C413.924 541.485 414.439 540.391 414.567 538.912C414.953 535.247 412.445 531.517 408.844 530.553C404.279 529.395 399.97 532.675 395.405 531.324C394.954 531.196 394.569 531.003 394.118 531.003C393.668 531.003 393.283 531.067 392.832 531.196C388.91 532.482 385.823 535.568 381.965 537.048C382.351 536.919 384.216 538.076 384.666 538.205C385.695 538.655 386.659 539.041 387.688 539.427C393.475 541.677 399.649 545.15 406.015 545.086C408.008 545.086 410.066 544.507 411.802 543.414C413.539 542.321 412.703 542.771 413.024 542.449Z" fill="black"/>
<path d="M421.448 490.491H411.738C410.105 490.491 408.78 491.815 408.78 493.449V511.261C408.78 512.895 410.105 514.219 411.738 514.219H421.448C423.082 514.219 424.406 512.895 424.406 511.261V493.449C424.406 491.815 423.082 490.491 421.448 490.491Z" fill="white" stroke="black" stroke-width="2.18509" stroke-linecap="round" stroke-linejoin="round"/>
<path d="M447.171 536.533C447.75 536.019 448.393 535.44 448.907 534.861C446.657 533.446 444.277 532.096 441.898 530.874C441.641 530.746 441.384 530.617 441.062 530.553C440.869 530.553 440.676 530.553 440.419 530.553C438.297 530.553 435.918 530.746 433.86 530.167C431.802 529.588 429.552 529.781 427.687 530.36C425.565 530.938 423.185 531.903 421.899 533.768C420.613 535.633 420.099 537.883 420.613 540.005C420.999 541.677 421.964 543.607 423.571 544.378C425.179 545.15 427.751 545.536 429.873 545.343C431.995 545.15 434.31 544.378 436.432 543.478C440.355 541.742 443.956 539.427 447.171 536.662V536.533Z" fill="black"/>
<path d="M413.86 522.9C413.539 523.35 413.281 523.865 413.539 524.315C413.796 524.829 414.567 525.022 415.21 525.087C417.333 525.344 419.519 525.215 421.577 524.572C421.77 524.572 422.027 524.444 422.155 524.251C422.348 523.929 422.155 523.608 421.898 523.286C421.062 522.386 417.461 519.814 417.461 519.814C417.461 519.814 414.567 521.871 413.924 522.772L413.86 522.9Z" fill="#B897F0" stroke="black" stroke-width="2.18509" stroke-linecap="round" stroke-linejoin="round"/>
<path d="M376.241 528.045C364.924 507.274 365.567 489.269 379.971 485.282C382.222 484.639 384.472 484.832 386.659 485.668C390.839 487.276 394.054 490.877 396.948 494.092C399.841 497.307 400.613 499.108 403.249 499.944C405.886 500.78 405.564 500.651 406.593 500.33C407.622 500.008 407.751 499.494 408.522 499.365C409.294 499.236 410.58 499.815 410.194 500.908C409.808 502.001 408.844 502.001 408.394 502.644C408.78 503.288 409.744 502.837 410.387 503.223C411.095 503.609 410.837 504.767 410.259 505.217C409.68 505.667 408.844 505.86 408.072 506.181C407.815 506.31 407.493 506.503 407.493 506.824C407.493 507.017 407.686 507.21 407.944 507.274C408.394 507.467 408.908 507.467 409.358 507.596C409.808 507.725 410.387 507.917 410.516 508.432C410.644 508.882 410.323 509.397 409.937 509.589C409.551 509.782 409.037 509.847 408.522 509.847C403.892 509.847 399.198 508.046 394.954 506.246C392.189 505.088 389.36 503.545 388.009 500.844" fill="#CCBCF3"/>
<path d="M376.241 528.045C364.924 507.274 365.567 489.269 379.971 485.282C382.222 484.639 384.472 484.832 386.659 485.668C390.839 487.276 394.054 490.877 396.948 494.092C399.841 497.307 400.613 499.108 403.249 499.944C405.886 500.78 405.564 500.651 406.593 500.33C407.622 500.008 407.751 499.494 408.522 499.365C409.294 499.236 410.58 499.815 410.194 500.908C409.808 502.001 408.844 502.001 408.394 502.644C408.78 503.288 409.744 502.837 410.387 503.223C411.095 503.609 410.837 504.767 410.259 505.217C409.68 505.667 408.844 505.86 408.072 506.181C407.815 506.31 407.493 506.503 407.493 506.824C407.493 507.017 407.686 507.21 407.944 507.274C408.394 507.467 408.908 507.467 409.358 507.596C409.808 507.725 410.387 507.917 410.516 508.432C410.644 508.882 410.323 509.397 409.937 509.589C409.551 509.782 409.037 509.847 408.522 509.847C403.892 509.847 399.198 508.046 394.954 506.246C392.189 505.088 389.36 503.545 388.009 500.844" stroke="black" stroke-width="2.18509" stroke-linecap="round" stroke-linejoin="round"/>
<path d="M456.816 528.045C468.841 509.075 461.445 482.903 453.15 482.774C448.906 482.774 444.983 485.861 441.961 488.561C438.939 491.262 438.296 492.034 436.495 493.77C434.695 495.506 433.409 496.792 431.415 497.243C429.679 497.628 427.878 497.243 426.078 497.307C425.37 497.307 424.663 497.435 424.149 497.886C423.634 498.336 423.377 499.172 423.827 499.686C424.084 500.008 424.47 500.136 424.856 500.201C425.692 500.329 426.528 500.265 427.3 499.943C427.3 500.651 426.464 501.165 425.756 501.165C425.049 501.165 424.277 500.908 423.57 501.165C422.348 501.487 421.834 503.223 422.477 504.316C423.12 505.409 424.663 505.795 425.885 505.345C425.756 505.924 425.178 506.181 424.599 506.245C424.02 506.309 423.441 506.31 422.991 506.695C422.412 507.21 422.477 508.174 422.991 508.753C423.506 509.332 424.277 509.589 425.049 509.718C431.865 511.068 439.26 506.052 443.376 501.036C443.762 500.522 444.147 499.943 444.019 499.365" fill="#CCBCF3"/>
<path d="M456.816 528.045C468.841 509.075 461.445 482.903 453.15 482.774C448.906 482.774 444.983 485.861 441.961 488.561C438.939 491.262 438.296 492.034 436.495 493.77C434.695 495.506 433.409 496.792 431.415 497.243C429.679 497.628 427.878 497.243 426.078 497.307C425.37 497.307 424.663 497.435 424.149 497.886C423.634 498.336 423.377 499.172 423.827 499.686C424.084 500.008 424.47 500.136 424.856 500.201C425.692 500.329 426.528 500.265 427.3 499.943C427.3 500.651 426.464 501.165 425.756 501.165C425.049 501.165 424.277 500.908 423.57 501.165C422.348 501.487 421.834 503.223 422.477 504.316C423.12 505.409 424.663 505.795 425.885 505.345C425.756 505.924 425.178 506.181 424.599 506.245C424.02 506.309 423.441 506.31 422.991 506.695C422.412 507.21 422.477 508.174 422.991 508.753C423.506 509.332 424.277 509.589 425.049 509.718C431.865 511.068 439.26 506.052 443.376 501.036C443.762 500.522 444.147 499.943 444.019 499.365" stroke="black" stroke-width="2.18509" stroke-linecap="round" stroke-linejoin="round"/>
<path d="M440.546 503.995L437.717 513.641" stroke="black" stroke-width="2.18509" stroke-linecap="round" stroke-linejoin="round"/>
<path d="M394.954 506.245C395.147 507.853 397.526 513.64 397.526 513.64" stroke="black" stroke-width="2.18509" stroke-linecap="round" stroke-linejoin="round"/>
<path d="M424.085 537.819C424.085 537.883 424.085 538.012 424.085 538.076C424.214 540.456 427.943 542.578 431.866 542.128C432.895 541.999 433.859 541.677 434.567 541.227C434.695 541.099 434.888 540.97 434.824 540.841C434.76 540.391 433.859 540.841 433.666 540.906C432.059 541.484 430.451 541.356 428.844 540.906C427.043 540.456 426.078 539.62 425.693 538.462C425.307 537.369 426.078 536.147 427.557 535.44C429.036 534.732 431.351 534.861 432.509 535.761C433.281 536.34 433.345 537.24 432.702 537.948C432.38 538.269 431.866 538.591 431.287 538.719C430.708 538.848 429.937 538.784 429.422 538.526C428.908 538.269 428.651 537.819 428.908 537.433C429.101 537.176 429.551 536.983 429.937 537.112C430.258 537.176 430.451 537.433 430.773 537.498C430.966 537.498 431.159 537.498 431.287 537.369C431.416 537.24 431.416 537.112 431.416 536.983C431.351 536.533 430.644 536.211 429.937 536.211C429.229 536.211 428.586 536.404 428.136 536.726C427.493 537.176 427.172 537.819 427.365 538.462C427.557 539.041 428.201 539.62 429.101 539.877C430.065 540.134 431.159 540.07 432.059 539.813C433.859 539.298 435.145 538.076 435.017 536.855C434.888 535.311 432.766 533.961 430.323 533.897C426.786 533.768 424.149 535.761 424.085 537.819Z" fill="white"/>
<path d="M409.744 540.07C408.844 540.905 407.365 541.484 405.822 541.613C402.478 541.934 399.455 540.391 398.748 538.462C398.684 538.205 398.491 537.883 398.619 537.626C398.684 537.433 398.941 537.24 399.262 537.304C399.52 537.304 399.648 537.497 399.713 537.626C400.291 538.462 400.677 539.298 401.77 539.877C402.285 540.134 402.864 540.327 403.507 540.455C404.664 540.648 405.822 540.455 406.85 540.134C409.23 539.427 409.358 537.369 408.137 536.083C407.815 535.761 407.429 535.44 406.85 535.247C406.336 535.054 405.757 534.925 405.179 534.989C404.343 534.989 403.635 535.375 403.249 535.761C402.864 536.147 402.735 536.726 402.928 537.24C403.056 537.562 403.314 537.883 403.764 538.076C404.214 538.269 404.857 538.333 405.307 538.14C405.757 537.947 406.014 537.562 405.757 537.304C405.693 537.24 405.5 537.112 405.371 537.176C405.243 537.176 405.179 537.304 405.114 537.304C404.921 537.369 404.728 537.304 404.535 537.304C404.343 537.304 404.343 537.047 404.407 536.983C404.471 536.661 404.921 536.404 405.436 536.34C405.95 536.276 406.465 536.34 406.85 536.597C407.236 536.854 407.429 537.112 407.493 537.433C407.622 538.076 407.172 538.783 406.272 539.105C405.307 539.491 403.957 539.298 402.992 538.912C401.835 538.462 401.127 537.626 401.063 536.79C400.999 535.954 401.642 535.118 402.735 534.604C403.828 534.089 405.307 533.896 406.593 534.153C407.301 534.282 408.008 534.539 408.522 534.861C409.037 535.182 409.037 535.247 409.23 535.44C409.423 535.632 409.616 535.825 409.808 536.018C410.58 536.919 410.902 538.012 410.58 539.041C410.259 540.07 410.194 539.877 409.808 540.198L409.744 540.07Z" fill="white"/>
<path d="M391.032 563.991C394.891 563.605 398.492 561.419 400.549 558.139" stroke="black" stroke-width="2.18509" stroke-linecap="round" stroke-linejoin="round"/>
<path d="M436.11 558.332C438.039 560.904 440.483 563.219 443.184 564.956" stroke="black" stroke-width="2.18509" stroke-linecap="round" stroke-linejoin="round"/>
<path d="M399.649 453.58C397.398 452.872 395.019 452.936 392.897 453.965C390.839 454.93 389.746 456.666 389.296 458.853C388.91 460.975 391.353 462.647 393.025 461.039C393.733 460.396 394.697 459.946 395.533 459.431C396.369 458.917 397.205 458.788 398.17 458.981C399.456 459.238 400.613 458.788 401.321 457.695C401.642 457.245 401.642 456.795 401.706 456.28C401.835 455.059 400.742 453.965 399.649 453.58Z" fill="#DDD6F2"/>
<path d="M437.589 456.409C436.046 456.859 435.982 458.724 437.203 459.56C439.518 461.296 442.026 462.904 444.598 464.319C445.563 464.897 446.913 464.19 446.849 463.033C446.656 458.531 441.898 455.059 437.589 456.409Z" fill="#DDD6F2"/>
<path d="M390.903 493.899C390.453 490.684 387.816 488.754 384.73 488.176C381.707 487.661 378.749 489.333 377.335 491.97C376.82 492.934 377.463 494.413 378.685 494.285C382.029 493.963 385.373 495.121 388.459 496.278C390.067 496.857 391.096 495.185 390.903 493.834V493.899Z" fill="#DDD6F2"/>
<path d="M451.092 486.054C448.199 485.861 445.819 487.854 445.241 490.619C444.79 492.677 447.105 493.899 448.649 492.613C449.099 492.227 450.321 492.163 450.707 492.291C450.707 492.291 451.285 492.548 451.35 492.613C452.057 493.063 452.7 493.32 453.536 493.642C454.693 494.092 456.044 493.192 456.301 492.098C457.201 488.754 454.243 486.375 451.157 486.182L451.092 486.054Z" fill="#DDD6F2"/>
<path d="M454.501 541.42C453.665 540.327 452.765 540.005 451.479 539.684C450.45 539.427 449.485 539.684 448.456 539.877C447.299 540.134 447.106 541.613 447.813 542.385C448.521 543.221 449.035 543.864 450.064 544.25C451.093 544.635 451.993 545.021 453.151 544.7C454.372 544.314 455.401 542.578 454.501 541.42Z" fill="#DDD6F2"/>
<path d="M388.589 543.285C387.174 541.87 384.859 542.127 383.059 542.256C381.837 542.385 381.387 544.249 382.737 544.507C384.473 544.828 386.21 545.857 388.01 545.471C389.039 545.278 389.232 543.928 388.589 543.221V543.285Z" fill="#DDD6F2"/>
<path d="M423.313 553.124C421.448 552.802 419.904 553.445 418.104 553.767C416.368 554.088 414.696 554.474 412.959 554.86C411.802 555.117 411.48 557.046 412.638 557.561C416.046 559.04 421.383 559.876 424.341 556.918C425.435 555.825 425.113 553.445 423.377 553.124H423.313Z" fill="#DDD6F2"/>
<path d="M395.405 513.447C394.311 512.547 392.254 512.097 391.225 513.447C390.839 513.962 390.389 514.348 390.067 514.862C390.067 514.862 389.874 515.184 389.746 515.377C389.874 515.248 390.003 515.119 389.746 515.441C389.746 515.505 389.682 515.57 389.682 515.57C389.682 515.57 389.682 515.57 389.682 515.505C389.424 515.762 389.167 516.084 388.974 516.341C388.781 516.534 388.588 516.791 388.395 517.049C387.367 518.399 386.981 519.878 387.431 521.614C387.817 523.029 389.039 524.444 390.518 524.701C392.832 525.151 394.955 524.379 396.241 522.322C396.948 521.228 397.269 520.007 397.398 518.72C397.527 516.727 397.077 514.734 395.469 513.383L395.405 513.447Z" fill="#B897F0"/>
<path d="M389.681 515.377C389.681 515.377 389.617 515.505 389.553 515.505C389.553 515.505 389.553 515.505 389.553 515.441C389.553 515.441 389.553 515.441 389.553 515.377H389.681Z" fill="#B897F0"/>
<path d="M445.82 517.113C445.691 517.049 445.498 516.92 445.37 516.856C445.112 516.663 444.919 516.47 444.662 516.277C444.534 516.213 444.469 516.084 444.405 516.02C443.955 515.312 443.183 514.798 442.476 514.348C440.868 513.255 438.296 513.962 437.396 515.698C435.467 519.428 437.782 523.415 441.061 525.408C442.669 526.437 445.562 526.244 446.849 524.637C447.492 523.865 447.749 523.543 448.07 522.514C448.649 520.585 447.685 518.077 445.884 517.113H445.82Z" fill="#B897F0"/>
<path d="M419.519 504.574C419.261 504.381 418.94 504.574 418.747 504.767C417.654 506.246 415.403 505.795 414.374 504.509C413.153 502.902 413.474 500.458 414.76 498.915C416.239 497.243 418.811 498.915 418.811 500.844C418.811 501.68 418.426 502.58 417.718 503.03C416.818 503.673 415.725 503.352 415.468 502.259C415.21 501.358 415.853 499.429 417.075 500.394C417.461 500.715 417.718 501.294 417.268 501.68C416.882 502.001 416.368 501.68 416.496 501.166C416.561 500.908 416.239 500.78 416.046 500.973C415.725 501.423 415.853 502.066 416.239 502.452C416.754 502.902 417.525 502.709 417.911 502.259C419.004 501.101 417.782 499.365 416.432 499.236C414.76 499.108 414.117 501.101 414.439 502.387C414.76 503.931 416.303 504.702 417.718 504.059C418.94 503.481 419.647 502.13 419.647 500.844C419.647 499.429 418.747 498.143 417.461 497.5C416.754 497.179 415.918 497.05 415.21 497.307C414.439 497.564 413.924 498.079 413.474 498.722C412.574 500.008 412.188 501.744 412.574 503.288C412.895 504.767 414.053 506.181 415.532 506.631C417.011 507.082 418.618 506.567 419.519 505.345C419.712 505.088 419.519 504.767 419.326 504.574H419.519Z" fill="black"/>
<path d="M359 586.373C359 584.425 361.673 583.59 363.511 584.147C365.349 584.703 366.909 586.151 368.802 586.651C366.017 578.581 363.957 570.232 362.62 561.772C362.453 560.715 362.509 559.267 363.567 559.045C363.957 558.933 364.347 559.045 364.737 559.212C367.633 560.325 369.972 562.384 372.144 564.555C377.49 570.121 381.667 576.856 384.174 584.147C384.174 581.865 384.786 579.583 385.789 577.468C386.067 576.856 386.513 576.188 387.181 575.965C388.184 575.687 389.075 576.522 389.743 577.356C391.303 579.305 392.639 581.475 393.753 583.757C393.642 580.919 396.761 578.637 399.601 578.971C402.441 579.249 404.78 581.475 406.061 584.036" stroke="black" stroke-width="2" stroke-linecap="round" stroke-linejoin="round"/>
</g>
<defs>
<clipPath id="clip0_2922_29125">
<rect width="1920" height="1134" rx="64" fill="white"/>
</clipPath>
</defs>
</svg>
