<svg width="150" height="150" viewBox="0 0 150 150" fill="none" xmlns="http://www.w3.org/2000/svg">
<path d="M24.8 31.7002V44.1002C24.8 45.4002 25.2 48.0002 26 49.4002L67.3 123.7C69.8 128.2 75.5 131.2 79.9 130.4L118.4 123.2C120.8 122.8 122.3 121.3 122.9 119.4L124.7 111.6" fill="#B897F0"/>
<path d="M24.8 31.7002V44.1002C24.8 45.4002 25.2 48.0002 26 49.4002L67.3 123.7C69.8 128.2 75.5 131.2 79.9 130.4L118.4 123.2C120.8 122.8 122.3 121.3 122.9 119.4L124.7 111.6" stroke="black" stroke-width="2" stroke-linecap="round" stroke-linejoin="round"/>
<path d="M124 105C126.5 109.5 124.9 113.9 120.4 114.7L110.3 116.6L96.9 107.3L104.4 69.1997L124.1 105H124Z" fill="#CDBDF4"/>
<path d="M110.3 116.7L94.5 119.6L96.9 107.4L110.3 116.7Z" fill="#CDBDF4"/>
<path d="M100.7 60.3999L106.9 71.6999L99.5 109.8L92.4 104.9L100.7 60.3999Z" fill="#E8E0FF"/>
<path d="M95.3 52.7998L100.3 62.3998L92.4 104.9L87.4 100.8L81 91.4998L89.4 55.9998L95.3 52.7998Z" fill="#CDBDF4"/>
<path d="M96.9 107.4L94.5 119.6L86.3 121.2L89.8 102.5L96.9 107.4Z" fill="#E8E0FF"/>
<path d="M95.3 52.7998L89.4 55.9998L91.7 46.2998L95.3 52.7998Z" fill="#CDBDF4"/>
<path d="M87.3 57.0998L90.1 43.2998L91.7 46.2998L89.4 55.9998L87.3 57.0998Z" fill="#E8E0FF"/>
<path d="M89.6 57.1L91.7 56L82.7 94L76 84.2L77.8 62.3L89.6 57.1Z" fill="#E8E0FF"/>
<path d="M81.9 122C81.1 122.2 80.2 122.2 79.4 122C79.2 122 79 122 78.8 122C78.5 122 78.3 122 78 121.8C77.5 121.7 77 121.5 76.6 121.4C76.2 121.3 75.9 121.1 75.5 120.9C75.3 120.9 75.1 120.7 74.9 120.6C74.7 120.5 72.1 118 71.8 117.8L78.1 88.5L87.3 100.8L89.7 102.5L86.2 121.2L81.8 122H81.9Z" fill="#CDBDF4"/>
<path d="M78.7 88.0997C78.7 88.0997 72.3 118.9 72.1 118.7C71 117.7 70 116.5 69.3 115.3L64.9 107.3L65.5 97.8997L67.7 88.8997L76 84.1997L78.7 88.0997Z" fill="#E8E0FF"/>
<path d="M68.1 19.5998C72.6 18.7998 78.2 21.7998 80.7 26.2998L90.5 43.9998L88.1 57.0998L77.8 62.2998L74.5 61.5998C69.8 60.4998 60.9 58.4998 52.6 56.5998C43.2 54.3998 34.8 52.3998 34.5 51.9998L26 36.4998C23.5 31.9998 25.1 27.5998 29.6 26.7998L68.1 19.5998Z" fill="#CDBDF4"/>
<path d="M77.8 62.2996L76.1 84.1996L67.8 88.8996L74.6 61.5996C76.6 62.0996 77.9 62.2996 77.9 62.2996H77.8Z" fill="#E8E0FF"/>
<path d="M74.9 120.6C75.1 120.7 75.3 120.8 75.5 120.9C75.3 120.9 75.1 120.7 74.9 120.6Z" fill="#CDBDF4"/>
<path d="M74.5 61.5L67.7 88.8L57.8 94.4L45 71.2L45.9 70.7L52.5 64.4C52.5 64.4 52.7 56.5 52.5 56.5C60.7 58.4 69.7 60.4 74.4 61.5H74.5Z" fill="#CDBDF4"/>
<path d="M57.8 94.3999L67.7 88.8999L65.5 97.8999L63.7 105.1L57.8 94.3999Z" fill="#CDBDF4"/>
<path d="M63.7 105.1L65.5 97.8999L64.9 107.3L63.7 105.1Z" fill="#E8E0FF"/>
<path d="M52.6 56.6C52.8 56.6 52.6 64.5 52.6 64.5L46 70.8L45.1 71.3L34.5 52C34.8 52.4 43.3 54.4 52.6 56.6Z" fill="#CDBDF4"/>
<path d="M78.9 23.2998L86.5 37.1998L81.8 59.7998L77.8 62.1998C77.8 62.1998 72 59.7998 70 59.3998L78.9 23.2998Z" fill="#E8E0FF"/>
<path d="M96.8 123.1L107.7 121.1" stroke="black" stroke-width="2" stroke-linecap="round" stroke-linejoin="round"/>
<path d="M34.5 51.9998L26 36.4998C23.5 31.9998 25.1 27.5998 29.6 26.7998L68.1 19.5998C72.6 18.7998 78.2 21.7998 80.7 26.2998L82.4 29.3998L90 43.2998L91.6 46.2998L95.2 52.7998L98 57.9998L104.2 69.2998L123.9 105.1C126.4 109.6 124.8 114 120.3 114.8L110.2 116.7L94.3 119.7C91.8 120.2 89.2 120.7 86.7 121.2C84.2 121.7 81.7 122.3 79.3 122.1C75.3 121.9 71.4 119 69.4 115.7C67.4 112.4 69.2 115.4 69.2 115.3L64.8 107.3L63.6 105.1L57.7 94.3998L44.9 71.1998L34.3 51.8998" stroke="black" stroke-width="2" stroke-linecap="round" stroke-linejoin="round"/>
<path d="M46 29.2998L56.5 27.2998" stroke="black" stroke-width="2" stroke-linecap="round" stroke-linejoin="round"/>
<path d="M34.5 52C34.8 52.4 43.3 54.4 52.6 56.6C60.8 58.5 69.8 60.5 74.5 61.6C76.5 62.1 77.8 62.3 77.8 62.3L87.4 57.1L89.5 56L95.4 52.8" stroke="black" stroke-width="2" stroke-linecap="round" stroke-linejoin="round"/>
<path d="M77.8 62.2998L76 84.1998L67.7 88.8998L57.8 94.3998" stroke="black" stroke-width="2" stroke-linecap="round" stroke-linejoin="round"/>
<path d="M76 84.1997L81 91.4997L87.4 100.8L89.8 102.5L96.9 107.4L110.3 116.7" stroke="black" stroke-width="2" stroke-linecap="round" stroke-linejoin="round"/>
<path d="M87.3 57.0998L90.1 43.2998" stroke="black" stroke-width="2" stroke-linecap="round" stroke-linejoin="round"/>
<path d="M66 90.7998L65.5 97.8998L64.9 107.3" stroke="black" stroke-width="2" stroke-linecap="round" stroke-linejoin="round"/>
<path d="M52.6 56.5996C52.8 56.5996 52.6 64.4996 52.6 64.4996L46 70.7996" stroke="black" stroke-width="2" stroke-linecap="round" stroke-linejoin="round"/>
</svg>
