<svg width="150" height="150" viewBox="0 0 150 150" fill="none" xmlns="http://www.w3.org/2000/svg">
<g filter="url(#filter0_d_2_4362)">
<path d="M113.6 37.6998L110.9 31.7998C111.3 32.8998 111.3 34.0998 110.9 35.1998L80 127.3C79.1 130 76.1001 131.5 73.4001 130.6C73.4001 130.6 32.1 116.5 32.1 116.4C30.8 115.9 29.9 115 29.3 113.9L32.2001 119.7C32.7001 121.3 34 122.6 35.6 123.1L76.3001 137C79.1001 138 82.2 136.4 83.2 133.6L114 41.8998C114.5 40.3998 114.3 38.8998 113.6 37.5998V37.6998Z" fill="#FFB4F5"/>
<path d="M112.2 37.0998C112.6 35.8998 112.5 34.6998 112.2 33.5998C111.7 32.1998 110.5 30.9998 109 30.4998L67.9001 16.3998C65.2001 15.4998 62.2001 16.9998 61.3001 19.6998L59.7001 24.3998L110.8 41.3998L112.2 37.1998V37.0998Z" fill="white"/>
<path d="M33.2001 104.2L84.3001 121.1L104.8 61.3998L53.5001 44.7998L33.2001 104.2Z" fill="#FFB4F5"/>
<path d="M59.7 24.2998L53.5 44.7998L104.8 61.3998L111.1 40.4998L59.7 24.2998Z" fill="white"/>
<path d="M30.3 111.7C29.9 113 30 114.4 30.5 115.6C31.1 116.9 32 117.8 33.3 118.3C33.3 118.3 33.4 118.3 33.5 118.3L74.6 132.4C77.3 133.3 80.3 131.8 81.2 129.1L84.2 121.1L33 104.2L30.1 111.7H30.3Z" fill="white"/>
<path d="M113.9 37.6997C114.6 38.9997 114.8 40.4997 114.3 41.9997L83.5 133.7C82.5 136.5 79.5 138.1 76.6 137.1L35.9 123.2C34.2 122.6 33 121.3 32.5 119.8" stroke="black" stroke-width="2" stroke-linecap="round" stroke-linejoin="round"/>
<path d="M112.2 33.5996L113.9 37.6996" stroke="black" stroke-width="2" stroke-linecap="round" stroke-linejoin="round"/>
<path d="M30.5 115.5L30.6 115.7L32.4 119.6" stroke="black" stroke-width="2" stroke-linecap="round" stroke-linejoin="round"/>
<path d="M81.8 26.2002L89.1 28.7002" stroke="black" stroke-width="2" stroke-linecap="round" stroke-linejoin="round"/>
<path d="M65.7 42.5998C68.6824 42.5998 71.1 40.1821 71.1 37.1998C71.1 34.2175 68.6824 31.7998 65.7 31.7998C62.7177 31.7998 60.3 34.2175 60.3 37.1998C60.3 40.1821 62.7177 42.5998 65.7 42.5998Z" fill="#FFB4F5"/>
<path d="M79.6 47.0998C82.5823 47.0998 85 44.6821 85 41.6998C85 38.7175 82.5823 36.2998 79.6 36.2998C76.6176 36.2998 74.2 38.7175 74.2 41.6998C74.2 44.6821 76.6176 47.0998 79.6 47.0998Z" fill="#FFB4F5"/>
<path d="M93 51.8C95.9823 51.8 98.4 49.3823 98.4 46.4C98.4 43.4177 95.9823 41 93 41C90.0176 41 87.6 43.4177 87.6 46.4C87.6 49.3823 90.0176 51.8 93 51.8Z" fill="#FFB4F5"/>
<path d="M65.7 42.5998C68.6824 42.5998 71.1 40.1821 71.1 37.1998C71.1 34.2175 68.6824 31.7998 65.7 31.7998C62.7177 31.7998 60.3 34.2175 60.3 37.1998C60.3 40.1821 62.7177 42.5998 65.7 42.5998Z" stroke="black" stroke-width="2" stroke-linecap="round" stroke-linejoin="round"/>
<path d="M79.6 47.0998C82.5823 47.0998 85 44.6821 85 41.6998C85 38.7175 82.5823 36.2998 79.6 36.2998C76.6176 36.2998 74.2 38.7175 74.2 41.6998C74.2 44.6821 76.6176 47.0998 79.6 47.0998Z" stroke="black" stroke-width="2" stroke-linecap="round" stroke-linejoin="round"/>
<path d="M93 51.8C95.9823 51.8 98.4 49.3823 98.4 46.4C98.4 43.4177 95.9823 41 93 41C90.0176 41 87.6 43.4177 87.6 46.4C87.6 49.3823 90.0176 51.8 93 51.8Z" stroke="black" stroke-width="2" stroke-linecap="round" stroke-linejoin="round"/>
<path d="M106 56.5002C103.3 56.1002 101.3 53.9002 101.3 51.1002C101.3 48.3002 103.7 45.7002 106.7 45.7002C109.7 45.7002 108.2 45.7002 108.9 46.2002" fill="#FFB4F5"/>
<path d="M105.5 56.4002C103.1 55.8002 101.4 53.7002 101.4 51.1002C101.4 48.5002 103.8 45.7002 106.8 45.7002C109.8 45.7002 108.3 45.7002 109 46.2002" stroke="black" stroke-width="2" stroke-linecap="round" stroke-linejoin="round"/>
<path d="M110.5 40.0999L60.4 23.3999" stroke="black" stroke-width="2" stroke-linecap="round" stroke-linejoin="round"/>
<path d="M68.4 73.6998L64.9 77.3998L62.4 73.2998L68.4 73.6998Z" fill="white"/>
<path d="M64.9001 77.4L68.4001 73.7L62.3 73.2L64.8001 77.3L64.9001 77.4ZM69.1 72.7C70 74.6 71.9001 75.3 73.9001 75.5C75.1001 75.6 76.3001 75.6 77.3001 75.5C78.6001 75.5 83.7 75.2 82.7 72.7C82.3 71.7 80.6001 70.8 79.8001 70.2C78.6001 69.4 77.4001 68.6 76 68.2C75 67.9 74 67.8 73 67.9C71.8 67.9 70.7001 68.3 69.8001 69.1C68.9001 69.9 68.5 71.2 68.9001 72.2C68.9001 72.3 68.9001 72.4 69 72.5L69.1 72.7ZM59.6 73.7C60.8 73.7 62.2001 73.5 63 72.6C63.8 71.7 63.9001 70.4 63.4001 69.3C62.9001 68.3 62.0001 67.5 60.9001 66.9C60.0001 66.4 59.1 66.1 58.1 66C56.7 65.8 55.2 66 53.8 66.4C53.2 66.5 52.2 66.7 51.3 66.9C51.6 66.6 51.9 66.4 52.1 66.2C51.6 63.8 52 58.8 53.2001 57.8C54.4001 56.8 61.1 61 61.8 62.2C64.1 61.5 73.1001 62.2 76.3001 63.9C77.8001 63 83.7001 59.6 84.9001 60.3C86 61 85.9 67.2 85.2 68.7C87.2 71.2 88.8 74 90.2 76.9C90.3 77.1 90.4001 77.4 90.4001 77.7C90.4001 77.9 90.2 78.1 90.1 78.3C88.7 79.8 82.8001 83.7 80.8001 84.3C84.6001 84.8 91.8 83 97.5 81L92.1 96C92.1 96 83.3001 100.3 82.3001 99.9C81.3001 99.5 86.2 110.9 86.2 110.9L83 120.8L33.8 104.4L37.1 93.7C40.2 87.4 49.1001 85.6 52.9001 81C52.0001 80.4 51.3 79.8 50 78.7C49 77.9 48 77 47.5 75.8C46.5 73.3 47.9001 70.6 49.7001 68.6C49.8001 70 52.7001 71.5 53.5 72.1C54.6 72.9 55.8 73.5 57.1 73.7C57.9 73.8 58.7001 73.8 59.5 73.7H59.6Z" fill="#C5B5F2"/>
<path d="M82.8 72.7001C83.7 75.2001 78.7 75.4001 77.4 75.5001C76.4 75.5001 75.2 75.5001 74 75.5001C72 75.3001 70 74.6001 69.2 72.7001C69.2 72.6001 69.2 72.5001 69.1 72.4001C68.7 71.3001 69.1 70.0001 70 69.3001C70.9 68.5001 72 68.2001 73.2 68.1001C74.2 68.1001 75.2 68.1001 76.2 68.4001C77.6 68.8001 78.8 69.5001 80 70.4001C80.8 71.0001 82.6 71.9001 82.9 72.9001L82.8 72.7001Z" fill="#1B0F34"/>
<path d="M59.6 73.6997C58.8 73.6997 58.0001 73.6997 57.2001 73.6997C55.9001 73.4997 54.7 72.7997 53.6 72.0997C52.8 71.5997 50 69.9997 49.8 68.5997C50.3 67.9997 50.8 67.4997 51.3 66.9997C52.1 66.6997 53.1 66.5997 53.8 66.4997C55.2 66.1997 56.7 65.9997 58.1 66.0997C59.1 66.1997 60.1001 66.4997 60.9001 66.9997C61.9001 67.4997 62.9001 68.2997 63.4001 69.3997C63.9001 70.4997 63.8 71.7997 63 72.6997C62.2 73.5997 60.8 73.7997 59.6 73.7997V73.6997Z" fill="#1B0F34"/>
<path d="M52.1001 66.2002C51.8001 66.4002 50.8001 67.4002 50.5001 67.7002L49.7001 68.5002C47.9001 70.5002 46.5001 73.2002 47.5001 75.7002C48.0001 76.9002 49.0001 77.8002 50.0001 78.6002C51.3001 79.6002 52.0001 80.3002 52.9001 80.9002C53.6001 81.3002 54.3001 81.7002 55.5001 82.2002" stroke="black" stroke-width="2" stroke-linecap="round" stroke-linejoin="round"/>
<path d="M35.8 95.4C38.9 89.1 49.1 85.6 52.8 81" stroke="black" stroke-width="2" stroke-linecap="round" stroke-linejoin="round"/>
<path d="M92.4 95.8999C92.4 95.8999 83.2 100.2 82.3 99.7999C81.3 99.3999 86.9 112.5 86.9 112.5" stroke="black" stroke-width="2" stroke-linecap="round" stroke-linejoin="round"/>
<path d="M52.1001 66.2C51.6001 63.8 52.0001 58.8 53.2001 57.8C54.4001 56.8 61.1001 61 61.8001 62.2C64.1001 61.5 73.1001 62.2 76.3001 63.9C77.8001 63 83.7001 59.6 84.9001 60.3C86.0001 61 85.9001 67.2 85.2001 68.7C87.2001 71.2 88.8001 74 90.2001 76.9C90.3001 77.1 90.4001 77.4 90.4001 77.7C90.4001 77.9 90.2001 78.1 90.1001 78.3C88.7001 79.8 82.8001 83.7 80.8001 84.3C84.6001 84.8 91.8001 83 97.5001 81" stroke="black" stroke-width="2" stroke-linecap="round" stroke-linejoin="round"/>
<path d="M59.2001 77.2998C59.6001 78.2998 60.7001 78.8998 61.9001 78.8998C62.9001 78.8998 63.8001 78.3998 64.6001 77.7998C65.1001 77.3998 65.0001 77.7998 65.4001 78.1998C65.6001 78.4998 65.9001 78.7998 66.3001 78.9998C67.1001 79.4998 68.1001 79.3998 69.0001 79.1998C69.5001 79.1998 70.1001 78.9998 70.4001 78.5998" stroke="black" stroke-width="2" stroke-linecap="round" stroke-linejoin="round"/>
<path d="M64.9 77.3998L62.4 73.2998L68.4 73.6998L64.9 77.3998Z" fill="#B897F0" stroke="black" stroke-width="2" stroke-linecap="round" stroke-linejoin="round"/>
<path d="M82.9 63.4999C82.9 63.4999 82.9 63.4999 82.7 63.3999C82.5 63.3999 82.4 63.3999 82.2 63.3999C80.9 63.8999 79.7 64.5999 78.6 65.4999C77.5 66.3999 77.5 66.2999 78.2 66.7999C78.9 67.2999 79.1 67.3999 79.6 67.5999C80.2 67.8999 81.3 68.4999 82 68.0999C82.7 67.6999 82.8 66.1999 83 65.4999C83.2 64.8999 83.3 64.0999 82.9 63.5999V63.4999Z" fill="#B897F0"/>
<path d="M56.9 62.3001C56.9 62.3001 56.9 62.3001 56.9 62.2001C56.6 61.8001 56.0999 61.6001 55.5999 61.4001C55.2999 61.3001 54.8999 61.2001 54.5999 61.4001C54.3999 61.5001 54.2999 61.8001 54.2999 62.0001C54.0999 62.8001 54.2999 63.5001 54.2999 64.3001C54.2999 64.5001 54.2999 64.7001 54.4999 64.7001C54.5999 64.7001 54.8 64.7001 54.9 64.7001C55.6 64.4001 56.3 64.1001 56.9 63.8001C57.1 63.8001 57.1999 63.6001 57.2999 63.4001C57.2999 63.2001 57.2999 63.1001 57.1999 62.9001C57.1999 62.7001 57 62.5001 56.9 62.4001V62.3001Z" fill="#B897F0"/>
<path d="M56.5 63.2002C54.7 64.3002 53.4 65.1002 52.1 66.2002" stroke="black" stroke-width="2" stroke-linecap="round" stroke-linejoin="round"/>
<path d="M76 70.0999C75.7 69.4999 75.1 69.0999 74.5 68.8999C73.9 68.6999 73.1 68.5999 72.5 68.7999C71.9 68.9999 71.5 69.4999 71.2 70.0999C70.7 71.1999 70.8 72.5999 71.6 73.5999C72.4 74.5999 74 74.9999 75 74.1999C75.2 73.9999 75.2 73.6999 75 73.4999C74.8 73.2999 74.6 73.2999 74.3 73.3999C74.2 73.3999 74 73.4999 73.9 73.5999C73.9 73.5999 73.6 73.5999 73.4 73.5999C73.3 73.5999 73.4 73.5999 73.2 73.5999H73C72.9 73.5999 72.7 73.3999 72.5 73.2999C71.9 72.8999 71.7 71.9999 71.8 71.2999C71.8 70.8999 72 70.4999 72.2 70.1999C72.4 69.8999 72.8 69.7999 73.2 69.7999C73.9 69.7999 74.9 70.3999 74.9 71.0999C74.9 71.0999 74.9 71.1999 74.9 71.2999V71.3999C74.9 71.3999 74.9 71.4999 74.9 71.5999C74.9 71.5999 74.9 71.5999 74.8 71.5999C74.8 71.5999 74.8 71.5999 74.7 71.5999C74.7 71.2999 74.3 71.0999 73.9 71.1999C73.6 71.1999 73.4 71.5999 73.5 71.9999C73.6 72.6999 74.2 73.1999 74.9 73.1999C75.5 73.1999 76.2 72.8999 76.5 72.2999C76.9 71.6999 76.8 70.8999 76.5 70.2999L76 70.0999Z" fill="white"/>
<path d="M61.1 67.7998C60.1 66.9998 58.7 67.1998 58 68.1998C57.6 68.7998 57.6 69.7998 58.2 70.1998C58.5 70.3998 58.9 70.4998 59.2 70.1998C59.5 70.0998 59.7 69.6998 59.6 69.3998C59.6 69.1998 59.3 69.1998 59.2 69.2998C59.2 69.2998 59 69.4998 58.9 69.3998C58.8 69.3998 58.7 69.1998 58.7 69.0998C58.7 68.7998 58.9 68.4998 59.1 68.2998C59.7 67.8998 60.5 68.1998 60.9 68.7998C61.7 70.1998 60.3 71.8998 58.9 71.6998C58.1 71.6998 57.5 71.0998 57 70.3998C56.7 70.0998 56.2 70.3998 56.3 70.7998C56.5 71.9998 57.9 72.6998 59 72.6998C60.2 72.6998 61.3 71.9998 61.8 70.9998C62.4 69.8998 62.2 68.3998 61.2 67.5998L61.1 67.7998Z" fill="white"/>
<path d="M78.1 66.2999C79.7 65.2999 81.1 64.0999 82.8 63.3999" stroke="black" stroke-width="2" stroke-linecap="round" stroke-linejoin="round"/>
<path d="M71.3001 83.9002C70.3001 83.2002 68.8 83.1002 67.6 83.0002C65.6 82.9002 63.7001 82.7002 61.7001 82.3002C60.9001 82.2002 58.4001 81.2002 58.1001 82.5002C57.8001 83.8002 60.1001 85.0002 60.9001 85.4002C62.2001 85.9002 63.6001 86.2002 64.9001 86.4002C66.5001 86.6002 68.3001 86.9002 69.9001 86.5002C71.5001 86.1002 72.6 85.5002 71.6 84.3002C70.6 83.1002 71.3 84.0002 71.2 83.9002H71.3001Z" fill="#B897F0"/>
<path d="M49.2 90.1C46.4 91.4 44.4 93.5 42.6 95.9C41 98 38.8 101.2 39 104C39 105.2 40.4 106.3 41.6 105.5C43.8 103.9 45.1 100.9 46.5 98.7C48.1 96.3 49.7 94 50.8 91.3C51.2 90.4 50 89.8 49.3 90.1H49.2Z" fill="#B897F0"/>
<path d="M50.2001 91.6001C44.9001 99.2001 42.8 105.3 42.8 105.3" stroke="black" stroke-width="2" stroke-linecap="round" stroke-linejoin="round"/>
<path d="M91.3 84.6C89.3 84.8 87.3 85.4 85.3 85.8C83.4 86.1 81.3 85.8 79.6 86.8C78.6 87.4 78.7 88.7 79.6 89.3C81.4 90.5 83.9 90.2 85.9 90C88.1 89.8 90.4 89.3 92.2 88.1C93.6 87.2 93.2 84.4 91.3 84.6Z" fill="#DDD6F2"/>
<path d="M79.7 104.7C79 101.9 77.8 99.2998 76.3 96.7998C75.6 95.5998 73.6 96.3998 74 97.7998C74.8 100.4 75.5 103.1 76.1 105.7C76.7 108.1 76.8 110.7 78.2 112.8C78.8 113.6 79.8 113.4 80.2 112.5C81.2 110.1 80.3 107.2 79.7 104.7Z" fill="#DDD6F2"/>
<path d="M70.5 64.8002C69.5 64.1002 68.2 64.1002 67 64.2002C65.7 64.2002 64.6 64.5002 63.4 64.9002C62.8 65.1002 62.7 66.0002 63.4 66.2002C64.6 66.5002 65.8 66.8002 67 66.9002C68.2 67.0002 69.3 67.2002 70.5 66.7002C71.3 66.3002 71.1 65.3002 70.5 64.8002Z" fill="#DDD6F2"/>
<path d="M82.9 76.1002C82.1 76.5002 81.5 77.3002 80.7 77.8002C79.9 78.3002 79 78.5002 78.3 79.0002C77.7 79.4002 77.5 80.5002 78.3 80.9002C80.7 82.0002 84.6 80.0002 84.9 77.2002C84.9 76.1002 83.7 75.7002 82.9 76.0002V76.1002Z" fill="#DDD6F2"/>
<path d="M51.8 84.8001C50.2 86.1001 48.2 87.1001 46.7 88.6001C45.8 89.5001 46.7 91.0001 47.9 90.7001C50.3 90.1001 52.1 88.1001 53.5 86.1001C54.2 85.0001 52.7 84.2001 51.9 84.9001L51.8 84.8001Z" fill="#DDD6F2"/>
<path d="M51.9 93.8998C50.6 95.2998 49.5 96.6998 48.6 98.3998C47.8 99.8998 46.8 101.6 47 103.4C47 104.1 48.1 104.8 48.7 104.1C49.7 102.9 50.1 101.3 50.7 99.7998C51.4 98.0998 52.2 96.3998 53 94.7998C53.3 94.0998 52.5 93.3998 51.9 93.9998V93.8998Z" fill="#DDD6F2"/>
<path d="M30.5 115.5C30 114.3 29.8 113 30.3 111.7L61.3 19.6002C62.2 16.9002 65.2 15.4002 67.9 16.3002L109 30.4002C110.6 30.9002 111.7 32.1002 112.2 33.5002C112.6 34.6002 112.6 35.8002 112.2 36.9002L81.3 129C80.4 131.7 77.4 133.2 74.7 132.3L33.6 118.2C33.6 118.2 33.5 118.2 33.4 118.2C32.1 117.7 31.2 116.8 30.6 115.7" stroke="black" stroke-width="2" stroke-linecap="round" stroke-linejoin="round"/>
<path d="M41.1001 114.3C41.1001 114.6 41.2001 115 41.2001 115.3C41.2001 115.5 41.2001 115.8 41.2001 116C41.1001 116.3 40.8001 116.4 40.5001 116.5C39.7001 116.7 38.1001 116.1 37.9001 115.3C37.7001 114.7 38.5001 113.9 39.0001 113.6C39.5001 113.3 40.2001 113.2 40.6001 113.6C40.8001 113.8 41.0001 114 41.1001 114.3Z" stroke="black" stroke-width="2" stroke-linecap="round" stroke-linejoin="round"/>
<path d="M39.5001 110.4C39.7001 110.4 39.9001 110.4 40.0001 110.1C40.1001 109.8 40.0001 110 40.0001 109.9C40.0001 109.8 40.0001 109.7 40.0001 109.6C39.6001 107.9 38.4001 110.2 39.5001 110.4Z" stroke="black" stroke-width="2" stroke-linecap="round" stroke-linejoin="round"/>
<path d="M36.4001 112C36.6001 112 36.7 111.7 36.7 111.5C36.7 111.3 36.7 111.3 36.7 111.3C36.7 111.2 36.6 111.1 36.5 111C35.2 109.7 35.5 112.3 36.5 112H36.4001Z" stroke="black" stroke-width="2" stroke-linecap="round" stroke-linejoin="round"/>
<path d="M42.7001 111.6C42.8001 111.8 43.1001 111.8 43.2001 111.7C43.3001 111.6 43.3001 111.7 43.4001 111.6C43.4001 111.6 43.6001 111.4 43.6001 111.3C44.4001 109.7 42.0001 110.7 42.7001 111.6Z" stroke="black" stroke-width="2" stroke-linecap="round" stroke-linejoin="round"/>
<path d="M44.2001 114.9C44.2001 115.1 44.5001 115.2 44.7001 115.2C44.9001 115.2 44.9001 115.2 44.9001 115.2C45.0001 115.2 45.1001 115.1 45.2001 115C46.5001 113.8 43.9001 113.9 44.2001 115V114.9Z" stroke="black" stroke-width="2" stroke-linecap="round" stroke-linejoin="round"/>
<path d="M58.2 121.6L57.7 123.5L55.6 120.7L53.3 119.9C52.3 119.6 51.8 118.5 52.1 117.5L52.8 115.4C53.1 114.4 54.2 113.9 55.2 114.2L60.1 115.9C61.1 116.2 61.6 117.3 61.3 118.3L60.6 120.4C60.3 121.4 59.2 121.9 58.2 121.6Z" stroke="black" stroke-width="2" stroke-linecap="round" stroke-linejoin="round"/>
<path d="M71.3 122.6C70.8 122.8 70.6 123.5 70.9 124C71.4 124.6 72.4 124.6 73 124.3C74 123.7 74.2 122.3 73.6 121.4C72.8 120.1 71.2 119.9 69.9 120.5C68.6 121.1 67.5 122.8 67.9 124.5C68.6 128.2 74.9 128.9 76.5 124.4" stroke="black" stroke-width="2" stroke-linecap="round" stroke-linejoin="round"/>
</g>
<defs>
<filter id="filter0_d_2_4362" x="-4" y="0" width="158" height="158" filterUnits="userSpaceOnUse" color-interpolation-filters="sRGB">
<feFlood flood-opacity="0" result="BackgroundImageFix"/>
<feColorMatrix in="SourceAlpha" type="matrix" values="0 0 0 0 0 0 0 0 0 0 0 0 0 0 0 0 0 0 127 0" result="hardAlpha"/>
<feOffset dy="4"/>
<feGaussianBlur stdDeviation="2"/>
<feComposite in2="hardAlpha" operator="out"/>
<feColorMatrix type="matrix" values="0 0 0 0 0 0 0 0 0 0 0 0 0 0 0 0 0 0 0.25 0"/>
<feBlend mode="normal" in2="BackgroundImageFix" result="effect1_dropShadow_2_4362"/>
<feBlend mode="normal" in="SourceGraphic" in2="effect1_dropShadow_2_4362" result="shape"/>
</filter>
</defs>
</svg>
