<svg width="114" height="114" viewBox="0 0 114 114" fill="none" xmlns="http://www.w3.org/2000/svg">
<path d="M69.768 67.0318C71.364 68.4758 71.44 70.3758 69.616 71.5918C67.032 73.3398 56.772 74.2518 56.088 70.0718C56.012 69.4638 56.088 68.7798 56.468 67.9438C57.076 66.4998 58.596 65.5118 60.116 65.1318C63.308 64.3718 67.26 64.6758 69.844 66.9558L69.768 67.0318Z" fill="#FFEC81"/>
<path d="M48.716 61.4839C48.868 61.9399 48.868 62.3959 48.716 62.8519C48.336 64.4479 47.044 65.6639 45.524 66.2719C44.004 66.8799 42.408 66.8799 40.812 66.8039C38.228 66.5759 35.492 65.8919 33.972 63.7639C33.668 63.3839 33.516 62.9279 33.44 62.4719C33.44 60.2679 37.24 58.9759 38.912 58.5959C40.812 58.2159 42.712 58.2919 44.536 58.8239C45.752 59.2039 48.184 60.1919 48.64 61.4839H48.716Z" fill="#FFEC81"/>
<path d="M84.36 76.4556C85.728 75.0876 84.436 71.8196 84.436 71.8196C85.044 71.2876 85.576 70.8316 86.108 70.2996C88.008 68.4756 89.376 66.4996 90.212 64.3716C89.908 65.2836 87.02 75.4676 85.348 76.9116C83.6 78.4316 73.34 91.5796 49.552 91.5796C25.764 91.5796 16.568 81.4716 13.984 79.1156C11.476 76.6836 7.67599 68.7036 6.68799 65.2076C7.75199 67.6396 9.65199 69.8436 12.084 71.8956C19.684 78.0516 32.984 82.1556 48.26 82.1556C63.536 82.1556 66.424 80.5596 73.492 77.8996C80.56 77.8996 82.916 77.8996 84.284 76.4556H84.36Z" fill="#B897F0"/>
<path d="M104.12 25.9158C104.576 25.2318 103.208 24.0158 101.536 24.2438C99.864 24.4718 96.14 27.1318 95.304 28.4238C95.76 29.7158 103.664 26.5998 104.12 25.9158ZM73.568 77.8998C66.5 80.5598 57.76 82.1558 48.336 82.1558C33.136 82.1558 19.76 78.0518 12.16 71.8958C9.65202 69.8438 7.82802 67.6398 6.76402 65.2078C6.00402 63.6118 5.62402 61.8638 5.62402 60.1918C5.62402 54.7958 9.42402 49.7798 15.732 45.9798C14.44 42.4078 17.708 40.2038 25.764 41.4958C32.3 39.3678 40.052 38.1518 48.336 38.1518C56.62 38.1518 62.244 39.0638 68.172 40.6598C74.1 40.2798 77.672 39.8238 84.588 33.8198C91.504 27.8158 99.104 22.7238 103.056 22.4958C107.008 22.1918 108.148 24.4718 108.3 25.9918C108.452 27.5118 107.084 28.3478 101.916 29.6398C96.748 30.9318 90.44 35.0358 87.628 37.5438C84.816 40.0518 81.7 45.6758 84.664 48.7158C88.692 52.0598 90.972 56.0118 90.972 60.2678C90.972 64.5238 90.744 63.0798 90.212 64.4478C89.376 66.6518 88.008 68.6278 86.108 70.4518C85.576 70.9838 85.044 71.4398 84.436 71.9718C84.436 71.9718 85.728 75.2398 84.36 76.6078C82.992 77.9758 80.636 77.9758 73.568 78.0518V77.8998ZM85.804 65.8918C87.02 64.0678 87.704 62.0918 87.704 60.1158C87.704 49.5518 70.072 41.0398 48.336 41.0398C26.6 41.0398 33.44 42.0278 27.208 44.0038C25.688 44.4598 22.952 42.5598 19.608 43.6998C17.024 44.5358 20.14 46.7398 19 47.3478C13.072 50.6918 9.04402 55.3278 9.04402 60.0398C9.04402 64.7518 10.032 64.8278 11.78 67.0318C17.328 73.7958 30.78 78.6598 46.588 79.0398C46.816 79.0398 46.968 79.0398 47.196 79.0398C47.576 79.0398 47.956 79.0398 48.336 79.0398C52.896 79.0398 57.304 78.6598 61.332 77.9758C64.752 77.3678 67.868 76.6078 70.756 75.6198C73.34 74.7838 79.572 75.8478 81.7 74.7078C83.144 73.8718 80.636 70.9078 81.852 69.9958C82.46 69.5398 82.992 69.0078 83.524 68.5518C84.436 67.7158 85.196 66.8038 85.804 65.8158V65.8918Z" fill="#CDBDF4"/>
<path d="M80.028 64.7519C81.548 65.1319 83.98 66.6519 83.524 68.7039C82.992 69.2359 82.46 69.6919 81.852 70.1479C80.636 71.0599 83.22 74.0239 81.7 74.8599C79.572 75.9999 73.34 74.8599 70.756 75.7719C67.868 76.7599 64.676 77.5199 61.332 78.1279C57.304 78.8119 52.896 79.1919 48.336 79.1919C43.776 79.1919 47.576 79.1919 47.196 79.1919C46.968 79.1919 46.816 79.1919 46.588 79.1919V78.7359C46.436 78.4319 46.436 78.1279 46.36 77.8239C46.056 76.6079 44.688 76.0759 43.548 75.6959C42.788 75.4679 42.104 75.5439 41.648 74.8599C41.496 74.6319 41.42 74.4039 41.268 74.1759C40.964 73.7959 40.432 73.5679 39.976 73.4919C37.924 73.1119 35.796 73.4159 33.668 73.1119C31.616 72.8839 29.336 71.7439 28.804 69.7679C28.728 69.3879 28.652 69.0079 28.348 68.7039C28.196 68.4759 27.892 68.3999 27.664 68.2479C26.676 67.8679 25.612 67.9439 24.548 67.9439C23.484 67.9439 22.42 67.9439 21.508 67.4119C20.596 66.9559 19.836 65.8919 20.064 64.8279C20.216 64.1439 20.672 63.6879 21.28 63.3079C22.8 62.2439 24.7 62.0919 26.448 61.3319C27.056 61.1039 28.196 60.6479 28.348 59.9639C28.576 59.0519 27.664 58.0639 27.816 57.0759C27.968 56.1639 28.272 55.3279 29.032 54.7199C30.932 53.1999 34.048 52.9719 36.404 53.0479C39.596 53.0479 42.712 53.9599 45.904 54.2639C47.348 54.4159 48.412 54.0359 49.78 53.7319C51.148 53.4279 52.896 53.5799 54.112 54.2639C54.72 54.5679 55.252 55.0999 55.48 55.7839C55.632 56.6199 55.024 57.3799 55.632 58.0639C56.012 58.4439 56.468 58.5959 57 58.7479C59.888 59.6599 62.928 60.5719 65.968 60.5719C68.704 60.5719 71.136 59.0519 73.72 60.4199C74.1 60.6479 74.48 60.8759 74.632 61.3319C74.708 61.6359 74.632 62.0159 74.784 62.3959C74.936 62.8519 75.316 63.1559 75.772 63.3079C77.14 64.0679 78.812 64.2959 80.332 64.6759L80.028 64.7519ZM69.54 71.5919C71.364 70.3759 71.288 68.3999 69.692 67.0319C67.108 64.7519 63.232 64.3719 59.964 65.2079C58.444 65.5879 56.924 66.4999 56.316 68.0199C55.936 68.8559 55.86 69.5399 55.936 70.1479C56.62 74.2519 66.88 73.3399 69.464 71.6679L69.54 71.5919ZM48.792 62.7759C48.868 62.3199 48.868 61.8639 48.792 61.4079C48.336 60.1159 45.904 59.1279 44.688 58.7479C42.864 58.1399 40.888 58.0639 39.064 58.5199C37.392 58.8999 33.592 60.1919 33.592 62.3959C33.592 62.8519 33.82 63.3079 34.124 63.6879C35.644 65.8159 38.38 66.4999 40.964 66.7279C42.56 66.8799 44.232 66.8039 45.676 66.1959C47.196 65.5879 48.488 64.3719 48.868 62.7759H48.792Z" fill="white"/>
<path d="M87.704 60.116C87.704 62.168 87.02 64.068 85.804 65.892L85.5 65.664C83.98 60.648 79.116 54.644 70.072 51.756C58.976 48.184 45.068 46.664 28.424 51.908C18.468 55.1 12.844 61.636 11.78 66.956H11.704C9.95602 64.828 8.96802 62.548 8.96802 60.04C8.96802 55.328 12.996 50.616 18.924 47.348C20.14 46.664 17.024 44.536 19.532 43.7C22.876 42.56 25.688 44.46 27.132 44.004C33.364 42.028 40.204 41.04 48.26 41.04C69.996 41.04 87.628 49.552 87.628 60.116H87.704Z" fill="#B897F0"/>
<path d="M46.512 79.1157C30.704 78.7357 17.252 73.9477 11.704 67.1077H11.78C12.844 61.7117 18.468 55.1757 28.424 51.9837C45.068 46.6637 58.976 48.1837 70.072 51.8317C79.116 54.7957 83.98 60.7237 85.5 65.7397L85.804 65.9677C85.196 66.8797 84.436 67.7917 83.524 68.7037C84.056 66.6517 81.624 65.1317 80.028 64.7517C78.508 64.3717 76.912 64.1437 75.468 63.3837C75.088 63.1557 74.632 62.8517 74.48 62.4717C74.404 62.0917 74.48 61.7877 74.328 61.4077C74.176 61.0277 73.796 60.7237 73.416 60.4957C70.832 59.0517 68.4 60.6477 65.664 60.6477C62.624 60.6477 59.584 59.7357 56.696 58.8237C56.24 58.6717 55.708 58.5197 55.328 58.1397C54.644 57.4557 55.328 56.6197 55.176 55.8597C55.024 55.1757 54.416 54.6437 53.808 54.3397C52.592 53.6557 50.844 53.4277 49.476 53.8077C48.108 54.1117 47.044 54.4917 45.6 54.3397C42.408 54.0357 39.292 53.1237 36.1 53.1237C33.82 53.1237 30.628 53.3517 28.728 54.7957C28.044 55.4037 27.664 56.2397 27.512 57.1517C27.36 58.1397 28.272 59.1277 28.044 60.0397C27.892 60.7237 26.752 61.1797 26.144 61.4077C24.472 62.0917 22.572 62.3197 20.976 63.3837C20.444 63.7637 19.912 64.2957 19.76 64.9037C19.532 65.8917 20.216 66.9557 21.204 67.4877C22.116 67.9437 23.256 68.0197 24.244 68.0197C25.232 68.0197 26.372 68.0197 27.36 68.3237C27.588 68.3997 27.892 68.5517 28.044 68.7797C28.272 69.0837 28.348 69.4637 28.5 69.8437C29.108 71.8957 31.312 72.9597 33.364 73.1877C35.492 73.4157 37.62 73.1877 39.672 73.5677C40.128 73.6437 40.736 73.7957 40.964 74.2517C41.116 74.4797 41.192 74.7077 41.344 74.9357C41.8 75.6957 42.484 75.6197 43.244 75.7717C44.308 76.0757 45.676 76.6837 46.056 77.8997C46.132 78.2037 46.132 78.5837 46.284 78.8117V79.2677L46.512 79.1157Z" fill="#CDBDF4"/>
<path d="M12.1599 71.8198C9.65192 69.7678 7.82792 67.5638 6.76392 65.1318" stroke="black" stroke-width="2" stroke-linecap="round" stroke-linejoin="round"/>
<path d="M6.68799 65.1319C7.75199 68.6279 11.476 76.6839 13.984 79.0399C16.492 81.4719 25.764 91.5039 49.552 91.5039C73.34 91.5039 83.6 78.3559 85.348 76.8359C86.944 75.3919 89.908 65.2839 90.212 64.2959" stroke="black" stroke-width="2" stroke-linecap="round" stroke-linejoin="round"/>
<path d="M73.5679 77.9C66.4999 80.56 57.7599 82.156 48.3359 82.156C33.1359 82.156 19.7599 78.052 12.1599 71.896" stroke="black" stroke-width="2" stroke-linecap="round" stroke-linejoin="round"/>
<path d="M84.664 48.564C88.692 51.908 90.972 55.86 90.972 60.116C90.972 64.372 90.744 62.928 90.212 64.296C89.376 66.5 88.008 68.476 86.108 70.3C85.576 70.832 85.044 71.288 84.436 71.82" stroke="black" stroke-width="2" stroke-linecap="round" stroke-linejoin="round"/>
<path d="M73.4919 77.8998C80.5599 77.8998 82.9159 77.8998 84.2839 76.4558C85.6519 75.0118 84.3599 71.8198 84.3599 71.8198" stroke="black" stroke-width="2" stroke-linecap="round" stroke-linejoin="round"/>
<path d="M6.68797 65.1318C5.92797 63.5358 5.54797 61.8638 5.54797 60.1158C5.54797 54.7198 9.34797 49.7038 15.656 45.9038C14.364 42.3318 17.632 40.1278 25.688 41.4198C32.224 39.2918 39.976 38.0758 48.26 38.0758C56.544 38.0758 60.268 38.7598 65.588 39.9758C70.908 41.1918 69.464 40.5838 71.44 40.3558C75.62 39.8238 79.04 38.6078 84.588 33.8198C91.504 27.8158 99.104 22.7238 103.056 22.4958C107.008 22.1918 108.148 24.4718 108.3 25.9918C108.452 27.5118 107.084 28.3478 101.916 29.6398C96.748 30.9318 90.44 35.0358 87.628 37.5438C84.816 40.0518 81.7 45.6758 84.664 48.7158" stroke="black" stroke-width="2" stroke-linecap="round" stroke-linejoin="round"/>
<path d="M95.304 28.424C96.14 27.056 99.864 24.472 101.536 24.244C103.208 24.016 104.576 25.3079 104.12 25.9159C103.664 26.5999 95.76 29.716 95.304 28.424Z" stroke="black" stroke-width="2" stroke-linecap="round" stroke-linejoin="round"/>
<path d="M11.704 67.0317C12.768 61.7117 18.392 55.1757 28.348 51.9837C44.992 46.6637 58.9 48.1837 69.996 51.8317C79.04 54.7957 83.904 60.7237 85.424 65.7397" stroke="black" stroke-width="2" stroke-linecap="round" stroke-linejoin="round"/>
<path d="M61.3319 78.1279C57.3039 78.8119 52.8959 79.1919 48.3359 79.1919C43.7759 79.1919 47.5759 79.1919 47.1959 79.1919C46.9679 79.1919 46.8159 79.1919 46.5879 79.1919C30.7799 78.8119 17.3279 74.0239 11.7799 67.1839C10.0319 65.0559 9.04395 62.6999 9.04395 60.1919C9.04395 55.4799 13.0719 50.7679 18.9999 47.4999C20.2159 46.8159 17.0999 44.6879 19.6079 43.8519C22.9519 42.7119 25.7639 44.6119 27.2079 44.1559C33.4399 42.1799 40.2799 41.1919 48.3359 41.1919C70.0719 41.1919 87.704 49.7039 87.704 60.2679C87.704 70.8319 87.02 64.2199 85.804 66.0439C85.196 66.9559 84.436 67.8679 83.524 68.7799C82.992 69.3119 82.4599 69.7679 81.8519 70.2239C80.6359 71.1359 83.2199 74.0999 81.6999 74.9359C79.5719 76.0759 73.3399 74.9359 70.7559 75.8479C67.8679 76.8359 64.6759 77.5959 61.3319 78.2039" stroke="black" stroke-width="1.8" stroke-linecap="round" stroke-linejoin="round"/>
<path d="M83.524 68.6279C84.056 66.5759 81.624 65.0558 80.028 64.6758C78.508 64.2958 76.912 64.0679 75.468 63.3079C75.088 63.0799 74.632 62.7758 74.48 62.3958C74.404 62.0158 74.48 61.7118 74.328 61.3318C74.176 60.9518 73.796 60.6478 73.416 60.4198C70.832 58.9758 68.4 60.5718 65.664 60.5718C62.624 60.5718 59.584 59.6599 56.696 58.7479C56.24 58.5959 55.708 58.4439 55.328 58.0639C54.644 57.3799 55.328 56.5439 55.176 55.7839C55.024 55.0999 54.416 54.5679 53.808 54.2639C52.592 53.5799 50.844 53.3518 49.476 53.7318C48.108 54.0358 47.044 54.4159 45.6 54.2639C42.408 53.9599 39.292 53.0479 36.1 53.0479C33.82 53.0479 30.628 53.2758 28.728 54.7198C28.044 55.3278 27.664 56.1638 27.512 57.0758C27.36 58.0638 28.272 59.0519 28.044 59.9639C27.892 60.6479 26.752 61.1038 26.144 61.3318C24.472 62.0158 22.572 62.2439 20.976 63.3079C20.444 63.6879 19.912 64.2199 19.76 64.8279C19.532 65.8159 20.216 66.8798 21.204 67.4118C22.116 67.8678 23.256 67.9439 24.244 67.9439C25.232 67.9439 26.372 67.9439 27.36 68.2479C27.588 68.3239 27.892 68.4759 28.044 68.7039C28.272 69.0079 28.348 69.3879 28.5 69.7679C29.108 71.8199 31.312 72.8838 33.364 73.1118C35.492 73.3398 37.62 73.1118 39.672 73.4918C40.128 73.5678 40.736 73.7198 40.964 74.1758C41.116 74.4038 41.192 74.6318 41.344 74.8598C41.8 75.6198 42.484 75.5438 43.244 75.6958C44.308 75.9998 45.676 76.6079 46.056 77.8239C46.132 78.1279 46.132 78.5078 46.284 78.7358" stroke="black" stroke-width="1.8" stroke-linecap="round" stroke-linejoin="round"/>
<path d="M48.716 61.4839C48.26 60.1919 45.828 59.2039 44.612 58.8239C42.788 58.2159 40.812 58.1399 38.988 58.5959C37.316 58.9759 33.516 60.2679 33.516 62.4719C33.516 62.9279 33.744 63.3839 34.048 63.7639C35.568 65.8919 38.304 66.5759 40.888 66.8039C42.484 66.9559 44.156 66.8799 45.6 66.2719C47.12 65.6639 48.412 64.4479 48.792 62.8519C48.868 62.3959 48.868 61.9399 48.792 61.4839H48.716Z" stroke="black" stroke-width="1.8" stroke-linecap="round" stroke-linejoin="round"/>
<path d="M56.012 70.1476C56.696 74.2516 66.956 73.3396 69.54 71.6676C71.364 70.4516 71.288 68.4756 69.692 67.1076C67.108 64.8276 63.232 64.4476 59.964 65.2836C58.444 65.6636 56.924 66.5756 56.316 68.0956C55.936 68.9316 55.86 69.6156 55.936 70.2236L56.012 70.1476Z" stroke="black" stroke-width="1.8" stroke-linecap="round" stroke-linejoin="round"/>
<path d="M42.636 62.5482C42.256 62.5482 41.876 62.6242 41.496 62.7002C41.192 62.7002 40.888 62.7002 40.584 62.7762C40.28 62.7762 39.9 62.7762 39.596 62.7762C39.52 62.7762 39.444 62.7762 39.368 62.7762C39.216 62.7762 39.216 62.7762 39.368 62.7762C39.292 62.7762 39.14 62.7762 39.064 62.7762C38.836 62.7762 38.608 62.6242 38.38 62.5482C38.076 62.4722 38.076 62.4722 37.772 62.3202C37.316 62.0922 36.86 61.6362 36.328 61.6362C36.1 61.6362 35.872 61.7882 35.796 62.0162C35.568 62.7002 36.176 63.3842 36.708 63.7642C37.24 64.1442 37.848 64.4482 38.456 64.6002C39.14 64.7522 39.9 64.8282 40.584 64.7522C40.964 64.7522 41.344 64.7522 41.8 64.6002C42.18 64.6002 42.636 64.6002 43.016 64.3722C43.472 64.2202 43.776 63.8402 43.7 63.3842C43.7 62.9282 43.244 62.6242 42.788 62.6242L42.636 62.5482Z" fill="#EDD24F"/>
<path d="M65.056 69.5399C64.448 69.2359 63.84 69.4639 63.156 69.4639C62.624 69.4639 62.016 69.4639 61.484 69.3119C60.952 69.2359 60.344 69.0839 59.812 68.8559C59.432 68.7039 59.128 68.5519 58.9 68.1719C58.672 67.6399 57.912 67.7919 57.76 68.3239C57.304 69.9959 59.432 70.7559 60.648 71.0599C61.332 71.2119 62.092 71.3639 62.852 71.3639C63.232 71.3639 63.536 71.3639 63.916 71.3639C64.372 71.3639 64.904 71.3639 65.284 70.9079C65.664 70.5279 65.588 69.8439 65.132 69.5399H65.056Z" fill="#EDD24F"/>
<path d="M44.764 60.648C44.46 60.344 44.08 60.192 43.7 60.04C43.396 59.888 43.092 59.812 42.788 59.736C42.104 59.584 41.344 59.736 40.736 59.964C40.508 60.04 40.356 60.192 40.432 60.496C40.432 60.724 40.66 60.876 40.888 60.876C41.192 60.876 41.344 60.876 41.648 60.952C41.648 60.952 41.724 60.952 41.8 60.952C41.8 60.952 41.8 60.952 41.876 60.952C41.876 60.952 42.028 60.952 42.104 60.952C42.256 60.952 42.332 60.952 42.484 61.028C42.788 61.028 43.016 61.18 43.32 61.256C43.32 61.256 43.472 61.256 43.548 61.332C43.7 61.408 43.852 61.56 44.08 61.56C44.384 61.636 44.764 61.56 44.916 61.256C45.068 60.952 45.068 60.648 44.84 60.42L44.764 60.648Z" fill="white"/>
<path d="M46.436 62.1681C46.436 62.1681 46.436 62.0921 46.436 62.0161C46.436 62.0161 46.436 61.9401 46.36 61.8641C46.36 61.8641 46.284 61.8641 46.208 61.7881C46.208 61.7881 46.132 61.7881 46.056 61.7881C46.056 61.7881 45.904 61.7881 45.828 61.7881C45.676 61.7881 45.524 61.7881 45.524 62.0161C45.524 62.0161 45.524 62.1681 45.524 62.2441C45.524 62.2441 45.524 62.3961 45.524 62.4721C45.524 62.6241 45.524 62.7761 45.676 62.8521C45.676 62.8521 45.828 62.9281 45.904 63.0041C45.904 63.0041 46.056 63.0041 46.132 63.0041H46.284C46.284 63.0041 46.436 62.9281 46.436 62.8521C46.436 62.8521 46.436 62.7761 46.436 62.7001C46.436 62.7001 46.436 62.6241 46.436 62.5481C46.436 62.5481 46.436 62.4721 46.436 62.3961V62.1681Z" fill="white"/>
<path d="M66.5 66.7281C66.272 66.1961 65.588 66.1961 65.132 66.0441C64.676 66.0441 64.22 65.8921 63.764 65.8921C63.308 65.8921 62.852 65.8921 62.396 66.0441C62.168 66.0441 62.016 66.1201 61.864 66.1961C61.636 66.2721 61.484 66.3481 61.256 66.5761C61.104 66.7281 61.18 66.9561 61.256 67.0321C61.408 67.1841 61.56 67.1841 61.788 67.2601C62.016 67.2601 62.168 67.2601 62.32 67.3361C62.548 67.3361 62.776 67.3361 63.004 67.4121C63.156 67.4121 63.232 67.4121 63.384 67.4121H63.536C63.612 67.4121 63.688 67.4121 63.536 67.4121C63.688 67.4121 63.992 67.4121 64.22 67.4881C64.296 67.4881 64.448 67.4881 64.524 67.4881C64.372 67.4881 64.676 67.4881 64.676 67.4881C64.904 67.4881 65.056 67.4881 65.284 67.5641C65.664 67.5641 65.968 67.5641 66.272 67.3361C66.5 67.1081 66.5 66.7281 66.348 66.5001L66.5 66.7281Z" fill="white"/>
<path d="M68.856 68.7799C68.856 68.7799 68.856 68.7039 68.856 68.6279C68.856 68.6279 68.856 68.5519 68.78 68.4759C68.78 68.4759 68.628 68.3999 68.552 68.3239C68.476 68.3239 68.324 68.2479 68.248 68.1719C68.096 68.1719 67.944 68.1719 67.792 68.1719C67.64 68.1719 67.564 68.1719 67.488 68.3239C67.488 68.4759 67.488 68.5519 67.488 68.7039C67.488 68.7039 67.488 68.7039 67.488 68.7799C67.488 68.7799 67.488 68.8559 67.488 68.9319C67.488 68.9319 67.488 69.0079 67.488 69.0839C67.488 69.2359 67.564 69.3119 67.64 69.3879C67.64 69.3879 67.716 69.3879 67.792 69.4639C67.792 69.4639 67.944 69.4639 68.02 69.5399H68.172C68.248 69.5399 68.324 69.5399 68.4 69.4639C68.4 69.4639 68.476 69.4639 68.552 69.3879C68.552 69.3879 68.552 69.3119 68.628 69.2359C68.628 69.2359 68.628 69.0839 68.704 69.0079C68.704 68.9319 68.704 68.8559 68.704 68.7799H68.856Z" fill="white"/>
<path d="M32.148 55.9362C32.148 55.9362 31.996 55.7842 31.92 55.7842C31.844 55.7842 31.692 55.7842 31.616 55.7842C31.464 55.7842 31.312 55.7842 31.236 55.9362C31.084 56.0122 30.932 56.1642 30.78 56.3162C30.704 56.4682 30.628 56.6202 30.628 56.7722C30.628 57.0002 30.628 57.1522 30.628 57.3802C30.628 57.4562 30.704 57.6082 30.856 57.6082C30.932 57.6082 31.008 57.6082 31.084 57.6082C31.16 57.6082 31.236 57.6082 31.312 57.4562C31.312 57.3802 31.388 57.3042 31.464 57.1522C31.464 57.1522 31.464 57.0762 31.464 57.0002C31.464 57.0002 31.464 56.9242 31.464 56.8482C31.464 56.8482 31.464 56.8482 31.54 56.7722C31.54 56.7722 31.54 56.7722 31.616 56.6962C31.616 56.6962 31.692 56.6202 31.768 56.5442C31.768 56.5442 31.768 56.5442 31.692 56.5442C31.692 56.5442 31.768 56.5442 31.844 56.4682C31.844 56.4682 31.996 56.3922 31.996 56.3162C31.996 56.2402 31.996 56.1642 31.996 56.0122C31.996 55.9362 31.996 55.8602 31.92 55.7842L32.148 55.9362Z" fill="#FFF6C7"/>
<path d="M54.492 59.3559C54.492 59.2039 54.416 59.1279 54.264 59.0519C54.112 58.8999 53.884 58.8239 53.732 58.8239C53.656 58.8239 53.504 58.8239 53.428 58.8239C53.428 58.8239 53.352 58.8239 53.276 58.8239C53.2 58.8239 53.124 58.8239 53.048 58.8239C53.048 58.8239 52.896 58.8239 52.896 58.7479C52.896 58.7479 52.744 58.5959 52.668 58.5199C52.668 58.5199 52.668 58.5959 52.744 58.6719C52.744 58.6719 52.668 58.5959 52.592 58.5199C52.592 58.5199 52.592 58.4439 52.516 58.3679C52.516 58.2919 52.364 58.2159 52.364 58.1399C52.364 58.1399 52.364 58.2159 52.44 58.2919C52.44 58.2159 52.364 58.1399 52.288 58.0639C52.212 57.9119 51.984 57.8359 51.832 57.8359C51.68 57.8359 51.452 57.9119 51.376 58.0639C51.376 58.2159 51.224 58.3679 51.224 58.5199C51.224 58.7479 51.224 58.9759 51.224 59.2039C51.3 59.5079 51.528 59.8879 51.756 60.1159C52.06 60.3439 52.364 60.5719 52.744 60.6479C52.896 60.6479 53.124 60.6479 53.352 60.6479C53.58 60.6479 53.808 60.5719 54.036 60.4199C54.036 60.4199 54.112 60.3439 54.188 60.2679C54.188 60.2679 54.34 60.1159 54.34 60.0399C54.34 59.8879 54.416 59.7359 54.34 59.5079L54.492 59.3559Z" fill="#FFF6C7"/>
<path d="M48.336 72.352C48.184 72.048 47.956 71.896 47.652 71.896H47.5C47.5 71.896 47.424 71.896 47.348 71.896C47.348 71.896 47.272 71.896 47.196 71.896C47.196 71.896 47.12 71.896 47.044 71.896C47.044 71.896 46.968 71.896 46.892 71.896C46.892 71.896 46.816 71.896 46.74 71.896C46.74 71.896 46.664 71.896 46.588 71.82C46.588 71.82 46.664 71.82 46.74 71.896C46.664 71.896 46.588 71.744 46.512 71.668C46.512 71.668 46.436 71.516 46.36 71.44C46.36 71.364 46.284 71.212 46.208 71.136C46.056 70.984 45.904 70.984 45.676 71.136C45.448 71.212 45.372 71.44 45.296 71.668C45.296 71.82 45.22 72.048 45.22 72.2C45.22 72.656 45.448 73.112 45.752 73.34C46.056 73.568 46.36 73.796 46.74 73.872C47.044 73.872 47.272 73.872 47.576 73.872C47.804 73.872 48.032 73.644 48.184 73.416C48.412 73.188 48.488 72.884 48.336 72.58V72.352Z" fill="#FFF6C7"/>
<path d="M46.36 71.2119C46.36 71.2119 46.36 71.2879 46.36 71.3639C46.36 71.3639 46.36 71.4399 46.436 71.5159C46.436 71.5159 46.36 71.3639 46.284 71.2879L46.36 71.2119Z" fill="#FFEC81"/>
<path d="M74.024 64.9041C74.024 64.9041 73.948 64.8281 73.872 64.7521C73.72 64.6001 73.568 64.5241 73.34 64.4481C73.188 64.4481 73.112 64.3721 72.96 64.2961C72.808 64.2961 72.656 64.1441 72.504 64.0681C72.504 64.0681 72.428 63.9921 72.352 63.9161C72.352 63.7641 72.2 63.6881 72.124 63.5361C72.124 63.5361 72.124 63.4601 72.124 63.3841C72.048 63.1561 71.972 63.0041 71.744 62.9281C71.744 62.9281 71.592 62.8521 71.516 62.8521C71.288 62.8521 70.984 62.8521 70.908 63.0041C70.832 63.1561 70.756 63.2321 70.68 63.3841C70.68 63.5361 70.68 63.6121 70.68 63.7641C70.68 63.9921 70.68 64.2201 70.756 64.3721C70.908 64.7521 71.136 65.1321 71.44 65.3601C71.744 65.6641 72.124 65.8161 72.504 65.9681C72.656 65.9681 72.808 66.0441 72.96 66.1201C73.112 66.1201 73.264 66.1201 73.416 66.1201C73.416 66.1201 73.416 66.1201 73.492 66.1201C73.492 66.1201 73.644 66.1201 73.72 66.0441C73.948 65.9681 74.1 65.8161 74.176 65.5881C74.176 65.3601 74.176 65.1321 74.024 64.9801V64.9041Z" fill="#FFF6C7"/>
<path d="M92.34 30.096C91.884 30.096 91.504 30.476 91.2 30.704C91.2 30.704 91.048 30.78 90.972 30.856C90.972 30.856 90.82 30.932 90.82 31.008C90.82 31.008 90.668 31.084 90.592 31.16C90.288 31.388 89.984 31.54 89.756 31.768C89.604 31.844 89.528 31.996 89.376 32.072C89.224 32.224 89.148 32.376 88.996 32.528C88.844 32.68 88.92 33.06 88.996 33.212C89.148 33.44 89.376 33.44 89.604 33.44C89.756 33.44 89.984 33.44 90.136 33.288C90.288 33.288 90.44 33.136 90.668 33.06C90.972 32.908 91.276 32.604 91.58 32.376C91.808 32.148 92.036 31.92 92.264 31.692C92.568 31.388 92.948 31.008 92.872 30.552C92.872 30.248 92.644 30.02 92.34 30.02V30.096Z" fill="#DDD6F2"/>
<path d="M82.688 41.3439C82.992 40.5839 83.296 39.7479 83.068 38.9879C83.068 38.8359 82.992 38.6839 82.84 38.6079C82.764 38.6079 82.688 38.6079 82.612 38.6079C81.7 38.6079 80.864 39.2159 80.256 39.9759C79.724 40.6599 79.344 41.4959 79.268 42.3319C79.192 43.3959 79.724 45.1439 81.092 44.9159C82.46 44.6879 82.232 42.6359 82.612 41.7239C82.612 41.6479 82.612 41.5719 82.688 41.4959V41.3439Z" fill="#DDD6F2"/>
<path d="M83.828 73.0358C83.828 72.4278 83.524 71.7438 83.068 71.2878C82.84 71.0598 82.46 71.2878 82.46 71.5158C82.46 72.0478 82.612 72.6558 82.84 73.1878C82.916 73.4158 82.992 73.7198 83.068 73.9478C83.068 74.2518 83.068 74.5558 83.22 74.7838C83.296 74.9358 83.6 74.9358 83.676 74.7838C83.828 74.5558 83.828 74.1758 83.828 73.8718C83.828 73.5678 83.828 73.2638 83.828 73.0358Z" fill="#DDD6F2"/>
<path d="M67.868 54.7962C66.044 52.5922 62.396 51.9842 59.736 52.5162C59.508 52.5162 59.432 52.9722 59.736 53.0482C60.952 53.8082 62.092 54.3402 63.46 54.8722C64.752 55.3282 66.044 55.9362 67.412 56.0882C68.096 56.0882 68.324 55.2522 67.944 54.7962H67.868Z" fill="#DDD6F2"/>
<path d="M22.7239 56.5441C22.6479 56.5441 22.572 56.6201 22.496 56.6961C21.812 57.1521 18.2399 59.3561 19.4559 60.4961C20.672 61.6361 19.8359 60.7241 19.9879 60.7241C20.7479 60.8761 21.432 60.6481 22.192 60.3441C22.8 60.1161 23.4079 59.8881 23.864 59.5081C24.32 59.0521 24.6239 58.4441 24.7759 57.8361C24.9279 57.2281 24.7759 56.4681 24.1679 56.2401C23.7119 56.0121 23.1799 56.2401 22.7239 56.5441Z" fill="#DDD6F2"/>
</svg>
