<svg width="135" height="50" viewBox="0 0 135 50" fill="none" xmlns="http://www.w3.org/2000/svg">
<g clip-path="url(#clip0_923_61363)">
<path d="M80.8808 24.4671C80.6207 23.6005 80.2306 22.8005 79.7755 22.0671C79.7755 22.0671 79.7755 22.0005 79.7105 22.0005C79.1903 21.2671 78.5402 20.7338 77.6949 20.2671C76.9147 19.8671 76.0045 19.6671 75.1593 19.6671C74.119 19.6671 73.1438 19.8671 72.2335 20.3338C72.2335 20.3338 72.1685 20.3338 72.1685 20.4005C72.1035 20.4671 72.0385 20.4671 71.9735 20.5338C71.9084 20.4671 71.7784 20.4005 71.7134 20.3338C71.7134 20.3338 71.6484 20.3338 71.6484 20.2671C71.2583 20.0005 70.7381 19.8671 70.283 19.8671H66.7071C66.1869 19.8671 65.7968 20.0671 65.4718 20.4671C65.1467 20.1338 64.7566 19.9338 64.3014 19.9338H59.6202C58.9701 19.9338 58.3849 20.3338 58.1248 20.9338C57.8648 20.3338 57.2796 19.9338 56.6294 19.9338H51.9482C51.6882 19.9338 51.4281 20.0005 51.168 20.1338C50.973 20.0671 50.7779 20.0005 50.5829 20.0005H49.0225V17.8005C49.0225 16.8671 48.3073 16.1338 47.397 16.1338H45.9016C45.3815 16.1338 44.9264 16.2671 44.5363 16.5338C44.0161 16.8671 43.6911 17.4005 43.561 18.0671L43.1709 20.2671L42.7808 20.3338C42.1307 19.9338 41.3505 19.7338 40.5703 19.7338C39.595 19.7338 38.6848 20.0671 37.9046 20.6005L37.8395 20.5338C37.3844 20.1338 36.7343 19.8671 36.0841 19.9338H32.7032C31.793 19.9338 31.0778 20.6671 31.0778 21.6005V22.6005C30.8827 22.2671 30.6227 21.9338 30.3626 21.6005C29.8425 21.0005 29.1273 20.4671 28.4121 20.2005C27.6319 19.8671 26.7867 19.7338 25.9414 19.6671C24.121 19.6671 22.4305 20.1338 21.0001 21.1338C20.8051 20.4671 20.1549 20.0005 19.5048 20.0005H17.9443V17.8005C17.9443 16.8671 17.2292 16.1338 16.3189 16.1338H14.8235C14.3034 16.1338 13.8483 16.2671 13.4582 16.5338C12.938 16.8671 12.613 17.4005 12.4829 18.0671L12.0928 20.2671L11.3126 20.4005C11.2476 20.4005 11.1176 20.4671 11.0525 20.4671C9.7522 20.0005 8.38685 19.7338 7.02149 19.7338C6.17627 19.7338 5.33105 19.8671 4.61586 20.1338C3.90068 20.4005 3.25051 20.7338 2.60034 21.2671C2.0802 21.7338 1.62508 22.3338 1.3 23.0005C1.3 23.0005 1.3 23.0671 1.23498 23.0671C0.974912 23.7338 0.844878 24.4005 0.844878 25.0671C0.844878 25.8005 0.974912 26.5338 1.23498 27.2005C1.43003 27.6005 1.62508 28.0005 1.95017 28.4005C1.23498 28.6005 0.714844 29.2005 0.714844 30.0005V33.4671C0.714844 34.2005 1.16996 34.8005 1.82013 35.0671C3.25051 35.5338 4.68088 35.8005 6.11125 35.8005C6.17627 35.8005 6.24129 35.8005 6.3063 35.8005C7.15152 35.8005 7.93173 35.6671 8.71193 35.4005C9.49214 35.1338 10.2073 34.7338 10.8575 34.2005C11.3126 33.7338 11.7027 33.2671 12.0278 32.6671C12.2229 33.2671 12.5479 33.8671 13.0031 34.4005C13.0681 34.4671 13.0681 34.5338 13.1331 34.5338C14.0433 35.4005 15.2786 35.8671 16.514 35.8671C16.579 35.8671 16.644 35.8671 16.709 35.8671C17.4242 35.8671 18.2044 35.7338 18.9196 35.4671C19.5048 35.2671 20.0249 35.0005 20.48 34.6671C20.9351 35.0005 21.4553 35.2671 21.9754 35.4671C22.6256 35.6671 23.2757 35.8005 23.9259 35.8005C24.446 35.8005 24.9662 35.7338 25.4213 35.6005C26.0715 35.4671 26.6566 35.2005 27.2418 34.8671C27.4368 35.0005 27.6319 35.2005 27.8919 35.2671C28.282 35.4671 28.7372 35.5338 29.1273 35.5338H31.923C31.988 35.5338 31.988 35.5338 32.053 35.5338C32.3131 35.6671 32.5081 35.7338 32.8332 35.7338H39.2699C40.1801 35.7338 40.8953 35.0005 40.8953 34.0671V32.7338C40.9604 32.1338 40.7653 31.6005 40.3752 31.1338C40.0501 30.7338 39.595 30.4671 39.1399 30.3338V26.8005C39.2699 26.6005 39.3999 26.4005 39.595 26.2005C39.725 26.1338 39.9201 26.0671 40.1151 26.0671C40.2452 26.0671 40.4402 26.0671 40.5703 26.1338C40.7653 26.2005 40.9604 26.2005 41.1554 26.2671C41.2204 26.2671 41.2854 26.2671 41.2854 26.2671C41.7406 26.2671 42.1957 26.1338 42.5208 25.9338C42.6508 25.8671 42.7808 25.7338 42.8458 25.6671V30.8671C42.7808 32.2005 43.2359 33.4671 44.0812 34.4671C44.1462 34.5338 44.2112 34.6005 44.2762 34.6671C45.2515 35.5338 46.4868 35.9338 47.6571 35.9338C47.7221 35.9338 47.7221 35.9338 47.7871 35.9338C48.5673 35.9338 49.2825 35.8005 50.0627 35.5338C50.7129 35.2671 51.3631 34.9338 51.9482 34.4671C52.5984 33.9338 52.7934 33.0005 52.3383 32.2671L51.5581 30.7338C51.4931 30.6005 51.4281 30.5338 51.2981 30.4005L51.103 30.2005C51.038 30.1338 50.908 30.0005 50.7779 29.9338C50.4528 29.7338 49.9977 29.6005 49.6076 29.6671C49.4776 29.6671 49.2825 29.6671 49.0225 29.7338V25.4671H50.5829C50.9079 25.4671 51.233 25.3338 51.5581 25.1338C51.7532 25.2005 51.9482 25.3338 52.1433 25.3338V29.4005C52.1433 30.2005 52.2733 31.0671 52.4684 31.8005C52.6634 32.6005 53.0535 33.2671 53.5736 33.8671C54.0938 34.4671 54.6139 34.9338 55.3291 35.2671C55.3941 35.2671 55.3941 35.3338 55.4591 35.3338C56.1743 35.6005 56.9545 35.8005 57.7347 35.8005C58.2549 35.8005 58.775 35.7338 59.2951 35.6005C59.7503 35.4671 60.1404 35.3338 60.5305 35.1338C60.5955 35.0671 60.7255 35.0671 60.7905 35.0005C61.2456 35.4005 61.8308 35.6671 62.416 35.6005H65.2117C65.0817 35.8671 65.0166 36.2005 65.0817 36.5338V38.0005C65.0817 38.9338 65.7968 39.6671 66.7071 39.6671H73.2088C74.119 39.6671 74.8342 38.9338 74.8342 38.0005V36.6671C74.8342 36.4005 74.8342 36.1338 74.7692 35.9338C75.6144 35.8671 76.5246 35.6671 77.3048 35.2671C78.1501 34.8671 78.8653 34.2671 79.4504 33.4671C80.1006 32.6671 80.4907 31.8005 80.7507 30.8671C81.0108 29.8671 81.2059 28.8671 81.2059 27.8671C81.2709 26.8005 81.1408 25.6671 80.8808 24.6005C80.9458 24.5338 80.9458 24.5338 80.8808 24.4671ZM73.7289 30.2005C73.5339 30.2005 73.3388 30.1338 73.1438 30.0671V25.8671C73.2738 25.7338 73.4038 25.6671 73.5339 25.6005C73.7289 25.4671 73.924 25.4005 74.184 25.4671H74.249C74.3791 25.4671 74.5091 25.4671 74.5741 25.5338C74.6391 25.5338 74.6391 25.6005 74.7042 25.6671C74.8342 25.8671 74.9642 26.1338 74.9642 26.3338C75.0943 26.8005 75.0943 27.2671 75.0943 27.6671C75.0292 28.2005 74.9642 28.6671 74.8342 29.2005C74.7692 29.4671 74.6391 29.6671 74.5091 29.8671C74.4441 30.0005 74.3141 30.0671 74.184 30.1338C74.054 30.2005 73.924 30.2005 73.7939 30.2005H73.7289C73.7939 30.2005 73.7939 30.2005 73.7289 30.2005ZM66.9671 25.4005V30.7338C66.7071 30.4671 66.382 30.2671 65.9919 30.2005V24.8671C66.252 25.1338 66.577 25.3338 66.9671 25.4005ZM58.3199 29.4671V24.2671C58.645 24.8005 59.1651 25.2671 59.7503 25.4005V29.8005C59.6202 29.8671 59.5552 29.9338 59.4252 30.0005C59.2301 30.1338 58.9701 30.1338 58.775 30.1338C58.71 30.1338 58.645 30.1338 58.58 30.1338C58.5149 30.1338 58.5149 30.1338 58.4499 30.1338C58.3199 29.9338 58.3199 29.7338 58.3199 29.5338C58.3199 29.5338 58.3199 29.5338 58.3199 29.4671ZM32.8982 25.4005V30.2005C32.7032 30.2671 32.5081 30.3338 32.3781 30.4005C32.2481 30.3338 32.118 30.2671 31.988 30.2005V26.1338C31.988 25.6671 31.988 25.2671 31.858 24.8005C32.1831 25.1338 32.5081 25.3338 32.8982 25.4005ZM20.8051 26.0005C20.8701 26.0005 20.8701 26.0671 20.9351 26.0671C21.1302 26.2005 21.3902 26.2671 21.5853 26.3338C21.3902 26.4005 21.1952 26.5338 21.0652 26.6005C20.35 27.0671 19.6998 27.6671 19.2447 28.4671C19.0496 28.8671 18.9196 29.2005 18.7896 29.6671C18.6595 29.6671 18.5295 29.6671 18.3995 29.6671C18.2694 29.6671 18.0744 29.6671 17.8143 29.7338V25.4671H19.3747C19.6348 25.4671 19.8949 25.4005 20.1549 25.2671C20.415 25.6005 20.61 25.8005 20.8051 26.0005ZM11.7677 26.6671V27.3338C11.7027 27.2005 11.5727 27.0671 11.5077 26.9338C11.5727 26.8671 11.6377 26.7338 11.7677 26.6671Z" fill="white"/>
<path d="M110.463 0C97.0049 0 86.082 11.2 86.082 25C86.082 38.8 97.0049 50 110.463 50C123.922 50 134.845 38.8 134.845 25C134.845 11.2 123.857 0 110.463 0Z" fill="white"/>
<path d="M47.8517 34.2003C48.4369 34.2003 49.022 34.1336 49.5422 33.9336C50.0623 33.7336 50.5824 33.4669 51.0376 33.1336L50.1923 31.6669L49.9973 31.4669C49.9323 31.4003 49.8673 31.4003 49.7372 31.4003C49.6722 31.4003 49.6072 31.4003 49.5422 31.4669L49.2821 31.6003C49.1521 31.6669 49.0871 31.7336 48.957 31.7336C48.827 31.8003 48.6319 31.8003 48.5019 31.8003C48.2418 31.8003 47.9167 31.6669 47.7867 31.4669C47.5917 31.2003 47.5266 30.8669 47.5266 30.6003V23.9336H50.7125V21.8003H47.5266V17.9336H46.0313C45.8362 17.9336 45.7062 18.0003 45.5761 18.0669C45.4461 18.1336 45.3811 18.2669 45.3161 18.4669L44.7309 21.8003L42.7804 22.1336V23.3336C42.7804 23.5336 42.8454 23.6669 42.9755 23.8003C43.1055 23.9336 43.2355 24.0003 43.3656 24.0003H44.5359V30.8669C44.4708 31.8003 44.7959 32.6669 45.3811 33.4003C46.0313 33.8669 46.9415 34.2003 47.8517 34.2003ZM40.6999 21.4669C39.9847 21.4669 39.3345 21.6669 38.7494 22.1336C38.0992 22.6003 37.5791 23.2003 37.254 23.9336L37.0589 22.4003C37.0589 22.2003 36.9289 22.0003 36.7988 21.8003C36.6038 21.6669 36.4087 21.6003 36.2137 21.6003H32.7678V23.0003C32.7028 23.4003 33.0279 23.7336 33.3529 23.7336C33.548 23.8003 33.548 23.8003 34.5233 24.0003V31.6003C33.483 31.8003 33.548 31.8003 33.3529 31.8669C32.9628 31.9336 32.7028 32.2669 32.7678 32.6003V34.0003H39.2045V32.6003C39.2695 32.2003 38.9444 31.8669 38.6193 31.8669C38.4243 31.8003 38.4243 31.8003 37.449 31.6003V26.2669C37.7091 25.6669 38.0342 25.2003 38.4893 24.7336C38.9444 24.4003 39.4645 24.2003 40.0497 24.2003C40.3098 24.2003 40.6348 24.2669 40.8949 24.2669C41.0249 24.3336 41.22 24.3336 41.35 24.3336C41.4801 24.3336 41.6101 24.3336 41.6751 24.2669C41.8052 24.2003 41.8052 24.0669 41.8052 24.0003L42.1953 21.8003C41.7401 21.5336 41.22 21.4003 40.6999 21.4669ZM27.5664 30.8003C27.3714 31.0003 27.1763 31.2003 26.9163 31.4003C26.7212 31.5336 26.5262 31.7336 26.2661 31.8003C26.071 31.9336 25.811 32.0669 25.5509 32.0669C25.2908 32.1336 25.0308 32.1336 24.7057 32.1336C24.3156 32.1336 23.9255 32.0003 23.5354 31.8003C23.2103 31.5336 23.0152 31.1336 23.0803 30.6669C23.0803 30.4003 23.1453 30.1336 23.3403 29.9336C23.5354 29.6669 23.7954 29.4669 24.0555 29.3336C24.5106 29.1336 24.9658 29.0003 25.4209 28.9336C26.1361 28.8003 26.8512 28.7336 27.5664 28.7336V30.8003ZM31.2724 31.8003C31.2074 31.8003 31.0774 31.7336 31.0123 31.7336C30.8173 31.6669 30.5572 31.6003 30.3622 31.6003V26.1336C30.3622 25.4669 30.2971 24.8003 30.1021 24.2003C29.907 23.6669 29.582 23.1336 29.2569 22.6669C28.8668 22.2003 28.4117 21.8669 27.8915 21.6669C27.3064 21.4003 26.6562 21.2669 26.006 21.2669C24.1856 21.2003 22.3651 21.9336 20.9997 23.2669L21.5849 24.2003C21.6499 24.3336 21.7799 24.4669 21.91 24.6003C22.04 24.6669 22.235 24.7336 22.4301 24.7336C22.6902 24.7336 22.8852 24.6669 23.0803 24.5336C23.2753 24.4003 23.4704 24.2669 23.7304 24.1336C23.9905 24.0003 24.2506 23.8669 24.5757 23.7336C24.9658 23.6003 25.3559 23.5336 25.746 23.5336C26.3311 23.4669 26.8512 23.7336 27.2413 24.1336C27.6315 24.6669 27.7615 25.3336 27.7615 26.0003V26.7336C26.5912 26.7336 25.4209 26.8669 24.3156 27.1336C23.5354 27.3336 22.8202 27.6003 22.105 28.0003C21.5849 28.2669 21.1948 28.7336 20.9347 29.2003C20.7397 29.6003 20.6096 30.0669 20.5446 30.6003C20.5446 31.1336 20.6096 31.6003 20.8047 32.0669C20.9997 32.4669 21.1948 32.8003 21.5199 33.1336C21.8449 33.4003 22.235 33.6003 22.6251 33.7336C23.4704 34.0003 24.3806 34.0669 25.2258 33.8003C25.876 33.6669 26.5262 33.3336 27.1113 32.9336C27.4364 32.7336 27.6965 32.4669 27.9565 32.2003L28.2166 33.0669C28.2816 33.3336 28.4117 33.5336 28.6067 33.6003C28.8018 33.7336 29.0618 33.7336 29.2569 33.7336H32.0526V32.3336C31.8576 32.1336 31.6625 31.9336 31.2724 31.8003ZM16.6436 34.2003C17.2287 34.2003 17.8139 34.1336 18.334 33.9336C18.8542 33.7336 19.3743 33.4669 19.8294 33.1336L18.9842 31.6669L18.7891 31.4669C18.7241 31.4003 18.6591 31.4003 18.5291 31.4003C18.4641 31.4003 18.399 31.4003 18.334 31.4669L18.074 31.6003C17.9439 31.6669 17.8789 31.7336 17.7489 31.7336C17.6188 31.8003 17.4238 31.8003 17.2938 31.8003C17.0337 31.8003 16.7086 31.6669 16.5786 31.4669C16.3835 31.2003 16.3185 30.8669 16.3185 30.6003V23.9336H19.5043V21.8003H16.3185V17.9336H14.8231C14.6281 17.9336 14.498 18.0003 14.368 18.0669C14.238 18.1336 14.1729 18.2669 14.1079 18.4669L13.5228 21.8003L11.6373 22.1336V23.3336C11.6373 23.5336 11.7023 23.6669 11.8323 23.8003C11.9624 23.9336 12.0924 24.0003 12.2224 24.0003H13.3927V30.8669C13.3277 31.8003 13.6528 32.6669 14.238 33.4003C14.8881 33.9336 15.7333 34.2003 16.6436 34.2003ZM10.727 28.8003C10.597 28.4669 10.3369 28.1336 10.0769 27.9336C9.8168 27.6669 9.49171 27.4669 9.16663 27.3336C8.77653 27.1336 8.45144 27.0003 8.06134 26.8669C7.67124 26.7336 7.34615 26.6003 7.02107 26.5336C6.69598 26.4669 6.3709 26.3336 6.11083 26.1336C5.85076 26.0003 5.65571 25.8669 5.46066 25.6669C5.26561 25.4669 5.20059 25.2669 5.20059 25.0003C5.20059 24.6003 5.39564 24.2003 5.72073 24.0003C6.11083 23.7336 6.56595 23.6003 7.08608 23.6003C7.5412 23.6003 8.06134 23.6669 8.51646 23.8003C8.51646 24.2669 8.58147 24.6669 8.71151 25.1336C8.77653 25.4003 8.97158 25.6003 9.29666 25.6003H10.662V22.0669C9.55673 21.6669 8.32141 21.4003 7.1511 21.4003C6.50093 21.4003 5.85076 21.5336 5.20059 21.7336C4.68045 21.9336 4.16032 22.2003 3.77022 22.5336C3.38012 22.8669 3.12005 23.2669 2.925 23.7336C2.72995 24.2003 2.66493 24.6669 2.66493 25.1336C2.66493 25.6003 2.72995 26.1336 2.925 26.5336C3.05503 26.8669 3.3151 27.2003 3.57517 27.4669C3.83523 27.7336 4.16032 27.9336 4.55042 28.1336C4.68046 28.3336 5.07056 28.5336 5.39564 28.6669C5.78574 28.8003 6.11083 28.9336 6.50093 29.0669C6.82602 29.1336 7.1511 29.2669 7.41117 29.4669C7.67124 29.6003 7.9313 29.7336 8.12636 29.9336C8.32141 30.1336 8.38642 30.4003 8.38642 30.6669C8.38642 30.8669 8.32141 31.0669 8.32141 31.2669C8.25639 31.4669 8.12636 31.6003 7.9313 31.7336C7.73625 31.8669 7.5412 32.0003 7.34615 32.0669C7.08608 32.2003 6.761 32.2003 6.50093 32.2003C5.85076 32.2003 5.20059 32.1336 4.61544 32.0003C4.61544 31.5336 4.55042 31.0669 4.42039 30.6003C4.29035 30.2003 4.16032 30.0003 3.83523 30.0003H2.33984V33.4669C3.57517 33.9336 4.87551 34.1336 6.17585 34.1336C6.89103 34.1336 7.60622 34.0669 8.25639 33.8003C8.84154 33.6003 9.36168 33.3336 9.75178 32.9336C10.1419 32.6003 10.467 32.1336 10.662 31.6669C10.9221 31.1336 10.9871 30.6003 10.9871 30.0003C10.9871 29.6003 10.8571 29.2003 10.727 28.8003Z" fill="#676767"/>
<path d="M76.5251 29.6001C76.395 30.0668 76.2 30.4668 75.9399 30.8668C75.6798 31.2001 75.4198 31.4668 75.0947 31.6001C74.7046 31.8001 74.3145 31.8668 73.9244 31.8668C73.0141 31.9335 72.1689 31.5335 71.5838 30.8001V25.2668C71.9089 24.8001 72.299 24.4668 72.7541 24.2001C73.2092 23.9335 73.7944 23.8001 74.3145 23.8001C74.6396 23.8001 75.0297 23.8668 75.3548 24.0668C75.6798 24.2001 75.9399 24.4668 76.135 24.8001C76.395 25.1335 76.5251 25.5335 76.6551 26.0001C76.7851 26.6001 76.8502 27.2001 76.8502 27.8668C76.7201 28.3335 76.6551 29.0001 76.5251 29.6001ZM79.3858 25.0668C79.1908 24.3335 78.8657 23.6668 78.4756 23.0668C78.0855 22.5335 77.6304 22.1335 77.0452 21.8668C76.46 21.6001 75.8749 21.4668 75.2247 21.4668C74.4445 21.4668 73.7293 21.6668 73.0141 22.0001C72.364 22.3335 71.8438 22.8001 71.3237 23.4001L71.0636 22.2668C70.9986 22.0668 70.9336 21.9335 70.8036 21.8668C70.6735 21.8001 70.4785 21.7335 70.2834 21.7335H66.7075V23.1335C66.6425 23.5335 66.9676 23.8668 67.2927 23.8668H67.4227C67.5527 23.8668 67.6828 23.9335 67.8128 23.9335C68.0078 24.0001 68.2029 24.0001 68.528 24.0668V35.6668C68.2679 35.7335 67.9428 35.8001 67.8128 35.8001C67.6828 35.8668 67.5527 35.8668 67.4227 35.8668H67.2927C66.9025 35.9335 66.6425 36.2668 66.7075 36.6001V38.0001H73.2092V36.6001C73.2742 36.2001 72.9491 35.8668 72.624 35.8668H72.494C72.364 35.8001 72.2339 35.8001 72.1039 35.8001C71.8438 35.7335 71.6488 35.7335 71.3887 35.6668V33.0001C71.7788 33.4001 72.2339 33.6668 72.6891 33.8668C73.2092 34.1335 73.7944 34.2001 74.3795 34.2001C75.1597 34.2001 75.8749 34.0668 76.5251 33.7335C77.1752 33.4001 77.6954 32.9335 78.1505 32.4001C78.6056 31.8001 78.9957 31.1335 79.1908 30.3335C79.4508 29.5335 79.5809 28.6668 79.5809 27.8001C79.7109 26.8668 79.6459 25.9335 79.3858 25.0668ZM65.5372 31.8001C65.3421 31.7335 65.3421 31.7335 64.3669 31.5335V21.6668H59.6857V23.0668C59.6206 23.4668 59.9457 23.8001 60.2708 23.8001C60.4659 23.8001 60.4659 23.8668 61.4411 24.0668V30.6001C61.051 31.0001 60.6609 31.3335 60.2058 31.5335C59.7507 31.7335 59.2956 31.8668 58.7754 31.8668C58.1903 31.9335 57.6051 31.6668 57.28 31.2668C56.8899 30.7335 56.7599 30.1335 56.7599 29.5335V21.6668H52.0787V23.0668C52.0137 23.4668 52.3387 23.8001 52.6638 23.8001C53.0539 23.8001 53.444 23.9335 53.8341 24.0668V29.5335C53.8341 30.2001 53.8992 30.8001 54.0942 31.4001C54.2242 31.9335 54.5493 32.4668 54.8744 32.8668C55.1995 33.2668 55.6546 33.6001 56.1097 33.8668C57.02 34.2001 57.9952 34.2668 58.9705 34.0668C59.2956 34.0001 59.6206 33.8668 59.9457 33.6668C60.2708 33.5335 60.5309 33.3335 60.791 33.1335C61.051 32.8668 61.3111 32.6668 61.5712 32.4001L61.8312 33.4001C61.8962 33.7335 62.2213 34.0001 62.5464 34.0001H66.1223V32.6001C66.1223 32.2001 65.8623 31.8668 65.5372 31.8001Z" fill="#676767"/>
<path d="M110.463 48.3337C123.011 48.3337 133.219 37.867 133.219 25.0003C133.219 12.1337 123.011 1.66699 110.463 1.66699C97.9147 1.66699 87.707 12.1337 87.707 25.0003C87.707 37.867 97.8497 48.3337 110.463 48.3337Z" fill="#676767"/>
<path d="M103.962 27.6667C103.962 28.3333 103.897 28.9333 103.767 29.5333C103.637 30 103.442 30.4667 103.182 30.8667C102.987 31.2 102.662 31.4667 102.337 31.6C101.947 31.8 101.557 31.8667 101.167 31.8667C100.386 31.8667 99.6063 31.8 98.826 31.6V25.1333C99.1511 24.6667 99.5412 24.3333 99.9964 24.0667C100.451 23.8 101.037 23.6667 101.557 23.6667C101.882 23.6667 102.272 23.7333 102.597 23.9333C102.922 24.0667 103.182 24.3333 103.377 24.6C103.637 25 103.767 25.4 103.897 25.8C103.962 26.4667 103.962 27.0667 103.962 27.6667ZM106.628 30.2667C106.888 29.4 107.018 28.5333 107.018 27.6667C107.018 26.7333 106.888 25.8667 106.693 25C106.498 24.2667 106.173 23.6 105.783 23C105.393 22.4667 104.938 22.0667 104.352 21.8C103.767 21.5333 103.182 21.4 102.532 21.4C101.817 21.4 101.037 21.5333 100.386 21.8667C99.8013 22.2 99.2162 22.6 98.761 23.1333V16H93.9498V17.4C93.8848 17.8 94.2098 18.1333 94.5349 18.1333C94.6 18.1333 94.5999 18.2 94.73 18.2C94.86 18.2 94.99 18.2667 95.1201 18.2667C95.3151 18.3333 95.5752 18.3333 95.8353 18.4V33.4667C97.7858 33.8667 99.7363 34.1333 101.752 34.1333C102.467 34.1333 103.247 34 103.897 33.6667C104.548 33.3333 105.133 32.8667 105.588 32.2667C106.043 31.7333 106.368 31 106.628 30.2667ZM113.78 29.8C113.715 30.1333 113.585 30.5333 113.52 30.8667C113.455 30.5333 113.39 30.1333 113.325 29.8C113.26 29.4667 113.195 29.1333 113.065 28.7333L111.829 23.8667C112.415 23.8 112.415 23.7333 112.545 23.7333C112.935 23.6667 113.195 23.3333 113.13 23V21.6H107.213V23C107.148 23.4 107.473 23.7333 107.798 23.7333C107.993 23.8 107.928 23.8 108.904 24L112.024 34H114.235C114.56 34 114.755 33.8 114.885 33.4667L116.511 28.2667H114.17L114.04 28.8C113.975 29.1333 113.91 29.4667 113.78 29.8ZM127.694 23V21.6H121.842V23C121.777 23.4 122.102 23.7333 122.427 23.7333C122.622 23.8 122.622 23.8 123.272 23.9333L121.972 28.7333C121.907 29.1333 121.777 29.4667 121.712 29.8C121.647 30.1333 121.582 30.4667 121.517 30.8667C121.387 30.5333 121.322 30.2 121.257 29.8667L120.997 28.8667L120.802 28.2H118.461L120.022 33.4C120.152 33.8 120.282 33.9333 120.607 33.9333H122.947L126.068 23.9333C126.458 23.8667 126.783 23.8 127.173 23.6667C127.499 23.7333 127.759 23.4 127.694 23Z" fill="white"/>
<path d="M120.475 26.133L118.98 20.933C118.915 20.7997 118.85 20.6663 118.72 20.533C118.59 20.3997 118.395 20.333 118.2 20.333H116.899C116.704 20.333 116.509 20.3997 116.379 20.533C116.249 20.5997 116.119 20.733 116.119 20.933L114.559 26.133H116.899L117.224 25.133C117.289 24.933 117.354 24.6663 117.419 24.3997L117.549 23.6663L117.679 24.3997C117.744 24.6663 117.809 24.8663 117.939 25.133L118.265 26.133H120.475Z" fill="white"/>
</g>
<defs>
<clipPath id="clip0_923_61363">
<rect width="134" height="50" fill="white" transform="translate(0.84375)"/>
</clipPath>
</defs>
</svg>
