<svg width="1920" height="681" viewBox="0 0 1920 681" fill="none" xmlns="http://www.w3.org/2000/svg">
<g clip-path="url(#clip0_2922_30914)">
<path d="M455.779 99.9596L213.711 67.7607C67.5096 48.3136 -71.1412 138.023 -113.317 279.353L-229 667L62.5379 876L1995 803.5L1975.48 168.5L1518.48 85.5632C1330.64 51.4742 1138.16 51.9626 950.498 87.0044C787.316 117.475 620.332 121.848 455.779 99.9596Z" fill="#7FEFC1"/>
<path d="M1149 554.479C1149.29 552.276 1149.62 550.121 1149.91 547.918C1152.64 549.115 1155.03 551.031 1156.81 553.473C1157 550.935 1157.19 548.349 1157.38 545.811C1157.38 545.571 1157.43 545.284 1157.62 545.14C1158 544.805 1158.53 545.14 1158.91 545.476C1160.88 547.343 1162.89 549.259 1164.85 551.126C1165.52 548.157 1166.19 545.188 1166.86 542.219C1167.15 540.974 1167.58 539.537 1168.83 539.106C1169.98 538.723 1171.17 539.442 1172.18 540.208C1175.43 542.698 1178.45 545.523 1181.18 548.636C1181.85 549.355 1182.47 550.169 1183.34 550.6C1186.4 552.228 1190.71 549.307 1193.54 551.366C1194.06 551.749 1194.54 552.276 1195.17 552.276C1196.08 552.276 1196.65 551.27 1197.42 550.791C1199.19 549.786 1201.1 551.845 1203.07 552.132C1204.55 552.372 1205.99 551.558 1207.47 551.222C1210.2 550.6 1213.32 551.605 1215.09 553.808" stroke="black" stroke-width="2" stroke-linecap="round" stroke-linejoin="round"/>
<path d="M1253.52 415.172C1247.63 409.282 1229.69 410.54 1223.07 410.341C1197.45 409.613 1171.7 409.878 1146.14 412.856C1120.59 415.834 1120.99 417.356 1108.34 419.408C1098.75 420.93 1090.87 422.916 1083.92 430.395C1083.06 431.321 1082.26 432.314 1082.06 433.505C1081.47 436.748 1085.24 438.999 1088.42 439.925C1096.49 442.175 1105.03 442.572 1113.44 442.837C1150.58 444.028 1188.05 443.565 1224.79 437.212C1236.11 435.292 1254.38 435.358 1255.44 420.335C1255.57 418.151 1254.85 416.496 1253.52 415.172Z" fill="#61D7A7"/>
<path d="M1340.86 405.137C1342.3 411.181 1342.53 417.451 1340.77 423.405C1340.05 425.931 1338.97 428.276 1337.66 430.531C1336.94 428.321 1335.9 426.201 1334.6 424.262C1329.77 416.955 1321.57 412.129 1312.92 410.685C1304.26 409.287 1295.25 411.091 1287.4 415.106C1284.43 416.639 1281.59 418.488 1279.07 420.653C1277.62 420.022 1276 419.526 1274.33 419.21C1271.94 418.759 1269.6 418.353 1267.26 417.947C1270.64 413.076 1274.6 408.655 1279.2 404.957C1286.91 398.778 1296.51 394.763 1306.43 394.538C1312.69 394.402 1318.96 395.755 1324.95 397.605C1330.58 399.364 1336.17 401.574 1340.86 405.137Z" fill="#CCBCF3"/>
<path d="M1315.3 367.429C1318.91 370.632 1322.47 374.195 1325.72 377.984C1321.12 376.495 1316.34 375.593 1311.56 375.368C1296.69 374.691 1281.82 380.194 1270.41 389.756C1262.21 396.657 1255.81 405.543 1251.53 415.376C1246.93 414.474 1242.38 413.346 1237.87 411.722C1241.38 393.68 1250.85 376.721 1265.18 365.264C1272.89 359.085 1282 354.665 1291.6 352.364C1300.25 356.018 1308.27 361.25 1315.3 367.474V367.429Z" fill="#CCBCF3"/>
<path d="M1245.08 349.207C1241.93 352.77 1239.18 356.694 1236.79 360.844C1229.03 374.285 1225.52 390.072 1226.56 405.543C1216.32 395.53 1219.39 375.729 1226.28 364.453C1228.81 360.303 1231.78 357.01 1235.16 354.439C1238.14 352.184 1241.47 350.47 1245.08 349.207Z" fill="#CCBCF3"/>
<path d="M1307.51 423.315C1307.51 423.361 1307.51 423.451 1307.51 423.496C1307.37 424.443 1307.46 423.992 1307.51 423.315Z" fill="#DDD6F2"/>
<path d="M1328.47 409.603C1326.62 393.816 1317.96 380.645 1306.29 370.181C1300.02 364.543 1293.22 359.175 1285.51 355.612C1280.64 353.357 1276.09 351.688 1270.73 351.102C1265.59 350.56 1259.19 350.605 1255.49 354.71C1252.43 358.048 1252.16 363.235 1255.49 366.528C1258.74 369.775 1263.15 370.001 1267.26 371.534C1268.79 372.121 1270.32 372.707 1271.85 373.293C1271.85 373.293 1271.9 373.293 1271.94 373.293C1271.94 373.293 1272.03 373.293 1272.08 373.338C1272.98 373.789 1273.93 374.24 1274.83 374.692C1277.89 376.315 1280.82 378.255 1283.71 380.194C1285.11 381.142 1286.46 382.089 1287.76 383.081C1287.81 383.126 1287.9 383.171 1287.94 383.216C1288.58 383.938 1289.52 384.479 1290.24 385.066C1292.86 387.231 1295.38 389.531 1297.68 392.012C1298.81 393.185 1299.84 394.448 1300.88 395.665C1300.88 395.71 1300.97 395.756 1301.02 395.846C1301.6 396.658 1302.19 397.47 1302.73 398.327C1303.54 399.589 1304.31 400.898 1304.98 402.206C1305.21 402.657 1305.43 403.108 1305.66 403.559C1305.7 403.649 1305.79 403.874 1305.88 404.055C1306.06 404.506 1306.24 405.047 1306.33 405.228C1306.88 406.761 1307.33 408.385 1307.64 409.964C1307.69 410.234 1307.78 410.55 1307.82 410.821C1307.82 411.542 1308.05 412.444 1308.05 413.166C1308.14 414.79 1308.05 416.414 1308.05 418.037C1308.05 418.714 1307.96 419.345 1307.91 420.022C1307.82 420.383 1307.73 421.195 1307.73 421.33C1307.73 421.24 1307.6 422.368 1307.51 423.134C1307.73 421.556 1307.33 425.976 1307.37 426.517C1307.64 428.366 1308.32 429.765 1309.44 431.208C1311.65 434.095 1315.21 435.177 1318.77 434.275C1324.36 432.832 1326.71 426.562 1327.88 421.465C1328.78 417.496 1328.96 413.437 1328.47 409.422V409.603Z" fill="#DDD6F2"/>
<path d="M1296.6 405.724C1294.8 403.378 1292.77 401.258 1290.74 399.409C1286.5 395.62 1281.32 393.049 1276.18 390.614C1266.54 386.103 1256.12 381.863 1245.58 383.307C1240.93 383.938 1236.25 385.878 1233.36 389.531C1230.43 393.23 1229.8 398.868 1232.73 402.567C1235.84 406.491 1241.52 406.942 1246.52 407.573C1258.92 409.107 1270.95 413.753 1281.18 420.969C1286.14 424.442 1287.81 432.832 1294.62 431.93C1298 431.479 1300.16 429.224 1301.38 426.111C1304.08 418.985 1301.15 411.633 1296.64 405.679L1296.6 405.724Z" fill="#B897F0"/>
<path d="M1338.52 398.102C1339.46 400.402 1340.27 402.747 1340.86 405.183C1336.17 401.665 1330.58 399.41 1324.95 397.65C1318.95 395.801 1312.73 394.448 1306.42 394.583C1296.55 394.809 1286.95 398.823 1279.2 405.003C1274.6 408.701 1270.59 413.121 1267.26 417.993C1261.94 417.136 1256.71 416.369 1251.53 415.332C1255.81 405.499 1262.21 396.613 1270.41 389.712C1281.81 380.15 1296.69 374.647 1311.56 375.323C1316.39 375.549 1321.16 376.451 1325.72 377.94C1330.94 384.029 1335.45 390.795 1338.52 398.056V398.102Z" fill="black"/>
<path d="M1337.66 430.533C1334.73 435.494 1330.45 439.734 1325.54 442.846C1318.32 447.447 1310.17 449.522 1301.78 450.604C1298.81 451.01 1280.19 452.995 1280.19 457.55C1280.19 452.183 1281.14 446.815 1282.94 441.764C1284.07 438.651 1285.51 435.629 1285.96 432.382C1286.82 426.338 1283.66 422.684 1279.07 420.655C1281.63 418.49 1284.43 416.64 1287.4 415.107C1295.2 411.092 1304.22 409.243 1312.92 410.686C1321.57 412.085 1329.77 416.911 1334.6 424.263C1335.86 426.202 1336.89 428.322 1337.66 430.533Z" fill="black"/>
<path d="M1291.6 352.32C1281.99 354.666 1272.89 359.086 1265.18 365.22C1250.85 376.677 1241.34 393.636 1237.87 411.678C1235.93 411.002 1233.99 410.19 1232.05 409.288C1229.94 408.295 1228.09 407.033 1226.6 405.544C1225.56 390.073 1229.12 374.286 1236.83 360.845C1239.22 356.74 1241.97 352.816 1245.12 349.208C1248.78 347.945 1252.74 347.178 1257.02 346.727C1268.97 345.509 1280.78 347.674 1291.64 352.275L1291.6 352.32Z" fill="black"/>
<path d="M1226.56 405.544C1216.32 395.531 1219.39 375.73 1226.28 364.453C1228.81 360.304 1231.78 357.011 1235.16 354.44C1238.14 352.185 1241.47 350.471 1245.08 349.208C1248.73 347.945 1252.7 347.178 1256.98 346.727C1268.92 345.509 1280.73 347.674 1291.6 352.275C1300.25 355.929 1308.27 361.161 1315.3 367.385C1318.91 370.588 1322.47 374.151 1325.72 377.94C1330.94 384.029 1335.45 390.795 1338.52 398.057C1339.46 400.357 1340.27 402.702 1340.86 405.138C1342.3 411.182 1342.53 417.452 1340.77 423.406C1340.05 425.932 1338.97 428.277 1337.66 430.532C1334.73 435.494 1330.45 439.734 1325.54 442.846C1318.32 447.447 1310.17 449.521 1301.78 450.604C1298.81 451.01 1280.19 452.995 1280.19 457.55C1280.19 452.183 1281.14 446.815 1282.94 441.763C1284.07 438.651 1285.51 435.629 1285.96 432.382C1286.82 426.337 1283.66 422.684 1279.07 420.654C1277.62 420.023 1276 419.527 1274.33 419.211C1271.94 418.76 1269.6 418.354 1267.26 417.948C1261.94 417.091 1256.71 416.324 1251.53 415.287C1246.93 414.385 1242.38 413.257 1237.87 411.633C1235.93 410.957 1233.99 410.145 1232.05 409.243C1229.94 408.25 1228.09 406.987 1226.6 405.499L1226.56 405.544Z" stroke="black" stroke-width="2" stroke-linecap="round" stroke-linejoin="round"/>
<path d="M1216.28 211.818C1211.37 208.66 1206.14 205.548 1200.95 202.661C1196.72 200.361 1192.48 198.196 1188.42 196.347C1186.26 195.354 1184.14 194.452 1182.11 193.686C1181.66 193.505 1181.21 193.325 1180.76 193.189C1162.33 191.295 1136.68 197.835 1129.69 201.218C1129.2 201.444 1128.79 201.714 1128.48 201.895C1126.58 203.203 1124.78 204.781 1123.11 206.45C1120.27 209.337 1117.7 212.585 1115.4 215.877C1114.77 216.734 1114.19 217.591 1113.6 218.448C1109.32 224.808 1105.76 231.754 1103.64 239.106C1105.4 238.61 1107.29 238.43 1109.14 238.565C1107.7 239.963 1106.53 241.677 1105.8 243.527C1109.64 243.391 1113.38 243.617 1117.12 244.068C1122.75 244.744 1128.21 246.052 1133.66 247.766C1134.83 248.127 1135.96 248.533 1137.13 248.939C1136.5 257.013 1133.52 284.166 1126.54 307.305C1119.55 330.444 1106.66 345.599 1107.92 359.807C1110.45 388.314 1118.83 404.551 1118.83 404.551C1119.24 406.085 1118.83 407.889 1118.06 409.558C1126.04 411.137 1138.21 409.919 1143.17 415.602C1147 415.061 1163.81 414.475 1167.64 413.933C1171.57 413.347 1175.53 412.761 1179.5 412.896H1179.59C1177.34 397.244 1175.58 361.521 1174.54 330.263C1173.64 303.2 1173.32 279.475 1173.73 274.92C1174.77 263.553 1181.98 251.104 1191.67 241.091C1201.36 231.078 1204.38 235.272 1204.38 235.272C1211.32 230.672 1224.26 222.823 1225.52 223.184C1228.54 224.131 1227.86 219.215 1216.32 211.818H1216.28ZM1176.52 221.651C1176.03 222.553 1175.49 223.41 1174.9 224.267C1174.63 224.673 1174.32 225.214 1173.95 225.755C1173.32 226.657 1172.56 227.514 1171.66 227.65C1170.57 227.83 1169.36 226.838 1168.5 226.387C1166.65 225.394 1164.76 224.492 1162.87 223.545C1162.06 223.139 1160.84 222.643 1161.6 221.651C1163.86 218.764 1169.04 217.907 1172.42 217.726C1173.64 217.681 1176.66 217.321 1177.52 218.448C1178.15 219.305 1176.93 220.929 1176.52 221.651Z" fill="#CCBCF3"/>
<path d="M1168.14 210.148C1166.92 210.058 1165.75 210.148 1164.67 210.735C1162.91 211.592 1161.88 213.306 1161.15 215.065C1160.43 216.779 1159.31 218.132 1158.54 219.846C1157.1 223.048 1154.98 226.115 1154.71 229.769C1154.48 232.52 1155.61 235.452 1157.95 236.941C1159.08 237.662 1160.48 237.978 1161.79 238.158C1169.45 239.196 1177.11 235.948 1183.47 231.573C1184.19 231.077 1184.95 230.536 1185.4 229.769C1186.4 228.145 1185.85 225.98 1185.13 224.221C1182.52 217.996 1178.01 212.9 1171.43 210.87C1170.35 210.554 1169.22 210.238 1168.1 210.193L1168.14 210.148Z" fill="#DDD6F2"/>
<path d="M1188.42 196.347C1186.26 195.354 1184.14 194.452 1182.11 193.685C1190.81 187.822 1207.08 185.521 1210.91 187.416C1214.75 189.31 1200.91 202.661 1200.91 202.661C1196.67 200.361 1192.43 198.196 1188.38 196.347H1188.42Z" fill="#CCBCF3"/>
<path d="M1201.72 422.052V422.142C1191.76 425.074 1181.44 428.141 1173.68 435.042C1172.6 435.989 1170.84 437.027 1169.85 435.944C1168.91 436.711 1167.46 436.846 1166.43 436.215C1166.34 435.313 1166.38 434.411 1166.52 433.554C1165.71 433.824 1165.21 434.591 1164.53 435.132C1163.86 435.674 1162.78 435.944 1162.24 435.268C1162.01 434.997 1161.97 434.681 1161.97 434.321C1161.74 431.524 1163.27 428.773 1165.35 426.878C1167.46 424.984 1170.08 423.811 1172.65 422.683C1175.31 421.511 1177.97 420.293 1180.63 419.12H1180.72C1181.03 420.067 1181.35 420.654 1181.66 420.834C1184.01 422.052 1192.03 422.142 1201.72 422.052Z" fill="#B897F0"/>
<path d="M1198.43 250.698C1197.93 251.285 1197.48 251.826 1196.99 252.412C1197.44 251.826 1197.89 251.24 1198.43 250.698Z" fill="#F1BCEF"/>
<path d="M1177.52 218.448C1178.15 219.305 1176.93 220.929 1176.52 221.65C1176.03 222.553 1175.49 223.41 1174.9 224.267C1174.63 224.672 1174.32 225.214 1173.95 225.755C1173.32 226.657 1172.6 227.514 1171.66 227.649C1170.57 227.83 1169.36 226.837 1168.5 226.341C1166.65 225.349 1164.76 224.447 1162.87 223.5C1162.06 223.094 1160.84 222.598 1161.6 221.605C1163.86 218.719 1169.04 217.862 1172.42 217.681C1173.64 217.636 1176.66 217.275 1177.52 218.403V218.448Z" fill="#F1BCEF"/>
<path d="M1141.19 248.939C1142.36 249.3 1143.48 249.706 1144.66 250.112C1143.35 266.215 1107.16 335.225 1109.68 363.732C1112.2 392.193 1118.74 404.552 1118.74 404.552C1119.46 407.348 1117.52 411.182 1115.54 413.302C1113.56 415.422 1110.72 416.595 1107.88 417.136C1106.25 417.452 1104.59 417.542 1103.14 418.309C1102.02 418.895 1101.07 419.842 1100.26 420.835C1099.13 420.79 1098.01 420.699 1096.88 420.564C1095.12 420.339 1093.23 421.421 1091.56 421.782C1089.08 422.323 1086.38 421.872 1084.21 420.564C1083.18 419.933 1082.23 419.076 1081.1 418.534C1079.62 417.858 1077.86 417.767 1076.24 418.038C1074.61 418.309 1073.04 418.85 1071.46 419.391C1070.33 419.752 1069.16 420.113 1067.99 420.429C1061.05 422.368 1053.88 423.451 1046.67 423.18C1045.63 423.18 1044.64 423.09 1043.6 422.955C1043.47 422.955 1043.29 422.955 1043.15 422.819C1042.93 422.639 1042.93 422.323 1042.93 422.052C1043.11 420.609 1043.83 419.211 1044.91 418.264C1045.99 417.316 1047.57 417.046 1048.97 416.865C1051.45 416.505 1053.25 415.377 1055.37 414.204C1057.49 413.031 1059.96 411.633 1062.22 410.28C1072.9 403.785 1059.83 309.245 1059.83 309.245C1060.73 309.38 1061.72 309.47 1062.49 308.929C1063.25 308.388 1063.39 307.035 1062.58 306.674C1062.94 306.223 1063.66 306.674 1064.25 306.809C1065.1 306.99 1066 306.268 1066.23 305.411C1066.45 304.554 1066.23 303.652 1065.82 302.84C1065.46 302.028 1064.97 301.306 1064.65 300.449C1064.38 299.728 1064.29 298.916 1064.7 298.239C1065.1 297.608 1065.46 297.743 1066.09 298.104C1066.55 298.375 1067.22 298.645 1067.63 298.239C1067.85 297.969 1067.85 297.608 1067.76 297.247C1067.54 296.3 1066.91 295.488 1066.09 294.947C1074.7 279.972 1110.4 271.266 1121.98 258.457C1131.32 251.42 1141.14 248.985 1141.14 248.985L1141.19 248.939Z" fill="#4D475B"/>
<path d="M1123.07 206.45C1120.23 209.292 1117.66 212.584 1115.36 215.832H1115.31C1115.31 215.832 1102.47 211.006 1101.03 207.037C1099.58 203.067 1123.56 200.587 1129.69 201.218C1129.2 201.444 1128.79 201.714 1128.48 201.895C1126.58 203.203 1124.78 204.781 1123.11 206.45H1123.07Z" fill="#CCBCF3"/>
<path d="M1141.19 248.939C1141.19 248.939 1131.36 251.374 1122.03 258.411C1119.96 257.824 1117.93 257.103 1115.9 256.336C1115.36 256.11 1114.68 255.75 1114.68 255.163C1114.68 254.577 1114.91 254.577 1115.09 254.306C1117.43 251.239 1121.67 247.766 1124.64 245.285C1130.23 245.962 1135.73 247.27 1141.19 248.984V248.939Z" fill="#4D475B"/>
<path d="M1066.14 294.901C1066.95 295.442 1067.58 296.254 1067.81 297.201C1067.9 297.562 1067.9 297.923 1067.67 298.194C1067.27 298.6 1066.64 298.329 1066.14 298.058C1065.51 297.652 1065.15 297.517 1064.74 298.194C1064.34 298.825 1064.43 299.682 1064.7 300.404C1065.01 301.261 1065.51 301.983 1065.87 302.794C1066.23 303.606 1066.5 304.508 1066.27 305.365C1066.05 306.222 1065.15 306.944 1064.29 306.764C1063.71 306.628 1062.98 306.177 1062.62 306.628C1063.44 306.989 1063.3 308.387 1062.53 308.884C1061.77 309.425 1060.78 309.335 1059.87 309.199C1058.57 308.974 1057.08 308.478 1056.72 307.215C1056.36 305.907 1057.44 304.644 1058.43 303.742C1057.13 303.155 1056.54 301.486 1056.94 300.133C1057.35 298.78 1058.66 297.788 1060.05 297.517C1059.29 296.66 1059.87 294.901 1060.96 294.495C1062.26 294.044 1063.75 293.909 1065.06 294.405C1065.46 294.54 1065.82 294.721 1066.14 294.946V294.901Z" fill="#B897F0"/>
<path d="M1117.97 409.558C1117.34 411.001 1116.44 412.309 1115.49 413.301C1113.47 415.421 1110.67 416.594 1107.83 417.135C1106.21 417.451 1104.54 417.586 1103.1 418.308C1101.97 418.894 1101.03 419.842 1100.21 420.834C1099.54 421.691 1098.91 422.818 1099.27 423.856C1099.63 424.893 1101.52 425.074 1101.66 423.991C1101.43 425.029 1101.16 426.066 1100.94 427.103C1102.56 427.374 1104.32 427.013 1105.71 426.111C1105.26 426.833 1106.03 427.825 1106.89 427.96C1107.74 428.051 1108.55 427.6 1109.32 427.194C1116.35 423.134 1123.74 419.616 1131.63 417.677C1135.24 416.774 1138.93 416.233 1142.58 415.737C1142.76 415.737 1142.94 415.692 1143.12 415.647C1138.12 409.964 1125.95 411.226 1118.02 409.603L1117.97 409.558Z" fill="#B897F0"/>
<path d="M1059.83 309.155C1060.73 309.29 1061.72 309.38 1062.49 308.839C1063.26 308.298 1063.39 306.945 1062.58 306.584C1062.94 306.133 1063.66 306.584 1064.25 306.719C1065.1 306.899 1066 306.178 1066.23 305.321C1066.46 304.464 1066.23 303.562 1065.82 302.75C1065.46 301.938 1064.97 301.216 1064.65 300.359C1064.38 299.637 1064.29 298.826 1064.7 298.149C1065.1 297.518 1065.46 297.653 1066.1 298.014C1066.55 298.284 1067.22 298.555 1067.63 298.149C1067.85 297.878 1067.85 297.518 1067.76 297.157C1067.54 296.21 1066.91 295.398 1066.1 294.856C1065.73 294.631 1065.37 294.45 1065.01 294.315C1063.71 293.864 1062.26 293.954 1060.91 294.405C1059.83 294.766 1059.24 296.525 1060.01 297.427C1058.61 297.698 1057.31 298.69 1056.9 300.043C1056.49 301.397 1057.13 303.065 1058.39 303.652C1057.4 304.599 1056.27 305.817 1056.67 307.125C1057.04 308.388 1058.52 308.929 1059.83 309.11V309.155Z" stroke="black" stroke-width="2" stroke-linecap="round" stroke-linejoin="round"/>
<path d="M1059.83 309.154C1061 317.769 1062.04 326.43 1062.94 335.045C1064.65 351.102 1066.14 367.295 1066.37 383.487C1066.59 399.68 1066.46 396.117 1065.46 402.251C1064.47 408.385 1064.88 406.401 1063.89 408.07C1061.41 412.174 1054.74 414.88 1050.32 416.234C1048.56 416.775 1046.76 417.136 1045.18 418.083C1043.6 419.03 1042.3 420.654 1042.39 422.503C1043.51 423.135 1044.87 423.135 1046.13 423.135C1054.78 422.954 1063.39 421.646 1071.73 419.256C1074.75 418.399 1078.13 417.406 1080.92 418.85C1081.69 419.256 1082.41 419.797 1083.13 420.248C1088.27 423.225 1094.72 420.338 1100.22 420.789" stroke="black" stroke-width="2" stroke-linecap="round" stroke-linejoin="round"/>
<path d="M1187.84 260.441C1181.71 251.961 1172.69 248.127 1163.23 254.622C1150.7 263.192 1145.15 277.13 1142.45 291.338C1139.2 308.027 1124.69 325.212 1126.58 342.126C1128.48 359.04 1133.84 375.729 1143.49 389.712C1147.32 395.26 1165.21 400.627 1171.66 402.612C1174.72 403.559 1177.97 403.694 1181.17 403.604C1185.76 403.514 1190.5 402.973 1194.55 400.853C1199.65 398.146 1203.16 393.14 1205.19 387.727C1207.22 382.315 1207.85 376.541 1208.39 370.813C1210.15 351.778 1210.87 332.474 1208.12 313.529C1205.37 294.585 1199.11 275.912 1187.84 260.441Z" fill="#DDD6F2"/>
<path d="M1142.4 204.33C1146.37 203.203 1150.83 203.519 1154.57 204.917C1159.49 206.811 1161.88 212.675 1159.71 217.456C1158.13 220.974 1154.89 222.102 1151.55 223.365C1147.63 224.853 1143.53 225.891 1139.34 226.432C1135.87 226.883 1132.35 227.379 1128.93 228.011C1125.73 228.552 1122.71 228.958 1119.91 230.627C1117.97 231.799 1116.26 233.288 1114.41 234.551C1114.19 234.686 1113.92 234.821 1113.69 234.686C1113.51 234.551 1113.51 234.325 1113.56 234.1C1113.69 233.378 1113.92 232.656 1114.23 231.935C1116.4 226.522 1120 221.786 1124.15 217.727C1128.52 213.442 1133.25 209.563 1138.3 206.18C1139.56 205.323 1140.96 204.736 1142.4 204.285V204.33Z" fill="#1D083B"/>
<path d="M1155.43 214.885C1155.43 214.614 1155.43 214.298 1155.39 213.938C1155.11 212.584 1154.26 212.314 1153.04 212.179C1151.82 212.043 1150.02 211.502 1148.44 211.141C1147.63 210.961 1146.82 210.78 1146.01 210.78C1143.98 210.78 1138.53 214.614 1141.28 216.734C1143.17 218.177 1146.64 218.268 1148.89 218.313C1150.97 218.313 1155.11 217.411 1155.43 214.885Z" fill="white"/>
<path d="M1194.06 217.456C1189.05 218.99 1183.51 219.621 1178.87 217.456C1175.71 216.013 1172.47 213.397 1171.61 209.879C1170.85 206.721 1171.88 203.203 1174.23 200.948C1176.25 199.008 1179.09 198.061 1181.89 197.835C1190.63 197.114 1199.24 200.181 1206.5 204.917C1208.21 206.045 1210.24 207.398 1211.46 209.067C1210.42 209.653 1208.98 209.879 1207.81 210.42C1206.63 210.961 1205.28 211.863 1204.06 212.63C1200.91 214.66 1197.66 216.283 1194.1 217.366L1194.06 217.456Z" fill="#1D083B"/>
<path d="M1196.67 207.758C1196.67 207.533 1196.67 207.262 1196.63 206.947C1196.36 204.466 1194.82 202.256 1192.66 201.038C1189.6 199.279 1185.58 200.722 1184.86 204.33C1184.46 206.405 1184.55 209.518 1186.22 211.096C1187.88 212.675 1190.27 211.908 1191.85 210.826C1193.07 210.014 1194.28 209.743 1195.59 209.202C1196.4 208.886 1196.63 208.435 1196.63 207.758H1196.67Z" fill="white"/>
<path d="M1217.22 345.149C1213.62 344.607 1209.83 344.066 1206.14 343.525C1197.03 342.172 1188.78 340.954 1187.16 340.773C1188.15 334.233 1188.74 327.648 1188.92 321.062C1197.53 324.987 1232.96 331.662 1232.96 331.662L1233.95 347.629C1233.95 347.629 1226.33 346.502 1217.27 345.149H1217.22Z" fill="#4D475B"/>
<path d="M1232.28 358.454L1231.15 368.603L1186.62 358.229V347.088C1189.01 348.351 1197.26 350.516 1206.09 352.591C1209.79 353.448 1213.62 354.35 1217.18 355.117C1225.43 356.966 1232.1 358.319 1232.28 358.409V358.454Z" fill="#4D475B"/>
<path d="M1217.22 345.148V355.117C1213.66 354.35 1209.83 353.448 1206.09 352.591V352.41V343.479C1209.74 344.021 1213.57 344.607 1217.18 345.103L1217.22 345.148Z" fill="#B897F0"/>
<path d="M1204.29 235.273C1204.29 235.273 1204.29 244.564 1204.74 244.699C1204.33 244.564 1208.75 242.444 1200.05 249.21C1199.47 249.661 1198.93 250.157 1198.43 250.653C1197.93 251.195 1197.44 251.736 1196.99 252.367C1186.98 264.771 1182.65 277.987 1182.11 277.04C1181.57 276.093 1176.57 278.979 1176.57 278.979C1176.57 278.979 1180.04 285.925 1179.63 286.467C1179.23 287.008 1174.63 328.865 1174.5 330.173C1173.59 303.11 1173.28 279.385 1173.69 274.83C1174.72 263.463 1181.93 251.014 1191.62 241.001C1201.27 230.988 1204.33 235.182 1204.33 235.182L1204.29 235.273Z" fill="#4D475B"/>
<path d="M1196.99 252.412C1197.44 251.826 1197.93 251.285 1198.43 250.698C1198.93 250.202 1199.47 249.706 1200.05 249.255C1208.75 242.489 1204.33 244.609 1204.74 244.745C1205.42 244.925 1215.87 250.608 1219.7 258.682C1221.1 261.614 1222.59 266.124 1224.17 271.672C1228.22 275.687 1234.76 289.579 1231.69 305.095C1238.14 338.653 1243.37 377.804 1242.11 384.209C1240.03 394.538 1244.18 405.634 1248.33 404.101C1252.47 402.567 1254.55 407.98 1251.71 411.317C1248.87 414.655 1260.72 412.355 1266.94 412.355C1273.16 412.355 1276.77 418.038 1276.77 418.038C1276.77 418.038 1257.16 425.525 1240.12 422.954C1230.43 421.511 1214.66 421.962 1201.81 422.097C1192.12 422.188 1184.1 422.097 1181.75 420.88C1181.44 420.699 1181.12 420.113 1180.81 419.121C1180.4 417.722 1179.99 415.602 1179.59 412.851C1177.34 397.199 1175.58 361.521 1174.54 330.264C1174.68 328.956 1179.27 287.098 1179.68 286.557C1180.09 286.016 1176.61 279.069 1176.61 279.069C1176.61 279.069 1181.57 276.183 1182.16 277.13C1182.7 278.077 1186.98 264.861 1197.03 252.458L1196.99 252.412ZM1188.92 321.062C1188.74 327.648 1188.2 334.233 1187.16 340.773C1188.78 340.954 1197.03 342.171 1206.14 343.525V352.636C1197.26 350.561 1189.01 348.396 1186.62 347.133V358.274L1231.15 368.648L1232.28 358.499C1232.1 358.409 1225.43 357.056 1217.18 355.207V355.071V345.239C1226.28 346.592 1233.86 347.719 1233.86 347.719L1232.87 331.752C1232.87 331.752 1197.48 325.031 1188.83 321.152L1188.92 321.062Z" fill="#4D475B"/>
<path d="M1180.58 236.761C1177.38 236.085 1174 238.701 1170.84 239.422C1167.55 240.189 1164.31 240.099 1160.93 240.189C1158.22 240.279 1156.74 244.249 1159.49 245.557C1163.41 247.451 1167.92 247.586 1172.11 246.729C1175.53 246.053 1181.8 244.158 1182.52 240.189C1182.79 238.791 1182.11 237.032 1180.54 236.716L1180.58 236.761Z" fill="#B897F0"/>
<path d="M1120.5 205.774C1117.75 205.368 1114.91 205.233 1112.11 205.368C1110.27 205.458 1104.72 206.406 1107.52 209.473C1108.96 211.051 1110.94 212.044 1112.88 212.991C1113.6 213.352 1114.32 213.667 1115.09 213.803C1116.94 214.073 1118.02 212.946 1119.01 211.638C1120 210.33 1121.85 209.067 1122.84 207.398C1122.98 207.172 1123.11 206.902 1123.02 206.631C1122.93 206.225 1122.44 206.09 1122.03 206C1121.53 205.909 1120.99 205.819 1120.5 205.729V205.774Z" fill="#B897F0"/>
<path d="M1204.15 189.806C1200.91 189.31 1197.71 190.438 1194.87 192.107C1193.92 192.648 1193.11 193.37 1192.3 194.046C1191.62 194.587 1190.09 195.039 1190.14 196.121C1190.14 196.617 1190.54 197.023 1190.95 197.339C1192.62 198.647 1194.73 199.143 1196.54 200.181C1197.26 200.586 1198.02 201.083 1198.84 201.173C1200.19 201.308 1201.04 199.865 1201.86 198.963C1203.07 197.61 1204.29 196.211 1205.46 194.858C1206.77 193.325 1206.59 190.167 1204.11 189.806H1204.15Z" fill="#B897F0"/>
<path d="M1169.76 195.716C1166.11 195.129 1162.28 196.302 1158.9 197.61C1158 197.971 1158.04 199.459 1159.13 199.414C1162.6 199.234 1166.38 199.505 1169.76 198.557C1171.07 198.196 1171.25 195.941 1169.76 195.716Z" fill="#DDD6F2"/>
<path d="M1217.63 217.772C1216.32 215.472 1213.03 215.246 1210.69 215.336C1210.06 215.336 1209.56 216.238 1210.1 216.689C1211.86 218.088 1213.75 220.298 1216.14 220.388C1217.5 220.433 1218.26 218.9 1217.63 217.772Z" fill="#DDD6F2"/>
<path d="M1126.54 208.795C1124.37 210.239 1122.35 211.772 1120.63 213.802C1119.19 215.516 1116.85 217.906 1117.7 220.342C1118.02 221.199 1118.83 221.695 1119.73 221.515C1122.03 220.974 1122.93 218.312 1124.1 216.463C1125.41 214.388 1126.67 212.313 1128.07 210.329C1128.75 209.427 1127.44 208.209 1126.54 208.795Z" fill="#DDD6F2"/>
<path d="M1150.92 254.758C1150.92 255.028 1150.88 255.389 1150.79 255.795C1150.16 258.546 1148.26 260.937 1145.65 262.11C1145.29 262.245 1144.84 262.38 1144.61 262.11C1144.48 261.974 1144.48 261.749 1144.48 261.569C1144.48 260.215 1144.97 258.907 1145.38 257.644C1145.69 256.652 1145.69 255.299 1146.19 254.397C1146.78 253.314 1148.44 253.314 1149.48 253.495C1150.52 253.675 1150.92 254.081 1150.92 254.758Z" fill="#DDD6F2"/>
<path d="M1135.37 251.916C1133.7 253.901 1132.49 257.735 1131.54 259.81C1128.7 265.989 1118.7 271.176 1116.53 277.626C1113.47 286.737 1097.65 295.849 1095.26 305.14C1090.48 323.859 1087.87 343.389 1086.96 362.694C1086.74 367.926 1086.65 373.159 1086.78 378.391C1086.83 381.007 1086.96 383.623 1087.28 386.239C1087.5 388.043 1087.64 389.893 1087.91 391.652C1087.64 392.87 1087.59 394.132 1087.69 395.395C1087.28 395.531 1086.92 395.666 1086.51 395.756C1084.03 396.523 1081.46 397.064 1078.94 397.831C1077.5 398.282 1076.01 398.553 1074.61 399.139C1073.22 399.726 1071.86 400.492 1070.51 401.169C1065.19 403.83 1067.09 411.453 1072.09 413.077C1078.54 415.197 1085.12 414.204 1091.47 412.129C1095.57 410.821 1101.03 409.378 1103.87 405.905C1106.75 402.342 1109.28 398.282 1111.98 394.538C1112.43 393.862 1112.93 393.185 1113.06 392.418C1113.2 391.697 1112.97 390.93 1112.75 390.208C1109.23 377.579 1109.64 366.303 1110 353.177C1110.36 340.367 1118.97 326.52 1123.7 314.657C1129.42 300.224 1131.81 290.932 1135.28 280.287C1139.43 267.613 1145.15 250.473 1145.15 250.473C1145.29 250.744 1140.38 248.939 1140.38 248.939C1140.38 248.939 1135.6 251.646 1135.37 251.916Z" fill="#292533"/>
<path d="M1234.71 388.269C1234.67 388.629 1234.62 388.945 1234.53 389.306C1234.53 389.532 1234.53 389.306 1234.71 388.269Z" fill="#4D475B"/>
<path d="M1231.02 381.097C1230.79 381.052 1230.57 381.006 1230.34 381.052C1229.53 381.187 1228.99 381.999 1228.63 382.766C1227.1 386.239 1227.28 390.839 1224.08 392.869C1222.5 393.861 1220.52 393.906 1218.67 393.861C1212 393.636 1205.33 392.598 1198.88 390.794C1198.11 390.569 1197.3 390.343 1196.67 389.847C1195.54 388.945 1195.14 387.411 1194.87 386.013C1193.47 378.3 1194.19 370.226 1192.07 362.649C1191.67 361.205 1190.77 359.491 1189.28 359.627C1188.6 359.672 1188.02 360.123 1187.52 360.619C1184.82 363.415 1184.5 368.377 1184.23 372.031C1183.92 376.225 1183.65 380.42 1183.24 384.615C1182.74 390.073 1184.73 395.079 1189.87 397.605C1194.33 399.86 1199.69 399.951 1204.6 400.356C1208.71 400.717 1212.85 401.033 1216.95 400.717C1221.06 400.447 1225.07 399.725 1229.17 399.409C1233.27 399.094 1233.59 395.305 1233.32 391.832C1233.14 389.396 1232.91 386.96 1232.73 384.525C1232.68 383.713 1232.59 382.901 1232.23 382.224C1231.87 381.548 1231.51 381.277 1230.97 381.142L1231.02 381.097Z" fill="#292533"/>
<path d="M1215.02 305.365C1212.09 301.757 1207.62 303.155 1203.75 303.651C1202.8 303.787 1201.76 303.787 1200.77 303.877C1199.06 304.012 1197.53 304.508 1195.86 304.869C1192.03 305.726 1192.21 310.552 1194.87 312.537C1197.62 314.567 1200.41 315.559 1203.79 316.236C1208.26 317.093 1213.48 317.544 1216.01 312.898C1217.45 310.282 1216.86 307.575 1215.06 305.41L1215.02 305.365Z" fill="#4D475B"/>
<path d="M1228.85 316.236C1227.5 315.965 1226.24 315.514 1224.89 315.154C1223.85 314.883 1222.81 314.793 1221.73 314.703C1221.69 314.703 1221.6 314.703 1221.55 314.703C1220.7 314.432 1219.79 314.387 1218.89 314.522C1214.93 314.973 1211.01 317.77 1211.19 322.235C1211.37 326.204 1214.57 330.174 1218.89 329.948C1224.44 329.632 1228.22 326.475 1231.11 321.964C1232.37 319.98 1231.2 316.732 1228.81 316.281L1228.85 316.236Z" fill="#4D475B"/>
<path d="M1245.44 406.401C1240.12 401.349 1231.42 402.342 1224.8 403.83C1221.82 404.507 1218.98 405.815 1216.1 406.762C1213.08 407.754 1210.01 409.243 1206.77 409.153C1203.39 409.017 1202.98 413.889 1206 414.881C1209.07 415.873 1212.13 416.911 1215.38 417.226C1218.35 417.497 1221.37 417.226 1224.39 417.226C1227.05 417.226 1229.71 417.001 1232.37 417.226C1232.6 417.226 1232.73 417.226 1232.82 417.226C1232.82 417.226 1232.82 417.226 1233.05 417.317C1233.63 417.452 1234.26 417.587 1234.85 417.768C1236.74 418.309 1238.41 418.805 1240.39 418.895C1246.66 419.211 1249.95 410.731 1245.53 406.491L1245.44 406.401Z" fill="#292533"/>
<path d="M1191.44 259.809C1189.19 264.094 1187.16 268.515 1185.4 273.025C1185.13 273.657 1184.91 274.333 1184.46 274.874C1184.05 275.371 1183.47 275.686 1182.88 276.047C1181.3 276.994 1179.68 277.942 1178.1 278.844C1177.38 279.25 1176.61 279.746 1176.3 280.513C1175.67 281.911 1176.75 283.444 1177.43 284.797C1179.32 288.722 1177.97 293.367 1177.07 297.698C1175.89 303.381 1175.76 309.199 1175.58 315.018C1175.49 318.085 1175.4 321.152 1175.31 324.174C1175.17 328.234 1175.08 332.338 1175.49 336.398C1175.76 339.014 1176.79 342.171 1179.36 342.667C1181.17 342.983 1182.92 341.81 1184.14 340.457C1186.71 337.706 1187.97 333.33 1188.83 329.722C1190.05 324.851 1190.77 319.799 1191.13 314.792C1191.58 308.658 1192.25 302.524 1192.93 296.389C1193.07 294.991 1193.25 293.593 1193.43 292.24C1193.43 292.014 1193.52 291.653 1193.56 291.293C1193.65 290.571 1193.79 289.894 1193.88 289.173C1194.37 286.06 1194.91 282.948 1195.37 279.791C1196.13 274.423 1197.39 269.146 1198.11 263.779C1198.38 261.659 1199.06 259.043 1197.98 257.103C1197.26 255.795 1195.18 253.179 1193.97 255.209C1193.11 256.697 1192.25 258.231 1191.44 259.764V259.809Z" fill="#292533"/>
<path d="M1129.69 201.173C1123.56 200.586 1099.54 203.022 1101.03 206.991C1102.51 210.96 1115.32 215.742 1115.32 215.742" stroke="black" stroke-width="2" stroke-linecap="round" stroke-linejoin="round"/>
<path d="M1182.11 193.685C1190.81 187.822 1207.08 185.521 1210.91 187.416C1214.75 189.31 1200.91 202.661 1200.91 202.661" stroke="black" stroke-width="2" stroke-linecap="round" stroke-linejoin="round"/>
<path d="M1173.91 225.755C1174.27 225.214 1174.59 224.672 1174.86 224.266C1175.4 223.409 1175.98 222.552 1176.48 221.65C1176.88 220.929 1178.15 219.305 1177.47 218.448C1176.66 217.32 1173.59 217.681 1172.38 217.726C1169 217.861 1163.81 218.764 1161.56 221.65C1160.75 222.643 1161.97 223.139 1162.82 223.545C1164.72 224.492 1166.61 225.394 1168.46 226.386C1169.31 226.837 1170.57 227.83 1171.61 227.694C1172.51 227.559 1173.28 226.702 1173.91 225.8V225.755Z" stroke="black" stroke-width="2" stroke-linecap="round" stroke-linejoin="round"/>
<path d="M1196.99 252.412C1197.44 251.826 1197.89 251.24 1198.43 250.698" stroke="black" stroke-width="2" stroke-linecap="round" stroke-linejoin="round"/>
<path d="M1144.66 250.112C1143.94 259.224 1133.88 282.317 1126.27 308.749C1120.41 328.956 1108.69 335.947 1109.68 363.687C1110.72 392.283 1118.74 404.507 1118.74 404.507C1119.46 407.303 1117.52 411.137 1115.54 413.257C1113.56 415.377 1110.72 416.55 1107.88 417.091C1106.26 417.407 1104.59 417.497 1103.15 418.264C1102.02 418.85 1101.07 419.797 1100.26 420.79C1099.58 421.647 1098.95 422.774 1099.31 423.812C1099.67 424.849 1101.57 425.03 1101.7 423.947C1101.48 424.984 1101.21 426.022 1100.98 427.059C1102.6 427.33 1104.36 426.969 1105.76 426.067C1105.31 426.789 1106.07 427.781 1106.93 427.916C1107.79 428.006 1108.6 427.555 1109.37 427.149C1116.4 423.09 1123.79 419.572 1131.68 417.632C1135.28 416.775 1138.98 416.234 1142.63 415.693C1146.64 415.106 1163.63 414.52 1167.64 413.934C1171.57 413.347 1175.53 412.806 1179.5 412.896" stroke="black" stroke-width="2" stroke-linecap="round" stroke-linejoin="round"/>
<path d="M1124.64 245.285C1121.67 247.811 1117.43 251.239 1115.09 254.306C1114.91 254.577 1114.68 254.847 1114.68 255.163C1114.68 255.75 1115.36 256.11 1115.9 256.336C1117.93 257.103 1119.96 257.824 1122.03 258.411C1110.45 271.221 1074.97 279.52 1066.32 294.495" stroke="black" stroke-width="2" stroke-linecap="round" stroke-linejoin="round"/>
<path d="M1172.15 227.92C1172.33 228.461 1171.97 229.093 1171.48 229.408C1170.98 229.724 1170.35 229.769 1169.76 229.769C1167.78 229.859 1165.8 229.679 1163.86 229.905C1161.2 230.175 1158.59 231.167 1156.42 232.701" stroke="black" stroke-width="2" stroke-linecap="round" stroke-linejoin="round"/>
<path d="M1172.69 227.875C1173.28 229.003 1174.72 229.454 1175.94 229.318C1176.66 229.228 1177.34 228.957 1178.01 228.687C1180.31 227.785 1182.65 226.883 1184.95 225.98" stroke="black" stroke-width="2" stroke-linecap="round" stroke-linejoin="round"/>
<path d="M1162.37 230.401C1162.96 231.167 1163.5 231.934 1164.08 232.701C1164.53 231.889 1164.81 231.032 1164.94 230.13" stroke="black" stroke-width="2" stroke-linecap="round" stroke-linejoin="round"/>
<path d="M1178.69 228.822C1179.09 229.363 1179.5 229.95 1179.95 230.491C1180.4 229.589 1180.72 228.642 1180.94 227.649" stroke="black" stroke-width="2" stroke-linecap="round" stroke-linejoin="round"/>
<path d="M1122.03 258.412C1131.36 251.375 1141.19 248.939 1141.19 248.939" stroke="black" stroke-width="2" stroke-linecap="round" stroke-linejoin="round"/>
<path d="M1064.74 410.1C1080.47 416.189 1110.54 403.469 1112.88 400.898" stroke="black" stroke-width="2" stroke-linecap="round" stroke-linejoin="round"/>
<path d="M1174.5 330.219C1175.53 361.477 1177.29 397.155 1179.54 412.806C1179.95 415.557 1180.36 417.677 1180.76 419.076C1181.08 420.068 1181.39 420.654 1181.71 420.835C1184.05 422.053 1192.07 422.143 1201.77 422.053" stroke="black" stroke-width="2" stroke-linecap="round" stroke-linejoin="round"/>
<path d="M1201.72 422.052C1214.52 421.917 1230.34 421.466 1240.03 422.909C1257.07 425.48 1276.68 417.993 1276.68 417.993C1276.68 417.993 1273.07 412.309 1266.85 412.309C1260.63 412.309 1248.78 414.61 1251.62 411.272C1254.46 407.934 1252.38 402.476 1248.24 404.055C1244.09 405.634 1239.99 394.493 1242.02 384.164C1243.32 377.759 1238.09 338.653 1231.65 305.095C1234.17 291.338 1229.08 278.889 1223.58 269.687C1222.23 264.996 1220.92 261.208 1219.7 258.637C1215.87 250.563 1205.42 244.88 1204.74 244.699C1204.29 244.564 1204.29 235.272 1204.29 235.272C1204.29 235.272 1201.22 231.077 1191.58 241.091C1181.93 251.104 1174.68 263.553 1173.64 274.919C1173.23 279.475 1173.55 303.2 1174.45 330.263" stroke="black" stroke-width="2" stroke-linecap="round" stroke-linejoin="round"/>
<path d="M1222.99 269.146C1228.58 275.641 1232.37 292.33 1232.28 295.758C1232.19 299.682 1232.05 303.651 1230.79 307.35C1229.85 310.011 1228.31 312.853 1229.26 315.514C1229.89 317.273 1231.51 318.897 1230.97 320.701C1230.61 321.829 1229.48 322.595 1229.21 323.768C1230.57 324.264 1232.87 331.661 1232.87 331.661L1233.86 347.629C1233.86 347.629 1226.24 346.501 1217.18 345.148C1213.57 344.607 1209.79 344.065 1206.09 343.524C1196.99 342.171 1188.74 340.953 1187.12 340.773C1188.11 334.232 1188.69 327.647 1188.87 321.062L1191.53 322.054C1191.53 322.054 1190.77 315.108 1189.87 312.943C1189.32 311.68 1188.65 310.282 1189.05 308.974C1189.41 307.801 1190.54 307.034 1190.99 305.906C1191.94 303.426 1189.73 299.547 1189.91 296.885C1191.35 276.498 1190.86 260.937 1196.99 252.457" stroke="black" stroke-width="2" stroke-linecap="round" stroke-linejoin="round"/>
<path d="M1188.92 321.062C1197.53 324.987 1232.96 331.662 1232.96 331.662" stroke="black" stroke-width="2" stroke-linecap="round" stroke-linejoin="round"/>
<path d="M1232.28 358.454C1232.1 358.364 1225.43 357.011 1217.18 355.161C1213.62 354.395 1209.83 353.493 1206.09 352.636C1197.26 350.561 1189.01 348.396 1186.62 347.133V358.274L1231.15 368.648L1232.28 358.499" stroke="black" stroke-width="2" stroke-linecap="round" stroke-linejoin="round"/>
<path d="M1206.14 343.524V352.455" stroke="black" stroke-width="2" stroke-linecap="round" stroke-linejoin="round"/>
<path d="M1217.23 345.148V354.981" stroke="black" stroke-width="2" stroke-linecap="round" stroke-linejoin="round"/>
<path d="M1198.43 250.653C1197.93 251.24 1197.48 251.781 1196.99 252.367C1186.98 264.771 1185.22 276.995 1185.22 276.995L1176.57 278.979C1176.57 278.979 1180.04 285.925 1179.63 286.467C1179.23 287.008 1174.63 328.865 1174.5 330.173" stroke="black" stroke-width="2" stroke-linecap="round" stroke-linejoin="round"/>
<path d="M1180.63 419.165C1177.97 420.338 1175.31 421.556 1172.65 422.728C1170.08 423.901 1167.46 425.074 1165.35 426.923C1163.23 428.818 1161.7 431.524 1161.97 434.365C1161.97 434.681 1162.06 435.042 1162.24 435.313C1162.78 435.989 1163.86 435.719 1164.53 435.177C1165.21 434.636 1165.71 433.869 1166.52 433.599C1166.34 434.456 1166.29 435.358 1166.43 436.26C1167.46 436.891 1168.91 436.756 1169.85 435.989C1170.8 437.117 1172.6 436.079 1173.68 435.087C1181.48 428.231 1191.76 425.119 1201.72 422.187" stroke="black" stroke-width="2" stroke-linecap="round" stroke-linejoin="round"/>
<path d="M1186.62 358.229L1188.92 394.538L1229.49 396.613L1231.15 368.603" stroke="black" stroke-width="2" stroke-linecap="round" stroke-linejoin="round"/>
<path d="M1210.46 413.753C1217.81 410.596 1245.53 414.204 1247.96 413.302" stroke="black" stroke-width="2" stroke-linecap="round" stroke-linejoin="round"/>
<path d="M1194.28 304.688C1198.57 306.628 1203.39 306.989 1207.76 308.703C1208.21 308.883 1208.66 309.109 1208.8 309.515C1208.98 310.056 1208.57 310.642 1208.12 311.003C1207.13 311.725 1205.78 311.77 1204.56 311.77C1201.63 311.77 1198.75 311.409 1195.82 311.093" stroke="black" stroke-width="2" stroke-linecap="round" stroke-linejoin="round"/>
<path d="M1225.79 319.573L1217.5 319.799C1216.41 319.799 1215.29 319.844 1214.34 320.385C1217.54 321.693 1220.88 322.595 1224.3 323.046" stroke="black" stroke-width="2" stroke-linecap="round" stroke-linejoin="round"/>
<path d="M1198.43 250.654C1198.93 250.157 1199.47 249.661 1200.05 249.21C1208.75 242.444 1204.33 244.564 1204.74 244.7" stroke="black" stroke-width="2" stroke-linecap="round" stroke-linejoin="round"/>
<path d="M1204.97 189.852C1197.21 190.212 1188.42 196.347 1188.42 196.347" stroke="black" stroke-width="2" stroke-linecap="round" stroke-linejoin="round"/>
<path d="M1147.41 251.104C1146.51 250.743 1145.6 250.428 1144.66 250.112C1143.53 249.706 1142.36 249.345 1141.19 248.939C1136.45 247.496 1130.32 245.962 1124.64 245.241C1120.95 244.789 1109.55 243.391 1105.76 243.481C1106.53 241.632 1107.65 239.918 1109.09 238.52C1107.25 238.339 1105.4 238.52 1103.6 239.061C1105.71 231.709 1109.27 224.763 1113.56 218.403C1114.14 217.546 1114.73 216.689 1115.36 215.832C1117.66 212.585 1120.23 209.292 1123.07 206.45C1124.73 204.736 1126.54 203.203 1128.43 201.895C1128.75 201.669 1129.15 201.444 1129.65 201.218C1136.63 197.835 1162.28 191.295 1180.72 193.189C1181.17 193.37 1181.62 193.55 1182.07 193.686C1184.1 194.497 1186.21 195.354 1188.38 196.347C1192.43 198.196 1196.67 200.361 1200.91 202.661C1206.14 205.503 1211.37 208.66 1216.23 211.818C1227.73 219.215 1228.4 224.086 1225.43 223.184C1224.21 222.778 1211.23 230.627 1204.29 235.272" stroke="black" stroke-width="2" stroke-linecap="round" stroke-linejoin="round"/>
<path d="M1106.39 206.811C1112.52 205.458 1120.72 206.18 1123.07 206.405" stroke="black" stroke-width="2" stroke-linecap="round" stroke-linejoin="round"/>
<path d="M1106.66 298.149C1108.06 298.915 1108.33 301.261 1107.2 303.291L1096.74 322.37C1096.38 323.002 1095.98 323.543 1095.48 323.949C1094.4 324.896 1093.14 325.212 1092.15 324.67L1086.2 321.378L1078.99 317.363C1077.59 316.597 1077.32 314.251 1078.44 312.221L1088.9 293.142C1090.03 291.112 1092.1 290.075 1093.5 290.842L1106.66 298.149Z" fill="#F1BCEF"/>
<path d="M1103.69 309.38L1096.61 322.325C1096.25 322.957 1095.84 323.498 1095.35 323.904C1094.27 324.851 1093 325.167 1092.01 324.626L1086.06 321.333L1078.85 317.319C1077.45 316.552 1077.18 314.206 1078.31 312.177L1088.77 293.097C1089.89 291.067 1091.97 290.03 1093.36 290.797L1106.53 298.104C1107.92 298.871 1108.19 301.216 1107.07 303.246L1103.73 309.335L1103.69 309.38Z" stroke="black" stroke-width="2" stroke-linecap="round" stroke-linejoin="round"/>
<path d="M1077.9 316.146L1094.76 308.793L1090.93 290.887" stroke="black" stroke-width="2" stroke-linecap="round" stroke-linejoin="round"/>
<path d="M1090.16 311.004L1093.23 324.761" stroke="black" stroke-width="2" stroke-linecap="round" stroke-linejoin="round"/>
<path d="M1094.08 303.787L1107.25 298.78" stroke="black" stroke-width="2" stroke-linecap="round" stroke-linejoin="round"/>
<path d="M1100.58 294.811C1102.15 295.172 1102.96 297.382 1102.42 299.637L1097.37 320.791C1097.19 321.513 1096.92 322.144 1096.56 322.641C1095.75 323.813 1094.63 324.49 1093.54 324.219L1086.96 322.596L1078.94 320.611C1077.36 320.205 1076.55 318.04 1077.09 315.785L1082.14 294.63C1082.68 292.375 1084.39 290.796 1085.97 291.202L1100.58 294.811Z" fill="#F1BCEF"/>
<path d="M1100.67 306.448L1097.24 320.836C1097.06 321.558 1096.79 322.189 1096.43 322.686C1095.62 323.858 1094.49 324.535 1093.41 324.264L1086.83 322.64L1078.81 320.656C1077.23 320.25 1076.42 318.085 1076.96 315.83L1082.01 294.675C1082.55 292.42 1084.26 290.841 1085.84 291.247L1100.44 294.856C1102.02 295.217 1102.83 297.427 1102.29 299.682L1100.67 306.448Z" stroke="black" stroke-width="2" stroke-linecap="round" stroke-linejoin="round"/>
<path d="M1077.59 319.753L1091.92 308.252L1083.49 291.969" stroke="black" stroke-width="2" stroke-linecap="round" stroke-linejoin="round"/>
<path d="M1088.09 311.545L1094.67 324.039" stroke="black" stroke-width="2" stroke-linecap="round" stroke-linejoin="round"/>
<path d="M1089.94 303.561L1101.34 295.262" stroke="black" stroke-width="2" stroke-linecap="round" stroke-linejoin="round"/>
<path d="M1086.92 366.122C1085.57 366.979 1083.4 366.122 1082.14 364.138L1070.33 345.87C1069.93 345.284 1069.66 344.607 1069.52 344.021C1069.21 342.623 1069.52 341.36 1070.47 340.728L1076.19 337.075L1083.13 332.654C1084.48 331.797 1086.65 332.654 1087.91 334.639L1099.72 352.907C1100.98 354.846 1100.89 357.192 1099.54 358.049L1086.87 366.167L1086.92 366.122Z" fill="#CCBCF3"/>
<path d="M1078.44 358.138L1070.42 345.734C1070.02 345.148 1069.75 344.471 1069.61 343.885C1069.29 342.487 1069.61 341.224 1070.56 340.592L1076.28 336.939L1083.22 332.519C1084.57 331.662 1086.74 332.519 1088 334.503L1099.81 352.771C1101.07 354.71 1100.98 357.056 1099.63 357.913L1086.96 366.032C1085.61 366.889 1083.45 366.032 1082.19 364.047L1078.4 358.183L1078.44 358.138Z" stroke="black" stroke-width="2" stroke-linecap="round" stroke-linejoin="round"/>
<path d="M1084.76 332.248L1083.18 350.606L1100.76 355.748" stroke="black" stroke-width="2" stroke-linecap="round" stroke-linejoin="round"/>
<path d="M1083.45 345.509L1069.88 341.675" stroke="black" stroke-width="2" stroke-linecap="round" stroke-linejoin="round"/>
<path d="M1087.96 352.365L1086.06 366.348" stroke="black" stroke-width="2" stroke-linecap="round" stroke-linejoin="round"/>
<path d="M1074.12 310.779C1074.03 312.944 1072.27 315.695 1072.18 317.86C1072.09 320.025 1074.21 323.904 1077.32 325.528C1078.13 325.934 1079.08 325.934 1079.98 325.934C1085.88 325.844 1091.74 325.798 1097.65 325.708C1099.99 325.708 1102.47 325.573 1104.32 324.175C1105.35 323.363 1106.03 322.19 1106.53 320.972C1107.83 317.815 1107.43 314.793 1107.16 311.5C1107.16 311.5 1080.61 311.996 1074.07 310.733L1074.12 310.779Z" fill="#4D475B"/>
<path d="M1073.94 310.868C1084.89 311.996 1097.69 312.086 1108.69 311.274" stroke="black" stroke-width="2" stroke-linecap="round" stroke-linejoin="round"/>
<path d="M1071.41 352.094C1071.28 355.251 1071.41 358.544 1070.96 361.701C1070.51 364.858 1070.87 364.994 1072.5 366.753C1074.12 368.512 1075.83 369.459 1077.9 369.955C1079.21 370.271 1080.61 370.316 1081.96 370.316C1086.83 370.316 1091.7 369.775 1096.47 368.647C1096.84 368.557 1097.2 368.467 1097.51 368.286C1097.92 368.061 1098.19 367.655 1098.46 367.294C1100.13 364.949 1101.43 362.378 1102.24 359.626C1103.06 356.875 1103.78 352.409 1103.24 352.409C1102.69 352.409 1077.95 353.312 1071.46 352.094H1071.41Z" fill="#4D475B"/>
<path d="M1070.87 352.319C1072.86 353.221 1075.06 353.266 1077.27 353.312C1085.84 353.402 1094.49 353.492 1102.97 352.094" stroke="black" stroke-width="2" stroke-linecap="round" stroke-linejoin="round"/>
<path d="M1609.22 206.157C1629.77 121.721 1571.88 46.631 1510.22 33.2464C1448.56 19.8619 1395.16 117.365 1430.09 177.437C1430.09 177.437 1396.34 147.809 1363.94 164.506C1330.5 181.747 1335.4 262.962 1367.07 274.985C1314.12 301.437 1360.95 347.806 1368.71 353.251C1376.51 358.695 1594.29 353.251 1594.29 353.251C1594.29 353.251 1682.99 296.128 1676.1 253.887C1669.25 211.647 1644.47 184.424 1609.17 206.202L1609.22 206.157Z" fill="#7FEFC1"/>
<path d="M1398.33 301.755C1390.44 296.31 1383.63 291.319 1378.46 282.971C1373.38 274.804 1367.71 262.009 1370.07 252.073C1372.25 242.863 1380.14 237.327 1389.49 238.87C1411.36 242.5 1425.51 268.271 1429 287.871" fill="#7FEFC1"/>
<path d="M1398.33 301.755C1390.44 296.31 1383.63 291.319 1378.46 282.971C1373.38 274.804 1367.71 262.009 1370.07 252.073C1372.25 242.863 1380.14 237.327 1389.49 238.87C1411.36 242.5 1425.51 268.271 1429 287.871" stroke="black" stroke-width="2" stroke-linecap="round" stroke-linejoin="round"/>
<path d="M1446.47 94.7705C1441.44 102.62 1440.8 108.972 1439.67 118.046" stroke="black" stroke-width="2" stroke-linecap="round" stroke-linejoin="round"/>
<path d="M1483 234.65C1487.26 230.113 1491.35 224.805 1489.8 218.181" stroke="black" stroke-width="2" stroke-linecap="round" stroke-linejoin="round"/>
<path d="M1403.51 186.828C1397.38 183.97 1387.58 181.429 1384.13 189.732" stroke="black" stroke-width="2" stroke-linecap="round" stroke-linejoin="round"/>
<path d="M1441.62 314.458C1448.11 322.262 1454.78 317.271 1459.09 310.238" stroke="black" stroke-width="2" stroke-linecap="round" stroke-linejoin="round"/>
<path d="M1479.59 234.922C1473.74 234.196 1468.93 237.871 1463.44 238.96C1458.13 240.003 1456.14 238.143 1451.96 235.058C1444.57 229.523 1436.22 221.038 1426.19 225.076C1416.16 229.114 1417.39 238.098 1419.07 246.083C1423.33 266.137 1445.47 280.157 1465.44 277.208C1473.92 275.983 1480.86 272.671 1484.09 264.504C1487.26 256.473 1492.57 241.909 1483.22 236.192C1482.09 235.512 1480.86 235.103 1479.59 234.922Z" fill="#68E0B8"/>
<path d="M1424.1 323.578C1422.88 323.305 1421.7 322.988 1420.52 322.534C1409.18 318.451 1402.51 308.424 1394.11 300.62C1385.36 292.498 1373.2 285.511 1361.4 291.954C1355.1 295.402 1348.24 302.798 1347.38 310.329C1346.57 317.725 1349.2 326.164 1353.28 332.289C1357.68 338.958 1361.49 347.352 1368.16 352.116C1369.75 353.25 1370.79 352.661 1372.47 352.842C1374.56 353.114 1376.37 354.521 1378.46 354.793C1380.91 355.111 1383.41 355.201 1385.9 355.201C1390.17 355.201 1394.39 354.975 1398.65 354.975C1406.32 354.975 1413.85 355.474 1421.47 355.655C1427.83 355.791 1434.13 356.608 1440.53 356.336C1445.02 356.154 1449.56 356.245 1454.05 355.973C1457.04 355.837 1460.13 355.292 1461.49 352.252C1464.62 345.356 1459.31 335.782 1454.64 331.018C1450.1 326.391 1446.06 324.53 1439.71 324.576C1434.49 324.576 1429.19 324.712 1424.06 323.578H1424.1Z" fill="#68E0B8"/>
<path d="M1642.02 267.091C1645.93 268.316 1649.46 270.72 1652.1 274.123C1663.71 289.051 1646.79 308.742 1635.31 317.907C1628.96 322.988 1623.06 328.75 1616.66 333.741C1610.26 338.732 1606 342.044 1601.05 346.672C1599.69 347.943 1594.34 354.158 1594.34 354.158C1594.34 354.158 1532.5 355.474 1520.29 355.338C1515.07 355.293 1514.58 355.701 1513.76 351.527C1512.58 345.765 1511.58 337.87 1513.89 332.153C1519.75 317.589 1530.5 308.832 1544.84 303.161C1553.64 299.667 1563.17 296.854 1572.7 296.673C1578.87 296.582 1585.13 297.898 1591.03 295.675C1604.55 290.548 1614.48 277.345 1626.14 269.359C1637.8 261.374 1636.81 265.457 1642.02 267.045V267.091Z" fill="#68E0B8"/>
<path d="M1615.75 282.154C1622.29 277.889 1629.59 271.854 1629 263.098" stroke="black" stroke-width="2" stroke-linecap="round" stroke-linejoin="round"/>
<path d="M1609.22 206.157C1629.77 121.721 1571.88 46.631 1510.22 33.2464C1448.56 19.8619 1395.16 117.365 1430.09 177.437C1430.09 177.437 1396.34 147.809 1363.94 164.506C1330.5 181.747 1335.4 262.962 1367.07 274.985C1314.12 301.437 1360.95 347.806 1368.71 353.251C1376.51 358.695 1594.29 353.251 1594.29 353.251C1594.29 353.251 1682.99 296.128 1676.1 253.887C1669.25 211.647 1644.47 184.424 1609.17 206.202L1609.22 206.157Z" stroke="black" stroke-width="2" stroke-linecap="round" stroke-linejoin="round"/>
<path d="M1437.4 215.594C1426.06 198.988 1410.58 165.323 1430.77 149.307C1442.98 139.597 1456.68 154.297 1462.22 164.642C1471.25 181.52 1469.89 200.985 1468.12 219.36" fill="#7FEFC1"/>
<path d="M1437.4 215.594C1426.06 198.988 1410.58 165.323 1430.77 149.307C1442.98 139.597 1456.68 154.297 1462.22 164.642C1471.25 181.52 1469.89 200.985 1468.12 219.36" stroke="black" stroke-width="2" stroke-linecap="round" stroke-linejoin="round"/>
<path d="M1587.94 220.221C1589.21 205.975 1592.25 192.59 1601.1 180.93C1609.54 169.814 1627.91 156.656 1639.76 170.494C1650.46 183.017 1647.74 202.027 1640.25 215.457C1632.77 228.887 1625.37 238.914 1614.8 243.769" fill="#7FEFC1"/>
<path d="M1587.94 220.221C1589.21 205.975 1592.25 192.59 1601.1 180.93C1609.54 169.814 1627.91 156.656 1639.76 170.494C1650.46 183.017 1647.74 202.027 1640.25 215.457C1632.77 228.887 1625.37 238.914 1614.8 243.769" stroke="black" stroke-width="2" stroke-linecap="round" stroke-linejoin="round"/>
<path d="M1382.82 308.968C1372.65 312.915 1374.15 321.989 1381.86 328.659" stroke="black" stroke-width="2" stroke-linecap="round" stroke-linejoin="round"/>
<path d="M1581.32 119.497C1577.01 109.833 1570.88 101.031 1563.17 93.8171C1553.05 84.3345 1534.68 76.3945 1522.24 86.104C1504.64 99.8969 1522.29 120.768 1533.63 132.156C1539.44 138.009 1544.38 143.635 1547.88 151.166C1551.05 158.018 1552.91 165.277 1555.64 172.219C1558.99 180.749 1570.02 184.696 1578.64 181.838C1593.34 176.983 1588.89 144.678 1586.17 133.699C1584.99 128.844 1583.36 124.125 1581.32 119.543V119.497Z" fill="#68E0B8"/>
<path d="M1577.01 152.619C1580 161.693 1579.55 169.815 1575.74 178.798" stroke="black" stroke-width="2" stroke-linecap="round" stroke-linejoin="round"/>
<path d="M1596.85 337.48C1604.56 331.398 1612.75 340.354 1605.9 347.968C1619.36 340.833 1657.58 359.605 1646.04 386.136H1449.59C1432.35 386.136 1422.54 371.961 1429 359.222C1433.36 350.602 1444.95 347.824 1453.28 352.23C1443.46 336.81 1434.8 319.905 1433.74 301.659C1432.54 281.306 1444.52 251.04 1469.32 256.691C1504.33 264.689 1515.87 307.31 1518.79 338.199C1518.27 330.632 1519.66 319.857 1522.34 312.769C1529.62 293.757 1561.7 287.053 1574.25 304.437C1581.29 314.206 1580.43 328.669 1577.94 339.827C1581.19 337.384 1593.26 332.739 1596.81 337.432L1596.85 337.48Z" fill="#ADF7DB"/>
<path d="M1596.85 337.48C1604.56 331.398 1612.75 340.354 1605.9 347.968C1619.36 340.833 1657.58 359.605 1646.04 386.136H1449.59C1432.35 386.136 1422.54 371.961 1429 359.222C1433.36 350.602 1444.95 347.824 1453.28 352.23C1443.46 336.81 1434.8 319.905 1433.74 301.659C1432.54 281.306 1444.52 251.04 1469.32 256.691C1504.33 264.689 1515.87 307.31 1518.79 338.199C1518.27 330.632 1519.66 319.857 1522.34 312.769C1529.62 293.757 1561.7 287.053 1574.25 304.437C1581.29 314.206 1580.43 328.669 1577.94 339.827C1581.19 337.384 1593.26 332.739 1596.81 337.432L1596.85 337.48Z" stroke="black" stroke-width="2" stroke-linecap="round" stroke-linejoin="round"/>
<path d="M1478.37 344.711C1478.61 343.179 1478.57 341.646 1478.09 340.305C1477.61 338.965 1476.32 337.576 1475.84 335.948C1474.97 333.361 1475.07 330.536 1474.26 327.902C1472.72 323.017 1470.86 318.228 1468.84 313.487C1465.25 305.059 1462.52 297.253 1455.96 290.548C1453.18 287.723 1449.02 286.334 1445.57 288.729C1442.12 291.123 1442.75 293.518 1442.12 296.678C1440.21 306.687 1441.84 315.882 1445 325.508C1448.16 335.133 1449.64 338.198 1453.66 343.706C1457.02 348.303 1460.32 351.464 1465.88 352.948C1468.84 353.714 1471.48 354.576 1474.06 352.374C1476.17 350.65 1477.85 347.68 1478.37 344.663V344.711Z" fill="#7FEFC1"/>
<path d="M1531.39 357.689C1530.62 358.168 1530 358.79 1529.23 359.317C1529.14 359.317 1529.04 359.413 1528.95 359.413C1529.86 359.269 1528.95 359.413 1528.42 359.509C1528.75 359.413 1527.99 359.509 1527.65 359.509C1527.51 359.509 1527.37 359.413 1527.22 359.413C1525.35 358.551 1527.7 359.748 1526.5 359.126C1525.31 358.503 1524.49 357.881 1523.92 357.354C1519.51 353.283 1516.73 347.345 1510.13 347.92C1504.33 348.399 1501.27 352.134 1501.31 358.024C1501.41 370.476 1518.94 374.594 1528.32 373.397C1533.02 372.822 1536.94 372.008 1539.1 367.411C1541.25 362.813 1540.97 361.903 1539.1 359.413C1537.33 357.019 1533.93 356.013 1531.34 357.737L1531.39 357.689Z" fill="#7FEFC1"/>
<path d="M1545.66 316.074C1544.37 313.583 1542.5 311.524 1540.01 310.614C1534.6 308.651 1529.14 312.578 1526.65 317.271C1523.82 322.635 1523.34 328.956 1525.59 334.607C1527.13 338.342 1527.75 344.041 1532.3 345.43C1535.27 346.34 1541.54 341.647 1543.5 339.492C1546.52 336.187 1547.86 331.542 1548.01 327.136C1548.15 323.928 1547.43 319.522 1545.56 316.026L1545.66 316.074Z" fill="#7FEFC1"/>
<path d="M1597.91 356.493C1597 353.284 1593.88 351.943 1590.82 352.47C1588.47 352.901 1587.32 354.816 1586.27 355.726C1585.93 356.014 1585.84 356.109 1585.89 356.157C1585.84 356.157 1585.69 356.205 1585.36 356.349C1585.79 356.157 1584.88 356.445 1584.45 356.588C1584.35 356.588 1583.64 356.588 1583.3 356.588C1583.2 356.54 1582.01 356.253 1582.05 356.253C1581.24 355.87 1580.09 355.247 1579.28 354.721C1575.93 352.709 1572.62 356.014 1573.2 359.366C1574.11 364.777 1580.19 368.656 1585.55 368.369C1591.35 368.082 1599.97 363.484 1597.95 356.445L1597.91 356.493Z" fill="#7FEFC1"/>
<path d="M1461.76 367.411C1459.32 364.394 1455.24 361.664 1453.14 360.084C1448.68 356.731 1442.36 355.438 1438.15 359.605C1433.93 363.771 1434.46 371.098 1438.96 375.504C1442.36 378.808 1446.86 380.628 1451.56 380.772C1457.11 380.963 1463 378.713 1463.72 372.583C1463.91 370.907 1463.05 369.135 1461.71 367.507L1461.76 367.411Z" fill="#7FEFC1"/>
<path d="M1501.12 361.09C1494.27 352.517 1495.57 336.091 1509.74 336.331C1518.65 336.474 1528.8 346.818 1529.76 355.726" stroke="black" stroke-width="2" stroke-linecap="round" stroke-linejoin="round"/>
</g>
<defs>
<clipPath id="clip0_2922_30914">
<rect width="1920" height="681" rx="64" fill="white"/>
</clipPath>
</defs>
</svg>
