<svg width="150" height="150" viewBox="0 0 150 150" fill="none" xmlns="http://www.w3.org/2000/svg">
<path d="M30.4 114.1L39.1 122C37.8 120.6 36.9 118.8 36.6 116.8C34.2 116.6 32 115.6 30.4 114.1Z" fill="white"/>
<path d="M37.7 116.9C37.2999 116.9 36.8999 116.9 36.5999 116.9C36.9999 118.9 37.7999 120.7 39.0999 122.1C40.9999 124.3 43.8 125.6 47 125.6H110C116.6 125.6 122.6 120.2 123.4 113.6L129.2 61.9997H128.4L119.6 54.1997L113.9 105C113.1 111.6 107.1 117 100.5 117H37.5L37.7 116.9Z" fill="#DDD6F2"/>
<path d="M27.0999 104.9L32.9999 52.5H43.3999C43.3999 52.6 119.1 53.5 119.1 53.5L119.8 54.1L114.1 104.9C113.3 111.5 107.3 116.9 100.8 116.9H37.7999C37.3999 116.9 36.9999 116.9 36.6999 116.9C34.2999 116.7 32.1999 115.7 30.4999 114.2C28.0999 112 26.6999 108.7 27.0999 104.9Z" fill="white"/>
<path d="M121.2 41.9L119.8 54.1L128.6 61.8H129.4L130.7 50.5C131.1 47 129.9 43.8 127.8 41.6L127 40.9C125.4 39.6 123.5 38.8 121.3 38.5C121.5 39.6 121.5 40.7 121.4 41.9H121.2Z" fill="#B897F0"/>
<path d="M126.8 40.7997L117.9 32.6997C119.5 34.1997 120.6 36.1997 121.1 38.4997C123.3 38.6997 125.3 39.4997 126.8 40.7997Z" fill="#C5B5F2"/>
<path d="M34.1999 41.8999C34.8999 35.2999 40.9999 29.8999 47.4999 29.8999H110.5C113.4 29.8999 116 30.9999 117.9 32.6999C119.5 34.1999 120.6 36.1999 121.1 38.4999C121.3 39.5999 121.3 40.6999 121.2 41.8999L119.8 54.0999L119.1 53.4999L43.3999 52.5999H32.9999C32.9999 52.4999 34.1999 41.8999 34.1999 41.8999Z" fill="#C5B5F2"/>
<path d="M36.5999 116.8C36.9999 116.8 37.2999 116.8 37.6999 116.8H100.7C107.3 116.8 113.3 111.4 114.1 104.8L119.8 53.9998L121.2 41.7998C121.3 40.5998 121.2 39.4998 121.1 38.3998C120.7 36.0998 119.6 34.0998 117.9 32.5998C116 30.7998 113.4 29.7998 110.5 29.7998H47.4999C40.8999 29.7998 34.8999 35.1998 34.1999 41.7998L32.9999 52.3998L27.0999 104.8C26.6999 108.5 27.9999 111.9 30.4999 114.1C32.0999 115.6 34.2999 116.6 36.6999 116.8H36.5999Z" stroke="black" stroke-width="2" stroke-linecap="round" stroke-linejoin="round"/>
<path d="M39.2 122.1C41.1 124.2 43.9 125.5 47.1 125.5H110.1C116.7 125.5 122.7 120.1 123.5 113.5L129.3 61.8999L130.6 50.4999C131 46.9999 129.8 43.7999 127.7 41.5999C127.5 41.2999 127.2 41.0999 126.9 40.8999" stroke="black" stroke-width="2" stroke-linecap="round" stroke-linejoin="round"/>
<path d="M127.7 41.5997L126.9 40.8997L126.8 40.7997L117.9 32.6997" stroke="black" stroke-width="2" stroke-linecap="round" stroke-linejoin="round"/>
<path d="M30.3 114L30.4 114.1L39.2 122.1" stroke="black" stroke-width="2" stroke-linecap="round" stroke-linejoin="round"/>
<path d="M32.9 53.2998L119.1 53.3998L119.8 53.9998L128.6 61.6998" stroke="black" stroke-width="2" stroke-linecap="round" stroke-linejoin="round"/>
<path d="M96.9001 73.3L107.1 73.4L108.3 63.1L98 63L96.9001 73.3Z" fill="#FDBAF3" stroke="black" stroke-width="2" stroke-linecap="round" stroke-linejoin="round"/>
<path d="M77.4 73.0999L87.7 73.1999L88.9 62.9999L78.6 62.8999L77.4 73.0999Z" fill="#FDBAF3" stroke="black" stroke-width="2" stroke-linecap="round" stroke-linejoin="round"/>
<path d="M58 73.0003L68.2 73.1003L69.4 62.8003H59.1L58 73.0003Z" fill="#FDBAF3" stroke="black" stroke-width="2" stroke-linecap="round" stroke-linejoin="round"/>
<path d="M38.5 72.8001L48.8 72.9001L50 62.7001L39.7 62.6001L38.5 72.8001Z" fill="#FDBAF3" stroke="black" stroke-width="2" stroke-linecap="round" stroke-linejoin="round"/>
<path d="M95.5 89.5999L105.8 89.6999L106.9 79.4999L96.7 79.3999L95.5 89.5999Z" fill="#FDBAF3" stroke="black" stroke-width="2" stroke-linecap="round" stroke-linejoin="round"/>
<path d="M76 89.5003L86.3 89.6003L87.5 79.4003L77.2 79.3003L76 89.5003Z" fill="#FDBAF3" stroke="black" stroke-width="2" stroke-linecap="round" stroke-linejoin="round"/>
<path d="M56.6001 89.4001L66.9001 89.5001L68.1001 79.2001L57.8001 79.1001L56.6001 89.4001Z" fill="#FDBAF3" stroke="black" stroke-width="2" stroke-linecap="round" stroke-linejoin="round"/>
<path d="M37.1001 89.2L47.4001 89.3L48.6001 79.1L38.3001 79L37.1001 89.2Z" fill="#FDBAF3" stroke="black" stroke-width="2" stroke-linecap="round" stroke-linejoin="round"/>
<path d="M93.7001 106.1L104 106.2L105.2 95.9999L94.9001 95.8999L93.7001 106.1Z" fill="#FDBAF3" stroke="black" stroke-width="2" stroke-linecap="round" stroke-linejoin="round"/>
<path d="M74.3001 106L84.5001 106.1L85.7001 95.9003L75.5001 95.8003L74.3001 106Z" fill="#FDBAF3" stroke="black" stroke-width="2" stroke-linecap="round" stroke-linejoin="round"/>
<path d="M54.8 105.9L65.1 106L66.3 95.7001L56 95.6001L54.8 105.9Z" fill="#FDBAF3" stroke="black" stroke-width="2" stroke-linecap="round" stroke-linejoin="round"/>
<path d="M35.4 105.7L45.6 105.8L46.8 95.6L36.6 95.5L35.4 105.7Z" fill="#FDBAF3" stroke="black" stroke-width="2" stroke-linecap="round" stroke-linejoin="round"/>
<path d="M41.6 35.8002C41.8 35.7002 42.1 35.6002 42.3 35.5002C44.3 34.7002 46.5 34.5002 48.7 34.5002C50.3 34.5002 60.2 34.0002 58.5 37.8002C57.4 40.4002 51.5 38.6002 49.5 38.6002C47.2 38.6002 45.4 38.9002 43.6 40.4002C43.2 40.7002 42.9 41.0002 42.5 41.3002C42.2 41.5002 42 41.7002 41.7 41.9002C40.1 42.8002 37.7 42.5002 38.2 40.2002C38.6 38.3002 40 36.8002 41.7 35.9002L41.6 35.8002Z" fill="#DDD6F2"/>
<path d="M36.6 46.5V46.3C36.6 46.3 36.6 46.1 36.6 46C36.7 45.8 36.7 45.7 36.9 45.5C36.9 45.5 36.9 45.5 37 45.4C37 45.4 37.2 45.2 37.3 45.2C37.4 45.2 37.6 45.1 37.7 45C37.9 45 38.1 45 38.3 45C38.7 45 39.2 45.4 39.1 45.8C39.1 45.8 39.1 45.9 39.1 46V46.2C39.1 46.4 39.1 46.6 39.1 46.8C39.1 46.9 39.1 47.1 39.1 47.2C39.1 47.3 39.1 47.4 39 47.6C39 47.6 38.8 47.8 38.8 47.9C38.7 48 38.6 48.1 38.4 48.2C38.2 48.3 38 48.4 37.7 48.4C37.5 48.4 37.2 48.4 37 48.2C36.9 48.2 36.7 48 36.6 47.9C36.5 47.8 36.4 47.6 36.3 47.4C36.3 47.3 36.3 47.2 36.2 47C36.2 46.8 36.2 46.8 36.2 46.6L36.6 46.5Z" fill="#DDD6F2"/>
<path d="M107.3 119.2C108.8 118.4 110.3 117.8 111.7 116.8C113.1 115.8 114.1 114.5 114.9 113C115.8 111.3 116.4 109.3 116.7 107.4C116.9 106.4 117.1 105.3 117.4 104.3C117.7 103.2 118.2 102 118.3 100.9C118.3 100.4 119.1 100.3 119.2 100.9C119.2 102.2 119.7 103.4 119.9 104.6C120.1 105.8 119.9 107.1 119.9 108.3C119.6 110.7 119 113.1 117.7 115.2C115.8 118.4 111.5 122.5 107.4 120.7C106.8 120.4 106.9 119.5 107.4 119.2H107.3Z" fill="white"/>
<path d="M34.3 64.1002C34.4 63.1002 34.6 62.1002 34.8 61.1002C35 60.2002 35.4 59.3002 35.7 58.4002C36 57.5002 37.3 57.7002 37.3 58.6002C37.3 59.5002 37.3 60.5002 37.3 61.5002C37.3 62.5002 37.1 63.5002 36.9 64.5002C36.5 66.4002 36 68.2002 35.3 70.0002C35.1 70.6002 34.2 70.5002 34.2 69.9002C34.2 68.9002 34.2 68.0002 34.2 67.0002C34.2 66.0002 34.2 65.1002 34.4 64.1002H34.3Z" fill="#DEF7FF"/>
<path d="M32.4 77.4C32.4 77 32.5 76.6 32.6 76.2C32.6 76 32.6 75.8 32.7 75.6C32.7 75.4 32.9 75.2 32.9 75C33.1 74.5 33.5 74.1 34.1 74.2C34.7 74.2 35 74.7 35.1 75.3C35.1 75.5 35.1 75.7 35.1 75.9C35.1 76.1 35.1 76.3 35.1 76.5C35.1 76.9 35.1 77.3 35 77.7C35 78.7 34.8 80 33.9 80.6C33.6 80.8 32.9 80.8 32.7 80.4C32.5 80.1 32.4 79.9 32.3 79.5C32.3 79.2 32.2 79 32.3 78.7C32.3 78.2 32.3 77.7 32.5 77.2L32.4 77.4Z" fill="#DEF7FF"/>
<path d="M106.6 106.2C106.9 105.3 107.2 104.4 107.5 103.5C108 101.7 108.5 99.8002 109 98.0002C109.9 94.3002 111 90.7002 111.9 87.0002C111.9 86.6002 112.6 86.7002 112.6 87.0002C112.9 91.0002 112.9 94.8002 112.1 98.7002C111.7 100.6 111.2 102.4 110.6 104.2C110 105.9 109.6 108.4 108.2 109.7C107.4 110.4 106.3 109.9 106.1 108.9C106 107.9 106.4 107.1 106.7 106.2H106.6Z" fill="#DEF7FF"/>
<path d="M97.2 111.3C97.3 111 97.5 110.8 97.8 110.7C98.4 110.3 99 110.5 99.6 110.5C99.5 110.5 99.3 110.5 99.2 110.5C99.5 110.5 99.7 110.5 100 110.6C100.3 110.6 100.6 110.6 100.9 110.6C101.2 110.6 101.5 110.6 101.8 110.6C101.9 110.6 102.1 110.6 102.2 110.6C102.1 110.6 102 110.6 101.8 110.6C102 110.6 102.3 110.6 102.5 110.4C102.8 110.4 103.1 110.4 103.3 110.4C103.5 110.4 103.8 110.5 103.9 110.7C104.1 110.9 104.1 111.1 104 111.4C104 111.7 103.9 112 103.7 112.3C103.5 112.5 103.4 112.7 103.1 112.9C102.6 113.4 102 113.7 101.3 113.9C100.8 114.1 100.1 114.1 99.5 114C99.2 114 99 114 98.8 113.9C98.6 113.9 98.4 113.7 98.2 113.6C97.7 113.4 97.3 112.9 97.2 112.4C97.2 112.1 97.2 111.8 97.2 111.5V111.3Z" fill="#DEF7FF"/>
<path d="M99.3 66.3002C99.5 66.0002 99.7 65.8002 99.9 65.7002C100.1 65.5002 100.4 65.4002 100.7 65.3002C100.9 65.3002 101.2 65.2002 101.5 65.2002C101.7 65.2002 102 65.2002 102.2 65.4002C102.4 65.4002 102.6 65.6002 102.7 65.8002C102.7 65.8002 102.7 65.8002 102.7 66.0002C102.7 66.0002 102.7 66.0002 102.8 66.0002C103 66.0002 103 66.4002 102.8 66.4002C102.8 66.4002 102.7 66.4002 102.6 66.4002C102.6 66.5002 102.5 66.6002 102.4 66.7002C102.2 66.8002 102 66.9002 101.8 67.0002C101.7 67.0002 101.6 67.0002 101.4 67.1002C101.4 67.1002 101.6 67.1002 101.7 67.0002C101.6 67.0002 101.4 67.1002 101.3 67.2002C101.3 67.2002 101.1 67.2002 101.1 67.3002C101.1 67.3002 101.1 67.4002 101.1 67.5002C101.1 67.5002 101.1 67.6002 101.1 67.7002C101.1 67.7002 101.1 67.7002 101.1 67.6002C101.1 67.7002 101.1 67.9002 101.1 68.0002C101.1 68.1002 101.1 68.2002 101 68.3002C100.9 68.5002 100.6 68.7002 100.4 68.7002C100.1 68.7002 99.9 68.7002 99.7 68.4002C99.6 68.4002 99.5 68.2002 99.4 68.1002C99.2 67.8002 99.2 67.5002 99.2 67.2002C99.2 66.9002 99.3 66.5002 99.5 66.2002L99.3 66.3002Z" fill="white"/>
<path d="M79.8 66.2C79.9 66 80.1 65.8 80.3 65.6C80.4 65.5 80.6 65.4 80.7 65.3C80.9 65.3 81 65.2 81.2 65.1C81.5 65.1 81.8 65 82 65C82.3 65 82.6 65 82.9 65.1C83.2 65.2 83.7 65.5 83.7 65.9C83.7 66.2 83.5 66.5 83.3 66.7C83.2 66.7 83.1 66.8 83 66.9C82.9 66.9 82.8 67 82.7 67H82.5C82.3 67 82.1 67 81.9 67.2C81.9 67.2 81.9 67.2 81.8 67.2C81.8 67.2 81.8 67.2 81.8 67.3C81.8 67.3 81.8 67.3 81.8 67.4C81.8 67.5 81.8 67.7 81.7 67.8C81.5 68.1 81.1 68.3 80.7 68.2C80.3 68.1 80 67.6 79.9 67.2C79.8 66.8 79.9 66.3 80.1 66L79.8 66.2Z" fill="white"/>
<path d="M97.6 82.3001C97.7 82.1001 97.8 81.8001 98 81.6001C98.2 81.4001 98.5 81.2001 98.8 81.1001C99.1 81.1001 99.4 81.1001 99.7 81.1001C99.8 81.1001 100 81.1001 100.1 81.1001C100.2 81.1001 100.4 81.1001 100.5 81.3001C100.5 81.3001 100.5 81.3001 100.6 81.3001C100.6 81.3001 100.6 81.3001 100.7 81.3001C100.7 81.3001 100.8 81.3001 100.9 81.4001C101 81.5001 101.1 81.6001 101.1 81.8001C101.1 82.0001 101.1 82.3001 101.1 82.5001C101.1 82.6001 101 82.7001 100.9 82.8001C100.9 82.8001 100.8 82.8001 100.7 82.9001C100.5 83.0001 100.3 83.1001 100.1 83.1001C99.9 83.1001 99.7 83.1001 99.6 83.1001C99.6 83.2001 99.6 83.4001 99.6 83.5001C99.6 83.7001 99.6 83.9001 99.4 84.1001C99.4 84.3001 99.2 84.4001 99.1 84.6001C98.9 84.8001 98.7 84.8001 98.5 84.8001C98.3 84.8001 98.1 84.7001 98 84.5001C98 84.4001 97.9 84.2001 97.8 84.1001C97.8 84.1001 97.8 84.2001 97.8 84.3001C97.8 84.2001 97.7 84.0001 97.6 83.9001C97.6 83.9001 97.6 83.7001 97.6 83.6001C97.6 83.5001 97.6 83.4001 97.6 83.2001C97.6 83.1001 97.6 83.0001 97.6 82.9001C97.6 82.6001 97.6 82.4001 97.8 82.1001L97.6 82.3001Z" fill="white"/>
<path d="M95.7 99.4002C95.9 98.8002 96.3 98.3002 96.8 98.0002C97 97.9002 97.3 97.8002 97.5 97.7002C97.8 97.7002 98.1 97.6002 98.4 97.7002C98.6 97.7002 98.8 97.7002 98.9 97.7002C99.1 97.7002 99.2 97.8002 99.3 97.9002C99.4 97.9002 99.6 98.1002 99.7 98.2002C99.8 98.4002 99.8 98.6002 99.7 98.7002C99.6 98.9002 99.3 99.1002 99.1 99.2002C99.1 99.2002 99.2 99.2002 99.3 99.1002C99.3 99.1002 99.1 99.2002 99.1 99.3002C99.1 99.3002 98.9 99.3002 98.8 99.4002C98.8 99.4002 98.6 99.4002 98.5 99.5002C98.5 99.5002 98.7 99.5002 98.7 99.4002C98.5 99.4002 98.3 99.6002 98.1 99.6002C98.1 99.6002 98 99.6002 97.9 99.6002C97.9 99.6002 97.7 99.6002 97.7 99.7002C97.7 99.7002 97.6 99.8002 97.5 99.9002C97.5 99.9002 97.5 100 97.5 100.1C97.5 100.1 97.5 100.1 97.5 100C97.5 100 97.5 100.2 97.5 100.3C97.5 100.4 97.5 100.5 97.4 100.7V100.5C97.4 100.5 97.4 100.6 97.4 100.7C97.4 100.9 97.2 101.1 96.9 101.2C96.7 101.2 96.4 101.2 96.2 101.2C95.9 101 95.6 100.7 95.5 100.4C95.5 100.1 95.5 99.7002 95.5 99.4002H95.7Z" fill="white"/>
<path d="M78.1 82.3998C78.2 81.7998 78.6 81.2998 79.1 81.0998C79.4 80.8998 79.7 80.8998 80.1 80.7998C80.4 80.7998 80.6 80.7998 80.9 80.8998C81.1 80.8998 81.3 80.9998 81.4 81.0998C81.4 81.0998 81.5 81.1998 81.6 81.2998C81.7 81.2998 81.9 81.4998 81.9 81.5998C81.9 81.6998 82 81.7998 81.9 81.9998C81.9 81.9998 81.9 81.9998 81.9 82.0998C81.9 82.1998 81.7 82.2998 81.6 82.3998C81.4 82.4998 81.2 82.5998 81.1 82.6998C80.8 82.6998 80.6 82.7998 80.3 82.7998C80.3 82.7998 80.2 82.7998 80.1 82.7998C80.1 82.7998 80.1 82.8998 80 82.9998C80 83.1998 79.9 83.2998 79.8 83.3998V83.1998C79.8 83.3998 79.7 83.5998 79.6 83.7998C79.5 84.0998 79.1 84.1998 78.9 84.1998C78.7 84.1998 78.3 83.9998 78.2 83.7998C78.1 83.5998 78 83.2998 77.9 82.9998C77.9 82.6998 77.9 82.3998 77.9 82.0998L78.1 82.3998Z" fill="white"/>
<path d="M76.5 99.5999C76.5 98.9999 76.7 98.4999 77.2 98.0999C77.4 97.8999 77.6 97.7999 77.8 97.6999C78.1 97.5999 78.4 97.3999 78.7 97.3999C79 97.3999 79.3 97.3999 79.6 97.5999C79.8 97.6999 79.9 97.7999 80.1 97.9999C80.2 98.1999 80.3 98.2999 80.2 98.4999C80.2 98.6999 80 98.7999 79.8 98.8999C79.8 98.8999 79.7 98.8999 79.6 98.8999H79.8C79.8 98.8999 79.6 98.8999 79.5 98.8999C79.5 98.8999 79.3 98.8999 79.3 98.9999C79.2 98.9999 79.1 98.9999 79 99.0999C79 99.0999 78.9 99.0999 78.8 99.1999C78.8 99.1999 78.6 99.3999 78.5 99.4999C78.5 99.4999 78.5 99.5999 78.4 99.6999C78.4 99.7999 78.4 99.8999 78.4 99.9999C78.4 99.9999 78.4 100.2 78.4 100.3V100.5C78.4 100.7 78.1 100.9 77.9 101C77.7 101 77.4 101 77.2 100.8C77 100.6 76.8 100.4 76.8 100.1C76.8 99.8999 76.8 99.5999 76.8 99.3999L76.5 99.5999Z" fill="white"/>
<path d="M58.7 82.6999C58.8 82.2999 59.1 81.8999 59.5 81.5999C59.9 81.1999 60.4 80.9999 61 80.8999C61.2 80.8999 61.5 80.8999 61.7 80.8999C61.9 80.8999 62.1 81.0999 62.2 81.1999C62.3 81.2999 62.4 81.4999 62.5 81.5999C62.5 81.7999 62.5 82.0999 62.3 82.2999C62.2 82.3999 61.9 82.5999 61.7 82.6999C61.6 82.6999 61.4 82.6999 61.3 82.7999C61.3 82.7999 61.5 82.7999 61.5 82.6999C61.4 82.6999 61.3 82.6999 61.2 82.7999C61.2 82.7999 61 82.7999 61 82.8999C61 82.8999 61 82.8999 60.9 82.9999C60.9 83.0999 60.8 83.1999 60.7 83.2999C60.7 83.2999 60.7 83.3999 60.7 83.4999C60.7 83.6999 60.5 83.8999 60.3 84.0999C60 84.3999 59.4 84.3999 59.1 84.0999C59 83.9999 58.9 83.7999 58.8 83.6999C58.8 83.4999 58.8 83.2999 58.8 83.0999C58.8 82.8999 58.8 82.5999 58.9 82.3999L58.7 82.6999Z" fill="white"/>
<path d="M57.1001 99.2999C57.2001 98.8999 57.4001 98.4999 57.8001 98.2999C57.9001 98.2999 58 98.0999 58.2 98.0999C58.3 98.0999 58.5001 97.9999 58.6001 97.8999C58.9001 97.8999 59.1001 97.7999 59.4001 97.8999C59.7001 97.8999 60.0001 98.1999 60.3001 98.3999C60.6001 98.6999 60.5001 99.1999 60.1001 99.1999C60.1001 99.1999 60.1001 99.1999 60.0001 99.1999C60.0001 99.1999 59.9001 99.1999 59.8001 99.1999C59.8001 99.1999 59.7001 99.2999 59.6001 99.3999C59.6001 99.3999 59.6001 99.3999 59.5001 99.3999C59.5001 99.3999 59.4001 99.4999 59.3001 99.5999C59.3001 99.5999 59.3001 99.5999 59.3001 99.6999C59.3001 99.8999 59.3001 99.9999 59.3001 100.2C59.3001 100.4 59.2001 100.5 59.0001 100.6C58.8001 100.8 58.7001 100.8 58.4001 100.9C58.2001 100.9 58.1001 100.9 57.9001 100.9C57.9001 100.9 57.7 100.9 57.7 100.8C57.6 100.8 57.5001 100.6 57.4001 100.5C57.2001 100.3 57.2 99.8999 57.2 99.6999C57.2 99.4999 57.2001 99.2999 57.3001 99.0999L57.1001 99.2999Z" fill="white"/>
<path d="M61.5001 68.0004C61.5001 68.0004 61.5001 68.0004 61.6001 67.9004C61.6001 67.9004 61.6001 67.9004 61.5001 68.0004Z" fill="white"/>
<path d="M60.1 66.6002C60.1 66.1002 60.5 65.7002 60.8 65.4002C61.1 65.2002 61.3 65.0002 61.6 64.9002C61.8 64.9002 62 64.8002 62.3 64.7002C62.8 64.7002 63.3 64.8002 63.8 64.9002C64.1 64.9002 64.3 65.3002 64.3 65.6002C64.3 65.9002 64.1 66.2002 63.8 66.3002C63.6 66.3002 63.4 66.4002 63.1 66.5002C63 66.5002 62.8 66.6002 62.7 66.7002C62.7 66.7002 62.6 66.7002 62.5 66.7002C62.4 66.7002 62.3 66.8002 62.1 66.9002C62.1 66.9002 62.1 66.9002 62.1 67.0002C62.1 67.2002 62 67.3002 61.9 67.4002C61.9 67.4002 61.9 67.5002 61.9 67.6002C61.9 67.6002 61.9 67.6002 61.8 67.7002C61.7 67.7002 61.6 67.9002 61.5 67.9002C61.4 67.9002 61.2 67.9002 61.1 67.9002C60.8 67.9002 60.7 67.7002 60.5 67.5002C60.5 67.4002 60.4 67.2002 60.3 67.1002C60.3 66.9002 60.3 66.7002 60.3 66.4002L60.1 66.6002Z" fill="white"/>
<path d="M40.7 66.4999C40.7 65.9999 41.1 65.4999 41.5 65.0999C42 64.6999 42.6 64.3999 43.3 64.3999C43.4 64.3999 43.5 64.3999 43.6 64.3999C43.8 64.3999 44.1 64.3999 44.3 64.5999C44.5 64.6999 44.7 64.8999 44.9 64.9999C45.2 65.1999 45 65.5999 44.8 65.7999C44.7 65.7999 44.6 65.9999 44.4 66.0999C44.2 66.1999 44 66.2999 43.8 66.2999C43.6 66.2999 43.5 66.2999 43.3 66.3999C43.2 66.3999 43.1 66.3999 42.9 66.4999C42.9 66.4999 42.8 66.4999 42.7 66.5999C42.7 66.5999 42.7 66.5999 42.6 66.6999C42.6 66.6999 42.6 66.6999 42.6 66.7999C42.6 66.8999 42.5 67.0999 42.4 67.1999V66.9999C42.4 67.1999 42.4 67.2999 42.2 67.4999H42C41.7 67.6999 41.7 67.7999 42 67.5999C41.8 67.5999 41.7 67.6999 41.5 67.5999C41.5 67.5999 41.5 67.5999 41.4 67.5999C40.8 67.3999 40.6 66.6999 40.7 66.1999V66.4999Z" fill="white"/>
<path d="M38.9001 82.4001C38.9001 82.3001 38.9001 82.2001 38.9001 82.1001C38.9001 82.0001 39 81.8001 39.1 81.7001C39.1 81.6001 39.3001 81.5001 39.4001 81.4001C39.5001 81.2001 39.7001 81.1001 39.9001 81.0001C40.3001 80.8001 40.7 80.7001 41.2 80.6001H41.4001C41.6001 80.6001 41.7001 80.6001 41.9001 80.6001C42.1001 80.6001 42.3001 80.8001 42.4001 80.9001C42.4001 80.9001 42.5 81.0001 42.6 81.1001C42.7 81.3001 42.7 81.5001 42.6 81.7001C42.6 82.0001 42.3 82.1001 42.1 82.3001C42 82.3001 41.8 82.4001 41.7 82.4001C41.5 82.4001 41.4 82.4001 41.2 82.4001H41.4001C41.3001 82.4001 41.2 82.4001 41.1 82.4001C41.1 82.4001 41.1001 82.5001 41.0001 82.6001C41.0001 82.6001 41.0001 82.7001 41.0001 82.8001C41.0001 82.9001 41.0001 83.0001 41.0001 83.2001C41.0001 83.4001 40.9 83.6001 40.7 83.8001C40.5 84.0001 40.2001 84.0001 40.0001 83.9001C39.8001 83.9001 39.6001 83.7001 39.4001 83.5001C39.3001 83.3001 39.2 83.2001 39.1 83.0001C39.1 82.9001 39.1 82.7001 39.1 82.6001C39.1 82.4001 39.1 82.2001 39.1 82.0001L38.9001 82.4001Z" fill="white"/>
<path d="M37.5 98.8002C37.6 98.4002 37.8 98.0002 38.2 97.7002C38.3 97.7002 38.4 97.5002 38.5 97.4002C38.6 97.4002 38.8 97.3002 38.9 97.2002C39.1 97.2002 39.3 97.1002 39.5 97.2002C39.7 97.2002 39.9 97.2002 40.2 97.3002C40.2 97.3002 40.4 97.3002 40.5 97.4002C40.6 97.4002 40.8 97.6002 40.9 97.8002C40.9 97.8002 41 98.0002 41 98.1002C41 98.3002 41 98.5002 41 98.7002C40.9 98.9002 40.8 99.0002 40.6 99.0002C40.4 99.0002 40.3 99.1002 40.1 99.1002H39.9C39.9 99.1002 39.9 99.1002 40 99.1002C40 99.1002 40 99.1002 39.9 99.1002C39.9 99.1002 39.9 99.1002 39.8 99.1002C39.8 99.1002 39.8 99.3002 39.8 99.4002C39.8 99.5002 39.8 99.6002 39.8 99.7002C39.8 99.7002 39.8 99.9002 39.7 100C39.7 100.2 39.4 100.4 39.2 100.5C38.8 100.6 38.5 100.5 38.2 100.2C37.9 100 37.9 99.5002 37.8 99.2002C37.8 99.2002 37.8 99.1002 37.8 99.0002C37.8 98.9002 37.8 98.7002 37.8 98.6002L37.5 98.8002Z" fill="white"/>
</svg>
