<svg width="114" height="114" viewBox="0 0 114 114" fill="none" xmlns="http://www.w3.org/2000/svg">
<path d="M75.1837 74.4221C77.1095 77.1905 80.1789 84.5329 80.1187 92.0558C79.216 91.9355 78.253 92.4169 77.3503 92.6577C76.4475 92.8984 75.1837 93.1993 74.0402 93.5002C72.355 93.9215 70.6699 94.3428 68.9848 94.6437C66.9987 94.9446 65.0127 95.065 63.0266 95.1252C53.9991 95.3057 44.9716 93.8613 36.0042 92.8984C33.4765 92.5975 31.2497 92.0558 28.722 92.0558C26.1943 92.0558 28.3609 92.0558 28.1804 92.0558C28.1202 84.5329 31.1895 77.1303 33.1154 74.3619C35.1015 71.5333 37.9903 68.5241 42.4438 65.5149C46.8974 62.5057 47.6196 61.0613 47.6196 59.0151C47.6196 56.9689 46.8974 55.5245 42.4438 52.4551C37.9903 49.4459 35.1015 46.3766 33.1154 43.5479C31.1294 40.7795 28.1202 33.3769 28.1804 25.854C28.3609 25.854 28.5415 25.854 28.722 25.854H79.5771C79.7576 25.854 79.9382 25.854 80.0585 25.854C80.1187 33.4371 77.0493 40.7795 75.1235 43.5479C73.1374 46.3766 70.2486 49.3857 65.795 52.4551C61.3415 55.4643 60.6193 56.9689 60.6193 59.0151C60.6193 61.0613 61.3415 62.5057 65.795 65.5149C70.2486 68.5241 73.1374 71.5934 75.1235 74.3619L75.1837 74.4221Z" fill="white"/>
<path d="M80.1789 86.0977C80.1789 86.0977 84.8732 88.4448 84.8732 89.9494C84.8732 91.454 85.1741 92.4771 84.5723 93.0789C83.9704 93.6808 77.8919 99.6389 54.1796 99.6389C30.4673 99.6389 25.8934 95.3057 24.3286 93.8613C22.7638 92.4169 23.2453 93.6808 23.2453 91.9956C23.2453 90.3105 23.4258 89.3476 23.9675 88.8059C24.5091 88.2643 27.9998 86.1578 28.1803 86.1578L27.8794 89.9494C27.8794 89.9494 36.9069 93.3197 53.8787 93.3197C70.8504 93.3197 80.1187 89.4077 80.1187 89.4077C80.2992 89.4077 80.1187 86.218 80.1187 86.218L80.1789 86.0977Z" fill="#FDBAF3"/>
<path d="M44.1891 76.9496C39.8559 78.6949 35.4023 80.0791 33.1154 87.8428C33.1154 87.8428 43.7678 93.1991 66.5774 89.227C70.6097 88.5048 50.9898 81.8245 44.5502 77.1302C44.5502 77.1302 44.2493 76.8894 44.1891 76.9496Z" fill="#B897F0"/>
<path d="M41.7818 35.965C41.0596 35.7844 40.3374 35.6641 39.555 35.6641C39.0134 35.6641 38.4115 35.7844 37.9301 36.0252C37.0273 36.5066 36.4857 37.4696 36.2449 38.4927C36.0042 39.5158 35.8838 40.7195 36.4255 41.3213C36.9671 41.9231 38.1708 41.9833 38.893 41.9833C39.555 41.9833 40.0365 42.1639 40.6383 42.4648C42.0827 43.0666 43.467 43.7286 44.8512 44.3907C47.6798 45.6545 50.5084 46.798 53.5176 47.46C54.5407 47.6406 55.624 47.8211 56.6471 48.0619C57.3693 48.2424 58.0915 48.4831 58.6934 48.9044C59.2952 49.3257 59.7767 50.0479 59.8369 50.7701C59.8369 50.8905 59.8369 51.0108 59.897 51.1312C60.3785 51.7932 61.6424 50.409 62.0035 50.1683C62.6053 49.6868 63.3275 49.4461 63.9895 49.085C66.2163 47.8813 68.3227 46.1962 70.2486 44.4508C70.6699 44.0296 71.1514 43.6083 71.4523 43.1268C71.7532 42.6453 71.8736 41.9231 71.6328 41.3815C71.3921 40.8398 70.8504 40.4787 70.2486 40.3584C69.6468 40.238 69.0449 40.238 68.5033 40.238C66.8181 40.2982 65.133 40.3584 63.3877 40.3584C62.6655 40.3584 62.0035 40.3584 61.2813 40.3584C60.0776 40.3584 58.8739 40.3584 57.6703 40.3584C56.4666 40.238 55.2629 40.0575 54.0592 39.8769C52.8556 39.6964 52.6148 39.3954 51.8325 39.0945C51.0501 38.7936 49.726 38.6131 48.7029 38.3723C47.6798 38.1316 46.4761 37.7705 45.3928 37.3492C44.1892 36.8677 42.9855 36.3261 41.7216 36.0252L41.7818 35.965Z" fill="#CDBDF4"/>
<path d="M64.1701 77.8527C58.2721 75.5056 55.624 72.4362 55.624 69.427C55.624 66.4179 55.624 59.256 55.624 57.0292C55.624 55.5247 55.9249 54.2006 56.4666 53.0571C55.3833 53.7793 54.3 54.5617 53.2769 55.4043C53.2769 57.6913 53.2769 66.6586 53.2769 69.6076C53.2769 72.5566 48.4622 75.325 42.6846 77.612C49.1242 82.3665 60.6794 83.209 66.5774 89.2274L75.7253 87.783C73.3781 80.0193 68.4431 79.5379 64.1701 77.8527Z" fill="#CDBDF4"/>
<path d="M62.2442 49.4462C62.3043 49.4462 62.4247 49.4462 62.4849 49.386C63.3275 49.2055 64.2904 48.8444 64.8922 48.1222C65.1932 47.7611 65.3737 47.2194 65.3135 46.7981C65.1932 46.3167 64.7719 45.8954 64.3506 45.7148C63.9293 45.5343 63.3275 45.4741 62.846 45.4741C61.7025 45.4741 60.559 45.6546 59.4155 45.775C58.2721 45.8954 58.2721 45.8954 57.7304 45.8954C57.1888 45.8954 56.5869 45.775 56.0453 45.775C54.962 45.775 53.8787 46.0759 52.7954 46.0157C51.7121 45.9556 50.6288 45.8352 49.4853 45.7148C47.6196 45.4741 45.7539 45.1732 44.0688 44.3908C41.3003 43.1269 39.3143 40.7196 37.1477 38.553C36.9671 38.3724 36.7866 38.1919 36.5458 38.1919C36.2449 38.1919 36.0042 38.4326 35.944 38.7335C35.8838 39.0345 35.944 39.2752 35.944 39.5761C36.1245 40.4789 36.3653 41.5622 36.8467 42.3446C37.3282 43.1269 37.8097 43.6686 38.2911 44.2704C39.4346 45.7148 40.6985 47.0991 42.1429 48.1824C44.9113 50.2286 53.1565 54.5618 53.2768 60.0385C54.2398 59.1959 54.8416 58.5339 55.9851 57.7515C56.1055 57.6913 56.1656 56.8488 56.2258 56.6682C56.3462 56.3071 56.4666 56.0062 56.5869 55.6451C56.8277 54.9831 57.1888 54.3812 57.5499 53.8396C58.1517 52.9368 58.8137 52.1545 59.5961 51.3721C60.3785 50.5295 61.1007 49.8073 62.184 49.5064L62.2442 49.4462Z" fill="#B897F0"/>
<path d="M28.2405 89.3475C28.1803 81.8246 31.2497 77.3108 33.1755 74.5424C35.1616 71.7138 38.0504 68.7046 42.504 65.6954C46.9576 62.6862 47.6798 61.2418 47.6798 59.1956C47.6798 57.1494 46.9576 55.705 42.504 52.6356C38.0504 49.6264 35.1616 46.5571 33.1755 43.7284C31.1895 40.96 28.722 34.6407 28.7821 27.0576" stroke="black" stroke-width="2" stroke-linecap="round" stroke-linejoin="round"/>
<path d="M80.1187 89.2876C80.1789 81.7646 77.1095 77.2509 75.1837 74.5426C73.1976 71.714 70.3088 68.7048 65.8552 65.6957C61.4016 62.6865 60.6794 61.2421 60.6794 59.1958C60.6794 57.1496 61.4016 55.7052 65.8552 52.6358C70.3088 49.6267 73.1976 46.5573 75.1837 43.7287C77.1095 40.9603 79.9983 34.4604 79.9382 26.9375" stroke="black" stroke-width="2" stroke-linecap="round" stroke-linejoin="round"/>
<path d="M27.6387 89.2876C28.8423 90.7922 40.9994 93.2597 53.4574 93.1995C66.0959 93.1995 79.5168 90.9126 80.7205 89.2876" stroke="black" stroke-width="2.2" stroke-linecap="round" stroke-linejoin="round"/>
<path d="M80.1789 86.0977C85.114 87.2411 85.0538 90.6114 85.1139 91.454C85.2343 93.3799 83.5492 94.403 82.0446 95.065C80.54 95.727 72.0541 99.4584 54.2398 99.4584C36.4255 99.4584 27.8193 95.6668 26.4351 95.065C25.0508 94.4632 23.2453 93.3799 23.3657 91.454C23.4259 90.6114 23.3657 87.3013 28.3007 86.0977" stroke="black" stroke-width="2.2" stroke-linecap="round" stroke-linejoin="round"/>
<path d="M67.2394 83.4497C66.6375 83.0284 65.9755 82.6673 65.3135 82.4266C63.9895 82.0053 62.4849 81.8248 61.2812 82.6673C61.1608 82.7275 61.1608 82.9683 61.2812 83.0284C61.5219 83.1488 61.7627 83.3294 62.0034 83.4497C62.2441 83.5701 62.545 83.6905 62.7858 83.7506C63.0867 83.871 63.4478 84.0516 63.7487 84.1719H63.8691C63.8691 84.1719 63.9293 84.1719 63.9894 84.2321C64.1098 84.2923 64.2904 84.3525 64.4107 84.4728C64.6515 84.5932 64.9524 84.7738 65.1931 84.8941C65.3135 84.9543 65.4339 85.0747 65.5542 85.1349C65.6144 85.1349 65.6746 85.2552 65.7348 85.2552H65.795C65.9153 85.3756 66.0959 85.496 66.2162 85.5561C66.2162 85.5561 66.2162 85.5561 66.2764 85.5561C66.3968 85.6163 66.5172 85.7367 66.6375 85.7969C66.9986 85.9774 67.2995 86.158 67.7208 86.2182C68.2023 86.2182 68.5032 85.8571 68.5032 85.4358C68.5634 84.5932 67.781 83.8108 67.119 83.3294L67.2394 83.4497Z" fill="#DDD6F2"/>
<path d="M54.9105 30.4732C54.5509 30.4732 54.2512 30.4732 53.8916 30.4732C36.1497 30.4732 27.998 26.6501 26.6194 26.0432C25.2408 25.4364 23.5625 24.3441 23.5625 22.4022C23.5625 20.4603 23.4426 20.0961 24.8812 18.7611C27.7582 16.091 37.7081 14.5132 54.2512 14.5132C70.7943 14.5132 82.3626 16.7585 84.1607 19.1859C85.9589 21.6133 84.7002 21.9167 84.5803 22.8269C84.4604 23.7372 83.3815 25.3757 81.883 26.0432C80.3846 26.7108 72.3528 30.4732 54.6109 30.4732C54.2512 30.4732 53.9515 30.4732 53.5919 30.4732" fill="#FDBAF3"/>
<path d="M54.9105 30.4732C54.5509 30.4732 54.2512 30.4732 53.8916 30.4732C36.1497 30.4732 27.998 26.6501 26.6194 26.0432C25.2408 25.4364 23.5625 24.3441 23.5625 22.4022C23.5625 20.4603 23.4426 20.0961 24.8812 18.7611C27.7582 16.091 37.7081 14.5132 54.2512 14.5132C70.7943 14.5132 82.3626 16.7585 84.1607 19.1859C85.9589 21.6133 84.7002 21.9167 84.5803 22.8269C84.4604 23.7372 83.3815 25.3757 81.883 26.0432C80.3846 26.7108 72.3528 30.4732 54.6109 30.4732C54.2512 30.4732 53.9515 30.4732 53.5919 30.4732" stroke="black" stroke-width="2" stroke-linecap="round" stroke-linejoin="round"/>
<path d="M81.32 21.4797C76.7402 23.3164 66.272 25.913 54.1384 25.913C42.0048 25.913 31.0014 23.3164 26.6 21.353" stroke="black" stroke-width="2" stroke-linecap="round" stroke-linejoin="round"/>
<path d="M45.9712 95.7056C44.6017 95.3039 43.1078 95.2035 41.6761 94.9525C40.1822 94.7014 38.6882 94.4504 37.1943 94.1993C35.7626 93.9483 34.3309 93.5968 32.8992 93.3458C31.4675 93.0947 30.0358 92.8939 28.5419 92.7935C28.1061 92.7935 27.9816 93.2956 28.2929 93.4462C30.9695 94.7014 33.8329 95.3039 36.8208 95.7558C38.2525 96.0069 39.6842 96.2077 41.1781 96.3583C42.7343 96.5089 44.3527 96.7098 45.8467 96.5089C46.4069 96.4587 46.5936 95.8562 45.9712 95.6554V95.7056Z" fill="white"/>
<path d="M58.2793 96.0024C58.0523 95.8335 57.7118 95.8335 57.4848 95.8335C57.201 95.8335 56.9173 95.8335 56.6336 95.8335C56.1228 95.8335 55.6121 95.9461 55.1013 95.9461C54.5906 95.9461 54.0798 95.9461 53.5691 96.0024C53.0016 96.0024 52.4341 96.0024 51.9234 96.1713C51.6396 96.2276 51.5829 96.6779 51.8666 96.7905C52.3206 97.072 52.8881 97.1283 53.3988 97.2409C53.9663 97.3535 54.5906 97.3535 55.1581 97.3535C55.7256 97.3535 56.2931 97.2972 56.9173 97.1846C57.428 97.1283 58.1658 97.0157 58.4495 96.509C58.6198 96.2839 58.4495 96.0587 58.2793 95.8898V96.0024Z" fill="white"/>
<path d="M71.9731 42.0516C72.7663 38.8128 61.4787 41.4518 52.2656 39.4725C43.0524 37.4933 40.3678 34.5544 37.1341 36.3537C35.4257 37.3134 35.1816 39.7125 36.2189 41.7517C37.7442 44.6906 39.8187 46.1301 41.161 47.1497C43.9677 49.1889 53.1198 54.5869 53.2418 60.0449C53.2418 62.264 53.2418 65.5028 53.2418 68.5017C53.2418 71.5006 50.9843 74.0796 45.0049 76.4187C40.6119 78.1581 34.0224 81.5768 32.6801 88.1144C33.0461 88.6542 42.1372 90.5135 54.3401 90.5135C66.5429 90.5135 76.0001 87.5746 76.0001 87.5746C74.2917 81.097 67.6411 79.0577 63.4922 76.8386C59.3432 74.6194 55.5603 72.5202 55.5603 69.5213C55.5603 66.5224 55.5603 61.3644 55.5603 59.1452C55.4383 52.0678 65.9327 47.4496 67.9462 46.19C69.9597 44.9305 71.485 43.1912 71.9121 42.1116L71.9731 42.0516Z" stroke="black" stroke-width="2" stroke-linecap="round" stroke-linejoin="round"/>
<path d="M37.24 38.833C39.4349 42.3768 47.7269 46.6167 55.0433 46.4269C62.3597 46.237 68.0909 44.3385 69.92 42.7565" stroke="black" stroke-width="2" stroke-linecap="round" stroke-linejoin="round"/>
<path d="M53.407 41.9857C51.7557 41.4662 50.0455 41.0621 48.3942 40.6003C47.5686 40.3694 46.8019 40.0807 45.9763 39.8498C45.5635 39.7344 45.2096 39.6766 44.7968 39.6189C44.384 39.5612 43.9122 39.6189 43.4994 39.6189C43.3225 39.6189 43.2635 39.7921 43.3814 39.9076C43.6763 40.2539 43.9122 40.6003 44.266 40.8889C44.5609 41.1198 44.9148 41.3507 45.3276 41.5816C46.1532 41.9857 47.0968 42.2743 47.9224 42.563C49.6327 43.1402 51.4608 43.4866 53.289 43.3711C54.0557 43.3711 54.2326 42.2743 53.4659 42.0434L53.407 41.9857Z" fill="#DDD6F2"/>
<path d="M60.563 42.7057C60.3872 42.6333 60.2115 42.6333 60.0358 42.6333C60.0358 42.6333 59.9187 42.6333 59.8601 42.6333C59.8601 42.6333 59.6844 42.6333 59.6259 42.6333C59.3916 42.6333 59.0987 42.6333 58.8645 42.6333C58.6302 42.6333 58.3373 42.6333 58.1031 42.6333C57.8688 42.6333 57.576 42.6333 57.3417 42.6333C56.9903 42.6333 56.8731 42.9228 57.166 43.0314C57.4002 43.1038 57.6345 43.1762 57.8688 43.2485C58.1616 43.3209 58.4545 43.3571 58.7473 43.3933C58.923 43.3933 59.0987 43.3933 59.2744 43.3933C59.3916 43.3933 59.5087 43.3933 59.6844 43.3933C59.8601 43.3933 60.0358 43.3571 60.153 43.3209C60.3287 43.2847 60.5629 43.2485 60.6801 43.14C60.8558 42.9952 60.8558 42.7781 60.563 42.7057Z" fill="#DDD6F2"/>
<path d="M76.2488 32.0524C75.1224 30.9382 73.3703 31.1858 71.9936 31.4953C70.3041 31.8667 68.6145 32.1143 66.9875 32.6714C65.3606 33.2286 64.9851 33.6 64.6722 34.5904C64.6097 34.7761 64.5471 35.0237 64.6722 35.2714C64.7974 35.5809 65.1728 35.7047 65.4857 35.7666C66.4869 35.9523 67.5507 35.8904 68.6145 35.9523C69.6783 36.0142 70.7421 36.3237 71.493 37.0665C71.7433 37.3141 71.9936 37.6856 72.3065 37.8713C73.12 38.3665 74.1212 37.8713 74.8095 37.2522C75.623 36.5713 75.9359 35.6428 76.4365 34.7761C76.9371 33.9095 76.8745 32.7952 76.1236 32.0524H76.2488Z" fill="#DEF7FF"/>
<path d="M70.3837 72.7512C69.0546 71.184 67.3789 70.0989 65.7608 68.8934C65.0096 68.3509 64.2006 67.8083 63.4494 67.2658C62.6404 66.7233 61.6003 66 60.5601 66.2411C60.2712 66.3014 60.04 66.663 60.04 66.9644C60.1556 68.0495 61.0802 68.8934 61.8314 69.4962C62.6404 70.0989 63.4494 70.762 64.2584 71.3648C65.0674 71.9676 65.8764 72.5101 66.6854 73.0526C67.5522 73.6554 68.4768 74.1376 69.4592 74.4993C69.8637 74.6801 70.3837 74.3788 70.5571 74.0171C70.7882 73.5951 70.6727 73.1129 70.3837 72.7512Z" fill="#DEF7FF"/>
<path d="M74.1876 77.1293C74.0123 76.8193 73.7784 76.5712 73.6031 76.3232C73.4861 76.1992 73.4277 76.1372 73.3108 76.0132C73.1938 75.8892 73.0185 75.7651 72.9015 75.6411C72.7846 75.5791 72.5508 75.5171 72.4339 75.4551C72.3169 75.4551 72.1416 75.3931 72.0246 75.3311C71.557 75.2071 71.2647 75.7651 71.557 76.1372C71.557 76.1372 71.6154 76.1992 71.6739 76.2612C71.6739 76.3232 71.7908 76.3852 71.8493 76.5092C71.9662 76.6952 72.0831 76.8193 72.2 77.0053C72.3754 77.3153 72.5508 77.6253 72.7262 77.9354C72.7262 78.0594 72.8431 78.2454 72.9015 78.3694C72.9015 78.4314 72.9015 78.4934 72.96 78.5554C73.0185 78.6794 73.1354 78.7414 73.1938 78.8655C73.4277 79.1135 73.7784 79.1755 74.0123 79.0515C74.1292 79.0515 74.2461 78.9275 74.3046 78.8034C74.4215 78.6174 74.4215 78.4934 74.4799 78.3074C74.4799 77.8734 74.363 77.5013 74.1292 77.1293H74.1876Z" fill="#DEF7FF"/>
<path d="M37.6447 26.3055C36.3176 25.6691 34.6889 25.51 33.2412 25.1917C31.7331 24.8735 30.2853 24.6083 28.7773 24.3962C28.2344 24.3432 27.8121 24.9796 28.4153 25.1917C29.8028 25.8282 31.2505 26.3055 32.7586 26.6768C34.2063 26.995 35.8351 27.5253 37.3431 27.4193C37.9464 27.4193 38.3083 26.6237 37.6447 26.3585V26.3055Z" fill="white"/>
<path d="M47.9672 27.6712C47.6001 27.6712 47.2331 27.6712 46.8661 27.6712C46.4991 27.6712 46.1932 27.6712 45.8262 27.6712C45.1533 27.6712 44.4192 27.5546 43.7463 27.4381C43.3793 27.3798 43.1346 27.846 43.5016 28.0208C44.1745 28.3704 44.9086 28.6618 45.6426 28.7783C46.0708 28.8366 46.4379 28.8948 46.8661 28.9531C47.2331 28.9531 47.6613 28.9531 48.0283 28.9531C48.3954 28.9531 48.6401 28.72 48.6401 28.3704C48.6401 28.0208 48.3342 27.7877 48.0283 27.7877L47.9672 27.6712Z" fill="white"/>
<path d="M75.8151 18.7639C75.2023 18.5169 74.4669 18.3316 74.2217 18.2698C68.0933 16.4788 61.2908 16.5405 54.9785 17.2817C54.7333 17.2817 54.4882 17.2817 54.2431 17.467C52.8335 18.3316 57.1234 18.9492 57.5524 19.011C58.5943 19.1963 59.5748 19.4433 60.6166 19.5668C61.6585 19.6903 62.5164 19.9374 63.068 20.6167C63.3131 20.8638 63.4357 21.2344 63.6808 21.4814C64.2324 22.0372 65.0291 22.1608 65.7645 22.099C68.3997 21.9137 70.9737 21.7902 73.5476 21.2344C74.5895 20.9873 75.999 20.8638 76.6731 19.8756C76.9795 19.3815 76.428 19.011 75.7539 18.7639H75.8151Z" fill="white"/>
</svg>
