<svg width="192" height="34" viewBox="0 0 192 34" fill="none" xmlns="http://www.w3.org/2000/svg">
<path d="M59.3596 32.6231C57.1007 32.6231 55.8809 31.4033 55.8809 29.1896V4.43209C55.8809 2.21837 57.1007 0.998563 59.3596 0.998563H68.3952C78.0632 0.998563 84.4785 7.2783 84.4785 16.8109C84.4785 26.3434 78.0632 32.6231 68.3952 32.6231H59.3596ZM68.3952 27.0211C74.2231 27.0211 78.1536 22.9551 78.1536 16.8109C78.1536 10.6666 74.1779 6.60063 68.3952 6.60063H62.2058V27.0211H68.3952Z" fill="#211C28"/>
<path d="M84.4354 21.5094C84.4354 14.1905 89.7213 9.71791 96.2721 9.71791C103.817 9.71791 107.657 14.5971 107.657 19.8378C107.657 22.3677 106.573 23.452 104.133 23.452H90.5345C90.9862 26.5693 93.7421 28.1053 96.8142 28.1053C98.9376 28.1053 100.7 27.2018 102.01 26.4338C102.597 26.1175 103.275 25.8013 104.223 25.8013C105.398 25.8013 106.437 26.5693 106.437 27.8795C106.437 29.0541 105.669 30.0932 104.63 30.9064C102.642 32.3972 99.3894 33.2105 96.769 33.2105C89.5857 33.2105 84.4354 28.9185 84.4354 21.5094ZM90.5796 19.2053H101.874C101.558 16.4042 99.8411 14.6423 96.4076 14.6423C93.3807 14.6423 91.0314 16.2235 90.5796 19.2053Z" fill="#211C28"/>
<path d="M117.473 33.2105C113.045 33.2105 110.334 30.7708 110.334 24.7622V15.2296H109.16C107.082 15.2296 105.952 14.3712 105.952 12.79C105.952 11.1636 107.082 10.3052 109.16 10.3052H110.334V6.64581C110.334 4.25138 111.825 3.03157 113.316 3.03157C114.807 3.03157 116.298 4.25138 116.298 6.64581V10.3052H119.822C122.081 10.3052 123.255 11.1636 123.255 12.79C123.255 14.3712 122.081 15.2296 119.822 15.2296H116.298V24.717C116.298 26.8855 116.976 27.9698 118.195 27.9698C119.506 27.9698 119.822 26.8404 121.358 26.8404C122.713 26.8404 123.436 27.7439 123.436 29.0089C123.436 29.7317 123.21 30.4094 122.804 30.9967C121.81 32.3972 119.777 33.2105 117.473 33.2105Z" fill="#211C28"/>
<path d="M133.16 33.1653C126.473 33.1653 122.362 28.015 122.362 21.4642C122.362 14.9134 126.473 9.71791 133.16 9.71791C136.683 9.71791 139.439 11.2991 140.975 13.558V12.9707C140.975 10.9829 141.969 9.89862 143.731 9.89862C145.538 9.89862 146.532 10.9829 146.532 12.9707V29.9125C146.532 31.9003 145.493 32.9846 143.776 32.9846C141.969 32.9846 140.975 31.9003 140.975 29.8673V29.3251C139.259 31.6292 136.412 33.1653 133.16 33.1653ZM134.425 27.9246C138.129 27.9246 140.524 25.1236 140.524 21.4642C140.524 17.8048 138.129 14.9134 134.425 14.9134C130.72 14.9134 128.325 17.8048 128.325 21.4642C128.325 25.1236 130.72 27.9246 134.425 27.9246Z" fill="#211C28"/>
<path d="M159.354 33.1653C151.719 33.1653 147.789 27.7891 147.789 21.4642C147.789 15.1393 151.9 9.71791 159.399 9.71791C164.233 9.71791 168.661 12.5641 168.661 15.5007C168.661 17.0367 167.577 17.8499 166.266 17.8499C165.363 17.8499 164.595 17.353 163.601 16.4946C162.381 15.4103 161.116 14.9586 159.49 14.9586C155.695 14.9586 153.752 18.2114 153.752 21.4642C153.752 24.717 155.695 27.9246 159.535 27.9246C160.981 27.9246 162.381 27.518 163.737 26.2982C164.64 25.5302 165.498 24.9881 166.447 24.9881C167.622 24.9881 168.706 25.9368 168.706 27.247C168.706 30.2739 164.008 33.1653 159.354 33.1653Z" fill="#211C28"/>
<path d="M172.745 32.9846C170.757 32.9846 169.718 31.8099 169.718 29.551V4.02549C169.718 1.81177 170.757 0.591961 172.745 0.591961C174.687 0.591961 175.726 1.81177 175.726 4.02549V13.0159C177.443 10.9377 179.838 9.71791 182.729 9.71791C188.421 9.71791 191.99 13.8291 191.99 20.154V29.551C191.99 31.8099 190.951 32.9846 189.009 32.9846C187.066 32.9846 185.982 31.8099 185.982 29.551V20.5154C185.982 17.0819 184.22 14.9586 181.238 14.9586C177.94 14.9586 175.726 17.4433 175.726 20.8769V29.551C175.726 31.8099 174.687 32.9846 172.745 32.9846Z" fill="#211C28"/>
<path d="M28.1759 20.5392C30.7163 15.1725 39.5053 18.7632 43.5822 21.2296L46.7843 26.1993C42.8527 33.3999 36.753 32.8441 34.1945 31.6661C31.1298 30.1936 25.6359 25.9065 28.1759 20.5392ZM33.967 19.2618C31.8598 19.2067 29.8634 20.9252 29.5861 23.0324C29.3643 24.7515 30.3075 26.5267 31.8049 27.3585C32.5812 27.7466 33.5239 27.9121 34.3556 27.6349C35.1318 27.3576 35.7978 26.6374 36.0197 25.8058C36.2415 24.9741 36.0196 24.0308 35.5207 23.3654C35.1879 22.9217 34.6326 22.5888 34.0226 22.5333C33.4128 22.478 32.8026 22.866 32.6916 23.4757C32.5807 23.6421 32.5807 23.8093 32.6916 23.9757C32.8025 24.142 32.9696 24.2521 33.1359 24.2521C33.4684 24.2519 33.6351 23.9196 33.9123 23.8087C34.2449 23.6981 34.6324 23.9754 34.7433 24.3634C34.9097 24.8625 34.6333 25.4731 34.1896 25.8058C33.746 26.1385 33.1357 26.1379 32.5812 25.9161C32.0268 25.6944 31.638 25.2511 31.4162 24.7521C30.9725 23.7539 31.1396 22.5333 31.8605 21.757C32.9696 20.5927 35.0212 20.5922 36.1857 21.6456C37.35 22.699 38.2872 22.5335 38.6037 22.0343C38.9873 21.4285 38.214 19.3736 33.967 19.2618Z" fill="#211C28"/>
<path d="M19.4702 28.024C19.4702 29.1259 20.9968 31.7711 23.3657 31.7711C25.7346 31.7711 27.3327 29.2772 27.3327 28.024C27.3327 26.5464 24.7975 26.3927 23.3657 26.3927C22.0892 26.3927 19.5558 26.5135 19.4702 28.024Z" fill="#211C28"/>
<path d="M23.3688 25.2457L22.7286 25.0711C22.5983 25.0356 22.503 24.9248 22.4847 24.791C22.1408 22.2829 20.6817 17.2448 17.2947 15.487C13.8049 13.6758 7.7234 15.6711 5.1189 16.8951L6.58221 13.996C5.60667 10.8946 4.50596 4.1339 7.90747 1.90304C11.309 -0.327815 16.264 5.20699 18.3163 8.25325C18.3163 8.25325 20.2766 7.83918 23.3965 7.83918C26.5163 7.83918 28.4766 8.25325 28.4766 8.25325C30.5289 5.20699 35.4839 -0.327815 38.8854 1.90304C42.2869 4.1339 41.1862 10.8946 40.2107 13.996L41.674 16.8951C39.0695 15.6711 32.988 13.6758 29.4982 15.487C26.1112 17.2448 24.6521 22.2829 24.3082 24.791C24.2899 24.9248 24.1946 25.0356 24.0643 25.0711L23.4241 25.2457H23.3688Z" fill="#211C28"/>
<path d="M3.21436 21.2298C7.29149 18.7634 16.0806 15.1723 18.6206 20.5394C21.1607 25.9067 15.6657 30.1938 12.6011 31.6663C10.0425 32.8443 3.94283 33.4 0.0112305 26.1995L3.21436 21.2298ZM13.022 19.262C8.77497 19.3738 8.00168 21.4287 8.38525 22.0345C8.70176 22.5337 9.63898 22.6992 10.8032 21.6458C11.9677 20.5924 14.0193 20.5929 15.1284 21.7572C15.8493 22.5335 16.0164 23.7541 15.5728 24.7523C15.3509 25.2513 14.9622 25.6946 14.4077 25.9163C13.8532 26.1381 13.2429 26.1377 12.7993 25.805C12.356 25.4722 12.0793 24.8625 12.2456 24.3636C12.3565 23.9756 12.744 23.6984 13.0767 23.8089C13.3538 23.9198 13.5205 24.252 13.853 24.2523C14.0193 24.2523 14.1865 24.1422 14.2974 23.9759C14.4083 23.8095 14.4083 23.6423 14.2974 23.4759C14.1863 22.8662 13.5762 22.4782 12.9663 22.5335C12.3563 22.589 11.802 22.922 11.4692 23.3656C10.9702 24.0309 10.7477 24.9733 10.9692 25.805C11.191 26.6368 11.857 27.3578 12.6333 27.6351C13.4651 27.9124 14.4077 27.7459 15.1841 27.3577C16.6814 26.5259 17.6247 24.7517 17.4028 23.0326C17.1255 20.9254 15.1291 19.2068 13.022 19.262Z" fill="#211C28"/>
</svg>
