<svg width="114" height="114" viewBox="0 0 114 114" fill="none" xmlns="http://www.w3.org/2000/svg">
<path d="M38.684 74.4801C38 74.0241 37.316 73.4921 36.708 72.9601C36.556 72.8841 36.48 72.7321 36.328 72.6561C34.276 70.9841 32.3 69.2361 30.476 67.3361C29.108 65.8921 17.632 56.7721 13.832 53.4281C14.136 52.8961 12.236 48.2601 16.72 42.5601C21.204 36.8601 25.308 35.7961 29.108 35.0361C31.084 37.2401 44.764 56.8481 44.764 56.8481C44.764 60.2681 45.6 59.5081 48.792 60.9521C52.668 62.7001 56.544 62.2441 57.912 59.6601C59.812 60.7241 61.484 62.1681 63.232 63.4601C64.98 64.7521 67.792 67.0321 69.92 68.8561C72.048 70.6801 71.212 70.0721 71.896 70.6041C72.58 71.1361 74.176 71.2881 75.088 72.1241C75.468 72.4281 75.696 72.8081 76 73.1881C76.836 74.5561 77.216 76.2281 77.064 77.8241C76.912 79.4201 76.152 80.7881 75.24 81.7001C73.948 82.8401 71.516 83.2961 69.996 82.3841C69.388 82.0041 68.856 81.5481 68.324 81.0921C68.02 80.8641 67.564 80.7881 67.64 81.3201C67.716 81.8521 68.324 82.1561 68.552 82.3841C69.16 83.0681 69.844 83.7521 70.756 84.1321C70.984 84.2081 71.288 84.3601 71.364 84.5881C71.364 84.8161 71.364 84.9681 71.288 85.1961C70.68 86.4121 70.148 87.7041 69.16 88.6161C67.944 89.7561 66.12 90.3641 64.448 90.0601C63.232 89.8321 62.168 89.2241 61.18 88.4641C60.192 87.7041 60.192 87.4001 59.66 87.1721C59.128 86.9441 58.824 87.4761 59.128 88.0841C59.584 88.9201 60.116 89.8321 60.952 90.4401C61.332 90.6681 61.712 90.8961 62.016 91.2001C62.32 91.5041 62.548 91.9601 62.472 92.4161C62.396 92.7201 62.092 92.9481 61.864 93.1761C60.116 94.5441 58.14 95.5321 55.86 95.0761C53.58 94.6201 52.06 93.4801 50.92 91.8081C50.768 91.6561 50.692 91.4281 50.54 91.2761C51.224 90.3641 51.528 89.2241 51.224 87.8561C50.844 86.4881 50.388 84.7401 49.096 83.8281C47.804 82.9161 47.728 83.2201 46.968 83.4481C46.208 83.6761 45.676 84.2841 45.372 83.9801C45.068 83.6761 45.904 81.2441 45.828 80.6361C45.524 78.8881 43.396 77.0641 42.028 76.2281C41.268 75.7721 40.508 75.4681 39.748 75.0121C39.444 74.8601 39.14 74.6321 38.836 74.4041L38.684 74.4801Z" fill="#C5B5F2"/>
<path d="M45.6 56.0879C43.548 56.9239 42.104 60.6479 42.104 60.6479C42.104 60.6479 45.904 59.7359 47.652 60.3439" fill="white"/>
<path d="M45.6 56.0879C43.548 56.9239 42.104 60.6479 42.104 60.6479C42.104 60.6479 45.904 59.7359 47.652 60.3439" stroke="black" stroke-width="2" stroke-linecap="round" stroke-linejoin="round"/>
<path d="M84.2079 38.3042C81.0159 41.8002 80.9399 42.1042 75.3159 47.5762C71.3639 51.3762 68.0959 54.4162 67.108 55.0242C64.2959 56.7722 65.056 55.4802 62.548 53.3522C57.836 49.3242 54.0359 47.1962 49.1719 50.0082C48.4119 50.4642 47.8039 50.9962 47.2719 51.5282C44.536 54.4922 46.6639 60.1162 49.9319 61.6362C53.8079 63.3842 56.468 62.4722 58.748 62.0922C60.344 63.0042 60.1919 64.0682 63.0799 66.5002C63.8399 67.1842 64.9039 67.4882 65.5879 68.1722C66.2719 68.8562 67.5639 69.6922 68.628 70.3002C69.5399 70.8322 70.4519 71.3642 71.4399 71.8202C71.8959 72.0482 72.3519 72.2002 72.8839 72.2002C74.3279 72.2002 75.0119 70.9842 75.7719 69.9962C76.5319 69.0082 77.9759 68.3242 78.9639 67.6402C81.8519 65.8162 84.9679 64.5242 87.9319 62.7762C95.4559 58.2922 95.3039 59.2042 99.9399 56.6202C100.7 42.9402 89.3 39.5202 84.1319 38.3802L84.2079 38.3042Z" fill="#B897F0"/>
<path d="M44.536 56.772C44.536 56.772 29.336 35.644 28.88 34.96C19.532 35.264 10.26 50.16 14.212 54.188C14.592 54.492 28.12 65.132 32.832 69.464" stroke="black" stroke-width="2" stroke-linecap="round" stroke-linejoin="round"/>
<path d="M35.644 53.2762C35.644 52.8202 35.492 52.4402 35.264 52.0602C35.036 51.7562 34.808 51.5282 34.504 51.2242C34.428 51.0722 34.276 50.9962 34.2 50.8442C34.2 50.8442 34.2 50.8442 34.2 50.7682C34.048 50.5402 33.82 50.3882 33.668 50.1602C32.908 49.2482 32.224 48.3362 31.54 47.4242C30.856 46.5122 30.248 45.6002 29.564 44.6882C29.26 44.2322 28.956 43.7762 28.576 43.3202C28.196 42.8642 27.892 42.2562 27.436 41.8002C26.676 41.1162 25.46 41.7242 25.536 42.7122C25.536 43.3202 25.84 43.9282 26.068 44.5362C26.296 45.1442 26.6 45.7522 26.904 46.3602C27.436 47.4242 27.968 48.3362 28.652 49.3242C29.336 50.3882 30.096 51.3002 30.932 52.2882C31.312 52.7442 31.692 53.1242 32.072 53.5042C32.604 54.1122 33.136 54.6442 33.972 54.7962C34.884 54.9482 35.948 54.2642 35.796 53.2002L35.644 53.2762Z" fill="#DDD6F2"/>
<path d="M73.568 76.9881C73.492 76.5321 73.264 76.0761 72.96 75.7721C72.808 75.5441 72.504 75.3921 72.276 75.3161C72.124 75.3161 71.896 75.2401 71.744 75.1641C71.516 75.1641 71.212 75.3161 71.06 75.4681C70.908 75.6961 70.908 75.9241 71.06 76.1521C71.06 76.1521 71.06 76.1521 71.06 76.2281C71.06 76.2281 71.06 76.2281 71.06 76.3041C71.06 76.4561 71.06 76.6081 71.06 76.6841C71.06 76.6841 71.06 76.7601 71.06 76.8361C71.06 76.9881 71.06 77.1401 71.06 77.2161C71.06 77.3681 71.06 77.5201 70.908 77.6721C70.908 77.6721 70.908 77.5201 70.984 77.4441C70.908 77.6721 70.832 77.8241 70.756 78.1281C70.756 78.1281 70.756 78.2041 70.756 78.2801C70.756 78.2801 70.756 78.4321 70.756 78.5081C70.756 78.8881 70.908 79.1921 71.136 79.4201C71.44 79.6481 71.744 79.7241 72.124 79.6481C72.428 79.6481 72.732 79.4201 72.96 79.1921C73.264 78.9641 73.416 78.6601 73.492 78.3561C73.644 77.9001 73.72 77.3681 73.492 76.9121L73.568 76.9881Z" fill="#DDD6F2"/>
<path d="M67.108 85.196C67.108 85.044 66.956 84.892 66.88 84.816C66.804 84.816 66.728 84.664 66.652 84.588C66.5 84.512 66.348 84.436 66.196 84.436C66.12 84.436 65.968 84.436 65.892 84.436C65.74 84.436 65.588 84.436 65.436 84.588C65.132 84.74 64.904 84.968 64.828 85.272C64.828 85.272 64.752 85.424 64.676 85.5C64.676 85.5 64.6 85.652 64.524 85.728C64.524 85.728 64.448 85.804 64.372 85.88C64.372 85.88 64.296 85.956 64.22 86.032C64.22 86.032 64.22 86.032 64.144 86.032C64.144 86.032 64.068 86.032 63.992 86.032C63.992 86.032 63.84 86.032 63.764 86.032C63.764 86.032 63.688 86.108 63.612 86.184C63.46 86.336 63.384 86.488 63.384 86.64C63.384 86.944 63.384 87.248 63.688 87.476C63.992 87.704 64.296 87.78 64.676 87.856C64.752 87.856 64.904 87.856 64.98 87.856C65.056 87.856 65.208 87.856 65.36 87.856C65.512 87.856 65.664 87.78 65.816 87.704C65.892 87.704 65.968 87.628 66.12 87.552C66.272 87.476 66.5 87.324 66.652 87.172C66.728 87.096 66.88 86.944 66.956 86.792C66.956 86.64 67.108 86.488 67.184 86.336C67.184 86.108 67.26 85.88 67.336 85.728C67.336 85.576 67.336 85.424 67.26 85.272L67.108 85.196Z" fill="#DDD6F2"/>
<path d="M57.76 91.1239C57.76 90.9719 57.76 90.8959 57.76 90.7439C57.76 90.6679 57.76 90.5159 57.684 90.4399C57.608 90.2119 57.532 90.2119 57.38 90.0599C57.38 90.0599 57.304 89.9839 57.228 89.9079C57.152 89.9079 57.076 89.8319 57 89.7559C56.848 89.7559 56.696 89.7559 56.62 89.7559C56.544 89.7559 56.468 89.7559 56.392 89.7559C56.392 89.7559 56.316 89.7559 56.24 89.7559C56.24 89.7559 56.24 89.7559 56.164 89.7559C56.164 89.7559 56.164 89.7559 56.012 89.8319C55.936 89.8319 55.86 89.9839 55.784 90.0599C55.784 90.0599 55.708 90.1359 55.708 90.2119C55.632 90.2879 55.556 90.4399 55.48 90.5159C55.48 90.5159 55.328 90.5159 55.252 90.5159C55.176 90.5159 55.024 90.6679 55.024 90.7439C54.948 90.8199 54.872 90.8959 54.872 91.0479C54.872 91.2759 54.872 91.5039 54.872 91.7319C54.948 91.8839 55.1 92.0359 55.252 92.1119C55.252 92.1119 55.252 92.1119 55.328 92.1119C55.48 92.1879 55.632 92.2639 55.708 92.3399C55.936 92.3399 56.24 92.4919 56.468 92.3399C56.62 92.3399 56.772 92.2639 56.924 92.1879C57.076 92.1879 57.152 92.0359 57.228 91.9599C57.228 91.9599 57.228 91.9599 57.304 91.9599C57.38 91.8839 57.456 91.8079 57.532 91.6559C57.684 91.4279 57.684 91.2759 57.76 90.9719C57.76 90.9719 57.76 90.9719 57.76 90.8959V91.1239Z" fill="#DDD6F2"/>
<path d="M57.912 52.4401C56.696 51.6801 55.404 51.3001 54.036 51.2241C53.2 51.2241 52.44 51.3001 51.68 51.6041C51.072 51.8321 50.236 52.3641 50.084 53.0481C50.084 53.2761 50.084 53.5801 50.312 53.7321C50.54 53.8841 50.92 53.9601 51.148 53.9601C51.3 53.9601 51.452 53.9601 51.528 54.0361C51.68 54.0361 51.832 54.0361 51.984 54.0361C52.592 54.0361 53.124 54.1121 53.732 54.1881C53.884 54.1881 54.036 54.1881 54.188 54.1881C54.492 54.1881 54.796 54.3401 55.1 54.4161C55.328 54.4161 55.632 54.5681 55.86 54.6441C55.86 54.6441 56.012 54.6441 56.088 54.7201C56.164 54.7201 56.24 54.7961 56.316 54.8721C57.076 55.3281 58.52 55.5561 58.9 54.4161C59.204 53.4281 58.444 52.5921 57.684 52.1361L57.912 52.4401Z" fill="#C5B5F2"/>
<path d="M62.168 57.0762C62.168 56.8482 62.016 56.6962 61.864 56.6202C61.712 56.5442 61.56 56.3922 61.484 56.3922C61.408 56.3922 61.332 56.3922 61.18 56.3922C60.952 56.3922 60.8 56.3162 60.572 56.2402H60.42C60.42 56.2402 60.268 56.2402 60.192 56.3922C60.116 56.4682 60.04 56.6202 60.192 56.7722C60.268 56.9242 60.344 57.0762 60.42 57.3042C60.42 57.4562 60.572 57.6082 60.648 57.6842C60.724 57.7602 60.8 57.8362 60.876 57.9122H61.028C61.104 58.0642 61.18 58.1402 61.332 58.1402C61.408 58.1402 61.56 58.1402 61.636 58.1402C61.712 58.1402 61.788 58.1402 61.864 57.9882C61.94 57.9882 62.016 57.8362 62.092 57.7602C62.168 57.6082 62.244 57.3802 62.168 57.1522V57.0762Z" fill="#C5B5F2"/>
<path d="M81.396 47.8038C80.18 48.3358 79.268 49.4758 78.28 50.3118C77.368 51.1478 76.304 51.9838 75.392 52.7438C74.404 53.5798 73.416 54.2638 72.352 55.0238C71.82 55.4038 71.364 55.8598 70.908 56.3158C70.68 56.5438 70.452 56.6958 70.3 56.9238C69.996 57.2278 69.92 57.4558 69.768 57.7598C69.616 58.1398 69.768 58.5198 70.148 58.5958C70.452 58.5958 70.756 58.6718 71.06 58.5958C71.364 58.5198 71.668 58.3678 71.972 58.2918C72.656 58.0638 73.34 57.7598 73.948 57.4558C75.164 56.7718 76.304 55.9358 77.368 55.0998C78.432 54.3398 79.344 53.4278 80.332 52.5158C81.32 51.5278 82.536 50.4638 82.992 49.1718C83.296 48.1838 82.308 47.4238 81.396 47.8038Z" fill="#C5B5F2"/>
<path d="M64.752 70.528C64.524 70.072 64.068 69.692 63.612 69.388C63.156 69.084 62.7 68.932 62.168 68.78C61.94 68.704 61.788 68.628 61.56 68.552C61.56 68.552 61.56 68.552 61.484 68.552C61.408 68.552 61.256 68.476 61.18 68.4C61.028 68.324 60.876 68.248 60.724 68.096C60.724 68.096 60.648 68.096 60.572 68.02C60.42 67.868 60.344 67.792 60.192 67.64C60.192 67.64 60.04 67.488 60.04 67.412C59.964 67.26 59.812 67.108 59.66 66.956C59.66 66.956 59.508 66.652 59.66 66.88C59.736 67.108 59.508 66.652 59.508 66.652C59.508 66.576 59.356 66.424 59.28 66.348C59.28 66.348 59.28 66.348 59.204 66.272C59.204 66.272 59.204 66.272 59.204 66.348L58.9 65.892C58.748 65.664 58.444 65.588 58.216 65.436C57.912 65.284 57.532 65.436 57.38 65.588C56.544 66.348 56.772 67.792 57.228 68.704C57.608 69.54 58.444 70.376 59.204 70.908C60.04 71.516 61.028 71.744 62.016 71.972C62.472 72.124 62.852 72.2 63.232 72.352C63.384 72.352 63.536 72.352 63.688 72.428C63.688 72.428 63.764 72.428 63.84 72.428C64.068 72.428 64.22 72.58 64.448 72.58C64.752 72.58 65.056 72.428 65.132 72.124C65.284 71.668 65.056 71.136 64.828 70.756L64.752 70.528Z" fill="#DDD6F2"/>
<path d="M53.048 88.996C52.668 87.476 52.06 85.5 50.54 84.74C49.78 84.36 49.096 84.36 48.488 84.968C47.88 85.576 46.968 86.336 46.056 86.944C45.676 87.248 45.22 87.476 44.84 87.78C44.46 88.008 44.08 88.236 43.7 88.464C43.092 88.996 42.864 89.528 42.94 90.364C43.244 92.948 46.056 95.38 48.716 94.696C50.084 94.316 51.528 93.556 52.288 92.416C52.972 91.504 53.276 90.364 52.972 88.996H53.048Z" fill="#B897F0"/>
<path d="M44.536 87.628C44.916 87.4 45.296 87.096 45.6 86.868C46.436 86.184 47.272 85.424 48.26 84.892C48.716 84.664 49.248 84.436 49.704 84.436C50.92 84.436 51.68 85.652 52.136 86.564C53.124 88.312 53.656 90.668 52.364 92.416C51.528 93.556 50.16 94.316 48.792 94.696C46.132 95.456 43.396 92.948 43.016 90.364C43.016 89.832 43.016 89.376 43.244 88.92C43.548 88.464 44.004 88.084 44.46 87.704L44.536 87.628Z" stroke="black" stroke-width="2" stroke-linecap="round" stroke-linejoin="round"/>
<path d="M49.628 86.7919C51.072 86.4879 53.884 83.5239 53.884 83.5239C53.884 83.5239 53.352 87.9319 52.06 89.3759C49.932 88.9959 49.628 86.7919 49.628 86.7919Z" fill="white" stroke="black" stroke-width="2" stroke-linecap="round" stroke-linejoin="round"/>
<path d="M49.248 90.8198C49.248 90.5918 49.096 90.4398 49.02 90.2878C49.02 90.2118 48.868 90.0598 48.792 89.9838C48.716 89.9078 48.64 89.8318 48.564 89.7558C48.564 89.7558 48.564 89.7558 48.488 89.6798C48.488 89.6798 48.488 89.6798 48.412 89.6038C48.412 89.5278 48.336 89.4518 48.26 89.3758C48.26 89.3758 48.184 89.2238 48.108 89.2238C47.956 89.0718 47.728 88.9198 47.5 88.9958C47.196 89.0718 46.892 89.2238 46.74 89.5278C46.588 89.8318 46.512 90.1358 46.436 90.5158C46.436 90.6678 46.436 90.8958 46.436 91.0478C46.436 91.1998 46.588 91.4278 46.664 91.5798C46.74 91.7318 46.892 91.8838 46.968 92.0358C47.196 92.2638 47.424 92.4158 47.728 92.4918C47.956 92.4918 48.184 92.5678 48.412 92.4918C48.64 92.4918 48.792 92.3398 49.02 92.1878C49.02 92.1118 49.172 92.0358 49.248 91.9598C49.248 91.8838 49.324 91.7318 49.4 91.6558C49.4 91.4278 49.476 91.1998 49.4 90.9718L49.248 90.8198Z" fill="#C5B5F2"/>
<path d="M40.964 73.3402C40.812 72.3522 40.432 71.3642 39.824 70.5282C39.292 69.9202 38.608 69.4642 37.848 69.2362C36.252 68.6282 34.276 68.6282 32.832 69.5402C32.148 69.9202 31.692 70.3762 31.388 70.9082C30.172 72.9602 31.16 75.7722 32.756 77.6722C34.048 79.1162 35.872 80.4082 37.772 80.0282C38.456 79.8762 39.14 79.4962 39.596 79.0402C40.052 78.5842 40.432 78.0522 40.66 77.4442C41.192 76.1522 41.192 74.7842 40.964 73.4162V73.3402Z" fill="#B897F0"/>
<path d="M31.388 70.9082C31.692 70.3762 32.148 69.9202 32.832 69.5402C34.352 68.6282 36.252 68.6282 37.848 69.2362C38.608 69.5402 39.292 69.9202 39.824 70.5282C40.508 71.2882 40.812 72.2762 40.964 73.3402C41.192 74.7082 41.192 76.0762 40.66 77.3682C40.432 77.9762 40.052 78.5082 39.596 78.9642C39.064 79.4962 38.456 79.8002 37.772 79.9522C35.872 80.3322 34.048 79.0402 32.756 77.5962C31.16 75.7722 30.172 72.8842 31.388 70.8322V70.9082Z" stroke="black" stroke-width="2" stroke-linecap="round" stroke-linejoin="round"/>
<path d="M36.176 70.3759C39.748 68.0959 42.636 68.4759 42.636 68.4759L39.216 73.5679C39.216 73.5679 35.872 72.5799 36.176 70.3759Z" fill="white" stroke="black" stroke-width="2" stroke-linecap="round" stroke-linejoin="round"/>
<path d="M35.872 74.4802C35.872 74.2522 35.872 74.1002 35.72 73.8722C35.72 73.8722 35.72 73.7962 35.644 73.7202C35.568 73.5682 35.416 73.4162 35.264 73.2642C35.264 73.2642 35.264 73.2642 35.188 73.2642C35.188 73.2642 35.112 73.2642 35.036 73.1882C34.96 73.1122 34.884 73.0362 34.808 72.9602C34.808 72.9602 34.808 72.9602 34.732 72.9602C34.732 72.9602 34.58 72.8082 34.504 72.7322C34.504 72.7322 34.504 72.7322 34.504 72.6562C34.352 72.5042 34.2 72.4282 34.048 72.3522C34.048 72.3522 33.972 72.3522 33.896 72.2762C33.744 72.2002 33.516 72.1242 33.364 72.2762C33.136 72.2762 33.06 72.5042 32.984 72.6562C32.832 72.9602 32.756 73.3402 32.832 73.7202C32.908 74.0242 33.06 74.3282 33.212 74.5562C33.288 74.7082 33.364 74.7842 33.516 74.9362C33.592 75.0122 33.744 75.1642 33.82 75.2402C33.972 75.3922 34.124 75.5442 34.352 75.5442C34.504 75.5442 34.656 75.5442 34.808 75.5442C34.96 75.5442 35.112 75.5442 35.188 75.5442C35.416 75.5442 35.492 75.3922 35.644 75.3162C35.644 75.3162 35.72 75.2402 35.796 75.1642C35.872 75.0122 35.948 74.8602 35.948 74.7082L35.872 74.4802Z" fill="#C5B5F2"/>
<path d="M47.88 80.636C47.728 79.648 47.348 78.66 46.74 77.824C46.208 77.216 45.524 76.76 44.764 76.532C43.396 76 41.724 75.924 40.356 76.532C40.128 76.608 39.9 76.76 39.672 76.836C38.456 77.52 37.696 78.888 36.936 79.952C36.556 80.408 36.176 80.94 36.1 81.548C36.1 82.308 36.556 83.068 37.012 83.6C37.924 84.664 38.912 85.576 39.976 86.412C40.736 87.02 41.572 87.552 42.56 87.704C44.232 88.008 44.992 86.64 46.284 85.88C46.588 85.652 46.816 85.5 47.044 85.348C47.196 85.12 47.272 84.892 47.348 84.74C47.88 83.448 47.88 82.08 47.652 80.712L47.88 80.636Z" fill="#B897F0"/>
<path d="M44.384 87.4761C43.472 88.0841 42.712 88.4641 41.648 88.0841C39.216 87.3241 37.24 84.8921 36.556 82.4601C36.404 82.0041 36.328 81.6241 36.404 81.1681C36.936 78.8121 39.596 77.2161 41.724 76.6841C43.852 76.1521 44.46 76.3041 45.676 76.9121C48.26 78.1281 49.02 81.9281 47.804 84.3601C46.968 85.9561 45.828 86.6401 44.384 87.5521V87.4761Z" stroke="black" stroke-width="2" stroke-linecap="round" stroke-linejoin="round"/>
<path d="M43.472 78.5081C44.84 76.5321 50.008 76.4561 50.008 76.4561C50.008 76.4561 47.348 81.0921 46.588 81.3201C45.828 81.5481 43.396 80.0281 43.548 78.5081H43.472Z" fill="white" stroke="black" stroke-width="2" stroke-linecap="round" stroke-linejoin="round"/>
<path d="M43.244 82.6122C43.244 82.4602 43.092 82.3082 43.016 82.1562C42.864 82.0042 42.712 81.8522 42.56 81.7762C42.408 81.6242 42.256 81.5482 42.104 81.3962C42.104 81.3962 41.952 81.3202 41.876 81.2442C41.876 81.2442 41.876 81.2442 41.8 81.2442C41.8 81.2442 41.8 81.2442 41.724 81.2442C41.496 81.0922 41.268 81.0162 41.04 80.7882C40.964 80.7882 40.812 80.7122 40.66 80.6362C40.508 80.6362 40.432 80.6362 40.28 80.7122C40.052 80.8642 39.9 81.0922 39.9 81.3202C39.9 81.4722 39.9 81.7002 39.9 81.8522C39.9 82.0042 39.9 82.2322 39.9 82.3842C39.9 82.6122 39.976 82.7642 40.128 82.9162C40.128 82.9922 40.204 83.0682 40.28 83.1442C40.356 83.2962 40.432 83.4482 40.584 83.5242C40.736 83.6002 40.812 83.7522 40.964 83.8282C41.192 84.0562 41.496 84.2082 41.8 84.2842C41.952 84.2842 42.028 84.2842 42.18 84.2842C42.332 84.2842 42.56 84.2842 42.712 84.2082C42.788 84.2082 42.94 84.1322 43.016 84.0562C43.168 83.9802 43.32 83.8282 43.396 83.6762C43.396 83.6002 43.472 83.4482 43.548 83.3722C43.548 83.2202 43.548 83.1442 43.548 82.9922C43.548 82.8402 43.548 82.6122 43.472 82.4602L43.244 82.6122Z" fill="#C5B5F2"/>
<path d="M73.416 72.276C76.076 69.464 99.94 56.544 100.016 56.544C102.068 47.348 88.996 36.86 84.208 39.064C83.904 39.52 69.54 54.264 67.108 55.784C64.296 57.532 65.056 56.24 62.548 54.112C57.836 50.084 54.036 47.956 49.172 50.768C48.412 51.224 47.804 51.756 47.272 52.288C44.536 55.252 45.676 58.976 48.64 60.952C51.604 62.928 55.708 62.244 59.432 61.56C59.736 63.84 59.736 63.992 62.396 65.968C64.524 67.64 66.804 69.008 69.084 70.452C71.364 71.896 71.136 71.896 72.352 72.276C72.58 72.352 72.808 72.428 73.112 72.428C73.796 72.428 74.328 71.972 74.86 71.592C75.012 71.44 76.152 73.72 76.228 73.948C76.532 74.86 76.76 75.772 76.76 76.684C76.76 78.28 76.228 80.484 75.012 81.624C73.72 82.764 71.288 83.22 69.768 82.308C69.16 81.928 68.628 81.472 68.096 81.016C67.108 80.256 67.412 81.928 67.944 82.384C68.78 83.068 69.692 83.752 70.604 84.436C70.68 84.512 70.832 84.588 70.832 84.74C70.832 84.816 70.832 84.892 70.832 85.044C70.376 88.16 67.26 90.592 64.068 90.06C62.776 89.832 61.56 89.148 60.572 88.312C59.584 87.476 58.368 85.956 57.912 86.488C57.228 87.324 58.9 88.312 59.28 88.768C60.04 89.604 61.332 90.516 61.636 91.58C61.94 92.644 60.876 94.24 59.736 94.772C58.976 95.152 57.684 95.228 56.848 95.228C55.024 95.228 53.124 94.468 51.756 93.176" stroke="black" stroke-width="2" stroke-linecap="round" stroke-linejoin="round"/>
</svg>
