<svg width="213" height="118" viewBox="0 0 213 118" fill="none" xmlns="http://www.w3.org/2000/svg">
<g clip-path="url(#clip0_2825_29531)">
<path d="M98.7901 -91.3501C102.39 -96.1677 109.61 -96.1677 113.21 -91.3501L123.844 -77.1167C126.334 -73.7846 130.783 -72.5925 134.605 -74.2335L150.931 -81.2427C156.457 -83.6152 162.711 -80.0047 163.419 -74.0329L165.512 -56.3891C166.002 -52.2586 169.259 -49.002 173.389 -48.512L191.033 -46.419C197.005 -45.7106 200.615 -39.4571 198.243 -33.9311L191.233 -17.6047C189.593 -13.7826 190.785 -9.33392 194.117 -6.84433L208.35 3.79013C213.168 7.38956 213.168 14.6104 208.35 18.2099L194.117 28.8443C190.785 31.3339 189.593 35.7826 191.233 39.6047L198.243 55.9311C200.615 61.4571 197.005 67.7106 191.033 68.419L173.389 70.512C169.259 71.002 166.002 74.2586 165.512 78.3891L163.419 96.0329C162.711 102.005 156.457 105.615 150.931 103.243L134.605 96.2335C130.783 94.5925 126.334 95.7846 123.844 99.1167L113.21 113.35C109.61 118.168 102.39 118.168 98.7901 113.35L88.1557 99.1167C85.6661 95.7846 81.2174 94.5925 77.3953 96.2335L61.0689 103.243C55.5429 105.615 49.2894 102.005 48.581 96.0329L46.488 78.3891C45.998 74.2586 42.7414 71.002 38.6109 70.512L20.9671 68.419C14.9953 67.7106 11.3848 61.4571 13.7573 55.9311L20.7665 39.6047C22.4075 35.7826 21.2154 31.3339 17.8833 28.8443L3.64988 18.2099C-1.16769 14.6104 -1.1677 7.38956 3.64987 3.79014L17.8833 -6.84432C21.2154 -9.33391 22.4075 -13.7826 20.7665 -17.6047L13.7573 -33.9311C11.3848 -39.4571 14.9953 -45.7106 20.9671 -46.419L38.6109 -48.512C42.7414 -49.002 45.998 -52.2586 46.488 -56.3891L48.581 -74.0329C49.2894 -80.0047 55.5429 -83.6152 61.0689 -81.2427L77.3953 -74.2335C81.2174 -72.5925 85.6661 -73.7846 88.1557 -77.1167L98.7901 -91.3501Z" fill="#88DEFF"/>
<path d="M98.7901 -75.3501C102.39 -80.1677 109.61 -80.1677 113.21 -75.3501L120.689 -65.3401C123.178 -62.008 127.627 -60.816 131.449 -62.4569L142.931 -67.3863C148.457 -69.7588 154.711 -66.1483 155.419 -60.1765L156.891 -47.7681C157.381 -43.6376 160.638 -40.3809 164.768 -39.8909L177.176 -38.419C183.148 -37.7106 186.759 -31.4571 184.386 -25.9311L179.457 -14.4492C177.816 -10.6271 179.008 -6.1784 182.34 -3.68881L192.35 3.79013C197.168 7.38956 197.168 14.6104 192.35 18.2099L182.34 25.6888C179.008 28.1784 177.816 32.6271 179.457 36.4492L184.386 47.9311C186.759 53.4571 183.148 59.7106 177.176 60.419L164.768 61.8909C160.638 62.3809 157.381 65.6376 156.891 69.7681L155.419 82.1765C154.711 88.1483 148.457 91.7588 142.931 89.3863L131.449 84.4569C127.627 82.816 123.178 84.008 120.689 87.3401L113.21 97.3501C109.61 102.168 102.39 102.168 98.7901 97.3501L91.3112 87.3401C88.8216 84.008 84.3729 82.816 80.5508 84.4569L69.0689 89.3863C63.5429 91.7588 57.2894 88.1483 56.581 82.1765L55.1091 69.7681C54.6191 65.6376 51.3624 62.3809 47.2319 61.8909L34.8235 60.419C28.8517 59.7106 25.2412 53.4571 27.6137 47.9311L32.5431 36.4492C34.184 32.6271 32.992 28.1784 29.6599 25.6888L19.6499 18.2099C14.8323 14.6104 14.8323 7.38956 19.6499 3.79014L29.6599 -3.6888C32.992 -6.1784 34.184 -10.6271 32.5431 -14.4492L27.6137 -25.9311C25.2412 -31.4571 28.8517 -37.7106 34.8235 -38.419L47.2319 -39.8909C51.3624 -40.3809 54.6191 -43.6376 55.1091 -47.7681L56.581 -60.1765C57.2894 -66.1483 63.5429 -69.7588 69.0689 -67.3863L80.5508 -62.4569C84.3729 -60.816 88.8216 -62.008 91.3112 -65.3401L98.7901 -75.3501Z" fill="#70D4FF"/>
</g>
<defs>
<clipPath id="clip0_2825_29531">
<rect width="213" height="118" fill="white"/>
</clipPath>
</defs>
</svg>
