<svg width="192" height="34" viewBox="0 0 192 34" fill="none" xmlns="http://www.w3.org/2000/svg">
<path d="M59.3596 32.6232C57.1007 32.6232 55.8809 31.4034 55.8809 29.1896V4.43211C55.8809 2.21839 57.1007 0.998582 59.3596 0.998582H68.3952C78.0632 0.998582 84.4785 7.27832 84.4785 16.8109C84.4785 26.3434 78.0632 32.6232 68.3952 32.6232H59.3596ZM68.3952 27.0211C74.2231 27.0211 78.1536 22.9551 78.1536 16.8109C78.1536 10.6667 74.1779 6.60065 68.3952 6.60065H62.2058V27.0211H68.3952Z" fill="white"/>
<path d="M84.4354 21.5094C84.4354 14.1905 89.7213 9.71793 96.2721 9.71793C103.817 9.71793 107.657 14.5971 107.657 19.8378C107.657 22.3678 106.573 23.452 104.133 23.452H90.5345C90.9862 26.5693 93.7421 28.1054 96.8142 28.1054C98.9376 28.1054 100.7 27.2018 102.01 26.4338C102.597 26.1175 103.275 25.8013 104.223 25.8013C105.398 25.8013 106.437 26.5693 106.437 27.8795C106.437 29.0541 105.669 30.0932 104.63 30.9064C102.642 32.3973 99.3894 33.2105 96.769 33.2105C89.5857 33.2105 84.4354 28.9186 84.4354 21.5094ZM90.5796 19.2053H101.874C101.558 16.4043 99.8411 14.6423 96.4076 14.6423C93.3807 14.6423 91.0314 16.2236 90.5796 19.2053Z" fill="white"/>
<path d="M117.473 33.2105C113.045 33.2105 110.334 30.7709 110.334 24.7622V15.2296H109.16C107.082 15.2296 105.952 14.3713 105.952 12.79C105.952 11.1636 107.082 10.3052 109.16 10.3052H110.334V6.64583C110.334 4.2514 111.825 3.03159 113.316 3.03159C114.807 3.03159 116.298 4.2514 116.298 6.64583V10.3052H119.822C122.081 10.3052 123.255 11.1636 123.255 12.79C123.255 14.3713 122.081 15.2296 119.822 15.2296H116.298V24.717C116.298 26.8856 116.976 27.9698 118.195 27.9698C119.506 27.9698 119.822 26.8404 121.358 26.8404C122.713 26.8404 123.436 27.7439 123.436 29.0089C123.436 29.7318 123.21 30.4094 122.804 30.9968C121.81 32.3973 119.777 33.2105 117.473 33.2105Z" fill="white"/>
<path d="M133.16 33.1653C126.473 33.1653 122.362 28.015 122.362 21.4642C122.362 14.9134 126.473 9.71793 133.16 9.71793C136.683 9.71793 139.439 11.2992 140.975 13.5581V12.9707C140.975 10.9829 141.969 9.89864 143.731 9.89864C145.538 9.89864 146.532 10.9829 146.532 12.9707V29.9125C146.532 31.9003 145.493 32.9846 143.776 32.9846C141.969 32.9846 140.975 31.9003 140.975 29.8673V29.3252C139.259 31.6292 136.412 33.1653 133.16 33.1653ZM134.425 27.9246C138.129 27.9246 140.524 25.1236 140.524 21.4642C140.524 17.8048 138.129 14.9134 134.425 14.9134C130.72 14.9134 128.325 17.8048 128.325 21.4642C128.325 25.1236 130.72 27.9246 134.425 27.9246Z" fill="white"/>
<path d="M159.354 33.1653C151.719 33.1653 147.789 27.7891 147.789 21.4642C147.789 15.1393 151.9 9.71793 159.399 9.71793C164.233 9.71793 168.661 12.5641 168.661 15.5007C168.661 17.0368 167.577 17.85 166.266 17.85C165.363 17.85 164.595 17.353 163.601 16.4946C162.381 15.4104 161.116 14.9586 159.49 14.9586C155.695 14.9586 153.752 18.2114 153.752 21.4642C153.752 24.717 155.695 27.9246 159.535 27.9246C160.981 27.9246 162.381 27.518 163.737 26.2982C164.64 25.5302 165.498 24.9881 166.447 24.9881C167.622 24.9881 168.706 25.9368 168.706 27.247C168.706 30.2739 164.008 33.1653 159.354 33.1653Z" fill="white"/>
<path d="M172.745 32.9846C170.757 32.9846 169.718 31.81 169.718 29.5511V4.02551C169.718 1.81179 170.757 0.59198 172.745 0.59198C174.687 0.59198 175.726 1.81179 175.726 4.02551V13.0159C177.443 10.9377 179.838 9.71793 182.729 9.71793C188.421 9.71793 191.99 13.8291 191.99 20.154V29.5511C191.99 31.81 190.951 32.9846 189.009 32.9846C187.066 32.9846 185.982 31.81 185.982 29.5511V20.5155C185.982 17.0819 184.22 14.9586 181.238 14.9586C177.94 14.9586 175.726 17.4434 175.726 20.8769V29.5511C175.726 31.81 174.687 32.9846 172.745 32.9846Z" fill="white"/>
<path d="M28.1772 20.5392C30.7175 15.1725 39.5065 18.7633 43.5834 21.2296L46.7856 26.1994C42.8539 33.4 36.7542 32.8442 34.1957 31.6662C31.131 30.1936 25.6371 25.9065 28.1772 20.5392ZM33.9682 19.2619C31.8611 19.2067 29.8646 20.9253 29.5873 23.0324C29.3655 24.7515 30.3088 26.5267 31.8061 27.3586C32.5824 27.7466 33.5251 27.9122 34.3569 27.6349C35.1331 27.3576 35.799 26.6375 36.0209 25.8058C36.2427 24.9741 36.0208 24.0308 35.5219 23.3654C35.1892 22.9217 34.6339 22.5888 34.0238 22.5334C33.414 22.478 32.8039 22.866 32.6928 23.4757C32.5819 23.6421 32.5819 23.8094 32.6928 23.9757C32.8037 24.142 32.9708 24.2521 33.1371 24.2521C33.4697 24.2519 33.6363 23.9196 33.9135 23.8087C34.2461 23.6982 34.6336 23.9755 34.7445 24.3634C34.9109 24.8625 34.6345 25.4731 34.1908 25.8058C33.7472 26.1385 33.137 26.1379 32.5824 25.9162C32.028 25.6944 31.6392 25.2511 31.4174 24.7521C30.9738 23.7539 31.1408 22.5334 31.8617 21.757C32.9708 20.5927 35.0224 20.5923 36.1869 21.6457C37.3512 22.699 38.2884 22.5335 38.6049 22.0343C38.9885 21.4285 38.2152 19.3736 33.9682 19.2619Z" fill="white"/>
<path d="M19.4707 28.024C19.4707 29.1259 20.9973 31.7712 23.3662 31.7712C25.7351 31.7712 27.3332 29.2772 27.3332 28.024C27.3332 26.5465 24.798 26.3927 23.3662 26.3927C22.0896 26.3927 19.5562 26.5136 19.4707 28.024Z" fill="white"/>
<path d="M23.3691 25.2458L22.7289 25.0712C22.5985 25.0356 22.5033 24.9249 22.4849 24.791C22.1411 22.2829 20.682 17.2448 17.295 15.487C13.8051 13.6758 7.72365 15.6711 5.11914 16.8951L6.58245 13.9961C5.60691 10.8946 4.50621 4.13393 7.90771 1.90308C11.3092 -0.32778 16.2642 5.20702 18.3165 8.25328C18.3165 8.25328 20.2768 7.83922 23.3967 7.83922C26.5166 7.83922 28.4769 8.25328 28.4769 8.25328C30.5292 5.20702 35.4842 -0.32778 38.8857 1.90308C42.2872 4.13393 41.1865 10.8946 40.2109 13.9961L41.6743 16.8951C39.0697 15.6711 32.9883 13.6758 29.4984 15.487C26.1114 17.2448 24.6523 22.2829 24.3085 24.791C24.2901 24.9249 24.1949 25.0356 24.0645 25.0712L23.4243 25.2458H23.3691Z" fill="white"/>
<path d="M3.21484 21.2298C7.29198 18.7634 16.0811 15.1723 18.6211 20.5394C21.1612 25.9067 15.6662 30.1939 12.6016 31.6664C10.043 32.8443 3.94332 33.4 0.0117188 26.1996L3.21484 21.2298ZM13.0225 19.2621C8.77545 19.3738 8.00216 21.4287 8.38574 22.0345C8.70225 22.5337 9.63947 22.6992 10.8037 21.6459C11.9682 20.5924 14.0198 20.5929 15.1289 21.7572C15.8498 22.5336 16.0169 23.7541 15.5732 24.7523C15.3514 25.2513 14.9626 25.6946 14.4082 25.9164C13.8537 26.1381 13.2434 26.1377 12.7998 25.805C12.3565 25.4722 12.0798 24.8625 12.2461 24.3636C12.357 23.9757 12.7445 23.6984 13.0771 23.8089C13.3543 23.9198 13.521 24.2521 13.8535 24.2523C14.0198 24.2523 14.1869 24.1422 14.2979 23.9759C14.4088 23.8096 14.4088 23.6423 14.2979 23.4759C14.1868 22.8662 13.5766 22.4782 12.9668 22.5336C12.3568 22.589 11.8025 22.922 11.4697 23.3656C10.9707 24.0309 10.7481 24.9733 10.9697 25.805C11.1915 26.6368 11.8575 27.3578 12.6338 27.6351C13.4656 27.9124 14.4082 27.746 15.1846 27.3578C16.6819 26.5259 17.6251 24.7517 17.4033 23.0326C17.126 20.9254 15.1296 19.2068 13.0225 19.2621Z" fill="white"/>
</svg>
