<svg width="179" height="31" viewBox="0 0 179 31" fill="none" xmlns="http://www.w3.org/2000/svg">
<path d="M55.3406 29.9757C53.2346 29.9757 52.0974 28.8342 52.0974 26.7625V3.5937C52.0974 1.52204 53.2346 0.38051 55.3406 0.38051H63.7644C72.7779 0.38051 78.7588 6.25727 78.7588 15.1781C78.7588 24.0989 72.7779 29.9757 63.7644 29.9757H55.3406ZM63.7644 24.7331C69.1977 24.7331 72.8621 20.928 72.8621 15.1781C72.8621 9.42818 69.1556 5.62308 63.7644 5.62308H57.9941V24.7331H63.7644Z" fill="#211C28"/>
<path d="M78.7186 19.5751C78.7186 12.7259 83.6465 8.54032 89.7538 8.54032C96.7877 8.54032 100.368 13.1064 100.368 18.0108C100.368 20.3784 99.3569 21.3931 97.0825 21.3931H84.4047C84.8259 24.3103 87.3951 25.7478 90.2592 25.7478C92.2388 25.7478 93.8815 24.9022 95.1029 24.1835C95.6505 23.8875 96.2823 23.5916 97.1668 23.5916C98.2619 23.5916 99.2306 24.3103 99.2306 25.5364C99.2306 26.6357 98.5146 27.6081 97.5458 28.3691C95.6926 29.7643 92.66 30.5253 90.2171 30.5253C83.5202 30.5253 78.7186 26.5088 78.7186 19.5751ZM84.4468 17.4189H94.9766C94.6817 14.7976 93.0812 13.1487 89.8802 13.1487C87.0582 13.1487 84.868 14.6285 84.4468 17.4189Z" fill="#211C28"/>
<path d="M109.519 30.5253C105.391 30.5253 102.864 28.2423 102.864 22.6192V13.6983H101.769C99.8314 13.6983 98.7785 12.895 98.7785 11.4153C98.7785 9.89324 99.8314 9.08995 101.769 9.08995H102.864V5.66536C102.864 3.42459 104.254 2.28306 105.644 2.28306C107.034 2.28306 108.424 3.42459 108.424 5.66536V9.08995H111.709C113.815 9.08995 114.91 9.89324 114.91 11.4153C114.91 12.895 113.815 13.6983 111.709 13.6983H108.424V22.5769C108.424 24.6063 109.056 25.621 110.193 25.621C111.414 25.621 111.709 24.564 113.141 24.564C114.405 24.564 115.079 25.4096 115.079 26.5934C115.079 27.2698 114.868 27.904 114.489 28.4536C113.562 29.7643 111.667 30.5253 109.519 30.5253Z" fill="#211C28"/>
<path d="M124.144 30.483C117.91 30.483 114.077 25.6632 114.077 19.5328C114.077 13.4024 117.91 8.54032 124.144 8.54032C127.429 8.54032 129.998 10.0201 131.43 12.134V11.5844C131.43 9.72413 132.357 8.70944 134 8.70944C135.684 8.70944 136.611 9.72413 136.611 11.5844V27.439C136.611 29.2992 135.642 30.3139 134.042 30.3139C132.357 30.3139 131.43 29.2992 131.43 27.3967V26.8893C129.83 29.0456 127.176 30.483 124.144 30.483ZM125.323 25.5787C128.777 25.5787 131.009 22.9574 131.009 19.5328C131.009 16.1082 128.777 13.4024 125.323 13.4024C121.869 13.4024 119.637 16.1082 119.637 19.5328C119.637 22.9574 121.869 25.5787 125.323 25.5787Z" fill="#211C28"/>
<path d="M148.565 30.483C141.447 30.483 137.782 25.4519 137.782 19.5328C137.782 13.6138 141.615 8.54032 148.607 8.54032C153.114 8.54032 157.241 11.2039 157.241 13.952C157.241 15.3895 156.23 16.1505 155.009 16.1505C154.167 16.1505 153.451 15.6854 152.524 14.8821C151.387 13.8675 150.207 13.4447 148.691 13.4447C145.153 13.4447 143.342 16.4887 143.342 19.5328C143.342 22.5769 145.153 25.5787 148.733 25.5787C150.081 25.5787 151.387 25.1982 152.65 24.0566C153.493 23.3379 154.293 22.8306 155.178 22.8306C156.273 22.8306 157.283 23.7184 157.283 24.9445C157.283 27.7772 152.903 30.483 148.565 30.483Z" fill="#211C28"/>
<path d="M161.049 30.3139C159.195 30.3139 158.227 29.2147 158.227 27.1007V3.21319C158.227 1.14153 159.195 0 161.049 0C162.86 0 163.828 1.14153 163.828 3.21319V11.6267C165.429 9.68185 167.661 8.54032 170.357 8.54032C175.664 8.54032 178.991 12.3877 178.991 18.3067V27.1007C178.991 29.2147 178.022 30.3139 176.211 30.3139C174.4 30.3139 173.389 29.2147 173.389 27.1007V18.645C173.389 15.4318 171.747 13.4447 168.967 13.4447C165.892 13.4447 163.828 15.77 163.828 18.9832V27.1007C163.828 29.2147 162.86 30.3139 161.049 30.3139Z" fill="#211C28"/>
<path d="M26.2678 18.6679C28.6359 13.6451 36.8301 17.0053 40.6311 19.3135L43.6174 23.9638C39.9519 30.7024 34.2644 30.1825 31.8791 29.0801C29.022 27.702 23.9003 23.6905 26.2678 18.6679ZM31.6672 17.4717C29.7027 17.42 27.8417 19.029 27.5832 21.001C27.3767 22.6096 28.2558 24.2704 29.6516 25.0488C30.3753 25.412 31.2541 25.567 32.0295 25.3076C32.7532 25.0481 33.3734 24.3739 33.5803 23.5957C33.7871 22.8172 33.5808 21.9343 33.1155 21.3115C32.8052 20.8964 32.2876 20.5851 31.719 20.5332C31.1504 20.4815 30.5821 20.8453 30.4787 21.416C30.3754 21.5716 30.3754 21.7271 30.4787 21.8828C30.5821 22.0383 30.7369 22.1424 30.8918 22.1426C31.2018 22.1426 31.3573 21.8315 31.6155 21.7275C31.9257 21.6237 32.2884 21.8828 32.3918 22.2461C32.5468 22.7131 32.2878 23.2843 31.8742 23.5957C31.4607 23.9068 30.8921 23.9067 30.3752 23.6992C29.8582 23.4916 29.4961 23.0764 29.2893 22.6094C28.8757 21.6752 29.0312 20.5332 29.7033 19.8066C30.7374 18.7171 32.6499 18.7172 33.7356 19.7031C34.8211 20.689 35.6955 20.5336 35.9905 20.0664C36.3481 19.4994 35.6267 17.5763 31.6672 17.4717Z" fill="#211C28"/>
<path d="M18.1519 25.6721C18.1519 26.7033 19.5751 29.1788 21.7836 29.1788C23.9921 29.1788 25.482 26.8449 25.482 25.6721C25.482 24.2894 23.1185 24.1455 21.7836 24.1455C20.5935 24.1455 18.2316 24.2586 18.1519 25.6721Z" fill="#211C28"/>
<path d="M21.7865 23.0722L21.1903 22.909C21.0684 22.8756 20.9793 22.7719 20.9622 22.6467C20.6416 20.2995 19.2813 15.5847 16.1236 13.9397C12.8701 12.2447 7.20038 14.1119 4.77222 15.2574L6.13645 12.5444C5.22696 9.64194 4.20078 3.31512 7.37198 1.22742C10.5432 -0.860279 15.1627 4.31935 17.076 7.17012C17.076 7.17012 18.9036 6.78263 21.8122 6.78263C24.7209 6.78263 26.5484 7.17012 26.5484 7.17012C28.4618 4.31935 33.0813 -0.860279 36.2525 1.22742C39.4237 3.31512 38.3975 9.64194 37.488 12.5444L38.8522 15.2574C36.4241 14.1119 30.7544 12.2447 27.5008 13.9397C24.3431 15.5847 22.9828 20.2995 22.6623 22.6467C22.6452 22.7719 22.5561 22.8756 22.4342 22.909L21.838 23.0722H21.7865Z" fill="#211C28"/>
<path d="M2.99585 19.3135C6.79682 17.0053 14.991 13.6451 17.3591 18.6679C19.7269 23.6907 14.6049 27.7021 11.7478 29.0801C9.36253 30.1824 3.67594 30.7023 0.010498 23.9638L2.99585 19.3135ZM12.1394 17.4717C8.18029 17.5764 7.45954 19.4994 7.81714 20.0664C8.11212 20.5336 8.98649 20.689 10.072 19.7031C11.1577 18.7173 13.0702 18.7171 14.1042 19.8066C14.7763 20.5332 14.9319 21.6752 14.5183 22.6094C14.3115 23.0764 13.9494 23.4916 13.4324 23.6992C12.9155 23.9067 12.3469 23.9068 11.9333 23.5957C11.5198 23.2843 11.2607 22.7131 11.4158 22.2461C11.5192 21.8829 11.881 21.6239 12.1912 21.7275C12.4497 21.8313 12.6056 22.1426 12.9158 22.1426C13.0707 22.1423 13.2256 22.0383 13.3289 21.8828C13.4322 21.7272 13.4321 21.5716 13.3289 21.416C13.2255 20.8451 12.6564 20.4813 12.0876 20.5332C11.5192 20.5852 11.0023 20.8966 10.6921 21.3115C10.2268 21.9343 10.0205 22.8172 10.2273 23.5957C10.4342 24.374 11.0544 25.0482 11.7781 25.3076C12.5535 25.567 13.4323 25.412 14.156 25.0488C15.5518 24.2704 16.431 22.6096 16.2244 21.001C15.9659 19.0289 14.104 17.4198 12.1394 17.4717Z" fill="#211C28"/>
</svg>
