<svg width="24" height="24" viewBox="0 0 24 24" fill="none" xmlns="http://www.w3.org/2000/svg">
<path d="M21.3542 16.487C20.0162 15.981 19.1212 14.766 19.0202 13.317C18.9212 11.905 19.6132 10.651 20.8712 9.962L21.9172 9.389L21.1702 8.459C19.9152 6.896 18.1192 5.962 16.3662 5.962C15.1512 5.962 14.3082 6.28 13.6312 6.536C13.1532 6.717 12.7762 6.859 12.3622 6.859C11.8902 6.859 11.4242 6.693 10.8842 6.501C10.1762 6.249 9.37422 5.963 8.34422 5.963C6.35422 5.963 4.34722 7.151 3.10722 9.061C1.25622 11.91 1.76422 16.795 4.31522 20.677C5.32622 22.215 6.74322 23.982 8.75022 24C8.76322 24 8.77622 24 8.78922 24C10.4322 24 10.7922 23.124 12.3872 23.114C14.1292 23.196 14.3492 24.007 15.9762 23.996C17.9372 23.978 19.3512 22.225 20.4752 20.512C21.1392 19.505 21.3962 18.978 21.9132 17.834L22.3512 16.864L21.3542 16.487Z" fill="#211C28"/>
<path d="M15.1012 3.45C15.7512 2.616 16.2442 1.439 16.0652 0.236C15.0032 0.309 13.7632 0.984 13.0382 1.864C12.3802 2.663 11.8372 3.847 12.0482 4.999C13.2062 5.035 14.4052 4.343 15.1012 3.45Z" fill="#211C28"/>
</svg>
