<svg width="273" height="273" viewBox="0 0 273 273" fill="none" xmlns="http://www.w3.org/2000/svg">
<path d="M164.619 221.312C161.707 221.312 158.886 221.312 156.065 221.312C143.416 221.039 131.859 220.584 122.395 219.856C119.665 219.674 117.117 219.401 114.751 219.219C112.385 218.946 110.201 218.673 108.29 218.4C106.652 218.127 105.105 217.945 103.831 217.672C102.375 217.399 101.101 217.126 100.191 216.762C98.4622 216.216 97.4612 215.579 97.4612 215.033V227.5C97.4612 228.41 103.558 232.505 107.653 233.324C151.606 241.878 182 238.056 182.91 238.056V220.948C179.27 220.948 168.441 221.312 164.619 221.312Z" fill="#ECD050"/>
<path d="M182.364 226.044V238.511C185.276 238.42 193.193 238.329 195.923 238.147C199.654 237.965 200.2 237.692 203.476 237.51C204.75 237.419 205.933 237.328 207.116 237.237V223.86C200.109 224.224 190.736 225.953 182.364 226.135V226.044Z" fill="white"/>
<path d="M202.566 223.951C200.109 224.133 204.932 224.315 202.202 224.497L203.203 236.145C204.568 236.054 209.027 235.872 210.301 235.781C212.758 235.508 210.301 235.235 212.212 234.962C212.667 234.962 213.122 234.871 213.486 234.78L212.758 223.678C211.393 223.769 204.113 223.951 202.566 224.042V223.951Z" fill="#ECD050"/>
<path d="M226.226 232.05C227.773 231.504 231.686 228.228 231.686 227.682V215.215C231.686 215.852 230.503 216.58 228.319 217.126H228.137C227.409 217.308 226.499 217.49 225.498 217.672C223.951 217.945 228.137 218.309 226.135 218.582C225.589 218.582 220.857 221.585 220.311 221.676L222.222 233.142C222.313 233.142 226.226 231.959 226.226 231.959V232.05Z" fill="#ECD050"/>
<path d="M220.311 221.676L211.757 222.131L213.395 234.689C214.578 234.507 221.403 233.051 221.403 233.051L220.311 221.676Z" fill="white"/>
<path d="M156.065 226.226C143.416 225.953 131.859 225.134 122.395 223.86C119.665 223.496 117.117 223.132 114.751 222.677C112.385 222.222 110.201 221.767 108.29 221.312C106.652 220.857 105.105 220.493 103.831 220.038C102.375 219.492 101.101 219.037 100.191 218.4C98.4622 217.399 97.4612 216.398 97.4612 215.306C97.4612 209.209 127.491 204.204 164.619 204.204C201.747 204.204 231.777 209.209 231.777 215.306C231.777 221.403 230.503 217.763 228.228 218.855C227.5 219.219 226.59 219.583 225.589 219.947C224.042 220.493 222.313 221.039 220.311 221.494C218.582 221.949 216.762 222.313 214.76 222.677C212.394 223.132 209.846 223.496 207.116 223.86C195.559 225.407 180.726 226.408 164.619 226.408C148.512 226.408 158.886 226.408 156.065 226.408V226.226Z" fill="#FDEA80"/>
<path d="M231.686 215.215C231.686 216.489 230.412 217.672 228.137 218.764C227.409 219.128 226.499 219.492 225.498 219.856C223.951 220.402 222.222 220.948 220.22 221.403C218.491 221.858 216.671 222.222 214.669 222.586C212.303 223.041 209.755 223.405 207.025 223.769C195.468 225.316 180.635 226.317 164.528 226.317C148.421 226.317 158.795 226.317 155.974 226.317C143.325 226.044 131.768 225.225 122.304 223.951C119.574 223.587 117.026 223.223 114.66 222.768C112.294 222.313 110.11 221.858 108.199 221.403C106.561 220.948 105.014 220.584 103.74 220.129C102.284 219.583 101.01 219.128 100.1 218.491C98.3711 217.49 97.3701 216.489 97.3701 215.397C97.3701 209.3 127.4 204.295 164.528 204.295C201.656 204.295 231.686 209.3 231.686 215.397V215.215Z" stroke="black" stroke-width="2" stroke-linecap="round" stroke-linejoin="round"/>
<path d="M231.686 227.591C231.686 228.865 230.412 230.048 228.137 231.14C227.409 231.504 226.499 231.868 225.498 232.232C223.951 232.778 222.222 233.324 220.22 233.779C218.491 234.234 216.671 234.598 214.669 234.962C212.303 235.417 209.755 235.781 207.025 236.145C195.468 237.692 180.635 238.693 164.528 238.693C148.421 238.693 158.795 238.693 155.974 238.693C143.325 238.42 131.768 237.601 122.304 236.327C119.574 235.963 117.026 235.599 114.66 235.144C112.294 234.689 110.11 234.234 108.199 233.779C106.561 233.324 105.014 232.96 103.74 232.505C102.284 231.959 101.01 231.504 100.1 230.867C98.3711 229.866 97.3701 228.865 97.3701 227.773" stroke="black" stroke-width="2" stroke-linecap="round" stroke-linejoin="round"/>
<path d="M97.4612 215.215V227.591" stroke="black" stroke-width="2" stroke-linecap="round" stroke-linejoin="round"/>
<path d="M231.686 215.215V227.591" stroke="black" stroke-width="2" stroke-linecap="round" stroke-linejoin="round"/>
<path d="M229.32 218.491V230.594" stroke="black" stroke-width="2" stroke-linecap="round" stroke-linejoin="round"/>
<path d="M225.68 219.856V231.686" stroke="black" stroke-width="2" stroke-linecap="round" stroke-linejoin="round"/>
<path d="M221.221 221.403V232.96" stroke="black" stroke-width="2" stroke-linecap="round" stroke-linejoin="round"/>
<path d="M214.669 222.586V234.689" stroke="black" stroke-width="2" stroke-linecap="round" stroke-linejoin="round"/>
<path d="M207.025 223.769V235.872" stroke="black" stroke-width="2" stroke-linecap="round" stroke-linejoin="round"/>
<path d="M100.191 218.309V230.776" stroke="black" stroke-width="2" stroke-linecap="round" stroke-linejoin="round"/>
<path d="M103.831 219.947V232.323" stroke="black" stroke-width="2" stroke-linecap="round" stroke-linejoin="round"/>
<path d="M108.29 221.221V233.688" stroke="black" stroke-width="2" stroke-linecap="round" stroke-linejoin="round"/>
<path d="M114.751 222.677V235.053" stroke="black" stroke-width="2" stroke-linecap="round" stroke-linejoin="round"/>
<path d="M122.395 223.86V236.236" stroke="black" stroke-width="2" stroke-linecap="round" stroke-linejoin="round"/>
<path d="M131.677 224.861V237.055" stroke="black" stroke-width="2" stroke-linecap="round" stroke-linejoin="round"/>
<path d="M142.688 225.862V238.056" stroke="black" stroke-width="2" stroke-linecap="round" stroke-linejoin="round"/>
<path d="M156.065 226.226V226.317V238.693" stroke="black" stroke-width="2" stroke-linecap="round" stroke-linejoin="round"/>
<path d="M156.065 226.954V227.045V238.602" stroke="black" stroke-width="2" stroke-linecap="round" stroke-linejoin="round"/>
<path d="M196.469 225.225V237.419" stroke="black" stroke-width="2" stroke-linecap="round" stroke-linejoin="round"/>
<path d="M185.458 225.862V238.238" stroke="black" stroke-width="2" stroke-linecap="round" stroke-linejoin="round"/>
<path d="M172.081 226.226V238.693" stroke="black" stroke-width="2" stroke-linecap="round" stroke-linejoin="round"/>
<path d="M226.135 214.578C226.135 215.488 225.043 216.307 222.95 217.126C222.222 217.399 221.403 217.672 220.584 217.945C219.219 218.309 217.581 218.764 215.67 219.128C214.123 219.401 212.394 219.765 210.574 220.038C208.39 220.402 206.115 220.675 203.567 220.948C192.92 222.131 179.361 222.95 164.619 223.041C149.877 223.132 159.341 223.041 156.793 223.041C145.145 222.95 134.589 222.404 125.853 221.585C123.396 221.312 121.03 221.13 118.846 220.766C116.662 220.493 114.66 220.129 112.931 219.856C111.384 219.583 110.019 219.31 108.836 218.946C107.471 218.582 106.379 218.218 105.469 217.854C103.831 217.126 103.012 216.398 103.012 215.67C103.012 211.302 130.585 207.571 164.619 207.298C198.653 207.025 226.226 210.301 226.226 214.669L226.135 214.578Z" stroke="black" stroke-width="2" stroke-linecap="round" stroke-linejoin="round"/>
<path d="M185.458 205.296C182.546 205.296 179.725 205.296 176.904 205.296C164.255 205.023 152.698 204.568 143.234 203.84C140.504 203.658 137.956 203.385 135.59 203.203C133.224 202.93 131.04 202.657 129.129 202.384C127.491 202.111 125.944 201.929 124.67 201.656C123.214 201.383 121.94 201.11 121.03 200.746C119.301 200.2 118.3 199.563 118.3 199.017V211.484C118.3 212.394 124.397 216.489 128.492 217.308C172.445 225.862 202.839 222.04 203.749 222.04V204.932C200.109 204.932 189.28 205.296 185.458 205.296Z" fill="#ECD050"/>
<path d="M203.203 210.028V222.495C206.115 222.404 214.032 222.313 216.762 222.131C220.493 221.949 221.039 221.676 224.315 221.494C225.589 221.403 226.772 221.312 227.955 221.221V207.844C220.948 208.208 211.575 209.937 203.203 210.119V210.028Z" fill="white"/>
<path d="M223.405 207.935C220.948 208.117 225.771 208.299 223.041 208.481L224.042 220.129C225.407 220.038 229.866 219.856 231.14 219.765C233.597 219.492 231.14 219.219 233.051 218.946C233.506 218.946 233.961 218.855 234.325 218.764L233.597 207.662C232.232 207.753 224.952 207.935 223.405 208.026V207.935Z" fill="#ECD050"/>
<path d="M247.065 215.943C248.612 215.397 252.525 212.121 252.525 211.575V199.108C252.525 199.745 251.342 200.473 249.158 201.019H248.976C248.248 201.201 247.338 201.383 246.337 201.565C244.79 201.838 248.976 202.202 246.974 202.475C246.428 202.475 241.696 205.478 241.15 205.569L243.061 217.035C243.152 217.035 247.065 215.852 247.065 215.852V215.943Z" fill="#ECD050"/>
<path d="M241.15 205.66L232.596 206.115L234.234 218.673C235.417 218.491 242.242 217.035 242.242 217.035L241.15 205.66Z" fill="white"/>
<path d="M176.904 210.119C164.255 209.846 152.698 209.027 143.234 207.753C140.504 207.389 137.956 207.025 135.59 206.57C133.224 206.115 131.04 205.66 129.129 205.205C127.491 204.75 125.944 204.386 124.67 203.931C123.214 203.385 121.94 202.93 121.03 202.293C119.301 201.292 118.3 200.291 118.3 199.199C118.3 193.102 148.33 188.097 185.458 188.097C222.586 188.097 252.616 193.102 252.616 199.199C252.616 205.296 251.342 201.656 249.067 202.748C248.339 203.112 247.429 203.476 246.428 203.84C244.881 204.386 243.152 204.932 241.15 205.387C239.421 205.842 237.601 206.206 235.599 206.57C233.233 207.025 230.685 207.389 227.955 207.753C216.398 209.3 201.565 210.301 185.458 210.301C169.351 210.301 179.725 210.301 176.904 210.301V210.119Z" fill="#FDEA80"/>
<path d="M252.525 199.108C252.525 200.382 251.251 201.565 248.976 202.657C248.248 203.021 247.338 203.385 246.337 203.749C244.79 204.295 243.061 204.841 241.059 205.296C239.33 205.751 237.51 206.115 235.508 206.479C233.142 206.934 230.594 207.298 227.864 207.662C216.307 209.209 201.474 210.21 185.367 210.21C169.26 210.21 179.634 210.21 176.813 210.21C164.164 209.937 152.607 209.118 143.143 207.844C140.413 207.48 137.865 207.116 135.499 206.661C133.133 206.206 130.949 205.751 129.038 205.296C127.4 204.841 125.853 204.477 124.579 204.022C123.123 203.476 121.849 203.021 120.939 202.384C119.21 201.383 118.209 200.382 118.209 199.29C118.209 193.193 148.239 188.188 185.367 188.188C222.495 188.188 252.525 193.193 252.525 199.29V199.108Z" stroke="black" stroke-width="2" stroke-linecap="round" stroke-linejoin="round"/>
<path d="M252.525 211.575C252.525 212.849 251.251 214.032 248.976 215.124C248.248 215.488 247.338 215.852 246.337 216.216C244.79 216.762 243.061 217.308 241.059 217.763C239.33 218.218 237.51 218.582 235.508 218.946C233.142 219.401 230.594 219.765 227.864 220.129C216.307 221.676 201.474 222.677 185.367 222.677C169.26 222.677 179.634 222.677 176.813 222.677C164.164 222.404 152.607 221.585 143.143 220.311C140.413 219.947 137.865 219.583 135.499 219.128C133.133 218.673 130.949 218.218 129.038 217.763C127.4 217.308 125.853 216.944 124.579 216.489C123.123 215.943 121.849 215.488 120.939 214.851C119.21 213.85 118.209 212.849 118.209 211.757" stroke="black" stroke-width="2" stroke-linecap="round" stroke-linejoin="round"/>
<path d="M118.3 199.108V211.575" stroke="black" stroke-width="2" stroke-linecap="round" stroke-linejoin="round"/>
<path d="M252.525 199.108V211.575" stroke="black" stroke-width="2" stroke-linecap="round" stroke-linejoin="round"/>
<path d="M250.159 202.475V214.487" stroke="black" stroke-width="2" stroke-linecap="round" stroke-linejoin="round"/>
<path d="M246.519 203.749V215.579" stroke="black" stroke-width="2" stroke-linecap="round" stroke-linejoin="round"/>
<path d="M242.06 205.387V216.944" stroke="black" stroke-width="2" stroke-linecap="round" stroke-linejoin="round"/>
<path d="M235.508 206.57V218.582" stroke="black" stroke-width="2" stroke-linecap="round" stroke-linejoin="round"/>
<path d="M227.864 207.753V219.856" stroke="black" stroke-width="2" stroke-linecap="round" stroke-linejoin="round"/>
<path d="M121.03 202.293V214.669" stroke="black" stroke-width="2" stroke-linecap="round" stroke-linejoin="round"/>
<path d="M124.579 203.84V216.307" stroke="black" stroke-width="2" stroke-linecap="round" stroke-linejoin="round"/>
<path d="M129.038 205.205V217.581" stroke="black" stroke-width="2" stroke-linecap="round" stroke-linejoin="round"/>
<path d="M135.59 206.57V219.037" stroke="black" stroke-width="2" stroke-linecap="round" stroke-linejoin="round"/>
<path d="M143.234 207.753V220.22" stroke="black" stroke-width="2" stroke-linecap="round" stroke-linejoin="round"/>
<path d="M152.516 208.845V220.948" stroke="black" stroke-width="2" stroke-linecap="round" stroke-linejoin="round"/>
<path d="M163.527 209.755V222.04" stroke="black" stroke-width="2" stroke-linecap="round" stroke-linejoin="round"/>
<path d="M176.904 210.21V210.301V222.586" stroke="black" stroke-width="2" stroke-linecap="round" stroke-linejoin="round"/>
<path d="M176.904 210.938V211.029V222.04" stroke="black" stroke-width="2" stroke-linecap="round" stroke-linejoin="round"/>
<path d="M217.308 209.118V221.403" stroke="black" stroke-width="2" stroke-linecap="round" stroke-linejoin="round"/>
<path d="M206.206 209.755V222.131" stroke="black" stroke-width="2" stroke-linecap="round" stroke-linejoin="round"/>
<path d="M192.92 210.21V222.586" stroke="black" stroke-width="2" stroke-linecap="round" stroke-linejoin="round"/>
<path d="M246.974 198.562C246.974 199.472 245.882 200.291 243.789 201.11C243.061 201.383 242.242 201.656 241.423 201.929C240.058 202.293 238.42 202.748 236.509 203.112C234.962 203.385 233.233 203.749 231.413 204.022C229.229 204.386 226.954 204.659 224.406 204.932C213.759 206.115 200.2 206.934 185.458 207.025C170.716 207.116 180.18 207.025 177.632 207.025C165.984 206.934 155.428 206.388 146.692 205.569C144.235 205.296 141.869 205.114 139.685 204.75C137.501 204.477 135.499 204.113 133.77 203.84C132.223 203.567 130.858 203.294 129.675 202.93C128.31 202.566 127.218 202.202 126.308 201.838C124.67 201.11 123.851 200.382 123.851 199.654C123.851 195.286 151.424 191.555 185.458 191.282C219.492 191.009 247.065 194.285 247.065 198.653L246.974 198.562Z" stroke="black" stroke-width="2" stroke-linecap="round" stroke-linejoin="round"/>
<path d="M170.443 192.556C167.531 192.556 164.71 192.556 161.889 192.556C149.24 192.283 137.683 191.828 128.219 191.1C125.489 190.918 122.941 190.645 120.575 190.463C118.209 190.19 116.025 189.917 114.114 189.644C112.476 189.371 110.929 189.189 109.655 188.916C108.199 188.643 106.925 188.37 106.015 188.006C104.286 187.46 103.285 186.823 103.285 186.277V198.744C103.285 199.654 109.382 203.749 113.477 204.568C157.43 213.122 187.824 209.3 188.734 209.3V192.192C185.094 192.192 174.265 192.556 170.443 192.556Z" fill="#ECD050"/>
<path d="M188.188 197.288V209.755C191.1 209.664 199.017 209.573 201.747 209.391C205.478 209.209 206.024 208.936 209.3 208.754C210.574 208.663 211.757 208.572 212.94 208.481V195.104C205.933 195.468 196.56 197.197 188.188 197.379V197.288Z" fill="white"/>
<path d="M208.39 195.195C205.933 195.377 210.756 195.559 208.026 195.741L209.027 207.389C210.392 207.298 214.851 207.116 216.125 207.025C218.582 206.752 216.125 206.479 218.036 206.206C218.491 206.206 218.946 206.115 219.31 206.024L218.582 194.922C217.217 195.013 209.937 195.195 208.39 195.286V195.195Z" fill="#ECD050"/>
<path d="M232.05 203.203C233.597 202.657 237.51 199.381 237.51 198.835V186.368C237.51 187.005 236.327 187.733 234.143 188.279H233.961C233.233 188.461 232.323 188.643 231.322 188.825C229.775 189.098 233.961 189.462 231.959 189.735C231.413 189.735 226.681 192.738 226.135 192.829L228.046 204.295C228.137 204.295 232.05 203.112 232.05 203.112V203.203Z" fill="#ECD050"/>
<path d="M226.135 192.92L217.581 193.375L219.219 205.933C220.402 205.751 227.227 204.295 227.227 204.295L226.135 192.92Z" fill="white"/>
<path d="M161.889 197.47C149.24 197.197 137.683 196.378 128.219 195.104C125.489 194.74 122.941 194.376 120.575 193.921C118.209 193.466 116.025 193.011 114.114 192.556C112.476 192.101 110.929 191.737 109.655 191.282C108.199 190.736 106.925 190.281 106.015 189.644C104.286 188.643 103.285 187.642 103.285 186.55C103.285 180.453 133.315 175.448 170.443 175.448C207.571 175.448 237.601 180.453 237.601 186.55C237.601 192.647 236.327 189.007 234.052 190.099C233.324 190.463 232.414 190.827 231.413 191.191C229.866 191.737 228.137 192.283 226.135 192.738C224.406 193.193 222.586 193.557 220.584 193.921C218.218 194.376 215.67 194.74 212.94 195.104C201.383 196.651 186.55 197.652 170.443 197.652C154.336 197.652 164.71 197.652 161.889 197.652V197.47Z" fill="#FDEA80"/>
<path d="M237.51 186.459C237.51 187.733 236.236 188.916 233.961 190.008C233.233 190.372 232.323 190.736 231.322 191.1C229.775 191.646 228.046 192.192 226.044 192.647C224.315 193.102 222.495 193.466 220.493 193.83C218.127 194.285 215.579 194.649 212.849 195.013C201.292 196.56 186.459 197.561 170.352 197.561C154.245 197.561 164.619 197.561 161.798 197.561C149.149 197.288 137.592 196.469 128.128 195.195C125.398 194.831 122.85 194.467 120.484 194.012C118.118 193.557 115.934 193.102 114.023 192.647C112.385 192.192 110.838 191.828 109.564 191.373C108.108 190.827 106.834 190.372 105.924 189.735C104.195 188.734 103.194 187.733 103.194 186.641C103.194 180.544 133.224 175.539 170.352 175.539C207.48 175.539 237.51 180.544 237.51 186.641V186.459Z" stroke="black" stroke-width="2" stroke-linecap="round" stroke-linejoin="round"/>
<path d="M237.51 198.835C237.51 200.109 236.236 201.292 233.961 202.384C233.233 202.748 232.323 203.112 231.322 203.476C229.775 204.022 228.046 204.568 226.044 205.023C224.315 205.478 222.495 205.842 220.493 206.206C218.127 206.661 215.579 207.025 212.849 207.389C201.292 208.936 186.459 209.937 170.352 209.937C154.245 209.937 164.619 209.937 161.798 209.937C149.149 209.664 137.592 208.845 128.128 207.571C125.398 207.207 122.85 206.843 120.484 206.388C118.118 205.933 115.934 205.478 114.023 205.023C112.385 204.568 110.838 204.204 109.564 203.749C108.108 203.203 106.834 202.748 105.924 202.111C104.195 201.11 103.194 200.109 103.194 199.017" stroke="black" stroke-width="2" stroke-linecap="round" stroke-linejoin="round"/>
<path d="M103.285 186.459V198.835" stroke="black" stroke-width="2" stroke-linecap="round" stroke-linejoin="round"/>
<path d="M237.51 186.459V198.835" stroke="black" stroke-width="2" stroke-linecap="round" stroke-linejoin="round"/>
<path d="M235.144 189.735V201.838" stroke="black" stroke-width="2" stroke-linecap="round" stroke-linejoin="round"/>
<path d="M231.504 191.1V202.93" stroke="black" stroke-width="2" stroke-linecap="round" stroke-linejoin="round"/>
<path d="M227.045 192.647V204.204" stroke="black" stroke-width="2" stroke-linecap="round" stroke-linejoin="round"/>
<path d="M220.493 193.83V205.933" stroke="black" stroke-width="2" stroke-linecap="round" stroke-linejoin="round"/>
<path d="M212.849 195.013V207.116" stroke="black" stroke-width="2" stroke-linecap="round" stroke-linejoin="round"/>
<path d="M106.015 189.553V202.02" stroke="black" stroke-width="2" stroke-linecap="round" stroke-linejoin="round"/>
<path d="M109.655 191.191V203.567" stroke="black" stroke-width="2" stroke-linecap="round" stroke-linejoin="round"/>
<path d="M114.114 192.465V204.932" stroke="black" stroke-width="2" stroke-linecap="round" stroke-linejoin="round"/>
<path d="M120.575 193.83V206.297" stroke="black" stroke-width="2" stroke-linecap="round" stroke-linejoin="round"/>
<path d="M128.219 195.013V207.48" stroke="black" stroke-width="2" stroke-linecap="round" stroke-linejoin="round"/>
<path d="M137.501 196.105V208.299" stroke="black" stroke-width="2" stroke-linecap="round" stroke-linejoin="round"/>
<path d="M148.512 197.015V209.3" stroke="black" stroke-width="2" stroke-linecap="round" stroke-linejoin="round"/>
<path d="M161.889 197.47V197.561V209.846" stroke="black" stroke-width="2" stroke-linecap="round" stroke-linejoin="round"/>
<path d="M161.889 198.198V198.289V209.3" stroke="black" stroke-width="2" stroke-linecap="round" stroke-linejoin="round"/>
<path d="M202.293 196.378V208.663" stroke="black" stroke-width="2" stroke-linecap="round" stroke-linejoin="round"/>
<path d="M191.282 197.015V209.391" stroke="black" stroke-width="2" stroke-linecap="round" stroke-linejoin="round"/>
<path d="M177.905 197.47V209.846" stroke="black" stroke-width="2" stroke-linecap="round" stroke-linejoin="round"/>
<path d="M231.959 185.822C231.959 186.732 230.867 187.551 228.774 188.37C228.046 188.643 227.227 188.916 226.408 189.189C225.043 189.553 223.405 190.008 221.494 190.372C219.947 190.645 218.218 191.009 216.398 191.282C214.214 191.646 211.939 191.919 209.391 192.192C198.744 193.375 185.185 194.194 170.443 194.285C167.804 194.285 165.165 194.285 162.617 194.285C150.969 194.194 140.413 193.648 131.677 192.829C129.22 192.556 126.854 192.374 124.67 192.01C122.486 191.737 120.484 191.373 118.755 191.1C117.208 190.827 115.843 190.554 114.66 190.19C113.295 189.826 112.203 189.462 111.293 189.098C109.655 188.37 108.836 187.642 108.836 186.914C108.836 182.546 136.409 178.815 170.443 178.542C204.477 178.269 232.05 181.545 232.05 185.913L231.959 185.822Z" stroke="black" stroke-width="2" stroke-linecap="round" stroke-linejoin="round"/>
<path d="M174.538 171.353C171.626 171.353 168.805 171.353 165.984 171.353C153.335 171.08 141.778 170.625 132.314 169.897C129.584 169.715 127.036 169.442 124.67 169.26C122.304 168.987 120.12 168.714 118.209 168.441C116.571 168.168 115.024 167.986 113.75 167.713C112.294 167.44 111.02 167.167 110.11 166.803C108.381 166.257 107.38 165.62 107.38 165.074V177.541C107.38 178.451 113.477 182.546 117.572 183.365C161.525 191.919 191.919 188.097 192.829 188.097V170.989C189.189 170.989 178.36 171.353 174.538 171.353Z" fill="#ECD050"/>
<path d="M192.283 176.085V188.552C195.195 188.461 203.112 188.37 205.842 188.188C209.573 188.006 210.119 187.733 213.395 187.551C214.669 187.46 215.852 187.369 217.035 187.278V173.901C210.028 174.265 200.655 175.994 192.283 176.176V176.085Z" fill="white"/>
<path d="M212.576 173.901C210.119 174.083 214.942 174.265 212.212 174.447L213.213 186.095C214.578 186.004 219.037 185.822 220.311 185.731C222.768 185.458 220.311 185.185 222.222 184.912C222.677 184.912 223.132 184.821 223.496 184.73L222.768 173.628C221.403 173.719 214.123 173.901 212.576 173.992V173.901Z" fill="#ECD050"/>
<path d="M236.236 182C237.783 181.454 241.696 178.178 241.696 177.632V165.165C241.696 165.802 240.513 166.53 238.329 167.076H238.147C237.419 167.258 236.509 167.44 235.508 167.622C233.961 167.895 238.147 168.259 236.145 168.532C235.599 168.532 230.867 171.535 230.321 171.626L232.232 183.092C232.323 183.092 236.236 181.909 236.236 181.909V182Z" fill="#ECD050"/>
<path d="M230.321 171.717L221.767 172.172L223.405 184.73C224.588 184.548 231.413 183.092 231.413 183.092L230.321 171.717Z" fill="white"/>
<path d="M166.075 176.176C153.426 175.903 141.869 175.084 132.405 173.81C129.675 173.446 127.127 173.082 124.761 172.627C122.395 172.172 120.211 171.717 118.3 171.262C116.662 170.807 115.115 170.443 113.841 169.988C112.385 169.442 111.111 168.987 110.201 168.35C108.472 167.349 107.471 166.348 107.471 165.256C107.471 159.159 137.501 154.154 174.629 154.154C211.757 154.154 241.787 159.159 241.787 165.256C241.787 171.353 240.513 167.713 238.238 168.805C237.51 169.169 236.6 169.533 235.599 169.897C234.052 170.443 232.323 170.989 230.321 171.444C228.592 171.899 226.772 172.263 224.77 172.627C222.404 173.082 219.856 173.446 217.126 173.81C205.569 175.357 190.736 176.358 174.629 176.358C158.522 176.358 168.896 176.358 166.075 176.358V176.176Z" fill="#FDEA80"/>
<path d="M241.696 165.165C241.696 166.439 240.422 167.622 238.147 168.714C237.419 169.078 236.509 169.442 235.508 169.806C233.961 170.352 232.232 170.898 230.23 171.353C228.501 171.808 226.681 172.172 224.679 172.536C222.313 172.991 219.765 173.355 217.035 173.719C205.478 175.266 190.645 176.267 174.538 176.267C158.431 176.267 168.805 176.267 165.984 176.267C153.335 175.994 141.778 175.175 132.314 173.901C129.584 173.537 127.036 173.173 124.67 172.718C122.304 172.263 120.12 171.808 118.209 171.353C116.571 170.898 115.024 170.534 113.75 170.079C112.294 169.533 111.02 169.078 110.11 168.441C108.381 167.44 107.38 166.439 107.38 165.347C107.38 159.25 137.41 154.245 174.538 154.245C211.666 154.245 241.696 159.25 241.696 165.347V165.165Z" stroke="black" stroke-width="2" stroke-linecap="round" stroke-linejoin="round"/>
<path d="M241.696 177.632C241.696 178.906 240.422 180.089 238.147 181.181C237.419 181.545 236.509 181.909 235.508 182.273C233.961 182.819 232.232 183.365 230.23 183.82C228.501 184.275 226.681 184.639 224.679 185.003C222.313 185.458 219.765 185.822 217.035 186.186C205.478 187.733 190.645 188.734 174.538 188.734C158.431 188.734 168.805 188.734 165.984 188.734C153.335 188.461 141.778 187.642 132.314 186.368C129.584 186.004 127.036 185.64 124.67 185.185C122.304 184.73 120.12 184.275 118.209 183.82C116.571 183.365 115.024 183.001 113.75 182.546C112.294 182 111.02 181.545 110.11 180.908C108.381 179.907 107.38 178.906 107.38 177.814" stroke="black" stroke-width="2" stroke-linecap="round" stroke-linejoin="round"/>
<path d="M107.471 165.165V177.632" stroke="black" stroke-width="2" stroke-linecap="round" stroke-linejoin="round"/>
<path d="M241.696 165.165V177.632" stroke="black" stroke-width="2" stroke-linecap="round" stroke-linejoin="round"/>
<path d="M239.239 168.441V180.544" stroke="black" stroke-width="2" stroke-linecap="round" stroke-linejoin="round"/>
<path d="M235.599 169.806V181.636" stroke="black" stroke-width="2" stroke-linecap="round" stroke-linejoin="round"/>
<path d="M231.14 171.444V183.001" stroke="black" stroke-width="2" stroke-linecap="round" stroke-linejoin="round"/>
<path d="M224.679 172.627V184.639" stroke="black" stroke-width="2" stroke-linecap="round" stroke-linejoin="round"/>
<path d="M217.035 173.81V185.822" stroke="black" stroke-width="2" stroke-linecap="round" stroke-linejoin="round"/>
<path d="M110.11 168.35V180.726" stroke="black" stroke-width="2" stroke-linecap="round" stroke-linejoin="round"/>
<path d="M113.75 169.897V182.364" stroke="black" stroke-width="2" stroke-linecap="round" stroke-linejoin="round"/>
<path d="M118.209 171.262V183.638" stroke="black" stroke-width="2" stroke-linecap="round" stroke-linejoin="round"/>
<path d="M124.761 172.627V185.094" stroke="black" stroke-width="2" stroke-linecap="round" stroke-linejoin="round"/>
<path d="M132.405 173.81V186.277" stroke="black" stroke-width="2" stroke-linecap="round" stroke-linejoin="round"/>
<path d="M141.687 174.902V187.005" stroke="black" stroke-width="2" stroke-linecap="round" stroke-linejoin="round"/>
<path d="M152.698 175.812V188.097" stroke="black" stroke-width="2" stroke-linecap="round" stroke-linejoin="round"/>
<path d="M166.075 176.267V176.358V188.643" stroke="black" stroke-width="2" stroke-linecap="round" stroke-linejoin="round"/>
<path d="M166.075 176.995V177.086V188.643" stroke="black" stroke-width="2" stroke-linecap="round" stroke-linejoin="round"/>
<path d="M206.388 175.175V187.46" stroke="black" stroke-width="2" stroke-linecap="round" stroke-linejoin="round"/>
<path d="M195.377 175.812V188.188" stroke="black" stroke-width="2" stroke-linecap="round" stroke-linejoin="round"/>
<path d="M182 176.267V188.643" stroke="black" stroke-width="2" stroke-linecap="round" stroke-linejoin="round"/>
<path d="M236.145 164.619C236.145 165.529 235.053 166.348 232.96 167.167C232.232 167.44 231.413 167.713 230.594 167.986C229.229 168.35 227.591 168.805 225.68 169.169C224.133 169.442 222.404 169.806 220.584 170.079C218.4 170.443 216.125 170.716 213.577 170.989C202.93 172.172 189.371 172.991 174.629 173.082C171.99 173.082 169.351 173.082 166.803 173.082C155.155 172.991 144.599 172.445 135.863 171.626C133.406 171.353 131.04 171.171 128.856 170.807C126.672 170.534 124.67 170.17 122.941 169.897C121.394 169.624 120.029 169.351 118.846 168.987C117.481 168.623 116.389 168.259 115.479 167.895C113.841 167.167 113.022 166.439 113.022 165.711C113.022 161.343 140.595 157.612 174.629 157.339C208.663 157.066 236.236 160.342 236.236 164.71L236.145 164.619Z" stroke="black" stroke-width="2" stroke-linecap="round" stroke-linejoin="round"/>
<path d="M213.85 146.51C214.942 145.691 222.404 140.504 220.766 145.145C219.492 148.694 218.218 151.697 215.943 154.882C214.123 157.43 211.757 161.161 209.118 162.981C207.207 164.346 203.294 162.253 201.292 161.434L201.11 161.07C204.568 159.25 207.298 156.065 208.754 150.787C210.21 149.24 212.121 147.875 213.85 146.601V146.51Z" fill="#CCB8F4"/>
<path d="M184.548 74.4379C184.73 74.8929 183.547 76.6219 183.274 77.0769C183.274 77.0769 183.183 77.2589 183.092 77.3499C183.092 77.3499 182.91 77.3499 182.819 77.3499C181.272 77.3499 179.725 76.7129 178.633 75.6209C178.633 75.6209 180.544 74.3469 180.726 74.2559C181.272 74.0739 181.727 74.0739 182.273 74.0739C182.819 74.0739 184.275 73.8919 184.457 74.4379H184.548Z" fill="#CCB8F4"/>
<path d="M176.813 164.619C173.446 155.519 166.439 145.145 155.246 141.414C151.333 144.69 148.603 149.604 146.692 154.154C144.053 159.887 143.507 166.166 145.054 172.081C158.431 174.174 170.898 176.176 176.995 179.907C180.089 181.818 180.362 173.901 176.904 164.71L176.813 164.619Z" fill="black"/>
<path d="M137.41 136.136C134.225 135.226 131.586 134.498 130.585 134.225C118.846 138.32 111.111 150.514 106.561 161.889C106.561 162.617 107.016 163.254 107.289 163.982C112.112 165.893 117.845 167.349 124.033 168.532C123.487 156.338 127.309 143.143 137.319 136.227L137.41 136.136Z" fill="#CCB8F4"/>
<path d="M95.277 143.143C94.094 146.055 93.7301 149.24 94.4581 152.698C95.5501 157.703 100.373 161.252 107.38 163.982C107.107 163.254 106.652 162.617 106.652 161.889C111.202 150.514 118.937 138.32 130.676 134.225C130.403 134.225 130.221 134.134 130.13 134.043V133.497C118.118 130.767 105.105 135.135 95.277 143.052V143.143Z" fill="black"/>
<path d="M131.04 128.037V127.673C122.668 123.669 100.646 130.039 95.2771 143.052C105.105 135.135 118.118 130.767 130.221 133.497C130.494 131.677 130.767 129.857 131.131 128.037H131.04Z" fill="#CCB8F4"/>
<path d="M147.784 139.139C144.326 138.138 140.595 137.046 137.41 136.136C127.309 143.143 123.487 156.247 124.124 168.441C127.946 169.26 131.95 169.897 136.045 170.534C133.406 159.159 138.047 145.691 147.875 139.048L147.784 139.139Z" fill="black"/>
<path d="M154.973 141.323C153.062 140.686 150.514 139.958 147.693 139.139C137.956 145.782 133.224 159.159 135.863 170.625C138.866 171.08 141.96 171.626 144.872 172.081C143.325 166.257 143.78 159.887 146.51 154.154C148.421 149.695 151.151 144.781 155.064 141.414C155.064 141.414 154.973 141.414 154.882 141.414L154.973 141.323Z" fill="#CCB8F4"/>
<path d="M131.04 128.037L130.13 133.497C130.403 131.677 130.676 129.857 131.04 128.037Z" fill="#CCB8F4"/>
<path d="M182.91 77.35C183.001 77.35 183.092 77.35 183.183 77.35C183.183 77.35 183.274 77.168 183.365 77.077C183.547 76.622 184.73 74.893 184.639 74.438C184.457 73.983 183.001 74.165 182.455 74.074C181.909 74.074 181.454 74.074 180.908 74.256C180.726 74.256 178.724 75.53 178.815 75.621C179.907 76.713 181.454 77.35 183.001 77.35H182.91ZM176.813 164.619C173.446 155.519 166.439 145.054 155.064 141.414C147.875 139.048 130.403 134.225 130.13 134.134C130.13 133.952 130.13 133.77 130.13 133.588L131.04 128.128C134.589 107.289 140.595 85.813 150.15 68.159C149.786 63.791 149.786 57.603 152.698 56.693C155.61 55.783 163.709 61.425 163.709 61.425C163.709 61.425 174.811 60.424 182.819 60.424C184.275 56.693 190.008 51.597 192.192 53.963C194.285 56.329 194.649 62.153 194.649 62.153C194.649 62.153 201.201 75.803 202.475 76.622C203.749 77.441 200.382 83.083 200.473 83.538C201.201 91 205.296 98.644 208.39 105.287C210.301 109.382 210.938 113.932 210.301 118.3C214.123 127.218 216.307 136.955 213.759 146.51C212.03 147.875 210.119 149.149 208.663 150.696C207.207 155.974 204.477 159.159 201.019 160.979C194.649 164.346 185.731 163.436 177.177 163.527C176.995 163.891 176.904 164.164 176.722 164.528L176.813 164.619Z" fill="#CCB8F4"/>
<path d="M194.012 99.008C190.918 95.186 186.55 91.728 181.363 92.001C177.632 92.183 173.355 94.276 171.535 97.643C170.079 100.373 168.987 103.558 168.441 106.561C167.986 109.2 169.715 111.293 170.989 113.477C174.265 118.846 177.723 124.397 178.633 130.676C178.633 131.222 178.633 131.859 178.269 132.223C177.814 132.587 177.177 132.223 176.631 132.041C173.537 130.494 170.079 129.766 166.621 129.948C166.075 131.04 166.439 132.496 167.076 133.497C167.713 134.498 168.714 135.408 169.442 136.409C170.625 138.047 171.262 140.14 171.717 142.142C172.809 146.51 173.719 150.969 174.538 155.337C176.176 153.426 177.723 151.424 179.361 149.513C180.453 148.148 182 146.692 183.638 147.329C183.911 147.42 184.184 147.602 184.366 147.875C184.639 148.33 184.366 148.967 184.184 149.422C183.365 151.242 182.546 153.062 181.636 154.791C181.636 154.791 188.37 154.609 188.825 154.518C194.558 153.244 199.199 148.694 201.656 143.325C202.748 140.868 203.567 138.32 204.022 135.772C204.477 133.224 204.75 131.04 203.385 129.038C203.385 128.947 203.203 128.765 203.112 128.765C202.748 128.583 202.293 129.038 201.838 128.765C201.747 127.4 202.111 126.126 202.384 124.761C203.112 121.03 203.021 117.299 201.656 113.75C200.109 109.382 197.561 103.558 194.012 99.008Z" fill="#DCD3F1"/>
<path d="M187.46 75.257C187.369 75.075 187.187 74.802 187.005 74.62C186.368 73.71 185.549 72.709 184.639 71.89C183.729 71.071 182.819 70.616 181.727 70.616C179.907 70.616 178.451 71.89 177.45 73.346C176.995 74.074 176.631 74.893 176.267 75.712C175.903 76.531 175.448 77.623 175.266 78.715C175.084 80.262 175.266 81.809 176.176 83.083C178.542 86.632 183.729 85.631 187.005 84.175C188.188 83.629 189.462 82.901 189.462 81.445C189.462 79.261 188.643 77.077 187.46 75.257Z" fill="#DCD3F1"/>
<path d="M178.724 75.621C179.816 76.713 181.363 77.35 182.91 77.35C183.001 77.35 183.092 77.35 183.183 77.35C183.183 77.35 183.274 77.168 183.365 77.077C183.547 76.622 184.73 74.893 184.639 74.438C184.457 73.983 183.001 74.165 182.455 74.074C181.909 74.074 181.454 74.074 180.908 74.256C180.726 74.256 178.724 75.53 178.815 75.621H178.724Z" fill="#BB92F3" stroke="black" stroke-width="2" stroke-linecap="round" stroke-linejoin="round"/>
<path d="M160.979 68.6141C162.435 67.8861 163.891 67.3401 165.347 66.8851C168.532 65.8841 172.809 64.7011 175.448 67.3401C176.085 67.9771 176.54 68.8871 176.995 69.7061C178.36 72.6181 178.451 75.9851 175.084 77.4411C171.717 78.8971 172.172 78.0781 170.625 78.0781C166.621 78.0781 162.708 78.2601 158.795 77.7141C157.521 77.5321 151.788 76.5311 152.789 74.3471C153.79 72.1631 154.882 72.6181 155.61 72.0721C157.339 70.7981 159.159 69.7061 161.07 68.7961L160.979 68.6141Z" fill="#20083E"/>
<path d="M195.559 67.522C195.195 67.34 194.831 67.067 194.467 66.885C192.283 65.702 189.826 65.065 187.369 64.974C185.913 64.974 184.275 65.247 183.638 66.521C183.365 67.158 183.365 67.886 183.456 68.523C183.638 69.888 184.002 71.071 184.457 72.345C184.912 73.619 184.73 73.801 185.003 74.438C186.186 76.622 189.735 76.622 191.828 76.258C193.375 75.985 194.831 75.348 196.287 74.711C197.743 74.074 198.926 73.71 199.654 72.618C199.836 72.345 200.018 71.981 199.927 71.617C199.745 70.707 198.289 69.615 197.652 68.978C197.015 68.341 196.287 67.886 195.65 67.431L195.559 67.522Z" fill="#20083E"/>
<path d="M174.083 118.118C172.536 114.114 171.171 110.019 167.713 107.289C167.349 107.016 166.985 106.834 166.53 106.743C166.166 105.742 164.801 105.196 163.8 106.106C161.252 108.563 159.523 111.293 158.158 114.569C157.157 116.935 156.247 119.483 156.156 122.031C156.065 124.579 155.974 124.397 157.157 124.852C158.34 125.307 160.16 125.944 161.616 126.581C164.619 127.673 167.531 128.856 170.443 130.13C171.444 130.585 172.445 131.04 173.446 131.495C174.447 131.95 175.175 132.587 176.176 132.678C177.905 132.678 178.633 130.858 178.633 129.402C178.633 125.307 175.539 121.667 174.174 118.027L174.083 118.118Z" fill="#BB92F3"/>
<path d="M207.116 113.841C206.752 113.204 206.115 112.84 205.569 112.749C204.477 110.656 201.474 111.475 201.838 114.023C202.475 118.3 202.293 122.486 201.019 126.581C200.382 128.765 203.476 130.767 204.932 128.856C208.39 124.67 210.483 118.664 207.025 113.75L207.116 113.841Z" fill="#BB92F3"/>
<path d="M177.45 153.062C176.995 153.79 176.54 154.518 176.267 155.337C175.084 155.519 173.992 156.52 174.538 157.885C174.811 158.522 174.993 159.159 175.084 159.887C175.266 162.435 178.542 162.89 179.543 160.524C180.271 158.522 180.999 156.611 182.091 154.791C182.91 153.335 184.184 151.697 184.002 149.968C184.002 149.695 183.638 149.331 183.274 149.24C181.272 148.785 179.634 150.514 178.451 151.879C177.268 153.244 175.994 154.973 174.538 154.336C174.356 154.245 174.083 154.063 173.992 153.881C172.081 151.879 172.263 148.603 170.716 146.237C170.443 145.873 169.988 145.418 169.533 145.509C169.351 145.509 169.169 145.782 168.987 145.873C168.714 146.237 168.35 146.51 168.077 146.874C167.986 146.965 167.804 147.147 167.804 147.329C167.804 147.511 167.804 147.693 167.986 147.875C169.078 149.786 170.625 151.333 171.717 153.244C173.264 155.792 174.083 158.613 175.63 161.161C175.812 161.525 176.176 161.889 176.54 161.798C176.722 161.798 176.904 161.616 177.086 161.434C177.541 160.888 177.905 160.251 177.996 159.523" fill="#BB92F3"/>
<path d="M217.217 145.236C216.853 145.236 216.489 145.327 216.034 145.6C213.668 147.147 211.12 148.421 209.391 150.696C208.299 152.243 207.571 153.881 206.934 155.701C206.752 155.792 206.479 155.974 206.297 156.156C204.932 157.612 202.384 159.159 202.839 161.434C203.294 163.436 205.387 164.255 207.298 163.618C211.029 162.344 214.578 157.339 215.67 153.426C217.035 151.515 218.491 149.513 219.492 147.511C220.22 146.055 218.673 144.235 217.217 145.236Z" fill="#BB92F3"/>
<path d="M176.813 164.619C176.995 164.255 177.086 163.982 177.268 163.618C178.451 160.979 179.816 158.34 181.272 155.883C182.728 153.426 182.819 153.426 183.638 152.152C184.457 150.878 185.185 150.15 185.094 148.876C185.094 148.785 185.094 148.694 185.094 148.603C185.003 148.421 184.73 148.421 184.639 148.512C184.548 148.603 184.366 148.694 184.275 148.876C184.457 148.603 184.275 148.148 183.911 148.057C183.547 147.966 183.274 148.057 183.001 148.239C182.728 148.421 182.546 148.694 182.364 148.967C182.546 148.694 182.819 148.421 182.637 148.148C182.455 147.875 182 147.966 181.727 148.148C180.18 148.876 179.088 150.332 177.996 151.515C176.904 152.698 177.177 152.607 176.722 153.153C176.267 153.699 174.902 154.609 174.993 154.791C174.902 154.245 174.811 154.154 174.811 154.609C172.536 150.241 171.808 143.962 169.897 139.412C167.986 134.862 165.529 130.403 161.707 127.4" stroke="black" stroke-width="2" stroke-linecap="round" stroke-linejoin="round"/>
<path d="M147.602 119.028C148.694 120.575 150.423 121.485 152.061 122.395C154.609 123.76 157.157 125.034 159.705 126.399C161.707 127.4 163.8 128.492 165.984 129.038C167.531 129.402 169.078 129.584 170.625 130.039C172.991 130.767 175.175 132.132 177.632 132.769C177.905 132.496 177.814 132.132 177.632 131.859C180.726 134.316 178.815 127.309 178.269 126.217C175.448 120.302 171.99 114.66 168.077 109.382C164.073 104.013 159.068 99.463 155.337 93.821" stroke="black" stroke-width="2" stroke-linecap="round" stroke-linejoin="round"/>
<path d="M208.754 150.696C210.119 149.24 211.757 148.057 213.395 146.783C215.033 145.509 214.578 146.055 215.215 145.691C215.852 145.327 216.671 144.235 217.399 143.598C217.581 143.416 217.763 143.325 218.036 143.325C218.4 143.325 218.673 143.689 218.673 143.962C218.673 144.235 218.582 144.599 218.4 144.872C218.673 144.417 219.037 144.053 219.401 143.598C219.401 143.598 219.583 143.416 219.674 143.416C219.947 143.416 220.22 143.598 220.22 143.962C220.22 144.326 220.038 144.508 219.947 144.781C220.22 144.599 220.402 144.508 220.675 144.326C220.675 144.326 220.857 144.235 220.948 144.235C221.13 144.235 221.221 144.508 221.221 144.781C221.13 145.6 220.493 146.146 220.22 146.783C219.947 147.42 219.492 148.603 219.128 149.513C218.309 151.333 217.308 153.153 216.125 154.791C214.305 157.339 211.939 161.07 209.3 162.89C207.389 164.255 203.476 162.162 201.474 161.343" stroke="black" stroke-width="2" stroke-linecap="round" stroke-linejoin="round"/>
<path d="M213.85 146.51C216.489 136.864 214.305 127.218 210.392 118.3" stroke="black" stroke-width="2" stroke-linecap="round" stroke-linejoin="round"/>
<path d="M177.177 163.618C185.731 163.618 194.74 164.437 201.019 161.07C204.477 159.25 207.207 156.065 208.663 150.787" stroke="black" stroke-width="2" stroke-linecap="round" stroke-linejoin="round"/>
<path d="M131.04 128.037V127.673C120.848 122.85 90.2719 133.224 94.3669 152.607C98.4619 171.99 160.524 169.897 176.904 179.816C179.998 181.727 180.271 173.81 176.813 164.619C173.446 155.519 166.439 145.054 155.064 141.414C147.875 139.048 130.403 134.225 130.13 134.134V133.588L131.131 128.128L131.04 128.037Z" stroke="black" stroke-width="2" stroke-linecap="round" stroke-linejoin="round"/>
<path d="M183.092 77.623C183.092 78.351 183.001 79.17 182.728 79.898C182.728 80.171 182.546 80.444 182.364 80.626C182 81.081 181.272 81.081 180.726 80.99" stroke="black" stroke-width="2" stroke-linecap="round" stroke-linejoin="round"/>
<path d="M183.092 78.1689C183.274 78.7149 183.365 79.2609 183.729 79.7159C184.093 80.1709 184.548 80.5349 185.094 80.5349C185.549 80.5349 186.004 80.2619 186.186 79.8069" stroke="black" stroke-width="2" stroke-linecap="round" stroke-linejoin="round"/>
<path d="M182.91 60.424C184.366 56.693 190.099 51.597 192.283 53.963C194.376 56.329 194.74 62.153 194.74 62.153C194.74 62.153 201.292 75.803 202.566 76.622C203.84 77.441 200.473 83.083 200.564 83.538C201.292 91 205.387 98.644 208.481 105.287C210.392 109.382 211.029 113.932 210.392 118.3C209.755 122.395 207.844 126.945 205.114 130.039C204.932 130.221 204.659 130.403 204.477 130.312C204.477 129.857 204.477 129.402 204.659 128.947C204.386 129.22 204.113 129.493 203.84 129.857C203.658 130.039 203.294 130.312 203.112 130.039C203.021 129.948 203.112 129.766 203.112 129.584C203.112 129.038 203.294 128.492 203.385 127.946C203.294 128.219 203.112 128.492 202.839 128.674C202.657 128.856 202.293 128.947 202.02 128.856C201.747 128.856 201.565 128.492 201.474 128.128C201.383 127.764 201.474 127.491 201.565 127.218C202.202 124.852 203.021 115.024 202.293 109.746" stroke="black" stroke-width="2" stroke-linecap="round" stroke-linejoin="round"/>
<path d="M157.248 60.788C157.248 60.788 157.248 60.788 157.157 60.788C156.429 60.424 155.701 60.424 154.882 60.424C154.518 60.424 154.154 60.4239 153.881 60.6969C153.699 60.8789 153.608 61.061 153.517 61.243C153.062 62.153 152.698 63.7909 152.971 64.7919C153.244 65.7929 153.972 66.4299 154.791 66.5209C155.61 66.5209 156.429 66.2479 157.248 65.9749C158.158 65.7019 159.068 65.5199 159.523 64.6099C160.251 63.5179 159.705 62.244 158.613 61.698C157.521 61.152 157.703 61.152 157.157 60.879L157.248 60.788Z" fill="#BB92F3"/>
<path d="M189.28 56.693C188.643 57.239 188.279 58.058 188.097 58.786C187.824 60.424 189.189 60.606 190.372 61.243C190.645 61.334 190.918 61.516 191.191 61.516C191.555 61.516 191.828 61.243 192.01 60.879C192.192 60.515 192.192 60.151 192.192 59.878C192.192 59.241 192.192 58.695 192.101 58.058C192.101 57.512 191.919 56.966 191.737 56.511C191.737 56.329 191.555 56.238 191.464 56.147C191.373 56.147 191.191 56.056 191.1 56.056C190.463 56.056 189.826 56.329 189.371 56.784L189.28 56.693Z" fill="#BB92F3"/>
<path d="M189.462 60.879C188.097 60.515 185.64 60.333 182.819 60.333C174.811 60.333 163.709 61.334 163.709 61.334C163.709 61.334 155.61 55.601 152.698 56.602C149.786 57.603 149.695 63.7 150.15 68.068C140.595 85.722 134.589 107.198 131.04 128.037C130.676 129.857 130.403 131.677 130.13 133.497C130.13 133.679 130.13 133.861 130.13 134.043" stroke="black" stroke-width="2" stroke-linecap="round" stroke-linejoin="round"/>
<path d="M154.427 60.333C155.519 60.515 156.611 60.879 157.612 61.425C158.613 61.971 159.523 62.79 160.069 63.7" stroke="black" stroke-width="2" stroke-linecap="round" stroke-linejoin="round"/>
<path d="M187.187 59.423C187.642 58.422 188.37 57.603 189.28 56.875" stroke="black" stroke-width="2" stroke-linecap="round" stroke-linejoin="round"/>
<path d="M173.719 69.888C172.809 67.795 170.443 66.976 168.259 67.704C166.075 68.523 164.346 70.707 164.346 73.073C164.346 74.347 164.892 75.621 165.984 76.44C166.894 77.168 168.441 77.623 169.442 76.895C169.897 76.622 169.806 75.712 169.169 75.803C168.441 75.803 167.804 75.894 167.167 75.53C166.53 75.166 166.166 74.529 165.984 73.892C165.62 72.436 166.439 70.889 167.531 69.979C168.623 69.16 170.17 68.705 171.353 69.433C171.899 69.797 172.354 70.252 172.354 70.889C172.354 71.435 172.172 71.981 171.717 72.436C171.262 72.891 170.534 73.164 169.897 72.891C169.351 72.618 169.624 72.254 169.897 71.799C169.897 71.708 169.897 71.435 169.897 71.344C169.442 70.98 168.987 71.071 168.623 71.435C168.259 71.799 168.077 72.345 168.168 72.891C168.35 74.074 169.624 74.711 170.716 74.711C172.991 74.529 174.538 72.072 173.628 69.979L173.719 69.888Z" fill="white"/>
<path d="M192.374 67.431C190.736 66.157 188.37 66.157 186.823 67.431C186.095 67.977 185.458 68.887 185.549 69.888C185.549 70.889 186.186 71.799 187.096 72.254C188.188 72.8 189.644 72.618 190.463 71.617C190.827 71.162 191.009 70.434 190.736 69.797C190.554 69.251 190.008 68.887 189.371 68.887C189.007 68.887 188.734 69.433 189.007 69.706C189.189 69.888 189.189 70.07 189.189 70.252C189.189 70.434 189.007 70.616 188.825 70.798C188.461 71.071 187.824 71.071 187.369 70.798C186.914 70.434 186.732 69.888 186.914 69.342C187.096 68.705 187.551 68.341 188.097 68.068C189.189 67.613 190.645 67.886 191.464 68.614C192.374 69.433 192.738 70.707 192.283 71.799C192.101 72.345 191.555 72.8 191.009 73.164C190.736 73.346 190.463 73.437 190.099 73.437C189.826 73.437 189.371 73.619 189.007 73.619C188.552 73.619 188.461 74.438 188.916 74.62C190.645 75.621 192.92 74.165 193.648 72.527C194.467 70.707 193.921 68.432 192.374 67.249V67.431Z" fill="white"/>
<path d="M181.727 62.335C180.999 61.88 179.998 62.153 179.088 62.244C178.269 62.244 177.541 62.335 176.722 62.426C175.084 62.608 173.537 62.881 171.899 63.245C171.08 63.427 171.262 64.701 172.081 64.61C173.628 64.61 175.266 64.61 176.813 64.428C177.632 64.428 178.36 64.337 179.179 64.246C179.998 64.246 180.999 64.246 181.727 63.882C182.273 63.518 182.364 62.608 181.727 62.335Z" fill="#DCD3F1"/>
<path d="M160.069 104.468C157.521 101.92 155.064 99.3719 152.516 96.9149C152.061 96.4599 151.06 96.7329 151.151 97.4609C151.424 100.646 153.517 103.376 155.701 105.651C156.884 106.925 158.158 108.199 159.341 109.473C160.524 110.838 161.525 112.476 162.89 113.568C163.709 114.296 165.165 113.841 165.165 112.658C165.165 109.382 162.253 106.561 160.16 104.468H160.069Z" fill="#DCD3F1"/>
<path d="M167.44 116.389C166.53 115.934 165.711 117.026 166.348 117.754C166.621 118.118 166.894 118.391 167.076 118.846C167.349 119.392 167.713 119.756 168.168 120.12C168.805 120.575 169.624 119.938 169.624 119.301C169.624 117.936 168.532 117.026 167.44 116.48V116.389Z" fill="#DCD3F1"/>
<path d="M201.929 99.19C201.656 99.008 201.383 99.372 201.474 99.645C203.294 103.649 204.477 108.108 206.661 111.839C207.207 112.749 208.299 112.203 208.481 111.384C209.118 106.47 205.751 101.829 202.02 99.19H201.929Z" fill="#DCD3F1"/>
<path d="M211.12 130.039C210.483 128.947 208.572 129.675 209.027 130.949C209.573 132.405 209.937 134.043 210.028 135.59C210.028 137.046 209.755 138.411 210.028 139.867C210.301 140.959 211.666 140.868 212.212 140.14C214.305 137.41 212.758 132.587 211.12 130.039Z" fill="#DCD3F1"/>
<path d="M161.434 131.131C158.158 128.401 153.972 126.672 149.695 127.218C148.603 127.309 148.33 128.765 149.422 129.22C152.971 130.494 156.429 131.859 159.25 134.407C161.707 136.682 162.89 139.594 164.892 142.142C165.62 143.052 167.076 142.233 167.167 141.232C167.258 137.41 164.255 133.497 161.434 131.131Z" fill="#DCD3F1"/>
<path d="M160.797 86.086C159.796 84.721 158.158 84.539 156.702 83.811C155.337 83.174 153.972 82.264 152.971 81.081C152.243 80.08 150.878 81.172 151.06 82.173C151.424 84.084 152.516 85.449 154.154 86.541C155.61 87.542 158.158 88.634 159.887 87.997C160.615 87.724 161.252 86.814 160.706 85.995L160.797 86.086Z" fill="#DCD3F1"/>
<path d="M197.288 80.626C196.651 80.899 196.196 81.627 195.65 82.082C195.104 82.537 194.467 82.901 193.83 83.083C193.102 83.356 193.284 84.266 194.012 84.357C195.741 84.539 198.562 83.902 199.017 81.9C199.29 80.808 198.198 80.08 197.288 80.535V80.626Z" fill="#DCD3F1"/>
<path d="M187.369 84.903C185.64 84.448 184.002 85.358 182.273 85.722C180.271 86.086 178.269 86.268 176.267 86.086C174.902 85.995 174.902 87.815 175.994 88.27C179.27 89.544 186.004 90.727 188.279 87.087C188.734 86.268 188.279 85.085 187.369 84.903Z" fill="#BB92F3"/>
<path d="M116.116 161.07C116.48 165.438 116.48 169.988 116.116 174.72H115.934L105.196 168.714C105.651 163.982 105.651 159.341 105.378 154.882H105.651L116.207 161.07H116.116Z" fill="#ECD050"/>
<path d="M116.116 161.07L105.56 154.882H105.287C104.923 150.605 104.286 146.419 103.194 142.597L113.659 148.967H113.932C115.024 152.698 115.752 156.793 116.025 161.07H116.116Z" fill="#ECD050"/>
<path d="M115.843 174.72H116.025C115.479 180.817 114.296 187.096 112.385 193.466L101.92 187.096H101.556C103.467 180.817 104.65 174.629 105.196 168.714L115.934 174.72H115.843Z" fill="#ECD050"/>
<path d="M113.932 148.876H113.659L103.194 142.597C102.375 139.685 101.465 136.955 100.282 134.407L110.929 140.686H111.02C112.203 143.234 113.204 145.964 114.023 148.876H113.932Z" fill="#ECD050"/>
<path d="M101.829 187.096L112.294 193.466C112.021 194.376 111.748 195.286 111.384 196.287C109.655 201.383 107.562 206.206 105.196 210.665L94.5489 204.386L94.2759 204.204C96.6419 199.745 98.7349 194.831 100.464 189.735C100.737 188.825 101.101 187.915 101.374 187.005H101.738L101.829 187.096Z" fill="#ECD050"/>
<path d="M110.838 140.595L100.191 134.407C99.0078 131.859 97.7338 129.584 96.1868 127.491L105.924 133.133L106.197 132.951C107.926 135.226 109.473 137.865 110.838 140.595Z" fill="#ECD050"/>
<path d="M106.379 132.951L106.106 133.133L96.3688 127.4C95.0038 125.489 93.4568 123.76 91.8188 122.213H92.0008C93.5478 122.759 95.0038 123.396 96.3688 124.124C100.191 126.217 103.558 129.129 106.379 132.769V132.951Z" fill="#ECD050"/>
<path d="M94.64 204.386L105.287 210.665C102.557 215.943 99.372 220.675 95.914 224.861L95.732 224.679L85.176 218.491H85.085C88.543 214.214 91.728 209.482 94.458 204.295L94.731 204.477L94.64 204.386Z" fill="#ECD050"/>
<path d="M95.7319 224.679L95.9139 224.861C92.6379 228.865 89.0889 232.323 85.3579 235.235L85.1759 235.053L74.7109 228.865V228.683C78.2599 225.771 81.8089 222.313 84.9939 218.4H85.0849C85.0849 218.491 95.6409 224.679 95.6409 224.679H95.7319Z" fill="#ECD050"/>
<path d="M96.2779 124.215C94.9129 123.487 93.4569 122.85 91.9099 122.304H91.7279C90.4539 121.121 89.1799 120.12 87.8149 119.119C91.2729 121.212 95.9139 123.942 96.3689 124.215H96.2779Z" fill="#ECD050"/>
<path d="M85.1758 234.962L85.3578 235.144C82.0818 237.692 78.6238 239.785 75.1658 241.423L64.5188 235.144V234.871C67.8858 233.324 71.2528 231.14 74.5288 228.592V228.774C74.6198 228.774 85.0848 234.962 85.0848 234.962H85.1758Z" fill="#ECD050"/>
<path d="M64.519 235.235L75.166 241.514C71.89 242.97 68.523 244.062 65.247 244.517C65.247 244.426 54.782 238.238 54.782 238.238V237.965C57.967 237.419 61.243 236.418 64.428 234.962V235.235H64.519Z" fill="#ECD050"/>
<path d="M65.247 244.335C62.699 244.881 60.06 244.972 57.512 244.699L46.501 238.238C49.231 238.511 51.961 238.42 54.691 237.965V238.238L65.156 244.335H65.247Z" fill="#ECD050"/>
<path d="M57.512 244.699C55.419 244.517 53.417 244.062 51.324 243.425C50.778 243.243 50.232 243.061 49.686 242.788L43.134 239.057C42.315 238.42 41.496 237.692 40.677 236.964C42.588 237.601 44.499 237.965 46.41 238.238L57.421 244.699H57.512Z" fill="#ECD050"/>
<path d="M43.2249 239.057L49.7769 242.788C47.4109 241.787 45.2269 240.604 43.2249 239.057Z" fill="#ECD050"/>
<path d="M40.586 236.964C40.586 236.964 40.677 236.964 40.768 236.964C41.587 237.692 42.315 238.42 43.225 239.057L35.854 234.871C37.401 235.69 38.948 236.418 40.586 236.964Z" fill="#ECD050"/>
<path d="M21.0209 163.072C13.9229 184.366 14.8329 205.478 22.2039 219.947L74.8929 114.569C54.3269 112.567 31.2129 132.769 21.0209 163.072Z" fill="#FDEA80"/>
<path d="M87.7239 119.119C87.1779 118.755 86.6319 118.391 86.0859 118.118C84.5389 117.208 82.9009 116.48 81.0809 115.934C79.0789 115.206 76.9859 114.842 74.8929 114.569L22.2039 219.947C24.7519 224.952 28.0279 229.138 31.9409 232.232L88.6339 119.756C88.3609 119.574 88.0879 119.392 87.7239 119.119Z" fill="#FDF4C5"/>
<path d="M93.7299 124.306C93.0929 123.578 92.4559 122.941 91.7279 122.304C90.7269 121.394 89.7259 120.575 88.6339 119.756L31.9409 232.232C33.1239 233.233 34.3979 234.052 35.7629 234.78C37.2189 235.599 38.6749 236.236 40.3129 236.782L93.7299 124.215V124.306Z" fill="#FDEA80"/>
<path d="M100.282 134.407C99.099 131.859 97.825 129.584 96.278 127.491C95.459 126.399 94.64 125.307 93.73 124.306L40.313 236.873C40.313 236.873 40.495 236.873 40.586 236.964C40.586 236.964 40.677 236.964 40.768 236.964C42.679 237.601 44.59 237.965 46.501 238.238C47.411 238.329 48.321 238.42 49.231 238.42L100.919 136.136C100.646 135.59 100.464 135.044 100.191 134.498L100.282 134.407Z" fill="#FDF4C5"/>
<path d="M103.194 142.597C102.557 140.322 101.829 138.138 101.01 136.045L49.3218 238.329C51.1418 238.329 52.9618 238.238 54.7818 237.874C58.0578 237.328 61.2428 236.327 64.5188 234.871C67.9768 233.324 71.3438 231.14 74.7108 228.592C78.3508 225.68 81.8998 222.222 85.1758 218.309C88.6338 214.123 91.8188 209.391 94.5488 204.204C96.9148 199.745 99.0078 194.831 100.737 189.735C101.01 188.825 101.374 187.915 101.647 187.005C103.558 180.817 104.741 174.629 105.287 168.714C105.742 163.982 105.742 159.341 105.469 154.882C105.105 150.605 104.468 146.419 103.376 142.597H103.194Z" fill="#FDEA80"/>
<path d="M87.724 119.119C89.089 120.029 90.454 121.121 91.637 122.304C93.275 123.851 94.822 125.58 96.187 127.491C97.643 129.584 99.008 131.95 100.191 134.407C101.374 136.955 102.375 139.685 103.103 142.597C104.195 146.419 104.832 150.514 105.196 154.882C105.56 159.341 105.469 163.891 105.014 168.714C104.468 174.629 103.285 180.817 101.374 187.005C101.101 187.915 100.828 188.825 100.464 189.735C98.735 194.922 96.642 199.745 94.276 204.204C91.546 209.391 88.361 214.123 84.903 218.309C81.627 222.313 78.078 225.771 74.438 228.592C71.162 231.14 67.704 233.324 64.246 234.871C61.061 236.327 57.785 237.328 54.509 237.874C51.779 238.329 48.958 238.42 46.319 238.147C44.408 237.965 42.406 237.51 40.586 236.873C40.586 236.873 40.495 236.873 40.404 236.873C38.766 236.327 37.128 235.599 35.672 234.78C17.29 224.497 10.556 193.921 20.93 163.072C32.123 129.675 59.059 108.472 80.99 115.843C82.719 116.389 84.357 117.208 85.995 118.027" stroke="black" stroke-width="2" stroke-linecap="round" stroke-linejoin="round"/>
<path d="M86.0859 118.118C86.6319 118.391 87.1779 118.755 87.7239 119.119" stroke="black" stroke-width="2" stroke-linecap="round" stroke-linejoin="round"/>
<path d="M91.728 122.304H91.91C93.457 122.85 94.913 123.487 96.278 124.215" stroke="black" stroke-width="2" stroke-linecap="round" stroke-linejoin="round"/>
<path d="M96.3691 124.215C100.191 126.308 103.558 129.22 106.379 132.86C108.108 135.135 109.655 137.774 111.02 140.504C112.203 143.052 113.204 145.782 114.023 148.694C115.115 152.516 115.843 156.611 116.116 160.888C116.48 165.256 116.48 169.806 116.116 174.538C115.57 180.635 114.387 186.914 112.476 193.193C112.203 194.103 111.93 195.013 111.566 196.014C109.837 201.11 107.744 205.933 105.378 210.392C102.648 215.67 99.4631 220.402 96.0051 224.588C92.7291 228.592 89.1801 232.05 85.4491 234.962C82.1731 237.51 78.7151 239.603 75.2571 241.241C71.9811 242.697 68.6141 243.789 65.3381 244.244C62.7901 244.608 60.1511 244.699 57.6031 244.517C55.5101 244.335 53.5081 243.88 51.4151 243.152C50.8691 242.97 50.3231 242.788 49.7771 242.515C47.4111 241.514 45.2271 240.331 43.2251 238.784C42.4061 238.147 41.5871 237.419 40.7681 236.691" stroke="black" stroke-width="2" stroke-linecap="round" stroke-linejoin="round"/>
<path d="M84.084 116.753C84.084 116.844 84.903 117.39 86.086 118.118C86.541 118.482 87.087 118.755 87.724 119.119C91.182 121.212 95.823 123.942 96.278 124.215" stroke="black" stroke-width="2" stroke-linecap="round" stroke-linejoin="round"/>
<path d="M35.7629 234.78L43.2249 239.057L49.7769 242.788" stroke="black" stroke-width="2" stroke-linecap="round" stroke-linejoin="round"/>
<path d="M46.501 238.238L57.512 244.699" stroke="black" stroke-width="2" stroke-linecap="round" stroke-linejoin="round"/>
<path d="M54.782 238.238L65.247 244.335" stroke="black" stroke-width="2" stroke-linecap="round" stroke-linejoin="round"/>
<path d="M64.519 235.235L75.166 241.423L75.257 241.514" stroke="black" stroke-width="2" stroke-linecap="round" stroke-linejoin="round"/>
<path d="M74.7109 228.774L85.1759 234.962" stroke="black" stroke-width="2" stroke-linecap="round" stroke-linejoin="round"/>
<path d="M85.176 218.491L95.732 224.679" stroke="black" stroke-width="2" stroke-linecap="round" stroke-linejoin="round"/>
<path d="M94.6399 204.386L105.287 210.574L105.378 210.665" stroke="black" stroke-width="2" stroke-linecap="round" stroke-linejoin="round"/>
<path d="M101.829 187.096L112.294 193.375H112.385" stroke="black" stroke-width="2" stroke-linecap="round" stroke-linejoin="round"/>
<path d="M105.105 168.623L115.843 174.72" stroke="black" stroke-width="2" stroke-linecap="round" stroke-linejoin="round"/>
<path d="M105.56 154.882L116.116 161.07H116.207" stroke="black" stroke-width="2" stroke-linecap="round" stroke-linejoin="round"/>
<path d="M103.194 142.597L113.659 148.876" stroke="black" stroke-width="2" stroke-linecap="round" stroke-linejoin="round"/>
<path d="M100.1 134.316L100.282 134.407L110.838 140.686" stroke="black" stroke-width="2" stroke-linecap="round" stroke-linejoin="round"/>
<path d="M96.3689 127.4L106.106 133.133" stroke="black" stroke-width="2" stroke-linecap="round" stroke-linejoin="round"/>
<path d="M33.6701 200.928C33.4881 200.109 33.3971 199.381 33.4881 198.562C33.6701 196.742 34.3071 194.831 35.6721 192.556L53.4171 161.616L41.9511 163.436C38.6751 163.982 37.1281 162.253 37.4011 158.431C37.6741 154.609 39.5851 152.243 42.8611 151.788L60.9701 148.876C63.8821 148.421 65.4291 149.331 65.9751 151.788C66.1571 152.607 66.2481 153.335 66.1571 154.154C65.9751 155.974 65.3381 157.794 63.9731 160.16L46.5921 190.736L59.6961 188.643C62.9721 188.097 64.5191 190.008 64.2461 193.921C63.9731 197.834 62.0621 200.2 58.7861 200.746L38.7661 204.022C35.8541 204.477 34.3071 203.567 33.8521 201.11L33.6701 200.928Z" fill="#FDEA80" stroke="black" stroke-width="2" stroke-linecap="round" stroke-linejoin="round"/>
<path d="M67.34 185.094C67.34 184.639 67.249 184.275 67.249 183.82C67.249 182.819 67.704 181.818 68.432 180.544L77.987 163.709L71.799 164.801C70.07 165.074 69.16 164.164 69.342 162.071C69.524 159.978 70.525 158.704 72.254 158.431L82.082 156.793C83.629 156.52 84.448 157.066 84.812 158.34C84.812 158.795 84.903 159.159 84.903 159.614C84.903 160.615 84.448 161.616 83.72 162.89L74.347 179.452L81.445 178.269C83.174 177.996 84.084 178.997 83.902 181.09C83.72 183.183 82.719 184.548 80.99 184.821L70.161 186.641C68.614 186.914 67.795 186.368 67.431 185.094H67.34Z" fill="#FDEA80"/>
<path d="M67.34 185.094C67.34 184.639 67.249 184.275 67.249 183.82C67.249 182.819 67.704 181.818 68.432 180.544L77.987 163.709L71.799 164.801C70.07 165.074 69.16 164.164 69.342 162.071C69.524 159.978 70.525 158.704 72.254 158.431L82.082 156.793C83.629 156.52 84.448 157.066 84.812 158.34C84.812 158.795 84.903 159.159 84.903 159.614C84.903 160.615 84.448 161.616 83.72 162.89L74.347 179.452L81.445 178.269C83.174 177.996 84.084 178.997 83.902 181.09C83.72 183.183 82.719 184.548 80.99 184.821L70.161 186.641C68.614 186.914 67.795 186.368 67.431 185.094H67.34Z" stroke="black" stroke-width="2" stroke-linecap="round" stroke-linejoin="round"/>
<path d="M80.08 127.764C81.172 128.583 82.901 129.857 83.902 130.858C85.267 132.132 86.45 133.588 87.542 135.226C88.725 136.955 89.817 138.957 90.727 141.05C91.637 143.234 92.456 145.509 93.093 147.875C93.912 151.151 94.458 154.609 94.731 158.249C95.004 161.98 95.004 165.893 94.64 169.897C94.185 174.902 93.275 180.089 91.728 185.276C91.546 186.095 91.273 186.823 91 187.642C89.635 192.01 87.906 196.014 85.995 199.836C83.811 204.204 81.263 208.208 78.442 211.757C75.803 215.124 72.982 218.036 70.07 220.402C67.431 222.586 64.701 224.315 61.88 225.68C59.332 226.954 56.693 227.773 54.054 228.228C51.87 228.592 49.595 228.683 47.411 228.41C45.864 228.228 44.317 227.864 42.77 227.409C42.77 227.409 42.679 227.409 42.588 227.409C41.223 226.954 39.949 226.317 38.766 225.589C23.933 216.944 18.564 191.191 26.936 165.256C35.945 137.137 57.512 119.301 75.166 125.58C76.531 126.035 78.533 127.127 79.807 127.855L80.08 127.764Z" stroke="black" stroke-width="2" stroke-linecap="round" stroke-linejoin="round"/>
<path d="M55.7829 151.515C54.5999 150.878 53.4169 151.333 52.2339 151.606C50.9599 151.97 49.8679 152.516 48.6849 153.062C47.6839 153.517 48.3209 154.882 49.2309 154.882C50.5959 154.882 51.8699 154.882 53.1439 154.7C54.3269 154.427 55.6009 154.154 56.2379 152.971C56.5109 152.516 56.4199 151.788 55.8739 151.515H55.7829Z" fill="white"/>
<path d="M63.6091 152.243C63.3361 151.515 62.6991 151.06 61.9711 150.878C61.4251 150.696 60.6061 150.696 60.0601 151.06C59.6961 151.242 59.2411 151.879 59.3321 152.334C59.3321 152.698 59.7871 152.88 59.9691 152.607C59.9691 152.607 60.1511 152.698 60.1511 152.789C60.4241 152.971 60.6061 153.153 60.8791 153.244C60.9701 153.244 61.1521 153.335 61.2431 153.426C61.2431 153.426 61.2431 153.426 61.2431 153.517C61.2431 153.608 61.6981 154.336 61.5161 153.972C61.7891 154.427 62.6081 154.7 63.0631 154.336C63.7911 153.79 63.9731 153.062 63.6091 152.152V152.243Z" fill="white"/>
<path d="M40.6771 197.834C40.4041 197.561 39.9491 197.197 39.4941 197.197C39.6761 196.287 39.7671 195.468 39.7671 194.558C39.7671 193.921 38.9481 193.375 38.4021 193.739C37.0371 194.74 35.6721 196.469 36.1271 198.289C36.5821 200.109 39.3121 201.292 40.6771 199.654C41.1321 199.108 41.2231 198.38 40.6771 197.925V197.834Z" fill="white"/>
<path d="M59.9691 191.1C59.1501 190.827 58.3311 190.918 57.6031 191.1C57.1481 191.191 56.7841 191.373 56.4201 191.555C56.0561 191.737 55.7831 192.101 55.5101 192.283C55.2371 192.465 55.1461 193.011 55.5101 193.193C56.1471 193.466 56.6931 193.921 57.4211 194.012C57.7851 194.012 58.0581 194.012 58.4221 194.012C58.6041 194.012 58.6951 194.012 58.8771 194.012C59.1501 194.558 59.7871 194.922 60.4241 194.74C62.4261 194.103 61.8801 191.555 60.0601 191.009L59.9691 191.1Z" fill="white"/>
<path d="M72.8001 161.616C72.7091 161.616 72.6181 161.616 72.5271 161.616C72.5271 161.616 72.5271 161.616 72.4361 161.616C72.4361 161.616 72.4361 161.616 72.3451 161.616C72.3451 161.343 72.1631 161.07 71.8901 161.161C71.6171 161.252 71.4351 161.434 71.3441 161.616C71.3441 161.798 71.1621 161.98 71.1621 162.162C71.1621 162.435 71.2531 162.617 71.4351 162.799C71.7081 163.072 72.0721 163.254 72.4361 163.163C72.8001 163.163 73.2551 162.89 73.3461 162.435C73.3461 162.071 73.3461 161.798 72.8911 161.707L72.8001 161.616Z" fill="white"/>
<path d="M81.9909 158.613C81.6269 158.522 81.2629 158.522 80.8989 158.613C80.7169 158.613 80.4439 158.795 80.3529 158.886C79.6249 158.613 78.9879 159.705 79.6249 160.16C79.9889 160.433 80.3529 160.615 80.8079 160.615C80.9899 160.615 81.0809 160.615 81.2629 160.615C81.2629 160.797 81.4449 160.979 81.6269 161.07C82.0819 161.343 82.7189 161.161 82.9919 160.706C83.3559 159.887 82.9919 158.977 82.1729 158.704L81.9909 158.613Z" fill="white"/>
<path d="M70.525 183.547C70.434 183.547 70.343 183.547 70.252 183.547C70.252 183.547 70.07 183.456 69.979 183.365C69.615 183.365 69.16 183.365 68.978 183.729C68.614 184.366 69.069 185.094 69.615 185.367C70.161 185.64 70.889 185.367 71.162 184.912C71.435 184.457 71.162 183.82 70.707 183.729L70.525 183.547Z" fill="white"/>
<path d="M82.355 180.362C82.082 179.907 81.627 179.725 81.081 179.634C80.626 179.634 80.262 179.725 79.989 179.998C79.534 180.362 79.807 181.272 80.353 181.363C80.353 181.363 80.444 181.363 80.535 181.363C80.535 182 81.081 182.455 81.627 182.273C82.537 182.091 82.81 180.908 82.355 180.18V180.362Z" fill="white"/>
<path d="M86.814 124.579C84.721 122.577 82.173 120.939 79.534 119.756C76.986 118.664 74.347 117.754 71.617 117.754C70.252 117.754 66.885 118.118 67.886 120.393C68.614 121.94 70.707 121.94 72.163 122.395C74.347 122.941 76.531 123.578 78.533 124.579C80.444 125.58 82.173 126.763 83.811 128.219C85.267 129.584 86.541 131.586 88.361 132.405C89.453 132.86 90.818 132.405 90.818 131.04C90.818 128.492 88.634 126.308 86.814 124.67V124.579Z" fill="white"/>
<path d="M94.0029 136.864C93.0929 135.954 91.7279 137.137 92.2739 138.229C93.3659 140.413 93.7299 142.688 94.3669 145.054C94.9129 146.783 97.2789 146.328 97.4609 144.599C97.6429 141.596 96.0049 138.866 94.0029 136.864Z" fill="white"/>
<path d="M39.949 228.865C39.039 227.045 36.764 226.317 35.126 225.225C33.306 223.86 31.577 222.222 30.121 220.402C27.3 216.853 25.753 212.576 23.66 208.663C23.387 208.208 22.659 208.299 22.568 208.845C21.294 214.032 23.569 219.037 26.663 223.132C28.301 225.225 30.121 227.045 32.305 228.592C34.125 229.957 36.673 231.777 39.039 231.14C40.04 230.867 40.404 229.775 39.949 228.956V228.865Z" fill="white"/>
<path d="M60.5151 229.32C59.4231 229.32 58.6951 229.775 57.7851 230.23C56.9661 230.685 56.0561 230.958 55.1461 231.049C54.2361 231.14 51.4151 231.231 51.8701 232.96C52.4161 235.053 55.1461 235.053 56.8751 234.871C58.8771 234.598 61.7891 233.87 62.2441 231.595C62.5171 230.412 61.6981 229.32 60.5151 229.32Z" fill="white"/>
<path d="M90.909 195.013C89.271 197.561 88.179 200.473 87.178 203.294C86.814 204.386 88.179 204.932 88.907 204.295C91.455 202.202 93.366 199.108 93.457 195.741C93.457 194.285 91.637 194.012 90.909 195.013Z" fill="white"/>
<path d="M29.484 171.626C28.392 174.356 27.573 177.086 27.209 180.089C26.845 182.728 26.299 185.367 28.119 187.46C28.847 188.279 30.303 188.188 31.031 187.46C32.76 185.64 32.487 183.274 32.76 180.908C33.033 178.178 33.397 175.539 33.943 172.809C34.489 169.897 30.576 168.805 29.484 171.626Z" fill="white"/>
<path d="M77.8051 192.829C74.8931 196.014 73.2551 199.745 71.1621 203.476C70.0701 205.387 72.4361 208.39 74.5291 206.843C78.4421 203.84 81.8091 200.837 83.3561 196.014C84.3571 192.92 80.0801 190.372 77.8961 192.829H77.8051Z" fill="white"/>
<path d="M69.433 132.223C63.609 126.399 54.236 132.587 50.596 137.956C49.322 139.776 51.87 142.233 53.69 141.05C55.965 139.503 58.604 138.684 61.243 137.956C63.882 137.319 66.521 137.41 68.978 136.045C70.343 135.317 70.525 133.315 69.433 132.223Z" fill="white"/>
</svg>
