<svg width="114" height="114" viewBox="0 0 114 114" fill="none" xmlns="http://www.w3.org/2000/svg">
<path d="M95.6081 50.084C95.0001 65.588 82.1561 77.9759 66.5001 77.9759C50.8441 77.9759 37.3921 64.9039 37.3921 48.792C37.3921 32.6799 50.4641 19.684 66.5001 19.684C82.5361 19.684 70.1481 19.836 71.8961 20.216C67.3361 18.316 62.2441 17.252 57.0001 17.252C35.4161 17.252 17.8601 34.732 17.8601 56.3919C17.8601 78.0519 35.3401 95.532 57.0001 95.532C78.6601 95.532 96.1401 78.0519 96.1401 56.3919C96.1401 34.732 95.9881 52.136 95.6081 50.084Z" fill="#8EFDFB" stroke="black" stroke-width="2" stroke-linecap="round" stroke-linejoin="round"/>
<path d="M38.6839 65.968C35.3399 58.672 33.0599 51.908 32.9079 43.776C32.9079 42.332 30.9319 42.104 30.4759 43.472C27.7399 51.68 29.6399 61.94 36.0999 68.02C37.5439 69.388 39.5199 67.716 38.6839 65.968Z" fill="white"/>
<path d="M49.628 77.5198C49.02 76.9878 48.26 76.7598 47.576 76.3798C46.892 75.9998 46.284 75.5438 45.828 74.9358C45.448 74.4038 44.46 74.9358 44.688 75.5438C45.296 77.2158 46.892 79.4198 48.944 79.1918C49.704 79.1158 50.388 78.1278 49.628 77.5198Z" fill="white"/>
<path d="M47.196 22.7239C47.044 22.2679 46.512 21.8879 45.98 22.0399C44.46 22.6479 43.396 23.7119 42.56 25.0799C42.256 25.6119 42.94 26.1439 43.396 25.6879C44.308 24.8519 45.372 24.3199 46.512 23.9399C46.968 23.7879 47.348 23.2559 47.196 22.7239Z" fill="white"/>
<path d="M85.5761 76.076C84.2841 76.76 82.9921 77.292 81.7001 77.976C80.4841 78.66 79.4961 79.496 78.5081 80.56C78.0521 81.016 78.4321 81.776 79.0401 81.776C80.7121 81.852 82.0801 81.472 83.5241 80.484C84.8921 79.496 85.7281 78.356 86.5641 76.912C86.8681 76.304 86.2601 75.772 85.7281 76.076H85.5761Z" fill="white"/>
<path d="M60.9521 34.808C60.0401 36.024 57.4561 36.784 56.3921 36.86C57.9881 36.708 60.3441 38 61.4081 39.52C62.4721 41.04 63.5361 47.044 63.6121 49.096C63.5361 47.424 63.4601 45.752 63.6121 44.156C63.7641 42.56 63.7641 40.204 65.1321 38.684C65.8161 38 68.4001 36.328 69.3881 36.48C67.6401 36.252 65.9681 35.948 64.6761 34.656C63.1561 33.06 63.0041 29.336 62.7761 27.208C62.8521 28.424 62.6241 32.604 60.9521 34.808Z" fill="#CDBDF4" stroke="black" stroke-width="2" stroke-linecap="round" stroke-linejoin="round"/>
<path d="M77.0641 59.5082C77.0641 56.3922 80.5601 55.5562 80.5601 55.5562C77.9001 55.5562 77.0641 51.9082 77.0641 51.9082C77.0641 51.9082 76.2281 55.5562 73.5681 55.5562C73.5681 55.5562 77.0641 56.3162 77.0641 59.5082Z" fill="#CDBDF4" stroke="black" stroke-width="2" stroke-linecap="round" stroke-linejoin="round"/>
<path d="M25.7641 100.928C25.7641 97.8121 29.2601 95.3801 29.2601 95.3801C26.6001 95.3801 25.7641 90.5161 25.7641 90.5161C25.7641 90.5161 24.9281 95.3801 22.2681 95.3801C22.2681 95.3801 25.7641 97.7361 25.7641 100.928Z" fill="#CDBDF4" stroke="black" stroke-width="2" stroke-linecap="round" stroke-linejoin="round"/>
<path d="M47.652 86.1842C44.384 83.8282 40.584 82.3082 37.316 79.8762C34.352 77.5962 31.16 75.5442 28.196 73.2642C27.664 72.8842 27.056 73.4922 27.132 74.0242C28.272 78.7362 30.172 82.1562 34.048 85.2722C37.62 88.0842 41.724 90.5162 46.36 90.6682C48.944 90.7442 49.4 87.4762 47.576 86.1842H47.652Z" fill="#00F8F2"/>
<path d="M65.1321 86.564C62.1681 87.02 59.2801 88.084 56.3921 88.616C54.7201 88.92 55.0241 91.2 56.3921 91.656C59.9641 92.948 64.2201 92.568 67.1081 89.984C68.7801 88.464 66.9561 86.26 65.1321 86.564Z" fill="#00F8F2"/>
</svg>
