<svg width="157" height="30" viewBox="0 0 157 30" fill="none" xmlns="http://www.w3.org/2000/svg">
<g clip-path="url(#clip0_923_61341)">
<path d="M36.5469 13.2463V1.18555H44.0182V3.76717H39.2663V5.9416H42.9762V8.52323H39.2663V13.2447H36.5485L36.5469 13.2463Z" fill="#676767"/>
<path d="M45.4023 13.2463V1.18555H48.1201V13.2463H45.4023Z" fill="#676767"/>
<path d="M61.0614 13.2463H58.7187L52.8037 5.78994V13.2463H50.0859V1.18555H52.4287L58.3271 8.64193V1.18555H61.0631V13.2463H61.0614Z" fill="#676767"/>
<path d="M62.0352 13.2463L67.2317 1.18555H69.6939L74.8905 13.2463H72.0533L70.9765 10.6977H65.9508L64.874 13.2463H62.0368H62.0352ZM68.4628 4.73487L66.9248 8.35343H69.9843L68.4628 4.73487Z" fill="#676767"/>
<path d="M86.7724 13.2463H84.4296L78.5146 5.78994V13.2463H75.7969V1.18555H78.1396L84.038 8.64193V1.18555H86.774V13.2463H86.7724Z" fill="#676767"/>
<path d="M94.3805 13.4491C92.6483 13.4491 91.1683 12.8408 89.9438 11.6225C88.7177 10.4059 88.1055 8.93538 88.1055 7.2143C88.1055 5.49321 88.7177 4.02436 89.9438 2.80608C91.1683 1.58945 92.6483 0.979492 94.3805 0.979492C95.6232 0.979492 96.7448 1.27953 97.7486 1.8796C98.7508 2.47967 99.5206 3.27757 100.057 4.27494L97.6624 5.56575C96.9323 4.25186 95.8389 3.59574 94.3805 3.59574C93.3999 3.59574 92.5653 3.95182 91.8751 4.66564C91.1849 5.37946 90.8415 6.22846 90.8415 7.2143C90.8415 8.20013 91.1866 9.04913 91.8751 9.76295C92.5653 10.4768 93.3999 10.8329 94.3805 10.8329C95.8389 10.8329 96.934 10.1767 97.6624 8.86284L100.057 10.1537C99.5206 11.151 98.7508 11.9489 97.7486 12.549C96.7448 13.1491 95.6232 13.4491 94.3805 13.4491Z" fill="#676767"/>
<path d="M101.371 13.2463V1.18555H109.065V3.76717H104.09V5.92512H108.039V8.50674H104.09V10.6647H109.065V13.2463H101.371Z" fill="#676767"/>
<path d="M35.2461 28.8157L40.4427 16.7549H42.9049L48.1014 28.8157H45.2642L44.1874 26.267H39.1618L38.085 28.8157H35.2477H35.2461ZM41.6738 20.3059L40.1357 23.9244H43.1952L41.6738 20.3059Z" fill="#676767"/>
<path d="M53.8727 29.0194C52.1405 29.0194 50.6605 28.4111 49.436 27.1928C48.2116 25.9762 47.5977 24.5057 47.5977 22.7846C47.5977 21.0635 48.2099 19.5947 49.436 18.3764C50.6605 17.1598 52.1405 16.5498 53.8727 16.5498C55.1154 16.5498 56.237 16.8498 57.2408 17.4499C58.243 18.05 59.0128 18.8479 59.5488 19.8453L57.1546 21.1361C56.4245 19.8222 55.3311 19.166 53.8727 19.166C52.8921 19.166 52.0575 19.5221 51.3673 20.236C50.6771 20.9498 50.3336 21.7988 50.3336 22.7846C50.3336 23.7704 50.6788 24.6194 51.3673 25.3333C52.0575 26.0471 52.8921 26.4032 53.8727 26.4032C55.3311 26.4032 56.4262 25.747 57.1546 24.4332L59.5488 25.724C59.0128 26.7213 58.243 27.5192 57.2408 28.1193C56.237 28.7194 55.1154 29.0194 53.8727 29.0194Z" fill="#676767"/>
<path d="M66.1891 29.0194C64.4569 29.0194 62.9769 28.4111 61.7524 27.1928C60.528 25.9762 59.9141 24.5057 59.9141 22.7846C59.9141 21.0635 60.5263 19.5947 61.7524 18.3764C62.9769 17.1598 64.4569 16.5498 66.1891 16.5498C67.4318 16.5498 68.5534 16.8498 69.5572 17.4499C70.5594 18.05 71.3292 18.8479 71.8652 19.8453L69.471 21.1361C68.7409 19.8222 67.6475 19.166 66.1891 19.166C65.2085 19.166 64.3739 19.5221 63.6837 20.236C62.9935 20.9498 62.6501 21.7988 62.6501 22.7846C62.6501 23.7704 62.9952 24.6194 63.6837 25.3333C64.3723 26.0471 65.2085 26.4032 66.1891 26.4032C67.6475 26.4032 68.7426 25.747 69.471 24.4332L71.8652 25.724C71.3292 26.7213 70.5594 27.5192 69.5572 28.1193C68.5534 28.7194 67.4318 29.0194 66.1891 29.0194Z" fill="#676767"/>
<path d="M73.0898 28.8157V16.7549H80.7835V19.3365H75.8092V21.4945H79.7581V24.0761H75.8092V26.234H80.7835V28.8157H73.0898Z" fill="#676767"/>
<path d="M82.6306 28.8157V16.7549H85.3483V26.234H90.374V28.8157H82.6289H82.6306Z" fill="#676767"/>
<path d="M91.3945 28.8157V16.7549H99.0882V19.3365H94.1139V21.4945H98.0628V24.0761H94.1139V26.234H99.0882V28.8157H91.3945Z" fill="#676767"/>
<path d="M100.941 28.8157V16.7549H105.728C106.845 16.7549 107.751 17.106 108.446 17.8083C109.141 18.5106 109.49 19.3711 109.49 20.3899C109.49 21.9082 108.696 22.9435 107.114 23.4991L111.404 28.8157H108.139L104.087 23.8387H103.659V28.8157H100.941ZM103.659 21.5456H105.403C105.813 21.5456 106.146 21.4384 106.403 21.2224C106.661 21.0081 106.788 20.7295 106.788 20.3899C106.788 20.0272 106.661 19.7437 106.403 19.5409C106.146 19.3382 105.814 19.2359 105.403 19.2359H103.659V21.5456Z" fill="#676767"/>
<path d="M111.469 28.8157L116.665 16.7549H119.128L124.324 28.8157H121.487L120.41 26.267H115.384L114.308 28.8157H111.47H111.469ZM117.896 20.3059L116.358 23.9244H119.418L117.896 20.3059Z" fill="#676767"/>
<path d="M126.149 28.8157V19.3365H123.055V16.7549H132.013V19.3365H128.883V28.8157H126.147H126.149Z" fill="#676767"/>
<path d="M142.958 27.1846C141.733 28.4078 140.253 29.0194 138.521 29.0194C136.789 29.0194 135.309 28.4111 134.084 27.1928C132.858 25.9762 132.246 24.5057 132.246 22.7846C132.246 21.0635 132.858 19.5947 134.084 18.3764C135.309 17.1598 136.789 16.5498 138.521 16.5498C140.253 16.5498 141.732 17.1614 142.958 18.3846C144.182 19.6079 144.796 21.0751 144.796 22.7846C144.796 24.4941 144.184 25.9614 142.958 27.1846ZM136.016 25.3333C136.706 26.0471 137.541 26.4032 138.521 26.4032C139.502 26.4032 140.333 26.0471 141.017 25.3333C141.7 24.6194 142.042 23.7704 142.042 22.7846C142.042 21.7988 141.7 20.9498 141.017 20.236C140.333 19.5221 139.5 19.166 138.521 19.166C137.542 19.166 136.706 19.5221 136.016 20.236C135.326 20.9498 134.982 21.7988 134.982 22.7846C134.982 23.7704 135.327 24.6194 136.016 25.3333Z" fill="#676767"/>
<path d="M146.297 28.8157V16.7549H151.084C152.2 16.7549 153.106 17.106 153.801 17.8083C154.497 18.5106 154.845 19.3711 154.845 20.3899C154.845 21.9082 154.052 22.9435 152.469 23.4991L156.76 28.8157H153.494L149.443 23.8387H149.015V28.8157H146.297ZM149.015 21.5456H150.758C151.168 21.5456 151.502 21.4384 151.759 21.2224C152.016 21.0081 152.144 20.7295 152.144 20.3899C152.144 20.0272 152.016 19.7437 151.759 19.5409C151.502 19.3382 151.17 19.2359 150.758 19.2359H149.015V21.5456Z" fill="#676767"/>
<path d="M28.0601 10.8932C25.7771 13.1599 22.0771 13.1599 19.7958 10.8932C17.5127 8.62479 13.8127 8.62479 11.5314 10.8932C9.24832 13.1599 9.24832 16.8379 11.5314 19.1046C13.8127 21.3714 13.8127 25.0493 11.5314 27.316C9.24832 29.5828 5.54834 29.5828 3.26696 27.316C0.983928 25.0476 0.983928 21.3714 3.26696 19.1046C5.54834 16.8362 5.54834 13.1599 3.26696 10.8932C0.985587 8.62644 0.983928 4.94852 3.26696 2.68177C5.54834 0.413368 9.24998 0.413368 11.5314 2.68177C13.8127 4.94852 17.5144 4.94852 19.7958 2.68177C22.0771 0.413368 25.7788 0.413368 28.0601 2.68177C30.3415 4.94852 30.3415 8.62644 28.0601 10.8932ZM28.0601 19.1062C25.7771 16.8378 22.0771 16.8378 19.7958 19.1062C17.5127 21.3746 17.5127 25.0509 19.7958 27.3177C22.0788 29.5861 25.7788 29.5861 28.0601 27.3177C30.3432 25.0493 30.3432 21.373 28.0601 19.1062Z" fill="#676767"/>
</g>
<defs>
<clipPath id="clip0_923_61341">
<rect width="156" height="30" fill="white" transform="translate(0.921875)"/>
</clipPath>
</defs>
</svg>
