<svg width="115" height="115" viewBox="0 0 115 115" fill="none" xmlns="http://www.w3.org/2000/svg">
<path d="M69.3406 47.048C73.7486 45.072 83.7806 51.988 81.6526 61.184C88.7206 63.768 96.8526 71.368 88.1886 81.02C76.1046 94.396 41.9806 95.688 22.3726 87.024C14.6966 83.604 11.3526 77.22 13.0246 69.468C14.1646 63.996 18.6486 60.652 24.1206 60.652C24.1206 48.264 34.6846 46.592 35.6726 47.048H35.8246C35.3686 42.184 40.0806 36.484 46.6166 36.256C46.0846 32.684 53.3806 28.504 48.8966 23.868C51.8606 23.488 57.7126 27.896 59.7646 34.432C64.1726 34.052 71.0126 40.436 69.4166 47.2L69.3406 47.048Z" fill="#CDBDF4"/>
<path d="M60.2966 86.5683C60.4486 86.4163 60.5246 86.1883 60.3726 85.8843C60.2206 85.3523 59.0806 85.2003 58.6246 84.9723C56.9526 84.0603 55.7366 82.3123 55.4326 80.4123C55.1286 77.9803 58.3966 77.0683 58.1686 74.9403C58.1686 74.3323 57.6366 73.8763 57.1806 73.4963C55.1286 71.8243 52.6966 70.7603 50.4926 69.3163C48.2886 67.8723 46.0846 66.1243 45.2486 63.6163C44.8686 62.4763 44.7926 61.2603 44.7166 60.0443C44.7166 58.7523 44.8686 57.2323 45.9326 56.4723C46.4646 56.0923 47.3006 55.7883 47.1486 55.1803C47.1486 54.9523 46.8446 54.7243 46.6166 54.5723C44.7166 53.2043 43.4246 50.8483 43.2726 48.5683C43.1206 46.2883 44.1846 44.6163 42.3606 43.6283C37.4206 40.9683 38.9406 49.4803 36.4326 50.6203C35.9766 50.8483 35.5206 50.8483 35.0646 50.9243C32.7086 51.2283 30.5046 52.5203 28.9846 54.4203C27.4646 56.3203 27.2366 58.0683 27.0086 60.2723C26.8566 61.7163 27.3886 63.9963 26.5526 65.1363C25.7166 66.2763 23.5886 66.2763 22.2966 66.7323C20.0926 67.4163 18.4206 69.3163 17.8886 71.5203C17.2046 74.4843 18.7246 77.5243 20.7766 79.7283C25.2606 84.3643 32.1766 86.1123 38.2566 87.4803C42.7406 88.4683 47.3006 88.7723 51.8606 88.3923C56.4206 88.0123 56.4966 87.7843 58.7006 87.1763C60.9046 86.5683 59.9166 86.9483 60.2206 86.6443L60.2966 86.5683Z" fill="#B897F0"/>
<path d="M36.5845 49.4802C36.1285 48.7202 35.9005 47.8842 35.8245 46.9722C35.3685 42.1082 40.0805 36.4842 46.6165 36.1802" stroke="black" stroke-width="2" stroke-linecap="round" stroke-linejoin="round"/>
<path d="M24.1206 60.5764C24.1206 48.1884 34.6846 46.5164 35.6726 46.9724" stroke="black" stroke-width="2" stroke-linecap="round" stroke-linejoin="round"/>
<path d="M25.5646 63.6919C33.4686 75.5479 52.6966 78.1319 65.8446 73.7999C78.9926 69.4679 81.7286 61.1079 81.7286 61.1079" stroke="black" stroke-width="2" stroke-linecap="round" stroke-linejoin="round"/>
<path d="M59.6886 34.2803C64.0966 33.9003 70.9366 40.2843 69.3406 47.0483C73.7486 45.0723 83.7806 51.9883 81.6526 61.1843C88.7206 63.7683 96.8526 71.3683 88.1886 81.0203C76.1046 94.3963 42.0566 96.2963 21.8406 86.4163C16.5966 83.8323 11.2766 77.9043 12.9486 70.0763C14.0886 64.6043 18.7246 60.6523 24.1966 60.6523" stroke="black" stroke-width="2" stroke-linecap="round" stroke-linejoin="round"/>
<path d="M69.3406 47.0483C68.3526 51.0003 65.9206 55.5603 60.3726 57.4603C51.8606 60.4243 43.5766 57.9923 40.0046 54.8763" stroke="black" stroke-width="2" stroke-linecap="round" stroke-linejoin="round"/>
<path d="M51.2526 44.8441C58.0166 44.5401 60.7526 38.5361 59.9926 35.3441C59.9166 34.9641 59.8406 34.6601 59.6886 34.2801C57.7126 27.7441 51.8606 23.3361 48.8206 23.7161C53.3046 28.3521 46.0086 32.5321 46.5406 36.1041C46.5406 36.3321 46.6166 36.4841 46.6926 36.7121C47.6046 38.8401 49.3526 39.4481 49.5806 39.4481" stroke="black" stroke-width="2" stroke-linecap="round" stroke-linejoin="round"/>
<path d="M58.1686 33.9764C57.7886 32.3044 56.8006 30.6324 55.2046 29.8724C54.0646 29.3404 52.6206 30.1764 53.0006 31.5444C53.3806 32.9884 54.1406 34.3564 54.2926 35.8764C54.4446 37.2444 55.1286 39.4484 56.9526 38.6124C58.6246 37.8524 58.4726 35.4204 58.1686 33.9004V33.9764Z" fill="#DDD6F2"/>
<path d="M62.7286 47.4283C61.8926 48.4923 60.9046 49.6323 59.8406 50.3923C58.7006 51.1523 57.6366 51.6843 56.7246 52.6723C56.4966 52.9003 56.5726 53.2043 56.7246 53.4323C58.1686 55.1803 60.6006 54.8003 62.3486 53.8123C64.4006 52.6723 65.6166 50.5443 65.5406 48.1883C65.5406 46.5923 63.6406 46.2883 62.7286 47.4283Z" fill="#DDD6F2"/>
<path d="M65.3887 40.5881C65.1607 39.9041 64.5527 39.4481 63.8687 39.6001C63.2607 39.6761 62.5767 40.2841 62.6527 40.9681C62.7287 41.5761 62.8807 41.9561 63.1087 42.4881C63.2607 42.7921 63.3367 43.1721 63.4127 43.4761C63.5647 44.0841 64.5527 44.2361 64.8567 43.6281C65.3127 42.7161 65.6927 41.5761 65.3887 40.5881Z" fill="#DDD6F2"/>
<path d="M78.0806 56.4719C77.9286 55.408 76.7126 54.7239 75.6486 54.6479C74.5086 54.6479 73.5966 55.484 73.2166 56.4719C72.6846 58.2199 72.6086 59.436 71.2406 60.88C68.5806 63.616 65.0846 64.6799 62.0446 66.7319C60.9806 67.4919 60.9046 69.4679 62.4246 69.7719C69.3406 71.1399 79.1446 63.9199 78.0046 56.396L78.0806 56.4719Z" fill="#DDD6F2"/>
<path d="M74.5087 50.0122C74.0527 49.1002 72.6847 49.1762 72.1527 49.8602C71.5447 50.6962 71.9247 51.7602 72.9127 52.0642C73.0647 52.0642 73.1407 52.2162 73.2927 52.2162C73.4447 52.2162 73.5207 52.2162 73.5967 52.2162C73.4447 52.2162 73.5207 52.2162 73.5967 52.2162C73.5967 52.2162 73.5967 52.2162 73.6727 52.2162C73.6727 52.2162 73.6727 52.2922 73.7487 52.3682C73.9007 52.5962 74.2047 52.5962 74.3567 52.3682C74.5087 52.0642 74.6607 51.7602 74.8127 51.4562C75.0407 50.8482 74.8127 50.3922 74.5847 49.8602L74.5087 50.0122Z" fill="#DDD6F2"/>
<path d="M84.3887 70.7602C82.1087 72.2042 80.8927 75.0162 78.7647 76.7642C76.5607 78.6642 73.8247 79.7282 71.5447 81.4002C70.1767 82.4642 70.7087 84.3642 72.3807 84.5162C75.8767 84.8962 79.2207 82.9962 81.8807 80.9442C84.3127 79.0442 87.6567 76.0042 87.6567 72.6602C87.6567 70.9882 85.7567 69.8482 84.3127 70.7602H84.3887Z" fill="#DDD6F2"/>
<path d="M86.2886 65.288C86.0606 64.984 85.8326 64.68 85.4526 64.528C85.0726 64.376 84.6926 64.3 84.3126 64.452C83.8566 64.604 83.4006 64.832 83.2486 65.288C83.1726 65.516 83.0206 65.82 82.9446 66.048C82.9446 66.2 82.9446 66.352 82.9446 66.504C82.9446 66.732 82.9446 66.96 83.0966 67.188C83.2486 67.492 83.4766 67.872 83.7806 68.024C84.0086 68.1 84.1606 68.176 84.3886 68.252C84.9206 68.404 85.4526 68.252 85.8326 67.872C86.2126 67.568 86.3646 67.112 86.5166 66.732C86.6686 66.352 86.5166 65.744 86.3646 65.364L86.2886 65.288Z" fill="#DDD6F2"/>
<path d="M65.7686 91.6602C63.7166 93.6362 63.4126 97.0562 65.7686 98.9562C68.1246 100.856 68.5806 100.4 70.1006 100.476C72.9886 100.628 76.1806 100.4 78.7646 98.9562C81.3486 97.5122 84.2366 93.7882 81.7286 91.0522C79.5246 88.6962 76.1046 87.6322 72.9126 88.0882C69.7206 88.5442 67.8206 89.7602 65.8446 91.6602H65.7686Z" fill="#CDBDF4" stroke="black" stroke-width="2" stroke-linecap="round" stroke-linejoin="round"/>
<path d="M74.8886 96.2963C73.5966 95.7643 72.0766 96.1443 70.6326 95.9163C69.0366 95.6883 68.0486 95.0803 66.8326 94.1683C66.4526 93.9403 65.9966 94.0163 65.8446 94.3963C64.8566 96.2963 67.2886 97.7403 68.8086 98.2723C70.7846 98.9563 73.7486 99.3363 75.3446 97.7403C75.8006 97.2843 75.4966 96.4483 74.9646 96.2203L74.8886 96.2963Z" fill="#B897F0"/>
<path d="M77.2447 90.5201C76.8647 90.0641 76.1047 89.9881 75.5727 89.8361C75.0407 89.7601 74.4327 89.6841 73.9007 89.6841C73.3687 89.6841 72.7607 89.6841 72.2287 89.8361C71.6207 89.9881 71.0127 90.2161 70.7847 90.8241C70.7847 90.9761 70.7847 91.2041 70.9367 91.3561C71.1647 91.5841 71.4687 91.6601 71.7727 91.6601C72.0007 91.6601 72.2287 91.6601 72.4567 91.6601C72.6087 91.6601 72.6847 91.6601 72.7607 91.6601C72.8367 91.6601 72.9887 91.6601 73.0647 91.6601C73.2927 91.6601 73.5967 91.6601 73.8247 91.6601C74.0527 91.6601 74.3567 91.6601 74.5847 91.6601C74.6607 91.6601 74.8127 91.6601 74.8887 91.6601C74.8887 91.6601 75.2687 91.6601 75.1167 91.6601C75.6487 91.6601 76.2567 91.9641 76.7887 91.8121C77.3967 91.6601 77.4727 90.9761 77.0927 90.5961L77.2447 90.5201Z" fill="#DDD6F2"/>
<path d="M80.5887 92.4962C80.4367 92.3442 80.2847 92.1162 80.1327 91.9642C80.0567 91.9642 79.9047 91.8122 79.8287 91.8122C79.6767 91.8122 79.5247 91.6602 79.3727 91.6602H79.2207C79.0687 91.6602 78.9927 91.6602 78.8407 91.6602C78.5367 91.7362 78.3847 92.1162 78.5367 92.4202C78.5367 92.4962 78.6127 92.5722 78.6887 92.6482C78.6887 92.6482 78.7647 92.6482 78.8407 92.7242C78.9167 92.7242 78.9927 92.8762 79.0687 92.9522C79.1447 92.9522 79.2207 93.1042 79.2967 93.1802C79.3727 93.2562 79.4487 93.3322 79.6007 93.4082C79.6007 93.4082 79.6767 93.4082 79.7527 93.4842H79.9047C79.9807 93.4842 80.1327 93.4842 80.2087 93.4842C80.3607 93.4842 80.5127 93.4082 80.5887 93.2562C80.6647 93.1802 80.7407 93.0282 80.7407 92.9522C80.7407 92.8762 80.7407 92.7242 80.7407 92.6482C80.7407 92.5722 80.7407 92.4962 80.6647 92.3442L80.5887 92.4962Z" fill="#DDD6F2"/>
</svg>
