<svg width="64" height="58" viewBox="0 0 64 58" fill="none" xmlns="http://www.w3.org/2000/svg">
<g clip-path="url(#clip0_923_61310)">
<rect width="63" height="58" transform="translate(0.960938)" fill="#676767"/>
<path d="M63.9609 0H0.960938V58H63.9609V0Z" fill="white"/>
<path d="M60.158 51.1433L58.0696 45.1543H56.3906V54.2259H57.5675V47.0506L60.1196 54.2259H61.3494V45.1543H60.158V51.1433Z" fill="#676767"/>
<path d="M7.75607 2.8252V28.6409H4.07812V2.8252H7.75607Z" fill="#676767"/>
<path d="M16.1623 12.3086V28.6408H12.4844V12.3086H16.1623Z" fill="#676767"/>
<path d="M26.1473 12.3086V28.6408H22.4688V12.3086H26.1473Z" fill="#676767"/>
<path d="M34.5536 2.8252V28.6409H30.875V2.8252H34.5536Z" fill="#676767"/>
<path d="M44.5373 12.3086V28.6408H40.8594V12.3086H44.5373Z" fill="#676767"/>
<path d="M52.9436 12.3086V28.6408H49.2656V12.3086H52.9436Z" fill="#676767"/>
<path d="M61.3498 12.3086V28.6408H57.6719V12.3086H61.3498Z" fill="#676767"/>
<path d="M5.26946 38.2878H7.61557V42.4954H8.80691V33.4238H7.61557V37.2398H5.26946V33.4238H4.07812V42.4954H5.26946V38.2878Z" fill="#676767"/>
<path d="M12.5424 33.3018C10.8112 33.3018 9.93359 34.869 9.93359 37.9598C9.93359 41.0506 10.8112 42.6178 12.5424 42.6178C14.2737 42.6178 15.1513 41.0506 15.1513 37.9598C15.1513 34.869 14.2737 33.3018 12.5424 33.3018ZM12.5424 41.5705C11.9338 41.5705 11.1249 41.1959 11.1249 37.9598C11.1249 34.7237 11.9338 34.3497 12.5424 34.3497C13.1504 34.3497 13.9593 34.7237 13.9593 37.9598C13.9593 41.1959 13.151 41.5705 12.5424 41.5705Z" fill="#676767"/>
<path d="M18.6999 42.6178C20.263 42.6178 21.1739 41.46 21.1985 39.4411L21.2004 39.3198H20.0091L20.0078 39.4386C19.9858 40.9129 19.5826 41.5705 18.7006 41.5705C17.6371 41.5705 17.2219 40.5579 17.2219 37.9598C17.2219 35.3617 17.6365 34.3497 18.7006 34.3497C19.3973 34.3497 19.7747 34.9441 19.8862 36.2214L19.8963 36.3307H21.087L21.0763 36.2012C20.9295 34.3042 20.1073 33.3018 18.7006 33.3018C16.9038 33.3018 16.0313 34.8254 16.0313 37.9598C16.0306 41.0948 16.9038 42.6178 18.6999 42.6178Z" fill="#676767"/>
<path d="M27.1044 42.4954V33.4238H25.9124V37.2398H23.5663V33.4238H22.375V42.4954H23.5663V38.2878H25.9124V42.4954H27.1044Z" fill="#676767"/>
<path d="M30.7811 37.2441C29.9854 36.704 29.2981 36.2366 29.2981 35.3914C29.2981 34.7685 29.7353 34.3497 30.3861 34.3497C31.1257 34.3497 31.5415 34.8475 31.6209 35.8291L31.6297 35.9397H32.7448L32.7391 35.814C32.6641 34.2411 31.8073 33.3018 30.4478 33.3018C29.1065 33.3018 28.205 34.176 28.205 35.4766C28.205 36.8714 29.2073 37.5732 30.1763 38.2529C30.982 38.8183 31.7425 39.3514 31.7425 40.2345C31.7425 41.0708 31.2989 41.5699 30.5574 41.5699C29.722 41.5699 29.2495 41.0121 29.2256 39.9989L29.2231 39.8814H28.1055L28.1074 40.0033C28.1338 41.5907 29.0568 42.6166 30.4598 42.6166C31.9699 42.6166 32.8361 41.7524 32.8361 40.2459C32.8361 38.6395 31.7443 37.8985 30.7811 37.2441Z" fill="#676767"/>
<path d="M37.6217 39.4386C37.5997 40.9129 37.1965 41.5705 36.3145 41.5705C35.251 41.5705 34.8365 40.5579 34.8365 37.9598C34.8365 35.3617 35.251 34.3497 36.3145 34.3497C37.0113 34.3497 37.3886 34.9441 37.5001 36.2214L37.5096 36.3307H38.7003L38.6902 36.2012C38.5428 34.3042 37.7206 33.3018 36.3138 33.3018C34.5171 33.3018 33.6445 34.8254 33.6445 37.9598C33.6445 41.0942 34.5177 42.6178 36.3138 42.6178C37.8762 42.6178 38.7872 41.46 38.8124 39.4411L38.8137 39.3198H37.6224L37.6217 39.4386Z" fill="#676767"/>
<path d="M41.1796 38.2878H43.5257V42.4954H44.7171V33.4238H43.5257V37.2398H41.1796V33.4238H39.9883V42.4954H41.1796V38.2878Z" fill="#676767"/>
<path d="M50.7958 40.0515V33.4238H49.6039V40.0268C49.6039 41.0944 49.2422 41.5707 48.4308 41.5707C47.62 41.5707 47.2577 41.095 47.2577 40.0268V33.4238H46.0664V40.0515C46.0664 41.7065 46.9062 42.6174 48.4308 42.6174C49.956 42.6174 50.7958 41.7058 50.7958 40.0515Z" fill="#676767"/>
<path d="M56.2412 41.4475H53.3866V33.4238H52.1953V42.4954H56.2412V41.4475Z" fill="#676767"/>
<path d="M58.1327 41.4475V38.2878H60.402V37.2398H58.1327V34.4712H61.2065V33.4238H56.9414V42.4954H61.3533V41.4475H58.1327Z" fill="#676767"/>
<path d="M5.83267 45.1543H4.07812V54.2259H5.83267C7.97404 54.2259 8.92912 52.8267 8.92912 49.6898C8.92912 46.5528 7.97404 45.1543 5.83267 45.1543ZM5.26946 46.2023H5.66194C6.97675 46.2023 7.73779 46.7727 7.73779 49.6898C7.73779 52.6075 6.97675 53.1779 5.66194 53.1779H5.26946V46.2023Z" fill="#676767"/>
<path d="M11.914 50.0183H14.1826V48.9703H11.914V46.2023H14.9878V45.1543H10.7227V54.2259H15.1345V53.1779H11.914V50.0183Z" fill="#676767"/>
<path d="M21.7467 47.5613C21.7467 46.0989 20.7513 45.1533 19.2115 45.1533H16.9688V54.2249H18.1601V50.0855L19.1996 50.0445L20.5862 54.1428L20.6133 54.2243H21.867L20.3626 49.7962C21.2559 49.4374 21.7467 48.6459 21.7467 47.5613ZM18.1601 46.2019H18.8695C20.0828 46.2019 20.5553 46.5967 20.5553 47.6106C20.5553 48.6238 20.0828 49.0186 18.8695 49.0186H18.1601V46.2019Z" fill="#676767"/>
<path d="M28.9785 50.2488L27.5226 45.1543H25.8008V54.2259H26.9159V46.9754L28.5545 52.401H29.3678L31.0065 46.9754V54.2259H32.1216V45.1543H30.3992L28.9785 50.2488Z" fill="#676767"/>
<path d="M35.2812 50.0183H37.5492V48.9703H35.2812V46.2023H38.3543V45.1543H34.0898V54.2259H38.5005V53.1779H35.2812V50.0183Z" fill="#676767"/>
<path d="M42.0599 45.1543H40.3047V54.2259H42.0599C44.2012 54.2259 45.1557 52.8267 45.1557 49.6898C45.1557 46.5528 44.2012 45.1543 42.0599 45.1543ZM41.496 46.2023H41.8891C43.2039 46.2023 43.965 46.7727 43.965 49.6898C43.965 52.6075 43.2039 53.1779 41.8891 53.1779H41.496V46.2023Z" fill="#676767"/>
<path d="M48.1445 45.1543H46.9531V54.2259H48.1445V45.1543Z" fill="#676767"/>
<path d="M51.3554 50.0183H53.624V48.9703H51.3554V46.2023H54.4298V45.1543H50.1641V54.2259H54.576V53.1779H51.3554V50.0183Z" fill="#676767"/>
</g>
<defs>
<clipPath id="clip0_923_61310">
<rect width="63" height="58" fill="white" transform="translate(0.960938)"/>
</clipPath>
</defs>
</svg>
