<svg width="216" height="40" viewBox="0 0 216 40" fill="none" xmlns="http://www.w3.org/2000/svg">
<path d="M40.8633 15.0479H43.2217L45.517 21.883L47.7997 15.0479H50.1581V23.8755H48.5816V17.2294L46.3872 23.8755H44.6467L42.4398 17.2294V23.8755H40.8633V15.0479H40.8633Z" fill="#676767"/>
<path d="M52.0117 14.833H53.6891V16.485H52.0117V14.833ZM52.037 17.3678H53.664V23.8752H52.037V17.3678Z" fill="#676767"/>
<path d="M55.4062 17.3673H56.97V18.389C57.3358 17.6449 58.0673 17.2539 59.051 17.2539C60.5013 17.2539 61.2201 18.1241 61.2201 19.5996V23.8748H59.5933V19.8897C59.5933 19.0952 59.1393 18.6916 58.4582 18.6916C57.6132 18.6916 57.0206 19.2717 57.0206 20.3436V23.8748H55.4062V17.3673Z" fill="#676767"/>
<path d="M62.8711 14.833H64.5485V16.485H62.8711V14.833ZM62.8964 17.3678H64.5232V23.8752H62.8964V17.3678Z" fill="#676767"/>
<path d="M65.8359 22.1722L67.4124 21.8445C67.5259 22.4749 68.0556 22.765 68.85 22.765C69.5312 22.765 69.9095 22.5507 69.9095 22.1093C69.9095 21.63 69.4807 21.4913 68.8753 21.3778L68.0178 21.2264C67.0214 21.0499 65.9368 20.6716 65.9368 19.2717C65.9368 17.9476 66.9205 17.2539 68.5476 17.2539C70.0608 17.2539 71.095 17.8592 71.3221 19.0826L69.7708 19.4104C69.7077 18.7925 69.2411 18.4899 68.4845 18.4899C67.816 18.4899 67.4755 18.742 67.4755 19.1583C67.4755 19.6374 67.8791 19.8014 68.4845 19.9148L69.506 20.1041C70.4896 20.2806 71.4733 20.6463 71.4733 21.9454C71.4733 23.3451 70.3384 24.0135 68.8122 24.0135C67.425 24.0135 66.1261 23.4838 65.8359 22.1722Z" fill="#676767"/>
<path d="M73.1497 22.0214V18.7929H72.0273V17.3677H73.1497V15.8797L74.7768 15.4258V17.3677H76.0884V18.7929H74.7768V21.7565C74.7768 22.2484 74.9407 22.4502 75.4452 22.4502H76.2271V23.8752H75.0038C73.7678 23.8752 73.1497 23.2699 73.1497 22.0214Z" fill="#676767"/>
<path d="M77.0977 20.7094C77.0977 18.742 78.1697 17.2539 80.2379 17.2539C82.3567 17.2539 83.2144 18.7798 83.2144 20.6589V21.0751H78.6867C78.7876 22.1597 79.3173 22.7019 80.301 22.7019C81.0325 22.7019 81.4739 22.4245 81.6757 21.8695L83.2017 22.1975C82.7981 23.3829 81.7641 24.0135 80.2757 24.0135C78.3715 24.0135 77.0977 22.8281 77.0977 20.7094ZM81.6252 19.9779C81.5748 19.0574 81.1334 18.5655 80.2379 18.5655C79.3424 18.5655 78.8759 19.0574 78.7245 19.9779H81.6252Z" fill="#676767"/>
<path d="M84.5742 17.3676H86.138V18.5279C86.3523 17.7839 86.9073 17.292 87.7397 17.292H88.3073V18.8811H87.727C86.6172 18.8811 86.1885 19.5368 86.1885 20.6719V23.8751H84.5742V17.3676Z" fill="#676767"/>
<path d="M89.3945 14.833H91.0719V16.485H89.3945V14.833ZM89.4198 17.3678H91.0468V23.8752H89.4198V17.3678Z" fill="#676767"/>
<path d="M92.7227 21.6686V17.3682H94.337V21.4037C94.337 22.2108 94.7658 22.6144 95.4468 22.6144C96.2539 22.6144 96.7837 21.9587 96.7837 20.9373V17.3682H98.4105V23.8756H96.8844V22.7659C96.5439 23.6108 95.8251 24.0143 94.8918 24.0143C93.492 24.0143 92.7227 23.1441 92.7227 21.6686Z" fill="#676767"/>
<path d="M100.188 17.3673H101.764V18.3259C102.092 17.6197 102.76 17.2539 103.555 17.2539C104.349 17.2539 105.068 17.6197 105.295 18.452C105.674 17.6197 106.443 17.2539 107.376 17.2539C108.524 17.2539 109.445 17.9727 109.445 19.36V23.8748H107.83V19.7383C107.83 19.0321 107.452 18.6916 106.847 18.6916C106.166 18.6916 105.636 19.1583 105.636 20.0788V23.8748H104.009V19.7383C104.009 19.0321 103.631 18.6916 103.025 18.6916C102.357 18.6916 101.815 19.1583 101.815 20.0788V23.8748H100.188V17.3673Z" fill="#676767"/>
<path d="M114.539 18.7925H113.555V17.3674H114.539V16.8126C114.539 15.4885 115.169 14.9082 116.304 14.9082H117.527V16.2703H116.745C116.304 16.2703 116.165 16.4468 116.165 16.8882V17.3674H117.376V18.7925H116.165V23.8748H114.539V18.7925Z" fill="#676767"/>
<path d="M118.512 21.6677V17.3673H120.126V21.4029C120.126 22.21 120.555 22.6135 121.236 22.6135C122.043 22.6135 122.573 21.9578 122.573 20.9364V17.3673H124.2V23.8748H122.674V22.765C122.333 23.6099 121.614 24.0135 120.681 24.0135C119.281 24.0135 118.512 23.1432 118.512 21.6677ZM119.458 15.0596H120.858V16.5098H119.458V15.0596ZM121.879 15.0596H123.279V16.5098H121.879V15.0596Z" fill="#676767"/>
<path d="M125.992 17.3676H127.556V18.5279C127.77 17.7839 128.325 17.292 129.158 17.292H129.725V18.8811H129.145C128.035 18.8811 127.606 19.5368 127.606 20.6719V23.8751H125.992V17.3676Z" fill="#676767"/>
<path d="M132.902 15.0479H134.63L136.181 21.656L137.846 15.0479H139.763L141.428 21.656L142.979 15.0479H144.707L142.462 23.8755H140.545L138.805 17.3681L137.064 23.8755H135.147L132.902 15.0479H132.902Z" fill="#676767"/>
<path d="M145.816 14.833H147.494V16.485H145.816V14.833ZM145.842 17.3678H147.469V23.8752H145.842V17.3678Z" fill="#676767"/>
<path d="M148.781 22.1722L150.358 21.8445C150.471 22.4749 151.001 22.765 151.796 22.765C152.477 22.765 152.855 22.5507 152.855 22.1093C152.855 21.63 152.426 21.4913 151.821 21.3778L150.963 21.2264C149.967 21.0499 148.882 20.6716 148.882 19.2717C148.882 17.9476 149.866 17.2539 151.493 17.2539C153.006 17.2539 154.04 17.8592 154.267 19.0826L152.716 19.4104C152.653 18.7925 152.186 18.4899 151.43 18.4899C150.761 18.4899 150.421 18.742 150.421 19.1583C150.421 19.6374 150.824 19.8014 151.43 19.9148L152.451 20.1041C153.435 20.2806 154.419 20.6463 154.419 21.9454C154.419 23.3451 153.284 24.0135 151.758 24.0135C150.37 24.0135 149.071 23.4838 148.781 22.1722Z" fill="#676767"/>
<path d="M155.301 22.1722L156.877 21.8445C156.991 22.4749 157.52 22.765 158.315 22.765C158.996 22.765 159.374 22.5507 159.374 22.1093C159.374 21.63 158.946 21.4913 158.34 21.3778L157.483 21.2264C156.486 21.0499 155.402 20.6716 155.402 19.2717C155.402 17.9476 156.385 17.2539 158.012 17.2539C159.526 17.2539 160.56 17.8592 160.787 19.0826L159.236 19.4104C159.173 18.7925 158.706 18.4899 157.949 18.4899C157.281 18.4899 156.94 18.742 156.94 19.1583C156.94 19.6374 157.344 19.8014 157.949 19.9148L158.971 20.1041C159.954 20.2806 160.938 20.6463 160.938 21.9454C160.938 23.3451 159.803 24.0135 158.277 24.0135C156.89 24.0135 155.591 23.4838 155.301 22.1722Z" fill="#676767"/>
<path d="M161.82 20.7094C161.82 18.742 162.892 17.2539 164.961 17.2539C167.079 17.2539 167.937 18.7798 167.937 20.6589V21.0751H163.409C163.51 22.1597 164.04 22.7019 165.024 22.7019C165.755 22.7019 166.197 22.4245 166.398 21.8695L167.924 22.1975C167.521 23.3829 166.487 24.0135 164.998 24.0135C163.094 24.0135 161.82 22.8281 161.82 20.7094ZM166.348 19.9779C166.297 19.0574 165.856 18.5655 164.961 18.5655C164.065 18.5655 163.599 19.0574 163.447 19.9779H166.348Z" fill="#676767"/>
<path d="M169.301 17.3673H170.865V18.389C171.23 17.6449 171.962 17.2539 172.946 17.2539C174.396 17.2539 175.115 18.1241 175.115 19.5996V23.8748H173.488V19.8897C173.488 19.0952 173.034 18.6916 172.353 18.6916C171.508 18.6916 170.915 19.2717 170.915 20.3436V23.8748H169.301V17.3673Z" fill="#676767"/>
<path d="M176.414 22.1722L177.991 21.8445C178.104 22.4749 178.634 22.765 179.428 22.765C180.109 22.765 180.488 22.5507 180.488 22.1093C180.488 21.63 180.059 21.4913 179.453 21.3778L178.596 21.2264C177.6 21.0499 176.515 20.6716 176.515 19.2717C176.515 17.9476 177.499 17.2539 179.125 17.2539C180.639 17.2539 181.673 17.8592 181.9 19.0826L180.349 19.4104C180.286 18.7925 179.819 18.4899 179.063 18.4899C178.394 18.4899 178.054 18.742 178.054 19.1583C178.054 19.6374 178.457 19.8014 179.063 19.9148L180.084 20.1041C181.068 20.2806 182.052 20.6463 182.052 21.9454C182.052 23.3451 180.916 24.0135 179.39 24.0135C178.003 24.0135 176.704 23.4838 176.414 22.1722Z" fill="#676767"/>
<path d="M182.934 20.6969C182.934 18.7672 183.955 17.2539 186.124 17.2539C187.713 17.2539 188.722 18.061 188.937 19.4104L187.322 19.7383C187.272 19.0321 186.831 18.6538 186.112 18.6538C184.977 18.6538 184.586 19.4987 184.586 20.6463C184.586 21.8317 185.002 22.601 186.087 22.601C186.831 22.601 187.259 22.248 187.322 21.504L188.937 21.8445C188.71 23.1938 187.625 24.0135 186.024 24.0135C183.867 24.0135 182.934 22.5254 182.934 20.6969Z" fill="#676767"/>
<path d="M190.324 14.9082H191.939V18.3006C192.317 17.6197 193.023 17.2539 193.969 17.2539C195.419 17.2539 196.138 18.1241 196.138 19.5996V23.8748H194.511V19.8898C194.511 19.0952 194.057 18.6916 193.376 18.6916C192.531 18.6916 191.939 19.2717 191.939 20.3437V23.8748H190.324V14.9082Z" fill="#676767"/>
<path d="M197.461 22.0841C197.461 20.6589 198.583 20.2933 199.529 20.1544L200.841 19.9779C201.333 19.9023 201.661 19.7887 201.661 19.2844C201.661 18.7547 201.295 18.5024 200.576 18.5024C199.681 18.5024 199.29 18.8556 199.176 19.4482L197.65 19.1205C197.965 17.834 199.063 17.2539 200.664 17.2539C202.43 17.2539 203.288 17.9601 203.288 19.4231V23.8748H201.774V22.765C201.383 23.5343 200.639 24.0135 199.58 24.0135C198.344 24.0135 197.461 23.3325 197.461 22.0841ZM200.046 22.6767C201.005 22.6767 201.661 22.0841 201.661 21.1633V20.8103C201.421 20.8987 201.169 20.9615 200.803 21.0121L200.071 21.1255C199.605 21.1886 199.088 21.34 199.088 21.9201C199.088 22.4245 199.441 22.6767 200.046 22.6767Z" fill="#676767"/>
<path d="M205.382 18.7925H204.398V17.3674H205.382V16.8126C205.382 15.4885 206.013 14.9082 207.148 14.9082H208.371V16.2703H207.589C207.148 16.2703 207.009 16.4468 207.009 16.8882V17.3674H208.22V18.7925H207.009V23.8748H205.382V18.7925Z" fill="#676767"/>
<path d="M209.935 22.0214V18.7929H208.812V17.3677H209.935V15.8797L211.562 15.4258V17.3677H212.874V18.7929H211.562V21.7565C211.562 22.2484 211.726 22.4502 212.23 22.4502H213.012V23.8752H211.789C210.553 23.8752 209.935 23.2699 209.935 22.0214Z" fill="#676767"/>
<path d="M215.017 23.7623H214.172V22.085H216.001V23.6361C216.001 25.3134 214.966 25.9313 213.932 26.0827L213.73 25.2125C214.702 25.0233 214.992 24.5566 215.017 23.7623Z" fill="#676767"/>
<path d="M41.0625 28.6123H46.7882V30.176H42.7272V32.2694H46.3721V33.8333H42.7272V37.44H41.0625V28.6123L41.0625 28.6123Z" fill="#676767"/>
<path d="M47.3711 34.1992C47.3711 32.1056 48.6196 30.8193 50.5492 30.8193C52.4914 30.8193 53.7274 32.1056 53.7274 34.1992C53.7274 36.2928 52.4914 37.5789 50.5492 37.5789C48.6196 37.5789 47.3711 36.2926 47.3711 34.1992ZM50.5491 36.053C51.4699 36.053 52.0878 35.473 52.0878 34.1992C52.0878 32.9255 51.4699 32.3452 50.5491 32.3452C49.6284 32.3452 49.0232 32.9255 49.0232 34.1992C49.0232 35.473 49.6411 36.053 50.5491 36.053Z" fill="#676767"/>
<path d="M55.1016 30.933H56.6653V32.0934C56.8797 31.3493 57.4347 30.8574 58.2671 30.8574H58.8346V32.4466H58.2544C57.1445 32.4466 56.7159 33.1023 56.7159 34.2373V37.4405H55.1016V30.933Z" fill="#676767"/>
<path d="M59.5664 35.7377L61.1429 35.4099C61.2563 36.0403 61.7861 36.3304 62.5807 36.3304C63.2617 36.3304 63.64 36.1161 63.64 35.6748C63.64 35.1954 63.2111 35.0567 62.6058 34.9433L61.7483 34.7918C60.7519 34.6153 59.6673 34.237 59.6673 32.8371C59.6673 31.513 60.651 30.8193 62.2778 30.8193C63.7914 30.8193 64.8255 31.4247 65.0525 32.6481L63.5013 32.9758C63.4382 32.3579 62.9715 32.0553 62.2149 32.0553C61.5465 32.0553 61.206 32.3074 61.206 32.7237C61.206 33.2029 61.6096 33.3668 62.2149 33.4803L63.2364 33.6695C64.2201 33.846 65.2039 34.2118 65.2039 35.5108C65.2039 36.9105 64.0688 37.5789 62.5427 37.5789C61.1554 37.5789 59.8564 37.0492 59.5664 35.7377Z" fill="#676767"/>
<path d="M66.0859 34.2623C66.0859 32.3327 67.1074 30.8193 69.2768 30.8193C70.8658 30.8193 71.8747 31.6264 72.0891 32.9758L70.4747 33.3037C70.4244 32.5975 69.983 32.2192 69.264 32.2192C68.1291 32.2192 67.7381 33.0642 67.7381 34.2118C67.7381 35.3972 68.1542 36.1665 69.2389 36.1665C69.983 36.1665 70.4116 35.8134 70.4747 35.0694L72.0891 35.4099C71.8622 36.7592 70.7774 37.5789 69.1758 37.5789C67.0193 37.5789 66.0859 36.0909 66.0859 34.2623Z" fill="#676767"/>
<path d="M73.4766 28.4736H75.0909V31.8661C75.4692 31.1851 76.1755 30.8194 77.1213 30.8194C78.5716 30.8194 79.2906 31.6896 79.2906 33.1651V37.4402H77.6636V33.4552C77.6636 32.6606 77.2097 32.2571 76.5285 32.2571C75.6835 32.2571 75.0909 32.8371 75.0909 33.9091V37.4402H73.4766V28.4736Z" fill="#676767"/>
<path d="M80.9531 35.233V30.9326H82.5674V34.9682C82.5674 35.7753 82.9963 36.1789 83.6773 36.1789C84.4844 36.1789 85.0142 35.5232 85.0142 34.5018V30.9326H86.641V37.4401H85.1149V36.3303C84.7744 37.1752 84.0556 37.5788 83.1222 37.5788C81.7225 37.5788 80.9531 36.7085 80.9531 35.233Z" fill="#676767"/>
<path d="M88.4336 30.9328H89.9974V31.9544C90.3631 31.2104 91.0947 30.8193 92.0783 30.8193C93.5287 30.8193 94.2475 31.6895 94.2475 33.165V37.4402H92.6206V33.4552C92.6206 32.6606 92.1667 32.257 91.4855 32.257C90.6405 32.257 90.0479 32.8371 90.0479 33.9091V37.4402H88.4336V30.9328Z" fill="#676767"/>
<path d="M95.6459 37.995L97.2224 37.6545C97.3106 38.2726 97.7772 38.7265 98.7736 38.7265C99.7951 38.7265 100.4 38.2095 100.4 37.2259V36.1287C100.047 36.8223 99.3034 37.2259 98.3701 37.2259C96.8441 37.2259 95.5703 36.1917 95.5703 34.0731C95.5703 31.9166 96.8819 30.8193 98.4457 30.8193C99.4168 30.8193 100.073 31.2482 100.375 31.841V30.9328H101.977V37.0241C101.977 39.0797 100.527 40.0003 98.7609 40.0003C97.1719 40.0003 95.9739 39.294 95.6459 37.995ZM98.7736 35.8638C99.6186 35.8638 100.35 35.3341 100.35 34.0856C100.35 32.8877 99.6817 32.3074 98.7989 32.3074C97.9161 32.3074 97.2224 32.8624 97.2224 34.0983C97.2224 35.2963 97.9034 35.8638 98.7736 35.8638Z" fill="#676767"/>
<path d="M106.785 35.233V30.9326H108.399V34.9682C108.399 35.7753 108.828 36.1789 109.509 36.1789C110.316 36.1789 110.846 35.5232 110.846 34.5018V30.9326H112.473V37.4401H110.947V36.3303C110.606 37.1752 109.888 37.5788 108.954 37.5788C107.554 37.5788 106.785 36.7085 106.785 35.233Z" fill="#676767"/>
<path d="M114.262 30.9328H115.826V31.9544C116.191 31.2104 116.923 30.8193 117.906 30.8193C119.357 30.8193 120.076 31.6895 120.076 33.165V37.4402H118.449V33.4552C118.449 32.6606 117.995 32.257 117.314 32.257C116.469 32.257 115.876 32.8371 115.876 33.9091V37.4402H114.262V30.9328Z" fill="#676767"/>
<path d="M121.375 34.2118C121.375 32.194 122.434 30.8193 124.225 30.8193C125.133 30.8193 125.827 31.1851 126.18 31.8157V28.4736H127.794V37.4402H126.281V36.3682C126.016 37.0366 125.335 37.5789 124.225 37.5789C122.447 37.5789 121.375 36.2295 121.375 34.2118ZM124.591 36.1034C125.613 36.1034 126.18 35.3341 126.18 34.1487C126.18 33.0263 125.625 32.2949 124.591 32.2949C123.569 32.2949 123.027 33.0264 123.027 34.1865C123.027 35.3341 123.569 36.1034 124.591 36.1034Z" fill="#676767"/>
<path d="M132.852 28.6123H134.516V32.5468L138.048 28.6123H140.229L136.875 32.1685L140.242 37.44H138.237L135.714 33.3919L134.516 34.6782V37.44H132.852V28.6123H132.852Z" fill="#676767"/>
<path d="M140.949 35.233V30.9326H142.564V34.9682C142.564 35.7753 142.992 36.1789 143.673 36.1789C144.481 36.1789 145.01 35.5232 145.01 34.5018V30.9326H146.637V37.4401H145.111V36.3303C144.77 37.1752 144.052 37.5788 143.118 37.5788C141.719 37.5788 140.949 36.7085 140.949 35.233Z" fill="#676767"/>
<path d="M148.426 30.9328H149.99V31.9544C150.355 31.2104 151.087 30.8193 152.071 30.8193C153.521 30.8193 154.24 31.6895 154.24 33.165V37.4402H152.613V33.4552C152.613 32.6606 152.159 32.257 151.478 32.257C150.633 32.257 150.04 32.8371 150.04 33.9091V37.4402H148.426V30.9328Z" fill="#676767"/>
<path d="M155.539 35.7377L157.116 35.4099C157.229 36.0403 157.759 36.3304 158.553 36.3304C159.234 36.3304 159.613 36.1161 159.613 35.6748C159.613 35.1954 159.184 35.0567 158.578 34.9433L157.721 34.7918C156.725 34.6153 155.64 34.237 155.64 32.8371C155.64 31.513 156.624 30.8193 158.25 30.8193C159.764 30.8193 160.798 31.4247 161.025 32.6481L159.474 32.9758C159.411 32.3579 158.944 32.0553 158.188 32.0553C157.519 32.0553 157.179 32.3074 157.179 32.7237C157.179 33.2029 157.582 33.3668 158.188 33.4803L159.209 33.6695C160.193 33.846 161.177 34.2118 161.177 35.5108C161.177 36.9105 160.041 37.5789 158.515 37.5789C157.128 37.5789 155.829 37.0492 155.539 35.7377Z" fill="#676767"/>
<path d="M162.857 35.5868V32.3584H161.734V30.9332H162.857V29.4451L164.484 28.9912V30.9332H165.795V32.3584H164.484V35.3219C164.484 35.8138 164.648 36.0156 165.152 36.0156H165.934V37.4406H164.711C163.475 37.4406 162.857 36.8353 162.857 35.5868Z" fill="#676767"/>
<path d="M40.8594 1.47656H44.9202C46.522 1.47656 47.2788 2.54854 47.2788 3.64577C47.2788 4.50323 46.8374 5.36088 45.9419 5.65101C47.0139 5.95368 47.5562 6.83641 47.5562 7.78222C47.5562 9.09377 46.5598 10.3045 44.6934 10.3045H40.8594V1.47656ZM44.4159 5.04568C45.1851 5.04568 45.5761 4.5663 45.5761 3.98625C45.5761 3.44399 45.2231 3.02789 44.4916 3.02789H42.524V5.04568H44.4159ZM44.5166 8.74057C45.45 8.74057 45.8663 8.16052 45.8663 7.51736C45.8663 6.89949 45.4374 6.36978 44.5925 6.36978H42.524V8.74057H44.5166Z" fill="#676767"/>
<path d="M48.6016 8.51376C48.6016 7.08858 49.7239 6.72283 50.6698 6.58413L51.9814 6.40762C52.4733 6.332 52.8013 6.21857 52.8013 5.71395C52.8013 5.18442 52.4355 4.93209 51.7166 4.93209C50.8212 4.93209 50.4302 5.2853 50.3168 5.8779L48.7906 5.55015C49.106 4.26367 50.2031 3.68359 51.8049 3.68359C53.5705 3.68359 54.4282 4.38982 54.4282 5.8528V10.3045H52.9147V9.19469C52.5237 9.96399 51.7796 10.4432 50.7203 10.4432C49.4844 10.4432 48.6016 9.76224 48.6016 8.51376ZM51.187 9.10636C52.1454 9.10636 52.8013 8.51376 52.8013 7.59303V7.24C52.5615 7.32816 52.3094 7.39123 51.9436 7.44178L51.2121 7.55521C50.7454 7.61828 50.2284 7.76971 50.2284 8.34978C50.2284 8.85423 50.5816 9.10636 51.187 9.10636Z" fill="#676767"/>
<path d="M55.7656 7.07602C55.7656 5.05823 56.8249 3.6836 58.6159 3.6836C59.524 3.6836 60.2175 4.04935 60.5707 4.67995V1.33789H62.185V10.3045H60.6716V9.2325C60.4068 9.90091 59.7258 10.4432 58.6159 10.4432C56.8377 10.4432 55.7656 9.0938 55.7656 7.07602ZM58.9815 8.96765C60.0032 8.96765 60.5707 8.19835 60.5707 7.01294C60.5707 5.89061 60.0157 5.15913 58.9815 5.15913C57.96 5.15913 57.4177 5.89063 57.4177 7.05076C57.4177 8.19835 57.96 8.96765 58.9815 8.96765Z" fill="#676767"/>
<path d="M63.5742 7.13909C63.5742 5.17165 64.6462 3.68359 66.7145 3.68359C68.8332 3.68359 69.6909 5.20967 69.6909 7.08856V7.50484H65.1633C65.2642 8.58934 65.7939 9.1316 66.7776 9.1316C67.5091 9.1316 67.9505 8.85419 68.1523 8.29922L69.6782 8.62714C69.2746 9.81255 68.2406 10.4432 66.7523 10.4432C64.848 10.4432 63.5742 9.25775 63.5742 7.13909ZM68.1019 6.4076C68.0514 5.48707 67.61 4.99515 66.7145 4.99515C65.8189 4.99515 65.3525 5.48705 65.2011 6.4076H68.1019Z" fill="#676767"/>
<path d="M71.0781 3.79722H72.6419V4.81865C73.0077 4.07462 73.7392 3.68359 74.7229 3.68359C76.1732 3.68359 76.892 4.55379 76.892 6.02931V10.3045H75.2651V6.31924C75.2651 5.52485 74.8112 5.1213 74.13 5.1213C73.2851 5.1213 72.6924 5.70136 72.6924 6.77333V10.3045H71.0781V3.79722Z" fill="#676767"/>
<path d="M78.2148 5.23438H81.7083V6.68463H78.2148V5.23438Z" fill="#676767"/>
<path d="M82.125 1.47656H83.8527L85.404 8.08489L87.0688 1.47656H88.9858L90.6505 8.08489L92.2017 1.47656H93.9296L91.6847 10.3045H89.7677L88.0272 3.7972L86.2868 10.3045H84.3698L82.125 1.47656H82.125Z" fill="#676767"/>
<path d="M94.5742 8.09739V3.79717H96.1885V7.83273C96.1885 8.63984 96.6174 9.04341 97.2984 9.04341C98.1055 9.04341 98.6353 8.38754 98.6353 7.36611V3.79717H100.262V10.3044H98.736V9.19464C98.3955 10.0396 97.6767 10.4431 96.7433 10.4431C95.3436 10.4431 94.5742 9.5729 94.5742 8.09739ZM95.5201 1.48926H96.9199V2.93951H95.5201V1.48926ZM97.9415 1.48926H99.3413V2.93951H97.9415V1.48926Z" fill="#676767"/>
<path d="M101.75 3.79748H103.314V4.95761C103.528 4.21358 104.083 3.72168 104.916 3.72168H105.483V5.31064H104.903C103.793 5.31064 103.364 5.96651 103.364 7.10157V10.3048H101.75V3.79748Z" fill="#676767"/>
<path d="M107.224 8.45107V5.22261H106.102V3.79763H107.224V2.30937L108.851 1.85547V3.79763H110.163V5.22261H108.851V8.1862C108.851 8.6781 109.015 8.87988 109.519 8.87988H110.301V10.3049H109.078C107.842 10.3049 107.224 9.69955 107.224 8.45107Z" fill="#676767"/>
<path d="M112.013 8.45107V5.22261H110.891V3.79763H112.013V2.30937L113.64 1.85547V3.79763H114.952V5.22261H113.64V8.1862C113.64 8.6781 113.804 8.87988 114.308 8.87988H115.09V10.3049H113.867C112.631 10.3049 112.013 9.69955 112.013 8.45107Z" fill="#676767"/>
<path d="M115.961 7.13909C115.961 5.17165 117.033 3.68359 119.101 3.68359C121.22 3.68359 122.078 5.20967 122.078 7.08856V7.50484H117.55C117.651 8.58934 118.181 9.1316 119.164 9.1316C119.896 9.1316 120.337 8.85419 120.539 8.29922L122.065 8.62714C121.661 9.81255 120.627 10.4432 119.139 10.4432C117.235 10.4432 115.961 9.25775 115.961 7.13909ZM120.489 6.4076C120.438 5.48707 119.997 4.99515 119.101 4.99515C118.206 4.99515 117.739 5.48705 117.588 6.4076H120.489Z" fill="#676767"/>
<path d="M123.453 3.79722H125.03V4.75557C125.358 4.04934 126.026 3.68359 126.82 3.68359C127.615 3.68359 128.334 4.04934 128.561 4.88172C128.939 4.04934 129.709 3.68359 130.642 3.68359C131.79 3.68359 132.71 4.40254 132.71 5.78973V10.3045H131.096V6.16803C131.096 5.4618 130.718 5.12132 130.112 5.12132C129.431 5.12132 128.901 5.58795 128.901 6.5085V10.3045H127.275V6.16803C127.275 5.4618 126.896 5.12132 126.291 5.12132C125.622 5.12132 125.08 5.58795 125.08 6.5085V10.3045H123.453V3.79722Z" fill="#676767"/>
<path d="M135.787 9.28305V10.3045H134.273V1.33789H135.888V4.79338C136.228 4.12498 136.935 3.6836 137.893 3.6836C139.671 3.6836 140.693 5.05823 140.693 7.03822C140.693 9.06853 139.621 10.4432 137.843 10.4432C136.771 10.4432 136.052 9.9262 135.787 9.28305ZM137.477 8.96765C138.511 8.96765 139.041 8.21107 139.041 7.05076C139.041 5.89046 138.524 5.17168 137.502 5.17168C136.468 5.17168 135.888 5.90318 135.888 7.06349C135.888 8.23634 136.468 8.96765 137.477 8.96765Z" fill="#676767"/>
<path d="M141.652 7.13909C141.652 5.17165 142.724 3.68359 144.793 3.68359C146.911 3.68359 147.769 5.20967 147.769 7.08856V7.50484H143.241C143.342 8.58934 143.872 9.1316 144.856 9.1316C145.587 9.1316 146.029 8.85419 146.23 8.29922L147.756 8.62714C147.353 9.81255 146.319 10.4432 144.83 10.4432C142.926 10.4432 141.652 9.25775 141.652 7.13909ZM146.18 6.4076C146.129 5.48707 145.688 4.99515 144.793 4.99515C143.897 4.99515 143.431 5.48705 143.279 6.4076H146.18Z" fill="#676767"/>
<path d="M149.156 3.79748H150.72V4.95761C150.934 4.21358 151.489 3.72168 152.322 3.72168H152.889V5.31064H152.309C151.199 5.31064 150.771 5.96651 150.771 7.10157V10.3048H149.156V3.79748Z" fill="#676767"/>
<path d="M153.505 10.8594L155.082 10.5188C155.17 11.1368 155.637 11.5908 156.633 11.5908C157.654 11.5908 158.26 11.0738 158.26 10.0901V8.99291C157.907 9.68659 157.163 10.0901 156.229 10.0901C154.703 10.0901 153.43 9.05599 153.43 6.93731C153.43 4.78082 154.741 3.68359 156.305 3.68359C157.276 3.68359 157.932 4.11242 158.235 4.70502V3.79722H159.836V9.88837C159.836 11.944 158.386 12.8645 156.62 12.8645C155.031 12.8645 153.833 12.1583 153.505 10.8594ZM156.633 8.72806C157.478 8.72806 158.21 8.19832 158.21 6.94986C158.21 5.75192 157.541 5.17167 156.658 5.17167C155.775 5.17167 155.082 5.72665 155.082 6.9626C155.082 8.16054 155.763 8.72806 156.633 8.72806Z" fill="#676767"/>
<path d="M25.9535 31.9242C26.7587 31.7122 27.3477 30.8784 27.2818 29.9293C27.1994 28.7527 26.0854 27.5082 23.4433 28.0301C22.4818 28.2204 21.6946 28.5002 20.9392 28.8083C20.1463 29.1318 19.3886 29.4864 18.5011 29.8016C17.5873 30.1262 16.8203 30.2666 16.2238 30.2159C15.6872 30.1704 15.2885 29.9704 15.0448 29.6112C14.7132 29.114 15.1951 28.6127 15.399 28.4727C15.7706 28.2297 16.1052 27.8151 15.9075 27.1409C15.5513 27.2028 14.9259 27.4122 14.4282 27.8047C14.0165 28.1293 13.692 28.5792 13.6795 29.1747C13.7032 29.989 14.2663 30.6251 15.2033 30.8495C15.832 31 16.3335 31.0484 16.9262 30.9708C17.7768 30.8595 18.8155 30.4885 20.6881 29.7872C22.4379 29.1123 23.4217 28.8226 24.1754 28.7886C24.6484 28.7672 25.0308 28.8465 25.4552 28.9946C25.7206 29.0872 25.9124 29.2276 26.0401 29.3917C26.1919 29.5869 26.2529 29.8155 26.2387 30.0371C26.212 30.4528 25.9207 30.8435 25.4682 30.9411C25.3639 30.9636 25.2511 30.9705 25.1309 30.9586C24.9909 30.9452 24.8385 30.9164 24.6665 30.8845C24.1588 30.7893 23.4741 30.6615 22.4086 30.7789C21.7693 30.8493 20.9929 31.0079 20.0354 31.3148C18.0374 31.9551 16.5462 32.2115 15.3951 32.2557C13.7646 32.3182 12.8163 31.9547 12.0763 31.6524C12.0034 30.944 11.8327 30.3588 11.6236 29.8831C11.2843 29.1113 10.8434 28.6281 10.5536 28.3759C10.5536 28.3759 10.7214 28.2719 10.8048 27.6883C10.3878 27.6049 9.79889 27.8396 9.79889 27.8396C9.79889 27.8396 8.7054 27.1376 7.22685 27.3877C6.66263 27.4865 6.39395 27.6409 6.23948 27.8962C5.06466 28.3275 4.96889 28.4016 4.66936 28.5746C4.47469 28.6971 4.49123 28.8607 4.49123 28.9019C4.49123 28.9966 4.54063 29.0553 4.56219 29.081C4.59316 29.1171 4.62194 29.15 4.62194 29.2159C4.62507 29.5576 4.59525 29.5335 4.70022 29.8042C4.74658 29.9133 4.84947 29.9051 4.97306 29.8629C5.74839 29.5736 6.34358 29.7992 6.38159 30.3236C6.41199 30.7758 5.99045 31.1005 5.42728 31.1458C5.30168 31.1533 5.21448 31.1585 5.16574 31.1612C5.0731 31.1674 5.01127 31.1756 5.02162 31.2837C5.03359 31.3692 5.15691 31.6773 5.19035 31.7646C5.27509 32.003 5.32925 32.0364 5.52904 32.0436C5.90591 32.057 6.39395 31.9633 6.55042 31.9149C6.55042 31.9149 6.53398 32.3925 6.68323 33.0431C5.37768 32.5727 4.38101 32.4265 3.27526 32.4666C2.17074 32.5064 1.43685 32.7328 0.949939 33.006C0.088256 33.4893 0 34.1188 0 34.1188C0.0061678 34.1198 1.27059 34.4173 1.78845 34.2711C2.13959 34.1713 2.38052 33.8316 2.38052 33.8316C2.38052 33.8316 3.21504 34.0029 4.31262 34.5852C4.84939 34.8699 5.44905 35.253 6.04482 35.7624C6.06686 35.7812 7.44611 35.1531 7.51396 35.1282C7.68411 35.0656 7.81151 35.1792 7.84078 35.2346C7.88872 35.3253 7.90537 35.4955 7.77237 35.5842C7.64163 35.7015 6.71726 36.1096 5.82659 36.6356C5.24792 36.9784 4.61891 37.35 4.07834 37.6804C3.65414 37.6259 3.46985 37.6094 3.07139 37.6135C2.21986 37.6228 1.65972 38.3671 1.65972 38.9116H4.97203C5.10998 38.8615 6.49503 38.5788 7.89378 38.299C8.91061 38.0955 9.93466 37.8936 10.4918 37.7835C10.7417 37.7341 10.8963 37.7033 10.917 37.699C10.9913 37.6822 11.0918 37.6703 11.1826 37.5813C11.2281 37.5366 11.2712 37.4726 11.3073 37.3789C11.333 37.315 11.4504 36.9743 11.4504 36.9743L12.1752 36.9043C13.1426 36.8223 14.0004 36.6276 14.7703 36.3812C15.7598 36.0646 16.6043 35.6628 17.3501 35.3056C18.2582 34.8702 19.0078 34.511 19.6574 34.4821C19.553 35.1243 19.7039 35.6239 19.8061 36.1161C19.9036 36.5848 19.9569 37.0467 19.7038 37.6187C17.7856 37.6187 17.9967 38.9116 17.9967 38.9116H21.3234C21.3234 38.9116 21.5578 38.1465 22.0965 37.3034C22.3445 36.9152 22.6483 36.5103 23.039 36.1555C23.1204 36.0825 23.1132 36.0052 23.0668 35.9435C22.6446 35.4195 22.4312 34.3644 22.4312 34.3644C22.3952 34.2295 22.5581 34.14 22.6137 34.1307C22.6723 34.1205 22.8303 34.1193 22.8626 34.2713C22.8626 34.2713 22.9368 35.003 23.6297 35.6402C24.0682 36.0421 24.6004 36.359 25.1311 36.609C25.7693 36.9095 26.4056 37.1134 26.8751 37.2523C27.4114 37.4108 27.4712 37.5899 27.4712 37.6434C27.4589 37.6434 27.2673 37.6527 27.2365 37.6557C26.9647 37.6856 26.6527 37.7206 26.2892 38.0654C25.9175 38.4185 25.9958 38.9116 25.9958 38.9116H28.2846C28.5833 38.9116 28.6893 38.7355 28.7932 38.3989C28.8602 38.1828 29.1309 37.0855 29.1496 37.0103C29.2391 36.6768 29.1454 36.4997 29.03 36.3999C28.7676 36.1368 28.4486 35.9064 28.1544 35.722C27.6773 35.4229 27.2652 35.2449 27.2652 35.2449C27.2109 34.7355 26.9705 33.8817 26.634 33.1117C26.4355 32.6573 26.2003 32.2322 25.9535 31.9242ZM6.35241 28.3174C6.69746 28.1112 7.15082 28.0586 7.52371 28.1024C7.48333 28.7767 6.5367 28.9555 6.35241 28.3174ZM3.11649 29.7584C3.1298 29.7296 3.1449 29.7012 3.16171 29.6734C3.16447 29.6688 3.17815 29.6462 3.18185 29.6413C3.18887 29.6318 3.20416 29.6376 3.20512 29.6493C3.2185 29.9149 3.37091 30.3256 4.11221 30.4182C4.81343 30.5067 5.34062 30.3873 5.79055 30.2546C5.84101 30.376 5.8276 30.5675 5.59599 30.6529C5.38698 30.7167 4.81857 30.8825 3.93514 30.7888C3.1103 30.7012 2.92011 30.1833 3.11649 29.7584ZM25.9535 18.3538C26.7587 18.1417 27.3477 17.3079 27.2818 16.3588C27.1994 15.1822 26.0854 13.9377 23.4433 14.4596C22.4818 14.6499 21.6946 14.9297 20.9392 15.2379C20.1463 15.5613 19.3886 15.916 18.5011 16.2312C17.5873 16.5558 16.8203 16.6961 16.2238 16.6455C15.6872 16.6 15.2885 16.4 15.0448 16.0407C14.7132 15.5436 15.1951 15.0423 15.399 14.9023C15.7706 14.6593 16.1052 14.2447 15.9075 13.5704C15.5513 13.6324 14.9259 13.8417 14.4282 14.2342C14.0165 14.5588 13.692 15.0088 13.6795 15.6043C13.7032 16.4185 14.2663 17.0547 15.2033 17.2791C15.832 17.4296 16.3335 17.478 16.9262 17.4004C17.7768 17.289 18.8155 16.9181 20.6881 16.2168C22.4379 15.5419 23.4217 15.2522 24.1754 15.2181C24.6484 15.1968 25.0308 15.2761 25.4552 15.4241C25.7206 15.5167 25.9124 15.6571 26.0401 15.8212C26.1919 16.0164 26.2529 16.2451 26.2387 16.4667C26.212 16.8823 25.9207 17.273 25.4682 17.3707C25.3639 17.3932 25.2511 17.4001 25.1309 17.3882C24.9909 17.3748 24.8385 17.346 24.6665 17.3141C24.1588 17.2188 23.4741 17.0911 22.4086 17.2084C21.7693 17.2788 20.9929 17.4375 20.0354 17.7443C18.0374 18.3846 16.5462 18.6411 15.3951 18.6852C13.7646 18.7478 12.8163 18.3843 12.0763 18.082C12.0034 17.3736 11.8327 16.7883 11.6236 16.3127C11.2843 15.5408 10.8434 15.0577 10.5536 14.8055C10.5536 14.8055 10.7214 14.7015 10.8048 14.1178C10.3878 14.0345 9.79889 14.2692 9.79889 14.2692C9.79889 14.2692 8.7054 13.5671 7.22685 13.8173C6.66263 13.9161 6.39395 14.0705 6.23948 14.3258C5.06466 14.7571 4.96889 14.8312 4.66936 15.0041C4.47469 15.1266 4.49123 15.2903 4.49123 15.3315C4.49123 15.4262 4.54063 15.4849 4.56219 15.5106C4.59316 15.5466 4.62194 15.5796 4.62194 15.6454C4.62507 15.9872 4.59525 15.9631 4.70022 16.2338C4.74658 16.3429 4.84947 16.3347 4.97306 16.2925C5.74839 16.0032 6.34358 16.2288 6.38159 16.7532C6.41199 17.2054 5.99045 17.5301 5.42728 17.5753C5.30168 17.5829 5.21448 17.588 5.16574 17.5908C5.0731 17.5969 5.01127 17.6052 5.02162 17.7133C5.03359 17.7988 5.15691 18.1068 5.19035 18.1942C5.27509 18.4326 5.32925 18.4659 5.52904 18.4731C5.90591 18.4865 6.39395 18.3928 6.55042 18.3445C6.55042 18.3445 6.53398 18.8221 6.68323 19.4727C5.37768 19.0022 4.38101 18.8561 3.27526 18.8962C2.17074 18.936 1.43685 19.1624 0.949939 19.4355C0.088256 19.9188 0 20.5484 0 20.5484C0.0061678 20.5493 1.27059 20.8468 1.78845 20.7007C2.13959 20.6008 2.38052 20.2611 2.38052 20.2611C2.38052 20.2611 3.21504 20.4325 4.31262 21.0147C4.84939 21.2995 5.44905 21.6826 6.04482 22.1919C6.06686 22.2107 7.44611 21.5827 7.51396 21.5577C7.68411 21.4952 7.81151 21.6088 7.84078 21.6641C7.88872 21.7549 7.90537 21.9251 7.77237 22.0137C7.64163 22.1311 6.71726 22.5391 5.82659 23.0652C5.24792 23.408 4.61891 23.7796 4.07834 24.11C3.65414 24.0555 3.46985 24.039 3.07139 24.0431C2.21986 24.0524 1.65972 24.7966 1.65972 25.3411H4.97203C5.10998 25.291 6.49503 25.0084 7.89378 24.7286C8.91061 24.5251 9.93466 24.3232 10.4918 24.2131C10.7417 24.1637 10.8963 24.1328 10.917 24.1286C10.9913 24.1118 11.0918 24.0999 11.1826 24.0108C11.2281 23.9662 11.2712 23.9021 11.3073 23.8084C11.333 23.7446 11.4504 23.4039 11.4504 23.4039L12.1752 23.3339C13.1426 23.2519 14.0004 23.0571 14.7703 22.8108C15.7598 22.4942 16.6043 22.0924 17.3501 21.7352C18.2582 21.2998 19.0078 20.9405 19.6574 20.9117C19.553 21.5539 19.7039 22.0535 19.8061 22.5456C19.9036 23.0143 19.9569 23.4763 19.7038 24.0482C17.7856 24.0482 17.9967 25.3411 17.9967 25.3411H21.3234C21.3234 25.3411 21.5578 24.5761 22.0965 23.7329C22.3445 23.3448 22.6483 22.9399 23.039 22.5851C23.1204 22.512 23.1132 22.4348 23.0668 22.373C22.6446 21.8491 22.4312 20.794 22.4312 20.794C22.3952 20.6591 22.5581 20.5696 22.6137 20.5603C22.6723 20.55 22.8303 20.5489 22.8626 20.7009C22.8626 20.7009 22.9368 21.4326 23.6297 22.0698C24.0682 22.4717 24.6004 22.7886 25.1311 23.0385C25.7693 23.3391 26.4056 23.543 26.8751 23.6818C27.4114 23.8403 27.4712 24.0194 27.4712 24.0729C27.4589 24.0729 27.2673 24.0822 27.2365 24.0853C26.9647 24.1151 26.6527 24.1502 26.2892 24.495C25.9175 24.8481 25.9958 25.3411 25.9958 25.3411H28.2846C28.5833 25.3411 28.6893 25.1651 28.7932 24.8285C28.8602 24.6124 29.1309 23.5151 29.1496 23.4399C29.2391 23.1064 29.1454 22.9293 29.03 22.8295C28.7676 22.5664 28.4486 22.3359 28.1544 22.1515C27.6773 21.8525 27.2652 21.6745 27.2652 21.6745C27.2109 21.165 26.9705 20.3112 26.634 19.5413C26.4355 19.0869 26.2003 18.6617 25.9535 18.3538ZM6.35241 14.7469C6.69746 14.5408 7.15082 14.4882 7.52371 14.532C7.48333 15.2062 6.5367 15.385 6.35241 14.7469ZM3.11649 16.1879C3.1298 16.1591 3.1449 16.1307 3.16171 16.1029C3.16447 16.0983 3.17815 16.0758 3.18185 16.0708C3.18887 16.0614 3.20416 16.0672 3.20512 16.0788C3.2185 16.3444 3.37091 16.7551 4.11221 16.8478C4.81343 16.9363 5.34062 16.8169 5.79055 16.6841C5.84101 16.8056 5.8276 16.9971 5.59599 17.0825C5.38698 17.1463 4.81857 17.312 3.93514 17.2184C3.1103 17.1308 2.92011 16.6128 3.11649 16.1879ZM25.9535 4.78333C26.7587 4.57128 27.3477 3.73748 27.2818 2.78839C27.1994 1.6118 26.0854 0.367287 23.4433 0.88917C22.4818 1.07951 21.6946 1.3593 20.9392 1.66744C20.1463 1.99088 19.3886 2.34552 18.5011 2.66074C17.5873 2.98536 16.8203 3.12568 16.2238 3.07505C15.6872 3.02953 15.2885 2.82956 15.0448 2.47031C14.7132 1.97311 15.1951 1.47181 15.399 1.33181C15.7706 1.08887 16.1052 0.674242 15.9075 0C15.5513 0.0619668 14.9259 0.271273 14.4282 0.663775C14.0165 0.988395 13.692 1.43831 13.6795 2.03383C13.7032 2.84808 14.2663 3.48423 15.2033 3.70863C15.832 3.85912 16.3335 3.90753 16.9262 3.82994C17.7768 3.71857 18.8155 3.34763 20.6881 2.64632C22.4379 1.97146 23.4217 1.68172 24.1754 1.64768C24.6484 1.62631 25.0308 1.70565 25.4552 1.85369C25.7206 1.9463 25.9124 2.0867 26.0401 2.25079C26.1919 2.44597 26.2529 2.67465 26.2387 2.89621C26.212 3.31189 25.9207 3.70258 25.4682 3.80021C25.3639 3.82272 25.2511 3.82965 25.1309 3.81774C24.9909 3.80435 24.8385 3.77554 24.6665 3.74361C24.1588 3.6484 23.4741 3.52061 22.4086 3.63797C21.7693 3.70838 20.9929 3.86702 20.0354 4.1739C18.0374 4.81417 16.5462 5.07066 15.3951 5.1148C13.7646 5.17733 12.8163 4.81384 12.0763 4.51155C12.0034 3.80315 11.8327 3.21788 11.6236 2.74224C11.2843 1.97039 10.8434 1.48724 10.5536 1.23504C10.5536 1.23504 10.7214 1.13106 10.8048 0.54739C10.3878 0.464022 9.79889 0.698717 9.79889 0.698717C9.79889 0.698717 8.7054 -0.00332695 7.22685 0.246817C6.66263 0.345633 6.39395 0.500054 6.23948 0.755334C5.06466 1.18665 4.96889 1.26076 4.66936 1.4337C4.47469 1.55619 4.49123 1.71986 4.49123 1.76104C4.49123 1.85576 4.54063 1.91441 4.56219 1.94015C4.59316 1.97619 4.62194 2.00913 4.62194 2.075C4.62507 2.41676 4.59525 2.39262 4.70022 2.66335C4.74658 2.77246 4.84947 2.76423 4.97306 2.72203C5.74839 2.43276 6.34358 2.65837 6.38159 3.18276C6.41199 3.63495 5.99045 3.95961 5.42728 4.0049C5.30168 4.01245 5.21448 4.01759 5.16574 4.02033C5.0731 4.0265 5.01127 4.03473 5.02162 4.14283C5.03359 4.22835 5.15691 4.53638 5.19035 4.62374C5.27509 4.86211 5.32925 4.8955 5.52904 4.90269C5.90591 4.91608 6.39395 4.8224 6.55042 4.77401C6.55042 4.77401 6.53398 5.25165 6.68323 5.90222C5.37768 5.43178 4.38101 5.28562 3.27526 5.32576C2.17074 5.36553 1.43685 5.59196 0.949939 5.86508C0.088256 6.3484 0 6.97791 0 6.97791C0.0061678 6.9789 1.27059 7.2764 1.78845 7.13025C2.13959 7.03038 2.38052 6.69068 2.38052 6.69068C2.38052 6.69068 3.21504 6.86201 4.31262 7.44431C4.84939 7.72906 5.44905 8.11213 6.04482 8.62148C6.06686 8.6403 7.44611 8.01224 7.51396 7.9873C7.68411 7.92473 7.81151 8.03831 7.84078 8.0937C7.88872 8.18445 7.90537 8.35463 7.77237 8.44331C7.64163 8.56062 6.71726 8.96869 5.82659 9.49472C5.24792 9.83751 4.61891 10.2091 4.07834 10.5396C3.65414 10.485 3.46985 10.4685 3.07139 10.4727C2.21986 10.4819 1.65972 11.2262 1.65972 11.7707H4.97203C5.10998 11.7206 6.49503 11.4379 7.89378 11.1581C8.91061 10.9547 9.93466 10.7527 10.4918 10.6426C10.7417 10.5933 10.8963 10.5624 10.917 10.5581C10.9913 10.5414 11.0918 10.5294 11.1826 10.4404C11.2281 10.3958 11.2712 10.3317 11.3073 10.238C11.333 10.1741 11.4504 9.83342 11.4504 9.83342L12.1752 9.76344C13.1426 9.68145 14.0004 9.4867 14.7703 9.24033C15.7598 8.92375 16.6043 8.52195 17.3501 8.16476C18.2582 7.72933 19.0078 7.37008 19.6574 7.34125C19.553 7.98345 19.7039 8.48303 19.8061 8.97519C19.9036 9.4439 19.9569 9.90586 19.7038 10.4778C17.7856 10.4778 17.9967 11.7707 17.9967 11.7707H21.3234C21.3234 11.7707 21.5578 11.0056 22.0965 10.1625C22.3445 9.77434 22.6483 9.36944 23.039 9.01464C23.1204 8.94157 23.1132 8.86435 23.0668 8.8026C22.6446 8.27863 22.4312 7.22354 22.4312 7.22354C22.3952 7.08865 22.5581 6.99914 22.6137 6.98986C22.6723 6.97958 22.8303 6.97846 22.8626 7.13045C22.8626 7.13045 22.9368 7.86212 23.6297 8.49932C24.0682 8.90126 24.6004 9.21811 25.1311 9.46808C25.7693 9.76866 26.4056 9.97253 26.8751 10.1114C27.4114 10.2699 27.4712 10.449 27.4712 10.5025C27.4589 10.5025 27.2673 10.5118 27.2365 10.5149C26.9647 10.5447 26.6527 10.5797 26.2892 10.9245C25.9175 11.2776 25.9958 11.7707 25.9958 11.7707H28.2846C28.5833 11.7707 28.6893 11.5947 28.7932 11.2581C28.8602 11.0419 29.1309 9.94461 29.1496 9.86944C29.2391 9.53593 29.1454 9.35884 29.03 9.25903C28.7676 8.99591 28.4486 8.76547 28.1544 8.58107C27.6773 8.28206 27.2652 8.10405 27.2652 8.10405C27.2109 7.5946 26.9705 6.74078 26.634 5.97084C26.4355 5.51641 26.2003 5.09128 25.9535 4.78333ZM6.35241 1.17647C6.69746 0.97034 7.15082 0.917712 7.52371 0.961565C7.48333 1.63579 6.5367 1.81457 6.35241 1.17647ZM3.11649 2.61749C3.1298 2.58868 3.1449 2.56029 3.16171 2.53249C3.16447 2.52788 3.17815 2.50535 3.18185 2.50039C3.18887 2.49095 3.20416 2.49675 3.20512 2.50838C3.2185 2.77397 3.37091 3.18469 4.11221 3.27733C4.81343 3.36586 5.34062 3.24644 5.79055 3.11367C5.84101 3.23513 5.8276 3.42662 5.59599 3.51203C5.38698 3.57586 4.81857 3.74159 3.93514 3.64791C3.1103 3.56036 2.92011 3.04239 3.11649 2.61749Z" fill="#676767"/>
</svg>
